<svg xmlns="http://www.w3.org/2000/svg" width="80" height="80"><g fill="#3269B4" fill-rule="evenodd"><path d="M45.53 60.645l-20-10.666a1.001 1.001 0 0 1-.53-.883v-18c0-.37.203-.71.53-.883l20-10.666a1 1 0 0 1 1.47.882v39.334a1 1 0 0 1-1.47.882M14 45.095v-10a1 1 0 0 1 1-1h6v12h-6a1 1 0 0 1-1-1M48.003 14c-.369 0-.746.092-1.118.29L22.058 27.533A1.998 1.998 0 0 0 21 29.296v.8h-7a4 4 0 0 0-4 4v12a4 4 0 0 0 4 4h7v.8c0 .739.407 1.417 1.058 1.765L46.885 65.9c.372.199.75.29 1.118.29 1.585 0 2.997-1.706 2.997-4.003V18.004C51 15.707 49.588 14 48.003 14m13.995 46.096a2 2 0 0 1-1.597-3.201C64.063 52.019 66 46.21 66 40.095c0-6.113-1.937-11.922-5.599-16.798a2 2 0 1 1 3.198-2.402C67.786 26.469 70 33.109 70 40.095c0 6.988-2.214 13.628-6.401 19.202a1.996 1.996 0 0 1-1.601.799"/><path d="M55.998 54.39a2 2 0 0 1-1.617-3.174A18.845 18.845 0 0 0 58 40.096c0-4.008-1.252-7.852-3.619-11.12a2 2 0 1 1 3.238-2.348C60.485 30.583 62 35.24 62 40.096c0 4.856-1.515 9.513-4.381 13.468a1.999 1.999 0 0 1-1.621.826"/></g></svg>