<?xml version="1.0" encoding="UTF-8"?>
<svg width="80px" height="80px" viewBox="0 0 80 80" version="1.1" xmlns="http://www.w3.org/2000/svg" xmlns:xlink="http://www.w3.org/1999/xlink">
    <!-- Generator: Sketch 48.2 (47327) - http://www.bohemiancoding.com/sketch -->
    <title>addfiles</title>
    <desc>Created with Sketch.</desc>
    <defs>
        <linearGradient x1="50%" y1="0%" x2="50%" y2="100%" id="linearGradient-1">
            <stop stop-color="#5FBBEA" offset="0%"></stop>
            <stop stop-color="#0076BF" offset="100%"></stop>
        </linearGradient>
        <path d="M62.4561404,44.9122807 L62.4561404,38.5964912 L65.2631579,38.5964912 L65.2631579,44.9122807 L71.5789474,44.9122807 L71.5789474,47.7192982 L65.2631579,47.7192982 L65.2631579,54.0350877 L62.4561404,54.0350877 L62.4561404,47.7192982 L56.1403509,47.7192982 L56.1403509,44.9122807 L62.4561404,44.9122807 Z M67.3684211,30.5579013 C74.5953496,32.1599587 80,38.6067122 80,46.3157895 C80,54.0248667 74.5953496,60.4716202 67.3684211,62.0736777 L67.3684211,66.9824561 C67.3684211,70.2961646 64.6821296,72.9824561 61.3684211,72.9824561 L18.6315789,72.9824561 C15.3178704,72.9824561 12.6315789,70.2961646 12.6315789,66.9824561 L12.6315789,10.2105263 C12.6315789,6.89681782 15.3178704,4.21052632 18.6315789,4.21052632 L48.0410344,4.21052632 C49.6323334,4.21052632 51.1584568,4.84266736 52.2836751,5.96788563 L65.6110617,19.2952723 C66.73628,20.4204905 67.3684211,21.946614 67.3684211,23.537913 L67.3684211,30.5579013 Z M63.1578947,30.1904199 L63.1578947,23.8596491 C59.8751913,23.8596491 55.8985831,23.8596491 51.2280702,23.8596491 C49.869069,23.8728398 48.4210526,22.5067338 48.4210526,21.0494409 C48.4210526,16.3580509 48.4210526,12.1485882 48.4210526,8.42105263 L16.8421053,8.42105263 L16.8421053,68.7719298 L63.1578947,68.7719298 L63.1578947,62.441159 C54.5693921,62.0737511 47.7192982,54.9947328 47.7192982,46.3157895 C47.7192982,37.6368461 54.5693921,30.5578279 63.1578947,30.1904199 Z M51.9298246,10.5263158 L51.9298246,20.3508772 L61.754386,20.3508772 L51.9298246,10.5263158 Z M63.8596491,58.9473684 C70.8358775,58.9473684 76.4912281,53.2920179 76.4912281,46.3157895 C76.4912281,39.3395611 70.8358775,33.6842105 63.8596491,33.6842105 C56.8834207,33.6842105 51.2280702,39.3395611 51.2280702,46.3157895 C51.2280702,53.2920179 56.8834207,58.9473684 63.8596491,58.9473684 Z" id="path-2"></path>
        <linearGradient x1="50%" y1="-33.3334877%" x2="50%" y2="125.111767%" id="linearGradient-4">
            <stop stop-color="#5FBCEB" offset="0%"></stop>
            <stop stop-color="#0176BF" offset="100%"></stop>
        </linearGradient>
    </defs>
    <g id="画像を挿入アップロード中" stroke="none" stroke-width="1" fill="none" fill-rule="evenodd" transform="translate(-297.000000, -150.000000)">
        <g id="Group-3" transform="translate(297.000000, 150.000000)">
            <g id="-ico/addfiles" transform="translate(0.000000, 1.000000)">
                <mask id="mask-3" fill="white">
                    <use xlink:href="#path-2"></use>
                </mask>
                <use id="Mask" fill="url(#linearGradient-1)" fill-rule="evenodd" xlink:href="#path-2"></use>
                <g id="Colors/grad_Blue" mask="url(#mask-3)" fill="url(#linearGradient-4)" fill-rule="evenodd">
                    <rect id="Rectangle-28" x="0" y="0" width="80" height="80"></rect>
                </g>
            </g>
        </g>
    </g>
</svg>