<svg xmlns="http://www.w3.org/2000/svg" width="40" height="40" viewBox="0 0 40 40">
  <g fill="none" stroke="#0176BF" transform="translate(1 1)">
    <path d="M10.117 26.885C7.68 24.445 6.454 20.921 7.025 17.349L1.992 16C1.866 16.436 1.742 16.844 1.63 17.19L.147 21.76C-.26 23.012.207 24.76 1.187 25.642L4.757 28.858C5.245 29.3 5.871 29.901 6.484 30.515 7.097 31.128 7.698 31.753 8.139 32.243L11.355 35.813C12.235 36.791 13.985 37.26 15.237 36.853L19.807 35.373C20.154 35.26 20.562 35.137 20.999 35.011L19.651 29.981C18.166 30.218 16.611 30.159 15.063 29.745 13.121 29.225 11.441 28.215 10.116 26.885L10.117 26.885zM34.125 25.165C34.263 24.52 34.47 23.675 34.695 22.837 34.921 21.999 35.163 21.164 35.365 20.537L36.853 15.961C37.26 14.706 36.793 12.957 35.811 12.073L32.236 8.853C31.966 8.609 31.656 8.317 31.326 8.001L27.636 11.691C29.784 14.347 30.681 17.955 29.729 21.507 28.776 25.06 26.193 27.735 23.001 28.961L24.35 34C24.793 33.89 25.208 33.793 25.564 33.718L30.274 32.716C31.564 32.441 32.846 31.161 33.121 29.87L34.126 25.165M15.495 7.274C17.309 6.786 19.271 6.752 21.215 7.274 22.765 7.69 24.143 8.418 25.312 9.368L29 5.678C28.684 5.35 28.392 5.038 28.15 4.768L24.93 1.19C24.046.208 22.297-.26 21.04.147L16.465 1.632C15.838 1.836 15.005 2.077 14.165 2.302 13.325 2.527 12.483 2.735 11.837 2.872L7.132 3.875C5.842 4.15 4.562 5.432 4.286 6.725L3.282 11.435C3.207 11.789 3.11 12.205 3 12.648L8.04 14C9.333 10.613 12.16 8.17 15.495 7.274"/>
  </g>
</svg>
