<svg xmlns="http://www.w3.org/2000/svg" width="361" height="73" viewBox="0 0 361 73">
  <g fill="none" fill-rule="evenodd">
    <path fill="#0076BF" d="M19.926 38.815c-2.57-.69-4.79-2.025-6.545-3.782-3.222-3.23-4.843-7.89-4.087-12.615l-6.658-1.785c-.167.577-.33 1.117-.48 1.573l-1.96 6.046c-.54 1.658.08 3.97 1.375 5.137l4.72 4.254c.648.584 1.476 1.38 2.287 2.192.81.81 1.606 1.638 2.19 2.286l4.254 4.72c1.168 1.297 3.48 1.917 5.137 1.38l6.046-1.96c.457-.15.996-.312 1.575-.48l-1.783-6.654c-1.964.314-4.022.236-6.07-.313"/>
    <path fill="#5FBBEA" d="M43.62 33.324c.184-.853.458-1.967.755-3.075.297-1.11.617-2.212.886-3.04l1.964-6.047c.538-1.66-.082-3.97-1.376-5.137l-4.72-4.255c-.358-.32-.77-.707-1.2-1.123L35.05 15.52c2.84 3.51 4.024 8.277 2.765 12.97-1.257 4.694-4.67 8.228-8.882 9.846l1.784 6.66c.583-.146 1.132-.274 1.6-.373l6.218-1.323c1.705-.363 3.398-2.055 3.76-3.76l1.326-6.216z"/>
    <path fill="#004B9A" d="M19.932 10.6c2.396-.644 4.99-.69 7.56 0 2.045.55 3.867 1.51 5.412 2.766l4.872-4.87c-.417-.434-.803-.845-1.124-1.202L32.397 2.57C31.23 1.277 28.92.657 27.26 1.195l-6.046 1.96c-.828.27-1.93.588-3.04.885-1.107.296-2.22.57-3.075.752L8.882 6.115c-1.705.363-3.398 2.055-3.76 3.76L3.795 16.09c-.1.47-.228 1.02-.373 1.604l6.658 1.785c1.71-4.47 5.446-7.695 9.852-8.88"/>
    <path fill="#3F3A3A" d="M89.018 26.09h-3.403c-.746 0-1.338.41-1.636 1.147l-7.833 21.028-8.17-21.052c-.285-.714-.896-1.124-1.673-1.124h-3.352c-.88 0-1.494.612-1.494 1.49v33.537c0 .878.614 1.492 1.494 1.492h1.268c.88 0 1.493-.615 1.493-1.493v-28.35l8.03 20.627c.326.722.967 1.136 1.758 1.136h1.12c.89 0 1.56-.44 1.834-1.192l7.65-20.08v27.86c0 .877.614 1.49 1.492 1.49h1.422c.88 0 1.493-.613 1.493-1.49V27.58c0-.878-.613-1.49-1.492-1.49m27.23 28.073c-.396 1.682-.97 2.895-1.724 3.62-.212.212-.44.394-.676.54-.24.146-.536.274-.882.384-.35.112-.813.192-1.38.236-.614.05-1.392.074-2.31.074-.88 0-1.622-.024-2.204-.074-.53-.043-.966-.122-1.296-.233-.326-.106-.6-.233-.818-.373-.23-.148-.456-.335-.69-.57-.74-.71-1.313-1.922-1.707-3.604-.418-1.8-.632-3.903-.632-6.257 0-2.42.205-4.516.608-6.23.377-1.597.942-2.767 1.695-3.49.23-.232.468-.434.712-.605.19-.133.452-.246.78-.336.388-.104.877-.187 1.45-.25.59-.063 1.35-.097 2.258-.097.873 0 1.615.034 2.205.096.57.064 1.047.146 1.415.248.324.094.598.213.814.357.247.163.488.36.728.602.737.71 1.302 1.88 1.68 3.478.405 1.712.61 3.807.61 6.228 0 2.35-.214 4.453-.634 6.257m1.83-18.258c-.99-1.065-2.18-1.837-3.533-2.294-1.317-.444-3.006-.66-5.165-.66-2.12 0-3.79.206-5.106.63-1.364.443-2.56 1.23-3.553 2.336-1.054 1.167-1.847 2.814-2.357 4.896-.49 1.998-.74 4.35-.74 6.992 0 2.607.257 5.025.764 7.186.53 2.276 1.288 3.973 2.32 5.194.962 1.12 2.13 1.902 3.47 2.33 1.278.406 2.946.605 5.1.605 2.15 0 3.84-.2 5.165-.604 1.387-.423 2.597-1.202 3.616-2.338 1.01-1.2 1.79-2.945 2.314-5.188.506-2.164.764-4.58.764-7.186 0-2.64-.25-4.985-.74-6.97-.51-2.05-1.28-3.698-2.318-4.93m29.278-2.69h-1.292c-1.07 0-1.555.665-1.654 1.272-.406 1.61-.936 3.584-1.582 5.86-.655 2.304-1.333 4.643-2.038 7.016-.69 2.327-1.385 4.59-2.06 6.726-.458 1.437-.863 2.687-1.218 3.74-.347-1.034-.75-2.272-1.216-3.74-.67-2.116-1.367-4.36-2.088-6.733-.724-2.375-1.43-4.715-2.12-7.022-.675-2.26-1.225-4.244-1.633-5.873-.207-.92-.88-1.247-1.442-1.247h-1.55c-.862 0-1.465.603-1.465 1.466l.03.24c.142.575.407 1.503.787 2.76.38 1.258.83 2.724 1.346 4.397.518 1.67 1.066 3.46 1.654 5.37.585 1.918 1.174 3.784 1.76 5.596l1.628 5.035c.5 1.554.93 2.82 1.288 3.782.157.4.433.71.792.89l.447.104h3.048c.198 0 .398-.03.605-.09.245-.068.694-.277.952-.923.344-.928.782-2.18 1.302-3.72s1.064-3.218 1.635-5.033c.567-1.81 1.15-3.657 1.755-5.55.602-1.9 1.157-3.69 1.66-5.366.498-1.676.93-3.16 1.294-4.457.367-1.304.618-2.235.76-2.792l.028-.24c0-.864-.58-1.467-1.412-1.467m18.56 26.034c-.464.016-.907.024-1.335.024-1.526 0-2.804-.087-3.792-.263-.895-.16-1.603-.424-2.107-.79-.46-.338-.776-.778-.966-1.348-.22-.656-.33-1.5-.33-2.51 0-.965.083-1.792.25-2.455.14-.57.383-1.013.742-1.36.364-.35.9-.62 1.594-.796.78-.2 1.82-.3 3.086-.3h5.876v9.598c-.102.022-.262.053-.507.076-.338.032-.72.055-1.14.072l-1.37.05zm5.076-24.106c-.78-.774-1.794-1.346-3.017-1.696-1.15-.328-2.566-.495-4.208-.495-1.358 0-2.716.088-4.042.26-1.326.176-2.516.408-3.548.693-.7.2-1.097.835-1.01 1.61l.017.107.197.88c.11.7.66 1.166 1.378 1.166.065 0 .136-.003.208-.012l.13-.022c.772-.193 1.766-.367 2.955-.513 1.19-.148 2.407-.222 3.614-.222 1.152 0 2.093.107 2.795.314.615.185 1.085.474 1.436.888.364.43.626 1.018.777 1.75.172.83.26 1.864.26 3.077v2.365l-6.662.465c-1.933.143-3.444.41-4.616.814-1.245.428-2.224 1.046-2.91 1.832-.69.79-1.143 1.744-1.346 2.83-.18.972-.27 2.11-.27 3.382 0 1.49.18 2.778.535 3.823.388 1.14 1.078 2.08 2.055 2.79.924.674 2.137 1.168 3.61 1.465 1.397.282 3.165.427 5.253.427 1.342 0 2.66-.054 3.918-.158 1.288-.105 2.4-.287 3.282-.534.828-.207 1.1-.735 1.185-1.025.08-.26.12-.527.12-.793V42.216c0-1.566-.148-2.93-.44-4.06-.315-1.217-.872-2.232-1.653-3.015zm19.403 24.03c-.946 0-1.903-.05-2.847-.148-.864-.09-1.583-.192-2.115-.304V37.353c.52-.125 1.18-.228 1.964-.31.942-.096 2-.146 3.148-.146 1.595 0 2.9.2 3.877.59.922.368 1.63.938 2.165 1.74.564.846.966 1.974 1.195 3.353.244 1.46.367 3.252.367 5.326 0 2.062-.14 3.857-.416 5.332-.262 1.403-.698 2.56-1.294 3.44-.576.847-1.315 1.456-2.264 1.857-.99.42-2.262.634-3.78.634m9.623-22.58c-.957-1.263-2.233-2.2-3.792-2.79-1.493-.565-3.355-.852-5.53-.852-1.674 0-3.046.09-4.08.27-.505.087-.892.144-1.185.18v-8.612c0-.878-.614-1.492-1.493-1.492h-1.32c-.88 0-1.493.614-1.493 1.492V60.76c0 .257.088 1.116 1.288 1.472 1.13.24 2.387.45 3.74.624 1.357.174 2.768.262 4.188.262 2.365 0 4.364-.362 5.946-1.078 1.615-.736 2.905-1.798 3.834-3.163.903-1.326 1.543-2.954 1.907-4.84.35-1.815.526-3.877.526-6.13 0-2.56-.186-4.78-.553-6.6-.382-1.897-1.048-3.484-1.984-4.717m18.544 22.58h-1.98c-.68 0-1.062-.075-1.266-.138-.1-.03-.202-.082-.304-.274-.095-.185-.22-.554-.27-1.268-.05-.684-.076-1.62-.076-2.774v-29.93c0-.878-.612-1.492-1.49-1.492h-1.322c-.877 0-1.492.614-1.492 1.492v30.08c0 1.348.053 2.506.16 3.44.116 1.025.37 1.894.752 2.58.43.768 1.05 1.33 1.844 1.667.723.312 1.623.462 2.75.462.61 0 1.155-.028 1.617-.082.436-.053.83-.114 1.185-.183.77-.107 1.282-.697 1.282-1.48v-.812c0-.622-.436-1.29-1.39-1.29m17.53-22.372c1.354 0 2.47.173 3.316.513.8.324 1.413.775 1.868 1.38.463.62.788 1.404.962 2.335.19 1.02.29 2.207.29 3.527 0 .388-.01.66-.02.846h-13.503c.03-.982.134-1.957.305-2.906.198-1.098.56-2.09 1.07-2.95.49-.822 1.173-1.472 2.078-1.984.898-.505 2.12-.762 3.634-.762m8.794-.208c-.78-1.17-1.904-2.084-3.343-2.718-1.39-.61-3.223-.92-5.45-.92-2.255 0-4.147.397-5.62 1.18-1.485.79-2.686 1.897-3.57 3.29-.862 1.357-1.463 2.972-1.79 4.802-.314 1.757-.473 3.687-.473 5.736 0 1.976.15 3.877.446 5.65.31 1.86.95 3.516 1.91 4.915.978 1.428 2.348 2.565 4.076 3.383 1.703.805 3.956 1.213 6.696 1.213 2.8 0 5.306-.474 7.502-1.426.637-.317.974-.934.888-1.695l-.16-1.005c-.106-.54-.473-.94-.983-1.068-.122-.03-.25-.045-.374-.045-.225 0-.455.046-.71.15-.712.31-1.595.57-2.622.775-1.03.207-2.083.31-3.132.31-1.846 0-3.387-.21-4.58-.63-1.142-.4-2.02-.99-2.69-1.805-.677-.822-1.166-1.89-1.452-3.17-.27-1.208-.42-2.64-.453-4.265h15.423c.693 0 1.25-.192 1.66-.568.458-.425.646-1.15.646-2.502v-.762c0-1.735-.116-3.35-.344-4.803-.24-1.54-.745-2.894-1.5-4.025m58.45-3.13h-1.272c-.762 0-1.36.423-1.594 1.132l-.026.087c-.37 1.608-.876 3.53-1.51 5.715-.642 2.215-1.302 4.467-1.98 6.752-.67 2.256-1.34 4.427-1.998 6.455-.445 1.368-.847 2.58-1.2 3.62-.355-1.024-.76-2.236-1.226-3.628-.667-1.998-1.365-4.17-2.077-6.46-.712-2.286-1.406-4.537-2.083-6.755-.666-2.178-1.228-4.11-1.657-5.69-.2-.908-.862-1.23-1.416-1.23h-1.526c-.85 0-1.44.592-1.44 1.44l.024.225c.14.598.396 1.5.78 2.756.373 1.222.815 2.64 1.322 4.252.512 1.613 1.062 3.327 1.656 5.142.594 1.814 1.178 3.586 1.754 5.317.58 1.728 1.12 3.333 1.63 4.808.51 1.484.94 2.684 1.266 3.573.213.64.67 1.073 1.26 1.224-.424 1.103-.83 2.035-1.2 2.772-.395.772-.808 1.385-1.23 1.82-.383.395-.792.67-1.22.823-.47.164-1.06.248-1.757.248-.697 0-1.384-.047-2.022-.138-.097-.015-.18-.024-.258-.024-.682 0-1.194.515-1.194 1.196v1.322c0 .743.45 1.15.867 1.285.275.1.662.162 1.27.203.533.035 1.012.054 1.438.054 1.423 0 2.643-.227 3.632-.672 1.008-.455 1.915-1.207 2.693-2.235.725-.962 1.414-2.23 2.054-3.773.61-1.478 1.3-3.335 2.05-5.518.308-.885.69-2.024 1.15-3.42.452-1.37.935-2.848 1.474-4.5.525-1.61 1.06-3.272 1.603-4.986.544-1.715 1.044-3.328 1.504-4.84.454-1.492.85-2.862 1.177-4.067.332-1.225.546-2.098.654-2.67l.018-.18c0-.848-.572-1.44-1.39-1.44m16.295 25.204c-.84 0-1.722-.056-2.624-.17-.75-.092-1.394-.193-1.882-.288v-20.9c.495-.12 1.068-.216 1.708-.282.78-.082 1.756-.123 2.896-.123 1.632 0 3.006.152 4.085.448.99.272 1.755.732 2.34 1.402.595.68 1.026 1.633 1.278 2.83.273 1.305.412 3.007.412 5.06 0 2.174-.125 4.082-.372 5.667-.23 1.498-.652 2.74-1.254 3.69-.573.902-1.342 1.552-2.352 1.984-1.056.452-2.483.683-4.235.683m10.165-22.296c-.964-1.195-2.298-2.08-3.965-2.628-1.584-.522-3.637-.787-6.1-.787-1.428 0-2.78.088-4.024.264-1.203.168-2.416.375-3.603.61-.78.11-1.284.684-1.284 1.48V70.68c0 .88.613 1.493 1.49 1.493h1.323c.88 0 1.492-.613 1.492-1.492v-8.45c.543.082 1.132.157 1.756.224.978.103 1.886.157 2.697.157 2.424 0 4.475-.342 6.096-1.017 1.674-.695 3.02-1.75 4.006-3.13.96-1.35 1.64-3.053 2.02-5.065.365-1.93.55-4.206.55-6.762 0-2.255-.17-4.235-.503-5.886-.353-1.742-1.01-3.217-1.952-4.386m19.573.432c1.354 0 2.472.173 3.315.513.805.324 1.415.775 1.87 1.38.462.62.787 1.405.962 2.335.194 1.023.29 2.208.29 3.527 0 .39-.01.66-.02.846h-13.504c.03-.98.134-1.954.306-2.908.196-1.094.557-2.087 1.07-2.948.49-.822 1.17-1.472 2.078-1.984.896-.506 2.118-.762 3.633-.762m9.99 11.883c.46-.425.65-1.15.65-2.502v-.762c0-1.735-.117-3.35-.343-4.803-.244-1.54-.748-2.895-1.5-4.025-.783-1.17-1.907-2.084-3.345-2.718-1.39-.61-3.223-.92-5.45-.92-2.256 0-4.146.397-5.62 1.18-1.485.79-2.687 1.897-3.57 3.29-.862 1.353-1.463 2.97-1.79 4.802-.313 1.76-.472 3.692-.472 5.736 0 1.976.15 3.877.445 5.65.31 1.862.952 3.516 1.912 4.915.974 1.428 2.346 2.565 4.074 3.383 1.703.805 3.956 1.213 6.696 1.213 2.8 0 5.307-.474 7.503-1.427.638-.318.97-.935.886-1.694l-.16-1.005c-.105-.54-.472-.94-.983-1.068-.12-.03-.248-.045-.375-.045-.225 0-.453.046-.707.15-.712.31-1.594.57-2.62.775-1.032.207-2.086.31-3.137.31-1.844 0-3.384-.21-4.577-.63-1.143-.4-2.023-.99-2.69-1.805-.678-.822-1.167-1.89-1.454-3.17-.27-1.21-.422-2.642-.452-4.265h15.423c.693 0 1.25-.192 1.658-.568m-78.143-22.59h-21.465c-.87 0-1.478.607-1.478 1.476v1.108c0 .87.61 1.516 1.478 1.516h8.527v30.927c0 .878.616 1.492 1.492 1.492h1.424c.878 0 1.49-.615 1.49-1.493V30.19h8.53c.87 0 1.48-.646 1.48-1.516v-1.108c0-.87-.61-1.477-1.48-1.477"/>
  </g>
</svg>