<svg xmlns="http://www.w3.org/2000/svg" width="40" height="40" viewBox="0 0 40 40">
  <g fill="none" fill-rule="evenodd">
    <path fill="#FFFFFF" d="M12.117 27.885c-2.437-2.44-3.663-5.964-3.092-9.536L3.992 17c-.126.436-.25.844-.362 1.19l-1.483 4.57c-.407 1.252.06 3 1.04 3.882l3.57 3.216c.488.442 1.114 1.043 1.727 1.657.613.613 1.214 1.238 1.655 1.728l3.216 3.57c.88.978 2.63 1.447 3.882 1.04l4.57-1.48c.347-.113.755-.236 1.192-.362l-1.348-5.03c-1.485.237-3.04.178-4.588-.236-1.942-.52-3.622-1.53-4.947-2.86z"/>
    <path fill="#FFFFFF" d="M35.125 27.165c.138-.645.345-1.49.57-2.328.226-.838.468-1.673.67-2.3l1.488-4.576c.407-1.255-.06-3.004-1.042-3.888l-3.575-3.22c-.27-.244-.58-.536-.91-.852l-3.69 3.69c2.148 2.656 3.045 6.264 2.093 9.816-.953 3.553-3.536 6.228-6.728 7.454L25.35 36c.443-.11.858-.207 1.214-.282l4.71-1.002c1.29-.275 2.572-1.555 2.847-2.846l1.005-4.705"/>
    <path fill="#FFFFFF" d="M16.495 9.274c1.814-.488 3.776-.522 5.72 0 1.55.416 2.928 1.144 4.097 2.094L30 7.678c-.316-.328-.608-.64-.85-.91L25.93 3.19c-.884-.982-2.633-1.45-3.89-1.043l-4.575 1.485c-.627.204-1.46.445-2.3.67-.84.225-1.682.433-2.328.57L8.132 5.875c-1.29.275-2.57 1.557-2.846 2.85l-1.004 4.71c-.075.354-.172.77-.282 1.213L9.04 16c1.293-3.387 4.12-5.83 7.455-6.726"/>
  </g>
</svg>