<?xml version="1.0" encoding="utf-8"?><svg xmlns="http://www.w3.org/2000/svg" xmlns:xlink="http://www.w3.org/1999/xlink"><symbol viewBox="0 0 24 24" id="ic_add" xmlns="http://www.w3.org/2000/svg"><defs><path id="aaa" d="M11 11V7.5a.5.5 0 0 1 .5-.5h1a.5.5 0 0 1 .5.5V11h3.5a.5.5 0 0 1 .5.5v1a.5.5 0 0 1-.5.5H13v3.5a.5.5 0 0 1-.5.5h-1a.5.5 0 0 1-.5-.5V13H7.5a.5.5 0 0 1-.5-.5v-1a.5.5 0 0 1 .5-.5H11zm1-8a9 9 0 1 1-.002 18.002A9 9 0 0 1 12 3zm0 2c-3.86 0-7 3.141-7 7 0 3.86 3.14 7 7 7s7-3.14 7-7c0-3.859-3.14-7-7-7z"/></defs><use xlink:href="#aaa" fill-rule="evenodd"/></symbol><symbol viewBox="0 0 24 24" id="ic_addhtml" xmlns="http://www.w3.org/2000/svg"><path fill-rule="evenodd" d="M12.767 13.084l-2.211 2.211 2.233 2.233-.789.79-3-3 3-3 .767.766zm.884 4.538l2.327-2.327-2.305-2.305.673-.673 3 3-3 3-.695-.695zM8.091 2h9.916C19.107 2 20 2.898 20 3.99v16.02c0 1.099-.895 1.99-1.994 1.99H5.994A1.998 1.998 0 0 1 4 20V5.958L8.09 2zm.599 2l-.1 2.606H6V20h12V4H8.69z"/></symbol><symbol viewBox="0 0 24 24" id="ic_addpage" xmlns="http://www.w3.org/2000/svg"><path fill-rule="evenodd" d="M15.5 16v-2.5h-1V16H12v1h2.5v2.5h1V17H18v-1h-2.5zM8.09 2h9.917C19.107 2 20 2.898 20 3.99v16.02c0 1.099-.895 1.99-1.994 1.99H5.994A1.998 1.998 0 0 1 4 20V5.958L8.09 2zM9 4L6 7h3V4z"/></symbol><symbol viewBox="0 0 24 24" id="ic_aligncenter" xmlns="http://www.w3.org/2000/svg"><path fill-rule="evenodd" d="M11 13v-2H3.5a.493.493 0 0 1-.5-.49V7.49c0-.27.228-.49.5-.49H11V4.496c0-.274.214-.496.505-.496h.99c.279 0 .505.226.505.496V7h7.5c.276 0 .5.215.5.49v3.02c0 .27-.228.49-.5.49H13v2h2.5c.276 0 .5.215.5.49v3.02a.5.5 0 0 1-.5.49H13v2.504a.493.493 0 0 1-.505.496h-.99a.503.503 0 0 1-.505-.496V17H8.5a.493.493 0 0 1-.5-.49v-3.02a.5.5 0 0 1 .5-.49H11z"/></symbol><symbol viewBox="0 0 24 24" id="ic_alignleft" xmlns="http://www.w3.org/2000/svg"><defs><path id="aea" d="M8 6.49c0-.27.229-.49.5-.49h11c.276 0 .5.215.5.49v3.02c0 .27-.229.49-.5.49h-11a.493.493 0 0 1-.5-.49V6.49zM4 4.496C4 4.222 4.214 4 4.505 4h.99c.279 0 .505.226.505.496v15.008a.493.493 0 0 1-.505.496h-.99A.503.503 0 0 1 4 19.504V4.496zm4 9.994a.5.5 0 0 1 .5-.49h7c.276 0 .5.215.5.49v3.02a.5.5 0 0 1-.5.49h-7a.493.493 0 0 1-.5-.49v-3.02z"/></defs><use xlink:href="#aea" fill-rule="evenodd"/></symbol><symbol viewBox="0 0 24 24" id="ic_alignnone" xmlns="http://www.w3.org/2000/svg"><defs><path id="afa" d="M4 6.49c0-.27.226-.49.496-.49h15.008a.49.49 0 0 1 .496.49v3.02c0 .27-.226.49-.496.49H4.496A.49.49 0 0 1 4 9.51V6.49zm0 8a.5.5 0 0 1 .5-.49h7c.276 0 .5.215.5.49v3.02a.5.5 0 0 1-.5.49h-7a.493.493 0 0 1-.5-.49v-3.02z"/></defs><use xlink:href="#afa" fill-rule="evenodd"/></symbol><symbol viewBox="0 0 24 24" id="ic_alignright" xmlns="http://www.w3.org/2000/svg"><path fill-rule="evenodd" d="M4 6.49c0-.27.229-.49.5-.49h11c.276 0 .5.215.5.49v3.02c0 .27-.229.49-.5.49h-11a.493.493 0 0 1-.5-.49V6.49zm4 8a.5.5 0 0 1 .5-.49h7c.276 0 .5.215.5.49v3.02a.5.5 0 0 1-.5.49h-7a.493.493 0 0 1-.5-.49v-3.02zm10-9.994c0-.274.214-.496.505-.496h.99c.279 0 .505.226.505.496v15.008a.493.493 0 0 1-.505.496h-.99a.503.503 0 0 1-.505-.496V4.496z"/></symbol><symbol viewBox="0 0 24 24" id="ic_asset" xmlns="http://www.w3.org/2000/svg"><defs><path id="aha" d="M15.854 3.146A.498.498 0 0 0 15.5 3h-7a.498.498 0 0 0-.5.5v2a.5.5 0 0 0 1 0V4h6v1.5a.5.5 0 1 0 1 0v-2a.498.498 0 0 0-.146-.354zM4 7h16a2 2 0 0 1 2 2v10a2 2 0 0 1-2 2H4a2 2 0 0 1-2-2V9a2 2 0 0 1 2-2z"/></defs><use xlink:href="#aha" fill-rule="evenodd"/></symbol><symbol viewBox="0 0 24 24" id="ic_audio" xmlns="http://www.w3.org/2000/svg"><path fill-rule="evenodd" d="M19.895 3.744h-.008c-.04-.32-.328-.57-.683-.57a.72.72 0 0 0-.343.088l-.007-.01-6.82 3.667v.003L9.453 8.31H4.625v.013l-.012-.001c-.28 0-.508.212-.508.473v6.412c0 .26.228.473.508.473l.012-.002v.013h4.827l3.842 2.065v-.01l5.516 2.965a.726.726 0 0 0 .393.116c.382 0 .69-.288.69-.643 0-.025-.004-.048-.007-.072h.008V3.744z"/></symbol><symbol viewBox="0 0 24 24" id="ic_blank" xmlns="http://www.w3.org/2000/svg"/><symbol viewBox="0 0 24 24" id="ic_bold" xmlns="http://www.w3.org/2000/svg"><defs><path id="aka" d="M18.045 7.95c0-1.877-1.596-3.95-4.207-3.95H5.576C5.15 4 5 4.24 5 4.647v14.79c0 .406.204.563.63.563h8.485C17.227 20 19 17.937 19 15.658c0-2.306-1.446-3.943-2.96-4.27.9-.41 2.005-1.561 2.005-3.438zM12.72 7a1.48 1.48 0 0 1 1.496 1.5c0 .694-.52 1.5-1.496 1.5H8.2V7h4.52zM8.2 16.5v-3h5.57c.897 0 1.472.775 1.472 1.5 0 .948-.79 1.5-1.472 1.5H8.2z"/></defs><use xlink:href="#aka" fill-rule="evenodd"/></symbol><symbol viewBox="0 0 24 24" id="ic_box" xmlns="http://www.w3.org/2000/svg"><path d="M20 7.488V19a2 2 0 0 1-2 2H6a2 2 0 0 1-2-2V7.488a2 2 0 0 1 .225-.921l1.524-2.938A1 1 0 0 1 6.678 3h10.645a1 1 0 0 1 .928.629l1.524 2.938a2 2 0 0 1 .225.92zM9 10a1 1 0 0 0 0 2h6a1 1 0 0 0 0-2H9zm8.188-6H6.813a.2.2 0 0 0-.186.126l-.75 1.878C5.919 6 18.084 6 18.125 6.004l-.75-1.878A.2.2 0 0 0 17.187 4z"/></symbol><symbol viewBox="0 0 24 24" id="ic_build" xmlns="http://www.w3.org/2000/svg"><title>ico/build</title><path d="M20.854 8.854A.498.498 0 0 1 20.5 9h-4a.5.5 0 1 1 0-1h1.846A7.5 7.5 0 0 0 4.5 12c0 4.142 3.356 7.5 7.5 7.5a7.499 7.499 0 0 0 7.495-7.77c.265-.454.662-.694 1.192-.72.53-.024.963.14 1.301.495.008.164.012.33.012.495 0 5.523-4.477 10-10 10S2 17.523 2 12 6.477 2 12 2a9.985 9.985 0 0 1 8 3.999V4.5a.5.5 0 1 1 1 0v3.136a10.185 10.185 0 0 1 0 .005V8.5a.498.498 0 0 1-.146.354zM7.5 11h1a.5.5 0 0 1 .5.5v3a.5.5 0 0 1-.5.5h-1a.5.5 0 0 1-.5-.5v-3a.5.5 0 0 1 .5-.5zm3-1h1a.5.5 0 0 1 .5.5v4a.5.5 0 0 1-.5.5h-1a.5.5 0 0 1-.5-.5v-4a.5.5 0 0 1 .5-.5zm3-2h1a.5.5 0 0 1 .5.5v6a.5.5 0 0 1-.5.5h-1a.5.5 0 0 1-.5-.5v-6a.5.5 0 0 1 .5-.5z" fill-rule="evenodd"/></symbol><symbol viewBox="0 0 24 24" id="ic_category" xmlns="http://www.w3.org/2000/svg"><path fill-rule="evenodd" d="M7.5 10H13V8.5a.5.5 0 0 1 .5-.5h5a.5.5 0 0 1 .5.5v5a.5.5 0 0 1-.5.5h-5a.5.5 0 0 1-.5-.5v-2H7.5V17H13v-1.5a.5.5 0 0 1 .5-.5h5a.5.5 0 0 1 .5.5v5a.5.5 0 0 1-.5.5h-5a.5.5 0 0 1-.5-.5v-2H6.5A.5.5 0 0 1 6 18V8.5c0-.034.003-.068.01-.1H4.5a.5.5 0 0 1-.5-.5V3.5a.5.5 0 0 1 .5-.5h4.4a.5.5 0 0 1 .5.5v4.4a.5.5 0 0 1-.5.5H7.49c.007.032.01.066.01.1V10zm7.5 0v2h2v-2h-2zm0 7v2h2v-2h-2z"/></symbol><symbol viewBox="0 0 24 24" id="ic_caution" xmlns="http://www.w3.org/2000/svg"><path fill-rule="evenodd" d="M12 10.586L9.172 7.757 7.757 9.172 10.586 12l-2.829 2.828 1.415 1.415L12 13.414l2.828 2.829 1.415-1.415L13.414 12l2.829-2.828-1.415-1.415L12 10.586zM12 21a9 9 0 1 1 0-18 9 9 0 0 1 0 18z"/></symbol><symbol viewBox="0 0 24 24" id="ic_checkbox" xmlns="http://www.w3.org/2000/svg"><path fill-rule="evenodd" d="M16.278 3l-2 2H5v14h14v-7.408l2-2v9.413A1.995 1.995 0 0 1 19.005 21H4.995A1.995 1.995 0 0 1 3 19.005V4.995C3 3.893 3.893 3 4.995 3h11.283zm4.612 3.123a.377.377 0 0 1 0 .533l-9.538 9.538a.376.376 0 0 1-.266.11l-.012-.002-.013.003c-.1 0-.196-.04-.266-.11L7.11 12.51a.377.377 0 0 1 0-.533l2.013-2.012a.377.377 0 0 1 .533 0l1.417 1.416 7.272-7.272a.378.378 0 0 1 .532 0l2.013 2.013z"/></symbol><symbol viewBox="0 0 24 24" id="ic_code" xmlns="http://www.w3.org/2000/svg"><path fill-rule="evenodd" d="M15.4 15.49L16.91 17l5-5-5-5-1.473 1.474 3.49 3.49L15.4 15.49zM9.474 8.474L8 7l-5 5 5 5 1.51-1.51-3.526-3.527 3.49-3.49zM14.195 6l.927.375L10.627 17.5l-.927-.375L14.195 6z"/></symbol><symbol viewBox="0 0 24 24" id="ic_collapse" xmlns="http://www.w3.org/2000/svg"><path fill-rule="evenodd" d="M15.781 18.219l-3.49-3.49-3.526 3.526-1.51-1.51 5-5 5 5-1.474 1.474zm0-6l-3.49-3.49-3.526 3.526-1.51-1.51 5-5 5 5-1.474 1.474z"/></symbol><symbol viewBox="0 0 24 24" id="ic_comment" xmlns="http://www.w3.org/2000/svg"><path fill-rule="evenodd" d="M7 17h4a2 2 0 0 0 2-2v-1h1v-4a2 2 0 0 0-2-2H8v1h3a2 2 0 0 1 2 2v3h3l1.146 1.146a.5.5 0 0 0 .854-.353V14a2 2 0 0 0 2-2V7a2 2 0 0 0-2-2h-8a2 2 0 0 0-2 2v2H5a2 2 0 0 0-2 2v4a2 2 0 0 0 2 2v.793a.5.5 0 0 0 .854.353L7 17z"/></symbol><symbol viewBox="0 0 24 24" id="ic_contentdata" xmlns="http://www.w3.org/2000/svg"><path d="M4 4.51A.51.51 0 0 1 4.51 4h8.98a.51.51 0 0 1 .51.51v8.98a.51.51 0 0 1-.51.51H4.51a.51.51 0 0 1-.51-.51V4.51zm12 0c0-.282.215-.51.49-.51h3.02a.5.5 0 0 1 .49.51v8.98c0 .282-.215.51-.49.51h-3.02a.5.5 0 0 1-.49-.51V4.51zM4 16.49c0-.27.215-.49.49-.49h3.02c.27 0 .49.215.49.49v3.02c0 .27-.215.49-.49.49H4.49a.488.488 0 0 1-.49-.49v-3.02zm6 0c0-.27.215-.49.49-.49h3.02c.27 0 .49.215.49.49v3.02c0 .27-.215.49-.49.49h-3.02a.488.488 0 0 1-.49-.49v-3.02zm6 0c0-.27.215-.49.49-.49h3.02c.27 0 .49.215.49.49v3.02c0 .27-.215.49-.49.49h-3.02a.488.488 0 0 1-.49-.49v-3.02z"/></symbol><symbol viewBox="0 0 24 24" id="ic_contentstype" xmlns="http://www.w3.org/2000/svg"><defs><path id="aua" d="M3 4.995C3 3.893 3.893 3 4.995 3h14.01C20.107 3 21 3.893 21 4.995v14.01A1.995 1.995 0 0 1 19.005 21H4.995A1.995 1.995 0 0 1 3 19.005V4.995zM7 7h10v6H7V7zm0 8.5c0-.828.666-1.5 1.5-1.5.828 0 1.5.666 1.5 1.5 0 .828-.666 1.5-1.5 1.5-.828 0-1.5-.666-1.5-1.5zm4-1.5h6v3h-6v-3zm8 5V5H5v14h14z"/></defs><use xlink:href="#aua" fill-rule="evenodd"/></symbol><symbol viewBox="0 0 24 24" id="ic_customfield" xmlns="http://www.w3.org/2000/svg"><path fill-rule="evenodd" d="M7.931 13.885a4.971 4.971 0 0 1-1.63-.675l-.84.736-1.407-1.407.736-.84a4.971 4.971 0 0 1-.675-1.63L3 9.995v-1.99l1.115-.074c.128-.588.36-1.138.675-1.63l-.736-.84 1.407-1.407.84.736a4.971 4.971 0 0 1 1.63-.675L8.005 3h1.99l.074 1.115c.588.128 1.138.36 1.63.675l.84-.736 1.407 1.407-.736.84c.315.492.547 1.042.675 1.63L15 8.005v1.99l-1.115.074a4.971 4.971 0 0 1-.675 1.63l.736.84-1.407 1.407-.84-.736a4.971 4.971 0 0 1-1.63.675L9.995 15h-1.99l-.074-1.115zm6.976 5.732l-.583.603-1.137-.954.498-.686A3.483 3.483 0 0 1 13 16.585l-.959-.257.216-1.412 1.053.14a3.514 3.514 0 0 1 1.215-1.447l-.32-1.014 1.353-.457.42.9a3.528 3.528 0 0 1 2.08.328l.592-.611 1.137.954-.495.682c.425.56.684 1.254.706 2.006l.934.25-.216 1.412-1.019-.135c-.267.6-.7 1.112-1.238 1.476l.31.98-1.354.457-.407-.874a3.529 3.529 0 0 1-2.102-.346zM16.5 18a1.5 1.5 0 1 0 0-3 1.5 1.5 0 0 0 0 3zM9 11a2 2 0 1 0 0-4 2 2 0 0 0 0 4z"/></symbol><symbol viewBox="0 0 24 24" id="ic_design" xmlns="http://www.w3.org/2000/svg"><path fill-rule="evenodd" d="M20.728 6.648L17.97 3.889l.721-.722a.5.5 0 0 1 .708 0L21.45 5.22a.5.5 0 0 1 0 .707l-.722.722zm-.699.699L7.966 19.41l-2.918.157.16-2.915L17.27 4.588l2.758 2.759zm-7.545 9.34l2.494 2.494 3.449-3.448-1.584-1.584-.906.906-.91-.91 2.285-2.285 3.538 3.538a.5.5 0 0 1 0 .707l-5.5 5.5a.5.5 0 0 1-.707 0l-3.538-3.539 1.38-1.379zm-4.483-4.483l-1.379 1.38L2.77 9.732a.5.5 0 0 1 0-.707l5.5-5.5a.5.5 0 0 1 .707 0l3.852 3.852-2.496 2.496-1.158-1.158L10.292 7.6l-1.65-1.65-3.448 3.448 2.807 2.807z"/></symbol><symbol viewBox="0 0 24 24" id="ic_dot" xmlns="http://www.w3.org/2000/svg"><circle cx="12" cy="12" r="9" fill-rule="evenodd"/></symbol><symbol viewBox="0 0 24 24" id="ic_download" xmlns="http://www.w3.org/2000/svg"><path fill-rule="evenodd" d="M13 13.743V7.5a.5.5 0 0 0-.5-.5h-1a.5.5 0 0 0-.5.5v6.254l-2.232-2.232a.5.5 0 0 0-.707 0l-.707.707a.5.5 0 0 0 0 .707l4.242 4.243a.5.5 0 0 0 .506.123.498.498 0 0 0 .312-.145l4.243-4.243a.5.5 0 0 0 0-.707l-.707-.707a.5.5 0 0 0-.707 0L13 13.743zM12 21a9 9 0 1 1 0-18 9 9 0 0 1 0 18z"/></symbol><symbol viewBox="0 0 24 24" id="ic_draft" xmlns="http://www.w3.org/2000/svg"><defs><path id="aza" d="M9 3v-.51c0-.27.228-.49.491-.49h5.018c.271 0 .491.215.491.49V3h1.994A2 2 0 0 1 19 4.997v15.006A2.001 2.001 0 0 1 16.994 22H7.006A2 2 0 0 1 5 20.003V4.997C5 3.894 5.897 3 7.006 3H9zm0 2H7v15.2h10.2V5H15v.51c0 .27-.228.49-.491.49H9.491A.488.488 0 0 1 9 5.51V5zm0 9h6v1H9v-1zm0-4h6v1H9v-1zm0 2h6v1H9v-1z"/></defs><use xlink:href="#aza" fill-rule="evenodd"/></symbol><symbol viewBox="0 0 24 24" id="ic_duplicate" xmlns="http://www.w3.org/2000/svg"><defs><path id="baa" d="M16 5H6v11H4V5.003C4 3.897 4.902 3 6.009 3H16v2zM8 9.006C8 7.898 8.902 7 10.009 7h7.982C19.101 7 20 7.897 20 9.006v9.988A2.009 2.009 0 0 1 17.991 21H10.01A2.007 2.007 0 0 1 8 18.994V9.006zM10 9v10h8V9h-8z"/></defs><use xlink:href="#baa" fill-rule="evenodd"/></symbol><symbol viewBox="0 0 24 24" id="ic_edit" xmlns="http://www.w3.org/2000/svg"><path fill-rule="evenodd" d="M12.88 5l-2.468 2.4H5.4v11.2h11.2v-4.944l2.4-2.333v7.683A1.995 1.995 0 0 1 17.006 21H4.994A1.995 1.995 0 0 1 3 19.006V6.994C3 5.893 3.895 5 4.994 5h7.886zm9.559.294a.535.535 0 0 1-.038.72l-9.234 8.901-.006-.007.002.011-4.487 1.036v-.001a.452.452 0 0 1-.53-.129.533.533 0 0 1-.087-.525l1.446-4.716.03.01-.018-.021 9.234-8.901a.454.454 0 0 1 .672.035l3.016 3.587zM9.562 14.45l.86-2.8 1.831 2.179-2.69.621z"/></symbol><symbol viewBox="0 0 24 24" id="ic_eraser" xmlns="http://www.w3.org/2000/svg"><defs><path id="bca" d="M8.596 3.025h7a2 2 0 0 1 2 2v14.857a2 2 0 0 1-2 2h-7a2 2 0 0 1-2-2V5.025a2 2 0 0 1 2-2zm-.428 11v6.286h7.857v-6.286H8.168z"/></defs><use transform="rotate(45 12.096 12.454)" xlink:href="#bca" fill-rule="evenodd"/></symbol><symbol viewBox="0 0 24 24" id="ic_error" xmlns="http://www.w3.org/2000/svg"><path fill-rule="evenodd" d="M21.927 19.342l.002-.001-.034-.058c-.016-.031-.032-.062-.052-.09L12.755 3.45a.862.862 0 0 0-1.548.068L2.188 19.138l.009.005a.857.857 0 0 0-.198.544c0 .478.387.866.865.866h18.27a.865.865 0 0 0 .792-1.211zm-9.919-.424a1.24 1.24 0 0 1-1.254-1.237c0-.693.561-1.254 1.254-1.254.676 0 1.237.56 1.237 1.254 0 .693-.56 1.237-1.237 1.237zm1.237-10.94V14.807c0 .283-.229.505-.505.505H11.267a.506.506 0 0 1-.511-.505V7.997l-.002-.018c0-.27.209-.482.467-.502v-.003h1.516c.277.002.5.216.507.492h.001v.012z"/></symbol><symbol viewBox="0 0 24 24" id="ic_fav" xmlns="http://www.w3.org/2000/svg"><defs><path id="bea" d="M12 17l-5.878 3.09 1.123-6.545L2.489 8.91l6.572-.955L12 2l2.939 5.955 6.572.955-4.756 4.635 1.123 6.545z"/></defs><use xlink:href="#bea" fill-rule="evenodd"/></symbol><symbol viewBox="0 0 24 24" id="ic_feedback" xmlns="http://www.w3.org/2000/svg"><path d="M6 14.808h13V6.962H5v8.827l1-.98zm1 1.962l-3.15 3.09a.5.5 0 0 1-.85-.357V7a2 2 0 0 1 2-2h14a2 2 0 0 1 2 2v7.77a2 2 0 0 1-2 2H7zm9.364-7.802a.446.446 0 0 1 0 .642l-4.192 4.085a.469.469 0 0 1-.322.133h-.019a.469.469 0 0 1-.33-.133l-2.865-2.792a.443.443 0 0 1 .002-.643l.92-.896a.487.487 0 0 1 .658 0l1.62 1.58 2.948-2.874a.49.49 0 0 1 .66 0l.92.898z"/></symbol><symbol viewBox="0 0 24 24" id="ic_file" xmlns="http://www.w3.org/2000/svg"><path fill-rule="evenodd" d="M8.09 2h9.917C19.107 2 20 2.898 20 3.99v16.02c0 1.099-.895 1.99-1.994 1.99H5.994A1.998 1.998 0 0 1 4 20V5.958L8.09 2zm.6 2l-.1 2.606H6V20h12V4H8.69zM9 10h6v1H9v-1zm0 2h6v1H9v-1zm0 2h6v1H9v-1z"/></symbol><symbol viewBox="0 0 24 24" id="ic_filter" xmlns="http://www.w3.org/2000/svg"><defs><path id="bha" d="M14 14.222v6.112a.5.5 0 0 1-.65.478l-3-.94a.5.5 0 0 1-.35-.477v-5.173L3.168 8.15A.5.5 0 0 1 3 7.775V4.5a.5.5 0 0 1 .5-.5h17a.5.5 0 0 1 .5.5v3.275a.5.5 0 0 1-.168.374L14 14.222z"/></defs><use xlink:href="#bha" fill-rule="evenodd"/></symbol><symbol viewBox="0 0 24 24" id="ic_flag" xmlns="http://www.w3.org/2000/svg"><path fill-rule="evenodd" d="M3 3.508c0-.28.216-.508.495-.508h2.01c.273 0 .495.227.495.508v17.984c0 .28-.216.508-.495.508h-2.01A.501.501 0 0 1 3 21.492V3.508zm4-.007A.5.5 0 0 1 7.494 3h12.012c.273 0 .414.209.315.469L18.075 8.03c-.099.26-.1.678 0 .938l1.746 4.562c.099.26-.047.469-.315.469H7.494A.501.501 0 0 1 7 13.499V3.5z"/></symbol><symbol viewBox="0 0 24 24" id="ic_fullscreen" xmlns="http://www.w3.org/2000/svg"><defs><path id="bja" d="M3.923 15.095a.315.315 0 0 1 .534-.172l1.08 1.08 2.9-2.899a.315.315 0 0 1 .446 0l1.998 1.999a.315.315 0 0 1 0 .446l-2.9 2.9 1.08 1.079a.314.314 0 0 1-.17.534l-5.523.934a.315.315 0 0 1-.364-.362l.919-5.539zm16.154-6.19a.316.316 0 0 1-.534.172l-1.08-1.08-2.9 2.9a.315.315 0 0 1-.446 0L13.12 8.897a.316.316 0 0 1 0-.446l2.9-2.9-1.08-1.08a.315.315 0 0 1 .17-.534l5.523-.934a.315.315 0 0 1 .364.363l-.919 5.538z"/></defs><use xlink:href="#bja" fill-rule="evenodd"/></symbol><symbol viewBox="0 0 24 24" id="ic_gallery" xmlns="http://www.w3.org/2000/svg"><defs><path id="bka" d="M2 9.006C2 7.898 2.895 7 3.994 7h12.012A2 2 0 0 1 18 9.006v9.988A2.001 2.001 0 0 1 16.006 21H3.994A2 2 0 0 1 2 18.994V9.006zM16 19h-1.959a.364.364 0 0 0-.03-.083l.003-.002-4.098-7.417-.001.001a.553.553 0 0 0-.499-.328.555.555 0 0 0-.506.344L6.183 16.45l-.668-1.208a.292.292 0 0 0-.263-.173.293.293 0 0 0-.267.18L4 17.033V9h12v10zm-2.5-6a1.5 1.5 0 1 0 0-3 1.5 1.5 0 0 0 0 3zM7 4h12a2 2 0 0 1 2 2v11a2 2 0 0 1-2 2h-.001V7a1 1 0 0 0-1-1H5a2 2 0 0 1 2-2z"/></defs><use xlink:href="#bka" fill-rule="evenodd"/></symbol><symbol viewBox="0 0 24 24" id="ic_grid" xmlns="http://www.w3.org/2000/svg"><defs><path id="bla" d="M3 4.995C3 3.893 3.893 3 4.995 3h14.01C20.107 3 21 3.893 21 4.995v14.01A1.995 1.995 0 0 1 19.005 21H4.995A1.995 1.995 0 0 1 3 19.005V4.995zM19 19V5H5v14h14zM10.75 7h2.5v2.5h-2.5V7zM7 7h2.5v2.5H7V7zm7.5 0H17v2.5h-2.5V7zM7 10.75h2.5v2.5H7v-2.5zm3.75 0h2.5v2.5h-2.5v-2.5zm3.75 0H17v2.5h-2.5v-2.5zM7 14.5h2.5V17H7v-2.5zm3.75 0h2.5V17h-2.5v-2.5zm3.75 0H17V17h-2.5v-2.5z"/></defs><use xlink:href="#bla" fill-rule="evenodd"/></symbol><symbol viewBox="0 0 24 24" id="ic_header" xmlns="http://www.w3.org/2000/svg"><defs><path id="bma" d="M9 10.5v-6H6v15h3v-6h6v6h3v-15h-3v6H9z"/></defs><use xlink:href="#bma" fill-rule="evenodd"/></symbol><symbol viewBox="0 0 24 24" id="ic_hr" xmlns="http://www.w3.org/2000/svg"><path fill-rule="evenodd" d="M4 8v8.425h1.853V12.79h3.41v3.634h1.852V8H9.263v3.233h-3.41V8H4zm10.596 3.811h2.03c.424 0 .743-.094.955-.283.213-.189.319-.496.319-.92 0-.41-.106-.706-.319-.891-.212-.185-.53-.277-.956-.277h-2.03v2.371zM12.743 8h4.543c.378 0 .718.061 1.02.183.304.122.563.289.78.501.216.213.381.459.495.738.114.28.171.58.171.902 0 .496-.104.925-.312 1.287-.209.361-.55.637-1.021.826v.023a1.429 1.429 0 0 1 .932.75c.094.176.163.371.207.584.043.212.072.424.088.637.008.133.016.29.024.472.007.18.021.365.04.554.02.189.052.368.095.537.044.17.108.313.195.43h-1.853a3.266 3.266 0 0 1-.188-.955c-.024-.37-.06-.724-.106-1.062-.063-.44-.197-.763-.402-.967-.204-.205-.539-.307-1.003-.307h-1.852v3.292h-1.853V8z"/></symbol><symbol viewBox="0 0 24 24" id="ic_image" xmlns="http://www.w3.org/2000/svg"><path fill-rule="evenodd" d="M3 5.994C3 4.893 3.893 4 4.995 4h14.01C20.107 4 21 4.895 21 5.994v12.012A1.994 1.994 0 0 1 19.005 20H4.995A1.996 1.996 0 0 1 3 18.006V5.994zM19 18h-2.285a.445.445 0 0 0-.035-.1l.003-.002-4.78-8.9L11.9 9a.645.645 0 0 0-.582-.393.648.648 0 0 0-.59.412L7.546 14.94l-.78-1.45a.34.34 0 0 0-.307-.207.342.342 0 0 0-.311.217L5 15.639V6h14v12zm-3-7a2 2 0 1 0 0-4 2 2 0 0 0 0 4z"/></symbol><symbol viewBox="0 0 24 24" id="ic_info" xmlns="http://www.w3.org/2000/svg"><path fill-rule="evenodd" d="M12 3a9 9 0 1 0 0 18 9 9 0 0 0 0-18zm.918 14.006c0 .173-.14.313-.313.313h-1.21a.313.313 0 0 1-.313-.313v-5.812c0-.173.14-.313.313-.313h1.21c.173 0 .313.14.313.313v5.812zm-.925-7.422a1.095 1.095 0 0 1-1.085-1.099c0-.607.492-1.084 1.085-1.084.607 0 1.099.477 1.099 1.084 0 .607-.492 1.099-1.1 1.099z"/></symbol><symbol viewBox="0 0 24 24" id="ic_italic" xmlns="http://www.w3.org/2000/svg"><defs><path id="bqa" d="M12.435 16.33c.037-.124.073-.251.105-.38.005-.02.557-2.182 1.147-4.438 1.015-3.879 1.263-4.66 1.318-4.778.189-.396.495-.695.936-.916.38-.19.866-.315 1.444-.373a.653.653 0 0 0 .447-.267.822.822 0 0 0 .168-.486.688.688 0 0 0-.682-.692H9.585a.688.688 0 0 0-.682.692v.024c0 .341.24.628.572.682.44.073 1.043.172 1.515.4.243.115.432.257.557.418.143.181.213.392.213.642 0 .466-.135.934-.265 1.387l-.083.29c-.166.604-.412 1.52-.696 2.58-.655 2.44-1.47 5.477-1.675 6.055-.138.39-.65 1.311-2.413 1.448a.675.675 0 0 0-.447.219.693.693 0 0 0-.181.47v.001c0 .381.306.692.682.692h7.735c.376 0 .682-.31.682-.692v-.005a.687.687 0 0 0-.598-.685l-.202-.024c-.679-.08-1.523-.179-1.878-.647-.165-.217-.217-.504-.163-.872.035-.25.104-.49.177-.745"/></defs><use xlink:href="#bqa" fill-rule="evenodd"/></symbol><symbol viewBox="0 0 24 24" id="ic_link" xmlns="http://www.w3.org/2000/svg"><defs><path id="bra" d="M16.366 6.438l1.732 1a2 2 0 0 1 .732 2.732l-5 8.66a2 2 0 0 1-2.732.732l-1.732-1-1.5 2.598a1 1 0 1 1-1.732-1l1.5-2.598-1.732-1a2 2 0 0 1-.732-2.732l5-8.66a2 2 0 0 1 2.732-.732l1.732 1 1.5-2.598a1 1 0 0 1 1.732 1l-1.5 2.598zm-1 1.732l-.5.866a1 1 0 0 1-1.732-1l.5-.866-1.3-.75a.5.5 0 0 0-.682.183l-4.5 7.794a.5.5 0 0 0 .183.683l1.299.75.5-.866a1 1 0 0 1 1.732 1l-.5.866 1.3.75a.5.5 0 0 0 .682-.183l4.5-7.794a.5.5 0 0 0-.183-.683l-1.299-.75z"/></defs><use xlink:href="#bra" fill-rule="evenodd"/></symbol><symbol viewBox="0 0 24 24" id="ic_list" xmlns="http://www.w3.org/2000/svg"><defs><path id="bsa" d="M8 11.505c0-.279.229-.505.5-.505h11c.276 0 .5.214.5.505v.99a.506.506 0 0 1-.5.505h-11a.495.495 0 0 1-.5-.505v-.99zm0 6c0-.279.229-.505.5-.505h11c.276 0 .5.214.5.505v.99a.506.506 0 0 1-.5.505h-11a.495.495 0 0 1-.5-.505v-.99zm0-12C8 5.226 8.229 5 8.5 5h11c.276 0 .5.214.5.505v.99a.506.506 0 0 1-.5.505h-11a.495.495 0 0 1-.5-.505v-.99zM5 7a1 1 0 1 1 0-2 1 1 0 0 1 0 2zm0 6a1 1 0 1 1 0-2 1 1 0 0 1 0 2zm0 6a1 1 0 1 1 0-2 1 1 0 0 1 0 2z"/></defs><use xlink:href="#bsa" fill-rule="evenodd"/></symbol><symbol viewBox="0 0 24 24" id="ic_lock" xmlns="http://www.w3.org/2000/svg"><defs><path id="bta" d="M11 15.732V17.5a.5.5 0 0 0 .5.5h1a.5.5 0 0 0 .5-.5v-1.768a2 2 0 1 0-2 0zM18 9h1a2 2 0 0 1 2 2v8a2 2 0 0 1-2 2H5a2 2 0 0 1-2-2v-8a2 2 0 0 1 2-2h1V8a6 6 0 1 1 12 0v1zM8 9h8V8a4 4 0 1 0-8 0v1z"/></defs><use xlink:href="#bta" fill-rule="evenodd"/></symbol><symbol viewBox="0 0 24 24" id="ic_mail" xmlns="http://www.w3.org/2000/svg"><path fill-rule="evenodd" d="M4 5h16a2 2 0 0 1 2 2v10a2 2 0 0 1-2 2H4a2 2 0 0 1-2-2V7a2 2 0 0 1 2-2zM2 8v2l9.995 5L22 10V8l-10.03 5L2 8z"/></symbol><symbol viewBox="0 0 24 24" id="ic_member" xmlns="http://www.w3.org/2000/svg"><defs><path id="bva" d="M9.88 11.46l-2.557 1.16c-.705.322-1.159 1.046-1.159 1.847v3.093H3.631c-.348 0-.631-.32-.631-.716v-2.947c0-.294.157-.557.396-.666l3.832-1.738C6.321 10.959 5.7 9.886 5.7 8.647c0-1.772 1.265-3.206 2.827-3.206.51 0 .982.165 1.395.432a5.463 5.463 0 0 0-.417 2.095c0 1.119.342 2.174.931 3.038a2.852 2.852 0 0 1-.555.454zm10.636 2.184c.293.138.484.46.484.823v3.648c0 .489-.35.885-.781.885H8.103c-.432 0-.782-.396-.782-.885v-3.648c0-.364.195-.69.49-.824l3.407-1.546 1.336-.607c-.603-.354-1.099-.905-1.433-1.573a4.333 4.333 0 0 1-.46-1.949c0-.409.07-.795.172-1.166C11.273 5.184 12.588 4 14.161 4c1.602 0 2.937 1.227 3.352 2.893.085.344.146.7.146 1.075 0 .669-.153 1.294-.41 1.846-.324.696-.819 1.273-1.428 1.647l1.395.65 3.3 1.533z"/></defs><use xlink:href="#bva" fill-rule="evenodd"/></symbol><symbol viewBox="0 0 24 24" id="ic_move" xmlns="http://www.w3.org/2000/svg"><defs><path id="bwa" d="M9 7a2 2 0 1 1 0 4 2 2 0 1 1 0-4zm6 0a2 2 0 1 1 0 4 2 2 0 1 1 0-4zm-6 6a2 2 0 1 1 0 4 2 2 0 1 1 0-4zm6 0a2 2 0 1 1 0 4 2 2 0 1 1 0-4zM9 1a2 2 0 1 1 0 4 2 2 0 1 1 0-4zm6 0a2 2 0 1 1 0 4 2 2 0 1 1 0-4zM9 19a2 2 0 1 1 0 4 2 2 0 1 1 0-4zm6 0a2 2 0 1 1 0 4 2 2 0 1 1 0-4z"/></defs><use xlink:href="#bwa" fill-rule="evenodd"/></symbol><symbol viewBox="0 0 24 24" id="ic_movie" xmlns="http://www.w3.org/2000/svg"><path fill-rule="evenodd" d="M3 7.006A2 2 0 0 1 4.995 5h14.01A2 2 0 0 1 21 7.006v9.988A2 2 0 0 1 19.005 19H4.995A2 2 0 0 1 3 16.994V7.006zM19 17V7H5v10h14zm-4-5l-2.5 1.5L10 15V9l2.5 1.5L15 12z"/></symbol><symbol viewBox="0 0 24 24" id="ic_mt" xmlns="http://www.w3.org/2000/svg"><path fill-rule="evenodd" d="M10.654 17.361a5.57 5.57 0 0 0 2.314.078l.723 2.506c-.219.067-.423.132-.596.191l-2.29.782c-.628.214-1.513-.005-1.967-.487l-1.652-1.758a24.46 24.46 0 0 0-.85-.85 24.592 24.592 0 0 0-.885-.814l-1.827-1.578c-.501-.433-.753-1.303-.558-1.934l.706-2.3c.054-.173.113-.378.172-.598l2.548.63a5.5 5.5 0 0 0 1.643 4.745 5.548 5.548 0 0 0 2.519 1.387zm8.99-2.234l-.463 2.36c-.127.647-.76 1.298-1.408 1.447l-2.36.542c-.178.04-.386.093-.607.151l-.724-2.507c1.594-.64 2.87-2 3.318-3.783a5.484 5.484 0 0 0-1.14-4.887l1.824-1.877c.168.155.327.298.465.418l1.827 1.578c.501.433.752 1.303.558 1.934l-.707 2.3a24.55 24.55 0 0 0-.317 1.155 24.53 24.53 0 0 0-.266 1.169zm-9.178-8.438a5.547 5.547 0 0 0-3.693 3.424l-2.548-.63c.05-.223.096-.431.131-.61l.463-2.36c.127-.647.76-1.298 1.408-1.447l2.36-.542a24.85 24.85 0 0 0 1.166-.305c.42-.12.838-.248 1.152-.355l2.29-.782c.628-.214 1.513.005 1.966.487l1.653 1.758c.125.133.274.286.436.447l-1.823 1.875a5.575 5.575 0 0 0-4.96-.96z"/></symbol><symbol viewBox="0 0 24 24" id="ic_multiline" xmlns="http://www.w3.org/2000/svg"><path fill-rule="evenodd" d="M3 3.993C3 3.445 3.445 3 3.993 3h16.014c.548 0 .993.445.993.993v16.014a.994.994 0 0 1-.993.993H3.993A.994.994 0 0 1 3 20.007V3.993zM5 10v9h14v-9H5zm0-4v2h7V6H5z"/></symbol><symbol viewBox="0 0 24 24" id="ic_ol" xmlns="http://www.w3.org/2000/svg"><defs><path id="caa" d="M6 18.5H4V18h2v-1h.5v2.5H4V19h2v-.5zm-2-6.25V12h2v-1h.5v1.5h-2v.5h2v.5H4v-1.25zm4-.745c0-.279.229-.505.5-.505h11c.276 0 .5.214.5.505v.99a.506.506 0 0 1-.5.505h-11a.495.495 0 0 1-.5-.505v-.99zm0 6c0-.279.229-.505.5-.505h11c.276 0 .5.214.5.505v.99a.506.506 0 0 1-.5.505h-11a.495.495 0 0 1-.5-.505v-.99zm0-12C8 5.226 8.229 5 8.5 5h11c.276 0 .5.214.5.505v.99a.506.506 0 0 1-.5.505h-11a.495.495 0 0 1-.5-.505v-.99zM5 4.5h.5v3H5v-3zM4 11h2v.5H4V11zm0 6h2v.5H4V17z"/></defs><use xlink:href="#caa" fill-rule="evenodd"/></symbol><symbol viewBox="0 0 24 24" id="ic_permalink" xmlns="http://www.w3.org/2000/svg"><path fill-rule="evenodd" d="M17.51 8.51l-7.742 7.743a.5.5 0 0 1-.707 0l-1.415-1.414a.5.5 0 0 1 0-.707l7.743-7.743-.702-.702a.5.5 0 0 1 .271-.847l4.352-.725a.5.5 0 0 1 .575.575l-.725 4.352a.5.5 0 0 1-.847.271l-.803-.803zM12.864 4l-2 2H6v12h12v-4.994l2-2v7A1.995 1.995 0 0 1 18.006 20H5.994A1.995 1.995 0 0 1 4 18.006V5.994C4 4.893 4.895 4 5.994 4h6.87z"/></symbol><symbol viewBox="0 0 24 24" id="ic_plugin" xmlns="http://www.w3.org/2000/svg"><defs><path id="cca" d="M3 11V7a2 2 0 0 1 2-2h4V4a2 2 0 1 1 4 0v1h4a2 2 0 0 1 2 2v4h1a2 2 0 1 1 0 4h-1v4a2 2 0 0 1-2 2h-4v-1a2 2 0 1 0-4 0v1H5a2 2 0 0 1-2-2v-4h1a2 2 0 1 0 0-4H3z"/></defs><use xlink:href="#cca" fill-rule="evenodd"/></symbol><symbol viewBox="0 0 24 24" id="ic_preview" xmlns="http://www.w3.org/2000/svg"><defs><path id="cda" d="M21.664 11.372c.203.13.336.35.336.602a.704.704 0 0 1-.196.484.741.741 0 0 1-.053.05l-4.342 4.18-.017-.017A7.38 7.38 0 0 1 11.976 19c-1.91 0-3.646-.71-4.943-1.867l-.01.01-4.74-4.563A.709.709 0 0 1 2 12.02c0-.183.073-.348.189-.475l-.004-.003 4.37-4.206A7.38 7.38 0 0 1 11.975 5a7.4 7.4 0 0 1 4.962 1.884l.032-.031 4.695 4.519zM12 17a5 5 0 1 0 0-10 5 5 0 0 0 0 10zm0-2a3 3 0 1 1 0-6 3 3 0 0 1 0 6z"/></defs><use xlink:href="#cda" fill-rule="evenodd"/></symbol><symbol viewBox="0 0 24 24" id="ic_private" xmlns="http://www.w3.org/2000/svg"><path fill-rule="evenodd" d="M17 16.343l1.646-1.646a.5.5 0 0 1 .708.707l-1.647 1.646 1.89 1.89a.5.5 0 0 1-.708.706L17 17.757l-1.89 1.89a.5.5 0 1 1-.706-.708l1.889-1.889-1.647-1.646a.5.5 0 0 1 .708-.707L17 16.343zM20.945 13h-3.028A6.007 6.007 0 0 0 12 6c-3.309 0-6 2.692-6 6a6.006 6.006 0 0 0 7 5.917v3.028A9 9 0 0 1 3 12a9 9 0 1 1 17.945 1zm-4.581-3.955a.461.461 0 0 1 0 .655l-4.192 4.164a.464.464 0 0 1-.322.136h-.019a.464.464 0 0 1-.33-.136l-2.865-2.846a.46.46 0 0 1 .002-.656l.92-.913a.48.48 0 0 1 .658 0l1.62 1.61 2.948-2.93a.483.483 0 0 1 .66 0l.92.916z"/></symbol><symbol viewBox="0 0 24 24" id="ic_publish" xmlns="http://www.w3.org/2000/svg"><defs><path id="cfa" d="M6.53 11.346a.55.55 0 0 1-.471-.24.39.39 0 0 1 .038-.464l5.453-6.454c.1-.118.26-.188.431-.188h.001c.17 0 .332.07.432.187L17.9 10.64a.387.387 0 0 1 .04.464.55.55 0 0 1-.471.241h-2.566v5.797c0 .248-.237.448-.53.448H9.624c-.292 0-.53-.2-.53-.448v-5.797H6.531zM5 19.505A.5.5 0 0 1 5.498 19h13.004c.275 0 .498.214.498.505v.99a.5.5 0 0 1-.498.505H5.498A.494.494 0 0 1 5 20.495v-.99z"/></defs><use xlink:href="#cfa" fill-rule="evenodd"/></symbol><symbol viewBox="0 0 24 24" id="ic_quotation" xmlns="http://www.w3.org/2000/svg"><defs><path id="cga" d="M17.207 11c.068-1.487 1.044-2.733 2.93-2.997.124-.012.231-.08.321-.204a.408.408 0 0 0 .068-.356l-.457-2.085a.434.434 0 0 0-.17-.27.422.422 0 0 0-.305-.086c-2.204.113-3.854.758-4.95 1.933S13 9.42 13 11.386l.014-.001a.502.502 0 0 0-.014.118v5.994c0 .27.22.503.491.503h5.018a.503.503 0 0 0 .491-.503v-5.994c0-.27-.22-.503-.491-.503h-1.302zm-9 0c.068-1.487 1.044-2.733 2.93-2.997.124-.012.231-.08.321-.204a.408.408 0 0 0 .068-.356l-.457-2.085a.434.434 0 0 0-.17-.27.422.422 0 0 0-.305-.086c-2.204.113-3.854.758-4.95 1.933S4 9.42 4 11.386l.014-.001a.502.502 0 0 0-.014.118v5.994c0 .27.22.503.491.503h5.018a.503.503 0 0 0 .491-.503v-5.994c0-.27-.22-.503-.491-.503H8.207z"/></defs><use xlink:href="#cga" fill-rule="evenodd"/></symbol><symbol viewBox="0 0 24 24" id="ic_radio" xmlns="http://www.w3.org/2000/svg"><path fill-rule="evenodd" d="M12 21a9 9 0 1 1 0-18 9 9 0 0 1 0 18zm0-3a6 6 0 1 0 0-12 6 6 0 0 0 0 12zm0-2a4 4 0 1 1 0-8 4 4 0 0 1 0 8z"/></symbol><symbol viewBox="0 0 24 24" id="ic_related" xmlns="http://www.w3.org/2000/svg"><path fill-rule="evenodd" d="M14.007 10.518l-3.186-3.186a.5.5 0 0 0-.707 0L9.05 8.395a.5.5 0 0 0 0 .707l2.87 2.87-2.87 2.87a.5.5 0 0 0 0 .707l1.063 1.063a.5.5 0 0 0 .707 0l3.186-3.186a.506.506 0 0 0 .04-.036l1.062-1.063a.498.498 0 0 0 .147-.355.498.498 0 0 0-.147-.356l-1.063-1.062a.506.506 0 0 0-.039-.036zM12 21a9 9 0 1 1 0-18 9 9 0 0 1 0 18z"/></symbol><symbol viewBox="0 0 24 24" id="ic_reload" xmlns="http://www.w3.org/2000/svg"><defs><path id="cja" d="M7.499 18A7.467 7.467 0 0 0 12 19.5a7.499 7.499 0 0 0 7.495-7.77c.265-.454.662-.694 1.192-.72.53-.024.963.14 1.301.495.008.164.012.33.012.495 0 5.523-4.477 10-10 10a9.96 9.96 0 0 1-6.5-2.4v1.9a.5.5 0 1 1-1 0v-4A.498.498 0 0 1 5 17h4a.5.5 0 1 1 0 1H7.499zm13.355-9.146A.498.498 0 0 1 20.5 9h-4a.5.5 0 1 1 0-1h1.846a7.5 7.5 0 0 0-13.59 5.947c.012.488-.32.825-.999 1.012-.7.193-1.172.077-1.413-.35A10.013 10.013 0 0 1 2 12C2 6.477 6.477 2 12 2a9.985 9.985 0 0 1 8 3.999V4.5a.5.5 0 1 1 1 0v3.136a10.185 10.185 0 0 1 0 .005V8.5a.498.498 0 0 1-.146.354z"/></defs><use xlink:href="#cja" fill-rule="evenodd"/></symbol><symbol viewBox="0 0 24 24" id="ic_remove" xmlns="http://www.w3.org/2000/svg"><defs><path id="cka" d="M12 3a9 9 0 1 1-.002 18.002A9 9 0 0 1 12 3zm0 2c-3.86 0-7 3.141-7 7 0 3.86 3.14 7 7 7s7-3.14 7-7c0-3.859-3.14-7-7-7zm-4.5 6h9a.5.5 0 0 1 .5.5v1a.5.5 0 0 1-.5.5h-9a.5.5 0 0 1-.5-.5v-1a.5.5 0 0 1 .5-.5z"/></defs><use xlink:href="#cka" fill-rule="evenodd"/></symbol><symbol viewBox="0 0 24 24" id="ic_replace" xmlns="http://www.w3.org/2000/svg"><path fill-rule="evenodd" d="M21.313 19.11a2 2 0 1 1-2.828 2.828l-4.421-4.42a7.958 7.958 0 0 1-5.76.902l-.581 1.046a.5.5 0 0 1-.89-.03l-1.86-3.963a.5.5 0 0 1 .395-.709l4.347-.509a.5.5 0 0 1 .495.74l-.338.61a4.936 4.936 0 0 0 3.663-1.445c1.347-1.347 1.742-3.267 1.23-4.972l2.292-2.292c1.29 2.441 1.248 5.402-.165 7.793l4.42 4.421zM15.34 6.406a.5.5 0 0 1-.444.679l-4.372.198a.5.5 0 0 1-.441-.773l.538-.823A4.94 4.94 0 0 0 6.464 7.09c-1.543 1.542-1.847 3.834-.953 5.694l-2.212 2.213A8.002 8.002 0 0 1 4.342 4.969c2.175-2.175 5.282-2.81 8.028-1.956l.514-.786a.5.5 0 0 1 .885.094l1.57 4.085z"/></symbol><symbol viewBox="0 0 24 24" id="ic_role" xmlns="http://www.w3.org/2000/svg"><path fill-rule="evenodd" d="M5.329 17.231C4.82 16.682 4.5 15.886 4.5 15c0-1.657 1.12-3 2.5-3s2.5 1.343 2.5 3c0 .89-.323 1.69-.837 2.24l1.992.648a.5.5 0 0 1 .345.475V20.5a.5.5 0 0 1-.5.5h-7a.5.5 0 0 1-.5-.5v-2.139a.5.5 0 0 1 .343-.474l1.986-.656zm10 0c-.509-.549-.829-1.345-.829-2.231 0-1.657 1.12-3 2.5-3s2.5 1.343 2.5 3c0 .89-.323 1.69-.837 2.24l1.992.648a.5.5 0 0 1 .345.475V20.5a.5.5 0 0 1-.5.5h-7a.5.5 0 0 1-.5-.5v-2.139a.5.5 0 0 1 .343-.474l1.986-.656zm-5-9C9.82 7.682 9.5 6.886 9.5 6c0-1.657 1.12-3 2.5-3s2.5 1.343 2.5 3c0 .89-.323 1.69-.837 2.24l1.992.648a.5.5 0 0 1 .345.475V11.5a.5.5 0 0 1-.5.5h-7a.5.5 0 0 1-.5-.5V9.361a.5.5 0 0 1 .343-.474l1.986-.656z"/></symbol><symbol viewBox="0 0 24 24" id="ic_rss" xmlns="http://www.w3.org/2000/svg"><path d="M6 16a2 2 0 1 1 .002 3.999A2 2 0 0 1 6 16zm-.433-6c4.63 0 8.4 3.785 8.432 8.451H14v.822h-.01a.81.81 0 0 1-.705.717V20h-1.448v-.002a.811.811 0 0 1-.787-.725h-.009v-.822h.008c-.033-3.024-2.479-5.474-5.482-5.474l-.032-.002v.012H4.72v-.01a.81.81 0 0 1-.71-.712H4v-1.462h.002a.813.813 0 0 1 .718-.794V10h.815v.002L5.567 10zm14.432 8.414H20v.842h-.01a.83.83 0 0 1-.724.734V20h-1.488v-.002a.832.832 0 0 1-.807-.742h-.01v-.842h.009c-.034-6.273-5.117-11.367-11.361-11.367l-.033-.002v.012H4.74v-.01a.83.83 0 0 1-.73-.729H4V4.822h.002a.833.833 0 0 1 .738-.813V4h.836v.002L5.61 4c7.915 0 14.356 6.46 14.39 14.414z" fill-rule="evenodd"/></symbol><symbol viewBox="0 0 24 24" id="ic_search" xmlns="http://www.w3.org/2000/svg"><path fill-rule="evenodd" d="M14.064 16.893a8 8 0 1 1 2.828-2.828l4.422 4.42a2 2 0 1 1-2.829 2.829l-4.42-4.421zm-.528-3.357a5 5 0 1 0-7.072-7.072 5 5 0 0 0 7.072 7.072z"/></symbol><symbol viewBox="0 0 24 24" id="ic_selectbox" xmlns="http://www.w3.org/2000/svg"><path fill-rule="evenodd" d="M3 9c0-1.105.893-2 1.995-2h14.01C20.107 7 21 7.887 21 9v6c0 1.105-.893 2-1.995 2H4.995A1.992 1.992 0 0 1 3 15V9zm11.5 5l1.25-2L17 10h-5l1.25 2 1.25 2z"/></symbol><symbol viewBox="0 0 24 24" id="ic_setting" xmlns="http://www.w3.org/2000/svg"><defs><path id="cqa" d="M21.52 10.38l-2.538-.25a7.165 7.165 0 0 0-.725-1.743l1.62-1.973a.533.533 0 0 0-.036-.714l-1.54-1.542a.532.532 0 0 0-.715-.035l-1.973 1.62a7.171 7.171 0 0 0-1.744-.725l-.25-2.538a.533.533 0 0 0-.53-.48h-2.178a.533.533 0 0 0-.53.48l-.25 2.539a7.137 7.137 0 0 0-1.742.725l-1.975-1.62a.53.53 0 0 0-.714.035l-1.541 1.54a.533.533 0 0 0-.036.715l1.621 1.974a7.14 7.14 0 0 0-.724 1.743l-2.539.25a.532.532 0 0 0-.481.53v2.179c0 .274.208.503.48.53l2.54.25c.162.608.405 1.192.724 1.741l-1.62 1.974a.531.531 0 0 0 .035.715l1.54 1.541a.532.532 0 0 0 .715.035l1.973-1.62c.551.32 1.134.562 1.744.725l.25 2.538c.026.273.256.481.53.481h2.178a.533.533 0 0 0 .53-.48l.25-2.538a7.124 7.124 0 0 0 1.744-.726l1.973 1.62a.532.532 0 0 0 .715-.035l1.54-1.541a.53.53 0 0 0 .035-.715l-1.619-1.973c.319-.55.562-1.134.725-1.742l2.537-.25a.533.533 0 0 0 .481-.53v-2.18a.532.532 0 0 0-.48-.53zM12 14.95a2.95 2.95 0 1 1 0-5.901 2.95 2.95 0 0 1 0 5.902z"/></defs><use xlink:href="#cqa" fill-rule="evenodd"/></symbol><symbol viewBox="0 0 24 24" id="ic_singleline" xmlns="http://www.w3.org/2000/svg"><defs><path id="cra" d="M3 4.995C3 3.893 3.893 3 4.995 3h14.01C20.107 3 21 3.893 21 4.995v14.01A1.995 1.995 0 0 1 19.005 21H4.995A1.995 1.995 0 0 1 3 19.005V4.995zM5 12v4h14v-4H5zm0-4v2h7V8H5z"/></defs><g fill-rule="evenodd"><use xlink:href="#cra"/><path stroke="#000" stroke-width="1.5" d="M3.75 4.995v14.01c0 .688.557 1.245 1.245 1.245h14.01c.688 0 1.245-.557 1.245-1.245V4.995c0-.688-.557-1.245-1.245-1.245H4.995c-.688 0-1.245.557-1.245 1.245zm.5 11.755v-5.5h15.5v5.5H4.25zm0-9.5h8.5v3.5h-8.5v-3.5z"/></g></symbol><symbol viewBox="0 0 24 24" id="ic_sites" xmlns="http://www.w3.org/2000/svg"><path fill-rule="evenodd" d="M18 7h1a2 2 0 0 1 2 2v10a2 2 0 0 1-2 2H8a2 2 0 0 1-2-2v-1h10a2 2 0 0 0 2-2V7h1v10a2 2 0 0 1-2 2H6v-1H5a2 2 0 0 1-2-2V6a2 2 0 0 1 2-2h11a2 2 0 0 1 2 2v1zM5 8v8h11V8H5zm1-1a1 1 0 1 0 0-2 1 1 0 0 0 0 2z"/></symbol><symbol viewBox="0 0 24 24" id="ic_statusdraft" xmlns="http://www.w3.org/2000/svg"><path fill-rule="evenodd" d="M18.439 6.755l-3.016-3.588a.454.454 0 0 0-.672-.035l-9.234 8.901.018.022-.03-.01L4.06 16.76a.533.533 0 0 0 .087.525c.137.163.35.207.53.129v.002l4.487-1.037-.002-.011.006.008 9.234-8.902a.535.535 0 0 0 .038-.72zM5.562 15.909l.86-2.8 1.831 2.179-2.69.621zM4.5 18h15a.5.5 0 0 1 .5.5v1a.5.5 0 0 1-.5.5h-15a.5.5 0 0 1-.5-.5v-1a.5.5 0 0 1 .5-.5z"/></symbol><symbol viewBox="0 0 24 24" id="ic_stop" xmlns="http://www.w3.org/2000/svg"><defs><path id="cua" d="M15.048 6.831a6.011 6.011 0 0 0-7.29.926 6.011 6.011 0 0 0-.927 7.29l8.217-8.216zm2.121 2.121L8.952 17.17a6.01 6.01 0 0 0 7.29-.926 6.01 6.01 0 0 0 .927-7.29zM5.636 5.636a9 9 0 1 1 12.728 12.73A9 9 0 0 1 5.636 5.637z"/></defs><use xlink:href="#cua" fill-rule="evenodd"/></symbol><symbol viewBox="0 0 24 24" id="ic_success" xmlns="http://www.w3.org/2000/svg"><defs><path id="cva" d="M12 3a9 9 0 1 1-.002 18.002A9 9 0 0 1 12 3zm5.288 5.726L15.653 7.09a.306.306 0 0 0-.433 0L9.31 13l-1.152-1.152a.306.306 0 0 0-.432 0L6.09 13.484a.306.306 0 0 0 0 .433l2.994 2.993c.057.058.135.09.216.09l.011-.002.01.002c.078 0 .156-.03.216-.09l7.751-7.751a.306.306 0 0 0 0-.433z"/></defs><use xlink:href="#cva" fill-rule="evenodd"/></symbol><symbol viewBox="0 0 24 24" id="ic_tag" xmlns="http://www.w3.org/2000/svg"><path fill-rule="evenodd" d="M20.925 16.488l-.02-.029-7.204-12.477-.004.002a.557.557 0 0 0-.248-.215l.01-.005L10.51 2.06v.012a.557.557 0 0 0-.494-.028l-.004-.006-.055.032-.003.001-.003.002L4.28 5.35a.556.556 0 0 0-.278.473L4 5.82v3.405l.006-.003a.557.557 0 0 0 .07.34c.003.007.008.012.012.018l7.18 12.436c.007.015.012.03.02.045.15.26.478.352.743.214l.001.002 8.693-5.018-.004-.007a.56.56 0 0 0 .204-.764zM8.849 6.643a1.035 1.035 0 1 1-1.035-1.792 1.035 1.035 0 0 1 1.035 1.792z"/></symbol><symbol viewBox="0 0 24 24" id="ic_template" xmlns="http://www.w3.org/2000/svg"><defs><path id="cxa" d="M3 8h18v10.997A1.999 1.999 0 0 1 19.005 21H4.995A1.997 1.997 0 0 1 3 18.997V8zm8.67 11.08v-.84c-.92-.06-1.56-.29-2.02-.73-.4-.39-.58-.81-.68-1.58l1.41-.22c.05.57.13.79.37 1.03.23.25.52.37.92.4v-2.47c-.93-.21-1.27-.33-1.69-.61-.52-.34-.83-.97-.83-1.66 0-.77.35-1.4.97-1.8.46-.28.89-.41 1.55-.45v-.52h.68v.53c.83.07 1.33.27 1.79.71.38.36.55.69.68 1.33l-1.37.23c-.06-.4-.15-.6-.36-.81-.2-.21-.41-.31-.74-.36v2.22c1.02.21 1.47.38 1.87.68.55.43.79.95.79 1.7 0 .86-.35 1.52-1.01 1.94-.46.28-.92.41-1.65.45v.83h-.68zm0-5.73v-2.09c-.34.02-.55.09-.77.26-.25.19-.39.47-.39.78 0 .32.14.59.38.76.2.12.39.2.78.29zm4.951 3.393l.5.5 2.122-2.122L17.12 13l-.5.5 1.622 1.621-1.622 1.622zm-9-3.243l-.5-.5L5 15.121l2.121 2.122.5-.5L6 15.12 7.621 13.5zm4.729 1.29c.57.14.77.21.93.34.21.18.32.45.32.8 0 .72-.44 1.15-1.25 1.22v-2.36zM5 3h14a2 2 0 0 1 2 2v1.5a.5.5 0 0 1-.5.5h-17a.5.5 0 0 1-.5-.5V5a2 2 0 0 1 2-2z"/></defs><use xlink:href="#cxa" fill-rule="evenodd"/></symbol><symbol viewBox="0 0 24 24" id="ic_tool" xmlns="http://www.w3.org/2000/svg"><path fill-rule="evenodd" d="M20.098 6.318l-.934.934-1.19 1.19a2.27 2.27 0 0 1-2.416-2.416l1.19-1.19.934-.934.966-.966a.161.161 0 0 0 0-.228.313.313 0 0 0-.066-.038 5.356 5.356 0 0 0-2.187-.47 5.405 5.405 0 0 0-5.152 7.04l-5.636 5.636a3.462 3.462 0 1 0 3.517 3.517l5.636-5.637a5.405 5.405 0 0 0 7.04-5.151c0-.78-.172-1.517-.47-2.186-.025-.05-.03-.06-.038-.068a.162.162 0 0 0-.228 0l-.966.967zM7.095 18.337a1.431 1.431 0 1 1-2.863 0 1.431 1.431 0 0 1 2.862 0z"/></symbol><symbol viewBox="0 0 24 24" id="ic_trackback" xmlns="http://www.w3.org/2000/svg"><path fill-rule="evenodd" d="M14.587 7.097H4.5a.5.5 0 0 0-.5.5V10.5a.5.5 0 0 0 .5.5h14.982a.5.5 0 0 0 .376-.83l-4.395-5.004a.5.5 0 0 0-.876.33v1.6zm-5.174 9.806H19.5a.5.5 0 0 0 .5-.5V13.5a.5.5 0 0 0-.5-.5H4.518a.5.5 0 0 0-.376.83l4.395 5.004a.5.5 0 0 0 .876-.33v-1.6z"/></symbol><symbol viewBox="0 0 24 24" id="ic_trash" xmlns="http://www.w3.org/2000/svg"><defs><path id="daa" d="M9 4H4.496A.504.504 0 0 0 4 4.506v1.488c0 .275.222.506.496.506h15.008c.27 0 .496-.227.496-.506V4.506A.504.504 0 0 0 19.504 4H15v-.495A.49.49 0 0 0 14.509 3H9.491A.503.503 0 0 0 9 3.505V4zm10 3v12.006A2 2 0 0 1 16.994 21H7.006A2.001 2.001 0 0 1 5 19.006V6.997 7h14zM8.5 10.753v6.494a.75.75 0 1 0 1.5 0v-6.494a.75.75 0 1 0-1.5 0zm3 0v6.494a.75.75 0 1 0 1.5 0v-6.494a.75.75 0 1 0-1.5 0zm3 0v6.494a.75.75 0 1 0 1.5 0v-6.494a.75.75 0 1 0-1.5 0z"/></defs><use xlink:href="#daa" fill-rule="evenodd"/></symbol><symbol viewBox="0 0 24 24" id="ic_underline" xmlns="http://www.w3.org/2000/svg"><defs><path id="dba" d="M6 20h12v1H6v-1zm12-7.242c0 1.907-.532 3.324-1.596 4.251-1.064.927-2.535 1.391-4.414 1.391-1.905 0-3.38-.46-4.423-1.38C6.522 16.098 6 14.677 6 12.757V4h3.094v8.758c0 .382.032.757.098 1.125s.204.693.414.976c.21.283.502.513.877.69.374.178.877.267 1.507.267 1.104 0 1.865-.247 2.286-.74.42-.493.63-1.266.63-2.318V4H18v8.758z"/></defs><use xlink:href="#dba" fill-rule="evenodd"/></symbol><symbol viewBox="0 0 24 24" id="ic_unlink" xmlns="http://www.w3.org/2000/svg"><defs><path id="dca" d="M16.407 6.284l1.732 1a2 2 0 0 1 .732 2.732l-5 8.66a2 2 0 0 1-2.732.732l-1.732-1-1.5 2.598a1 1 0 0 1-1.732-1l1.5-2.598-1.732-1a2 2 0 0 1-.732-2.732l5-8.66a2 2 0 0 1 2.732-.732l1.732 1 1.5-2.598a1 1 0 0 1 1.732 1l-1.5 2.598zm-1 1.732l-.5.866a1 1 0 0 1-1.732-1l.5-.866-1.299-.75a.5.5 0 0 0-.683.183l-4.5 7.794a.5.5 0 0 0 .183.683l1.3.75.5-.866a1 1 0 0 1 1.731 1l-.5.866 1.3.75a.5.5 0 0 0 .682-.183l4.5-7.794a.5.5 0 0 0-.183-.683l-1.299-.75zm-6.696-.402l-1.96 3.397c.442-.416.87-.504 1.286-.264.416.24.564.661.445 1.264l1.961-3.397c-.447.57-.92.711-1.42.423-.498-.288-.603-.762-.312-1.423zm6.928 4l-1.96 3.397c.442-.416.871-.504 1.287-.264.415.24.563.661.444 1.264l1.961-3.397c-.447.57-.92.711-1.42.423-.498-.288-.602-.762-.312-1.423zm4.464 1.634a.5.5 0 0 1-.183.683l-.866.5a.5.5 0 0 1-.5-.866l.866-.5a.5.5 0 0 1 .683.183zm-2.866 2.964a.5.5 0 0 1 .5.5v1a.5.5 0 1 1-1 0v-1a.5.5 0 0 1 .5-.5zm2.732.268a.5.5 0 0 1-.683.183l-.866-.5a.5.5 0 0 1 .5-.866l.866.5a.5.5 0 0 1 .183.683zM7.33 5.873a.5.5 0 0 1 .5.5v1a.5.5 0 1 1-1 0v-1a.5.5 0 0 1 .5-.5zM6.196 9.837a.5.5 0 0 1-.183.683l-.867.5a.5.5 0 1 1-.5-.866l.867-.5a.5.5 0 0 1 .683.183zm.133-1.232a.5.5 0 0 1-.683.183l-.866-.5a.5.5 0 0 1 .5-.866l.866.5a.5.5 0 0 1 .183.683z"/></defs><use xlink:href="#dca" fill-rule="evenodd"/></symbol><symbol viewBox="0 0 24 24" id="ic_user" xmlns="http://www.w3.org/2000/svg"><path fill-rule="evenodd" d="M3 18.007V15.9c0-.483.256-.915.645-1.094l4.483-2.054 1.53-.7C8.652 11.145 8 9.668 8 8c0-2.761 1.79-5 4-5s4 2.239 4 5c0 1.64-.632 3.096-1.607 4.007l1.627.764 4.342 2.037c.386.184.637.612.638 1.093v3.094A2 2 0 0 1 19.005 21H4.995A1.998 1.998 0 0 1 3 18.995v-.988z"/></symbol></svg>