<?xml version="1.0" encoding="utf-8"?><svg xmlns="http://www.w3.org/2000/svg" xmlns:xlink="http://www.w3.org/1999/xlink"><symbol viewBox="0 0 24 24" id="ic_add" xmlns="http://www.w3.org/2000/svg"><path fill-rule="evenodd" d="M11 11V7.5a.5.5 0 0 1 .5-.5h1a.5.5 0 0 1 .5.5V11h3.5a.5.5 0 0 1 .5.5v1a.5.5 0 0 1-.5.5H13v3.5a.5.5 0 0 1-.5.5h-1a.5.5 0 0 1-.5-.5V13H7.5a.5.5 0 0 1-.5-.5v-1a.5.5 0 0 1 .5-.5H11zm1-8a9 9 0 1 1-.001 18.001A9 9 0 0 1 12 3zm0 2c-3.86 0-7 3.141-7 7 0 3.86 3.14 7 7 7s7-3.14 7-7c0-3.859-3.14-7-7-7z"/></symbol><symbol viewBox="0 0 24 24" id="ic_addhtml" xmlns="http://www.w3.org/2000/svg"><path fill-rule="evenodd" d="M12.767 13.084l-2.211 2.211 2.233 2.233-.789.789-3-3 3-3 .767.767zm.884 4.538l2.327-2.327-2.305-2.305.673-.673 3 3-3 3-.695-.695zM8.09 2h9.916c1.101 0 1.993.898 1.993 1.991v16.018A1.994 1.994 0 0 1 18.005 22H5.993a1.998 1.998 0 0 1-1.994-1.999V5.957L8.089 2zm.599 2l-.1 2.606h-2.59V20h12V4h-9.31z"/></symbol><symbol viewBox="0 0 24 24" id="ic_addpage" xmlns="http://www.w3.org/2000/svg"><path fill-rule="evenodd" d="M15.5 16v-2.5h-1V16H12v1h2.5v2.5h1V17H18v-1h-2.5zM8.09 2h9.916c1.101 0 1.993.898 1.993 1.991v16.018A1.994 1.994 0 0 1 18.005 22H5.993a1.998 1.998 0 0 1-1.994-1.999V5.957L8.089 2zM9 4L6 7h3V4z"/></symbol><symbol viewBox="0 0 24 24" id="ic_aligncenter" xmlns="http://www.w3.org/2000/svg"><path fill-rule="evenodd" d="M11 13v-2H3.5a.492.492 0 0 1-.5-.49V7.491c0-.271.228-.49.5-.49H11V4.497c0-.274.214-.496.505-.496h.991c.279 0 .505.226.505.496v2.504h7.5c.276 0 .5.215.5.49v3.019c0 .271-.228.49-.5.49h-7.5v2h2.5c.276 0 .5.215.5.49v3.019a.5.5 0 0 1-.5.49h-2.5v2.504a.493.493 0 0 1-.505.496h-.991a.503.503 0 0 1-.505-.496v-2.504H8.5a.492.492 0 0 1-.5-.49V13.49a.5.5 0 0 1 .5-.49H11z"/></symbol><symbol viewBox="0 0 24 24" id="ic_alignleft" xmlns="http://www.w3.org/2000/svg"><path fill-rule="evenodd" d="M8 6.49c0-.271.229-.49.5-.49h10.999c.276 0 .5.215.5.49v3.019c0 .271-.229.49-.5.49H8.5a.492.492 0 0 1-.5-.49V6.49zM4 4.496C4 4.222 4.214 4 4.505 4h.991c.279 0 .505.226.505.496v15.007a.493.493 0 0 1-.505.496h-.991A.503.503 0 0 1 4 19.503V4.496zm4 9.994a.5.5 0 0 1 .5-.49h6.999c.276 0 .5.215.5.49v3.019a.5.5 0 0 1-.5.49H8.5a.492.492 0 0 1-.5-.49V14.49z"/></symbol><symbol viewBox="0 0 24 24" id="ic_alignnone" xmlns="http://www.w3.org/2000/svg"><path fill-rule="evenodd" d="M4 6.49c0-.271.226-.49.496-.49h15.007a.49.49 0 0 1 .496.49v3.019c0 .271-.226.49-.496.49H4.496A.49.49 0 0 1 4 9.509V6.49zm0 8a.5.5 0 0 1 .5-.49h6.999c.276 0 .5.215.5.49v3.019a.5.5 0 0 1-.5.49H4.5a.492.492 0 0 1-.5-.49V14.49z"/></symbol><symbol viewBox="0 0 24 24" id="ic_alignright" xmlns="http://www.w3.org/2000/svg"><path fill-rule="evenodd" d="M4 6.49c0-.271.229-.49.5-.49h10.999c.276 0 .5.215.5.49v3.019c0 .271-.229.49-.5.49H4.5a.492.492 0 0 1-.5-.49V6.49zm4 8a.5.5 0 0 1 .5-.49h6.999c.276 0 .5.215.5.49v3.019a.5.5 0 0 1-.5.49H8.5a.492.492 0 0 1-.5-.49V14.49zm10-9.994c0-.274.214-.496.505-.496h.991c.279 0 .505.226.505.496v15.007a.493.493 0 0 1-.505.496h-.991a.503.503 0 0 1-.505-.496V4.496z"/></symbol><symbol viewBox="0 0 24 24" id="ic_asset" xmlns="http://www.w3.org/2000/svg"><path fill-rule="evenodd" d="M15.854 3.146A.499.499 0 0 0 15.5 3h-7a.502.502 0 0 0-.5.5v2a.5.5 0 0 0 1 0V4h6v1.5a.5.5 0 0 0 1 0v-2a.502.502 0 0 0-.146-.354zM4 7h16a2 2 0 0 1 2 2v10a2 2 0 0 1-2 2H4a2 2 0 0 1-2-2V9a2 2 0 0 1 2-2z"/></symbol><symbol viewBox="0 0 24 24" id="ic_audio" xmlns="http://www.w3.org/2000/svg"><path fill-rule="evenodd" d="M19.895 3.744h-.008c-.039-.32-.328-.57-.682-.57a.732.732 0 0 0-.344.088l-.006-.01-6.821 3.667v.004L9.454 8.31H4.627v.012l-.012-.001c-.281 0-.508.212-.508.473v6.412c0 .261.228.473.508.473l.012-.001v.013h4.827l3.841 2.065v-.01l5.516 2.965a.725.725 0 0 0 .393.115c.381 0 .69-.288.69-.642l-.008-.072h.008V3.744z"/></symbol><symbol viewBox="0 0 24 24" id="ic_blank" xmlns="http://www.w3.org/2000/svg"/><symbol viewBox="0 0 24 24" id="ic_bold" xmlns="http://www.w3.org/2000/svg"><path fill-rule="evenodd" d="M18.045 7.95c0-1.877-1.596-3.95-4.207-3.95H5.576C5.149 4 5 4.24 5 4.647v14.79c0 .406.204.563.631.563h8.484C17.226 20 19 17.937 19 15.658c0-2.306-1.446-3.943-2.96-4.27.9-.409 2.006-1.561 2.006-3.438zM12.719 7a1.48 1.48 0 0 1 1.497 1.5c0 .694-.52 1.5-1.497 1.5h-4.52V7h4.52zm-4.52 9.5v-3h5.57c.897 0 1.472.775 1.472 1.5 0 .948-.79 1.5-1.472 1.5h-5.57z"/></symbol><symbol viewBox="0 0 24 24" id="ic_box" xmlns="http://www.w3.org/2000/svg"><path d="M20 7.488V19a2 2 0 0 1-2 2H6a2 2 0 0 1-2-2V7.488c0-.321.077-.636.225-.921l1.524-2.938A1 1 0 0 1 6.678 3h10.645c.409 0 .777.249.928.629l1.524 2.938c.148.285.225.6.225.921zM9 10a1 1 0 0 0 0 2h6a1 1 0 0 0 0-2H9zm8.188-6H6.814a.201.201 0 0 0-.186.126l-.75 1.878c.04-.002 12.206-.002 12.247 0l-.751-1.878A.2.2 0 0 0 17.188 4z"/></symbol><symbol viewBox="0 0 24 24" id="ic_build" xmlns="http://www.w3.org/2000/svg"><title>ico/build</title><path d="M20.854 8.854A.499.499 0 0 1 20.5 9h-4a.5.5 0 0 1 0-1h1.846A7.493 7.493 0 0 0 12 4.5 7.499 7.499 0 0 0 4.5 12c0 4.142 3.356 7.5 7.5 7.5s7.5-3.358 7.5-7.5l-.005-.27c.264-.454.661-.694 1.191-.719.529-.025.963.14 1.301.494l.012.495c0 5.523-4.477 10-10 10s-10-4.477-10-10 4.477-10 10-10a9.985 9.985 0 0 1 8 3.999V4.5a.5.5 0 0 1 1 0v3.136l.012.026-.012-.021V8.5a.502.502 0 0 1-.146.354zM7.5 11h1a.5.5 0 0 1 .5.5v3a.5.5 0 0 1-.5.5h-1a.5.5 0 0 1-.5-.5v-3a.5.5 0 0 1 .5-.5zm3-1h1a.5.5 0 0 1 .5.5v4a.5.5 0 0 1-.5.5h-1a.5.5 0 0 1-.5-.5v-4a.5.5 0 0 1 .5-.5zm3-2h1a.5.5 0 0 1 .5.5v6a.5.5 0 0 1-.5.5h-1a.5.5 0 0 1-.5-.5v-6a.5.5 0 0 1 .5-.5z"/></symbol><symbol viewBox="0 0 24 24" id="ic_category" xmlns="http://www.w3.org/2000/svg"><path fill-rule="evenodd" d="M7.5 10H13V8.5a.5.5 0 0 1 .5-.5h5a.5.5 0 0 1 .5.5v5a.5.5 0 0 1-.5.5h-5a.5.5 0 0 1-.5-.5v-2H7.5V17H13v-1.5a.5.5 0 0 1 .5-.5h5a.5.5 0 0 1 .5.5v5a.5.5 0 0 1-.5.5h-5a.5.5 0 0 1-.5-.5v-2H6.5A.5.5 0 0 1 6 18V8.5l.01-.1H4.5a.5.5 0 0 1-.5-.5V3.5a.5.5 0 0 1 .5-.5h4.4a.5.5 0 0 1 .5.5v4.4a.5.5 0 0 1-.5.5H7.49l.01.1V10zm7.5 0v2h2v-2h-2zm0 7v2h2v-2h-2z"/></symbol><symbol viewBox="0 0 24 24" id="ic_caution" xmlns="http://www.w3.org/2000/svg"><path fill-rule="evenodd" d="M12 10.586L9.172 7.758 7.758 9.172 10.586 12l-2.828 2.828 1.414 1.414L12 13.414l2.828 2.828 1.414-1.414L13.414 12l2.828-2.828-1.414-1.414L12 10.586zM12 21c-4.971 0-9-4.029-9-9s4.029-9 9-9 9 4.029 9 9-4.029 9-9 9z"/></symbol><symbol viewBox="0 0 24 24" id="ic_checkbox" xmlns="http://www.w3.org/2000/svg"><path fill-rule="evenodd" d="M16.278 3l-2 2H5v14h14v-7.408l2-2v9.413A1.995 1.995 0 0 1 19.005 21H4.995A1.995 1.995 0 0 1 3 19.005V4.995C3 3.893 3.893 3 4.995 3h11.283zm4.612 3.123a.377.377 0 0 1 0 .533l-9.538 9.538a.374.374 0 0 1-.266.11l-.012-.002-.013.002c-.1 0-.196-.04-.266-.11l-3.684-3.683a.376.376 0 0 1 0-.532l2.013-2.013a.377.377 0 0 1 .533 0l1.417 1.417 7.272-7.272a.374.374 0 0 1 .532 0l2.012 2.013z"/></symbol><symbol viewBox="0 0 24 24" id="ic_code" xmlns="http://www.w3.org/2000/svg"><path fill-rule="evenodd" d="M15.4 15.49L16.91 17l5-5-5-5-1.474 1.474 3.49 3.49L15.4 15.49zM9.474 8.474L8 7l-5 5 5 5 1.51-1.51-3.526-3.526 3.49-3.49zM14.196 6l.927.375-4.495 11.126-.927-.375L14.196 6z"/></symbol><symbol viewBox="0 0 24 24" id="ic_collapse" xmlns="http://www.w3.org/2000/svg"><path fill-rule="evenodd" d="M15.781 18.219l-3.49-3.49-3.526 3.526-1.51-1.51 5-5 5 5-1.474 1.474zm0-6l-3.49-3.49-3.526 3.526-1.51-1.51 5-5 5 5-1.474 1.474z"/></symbol><symbol viewBox="0 0 24 24" id="ic_comment" xmlns="http://www.w3.org/2000/svg"><path fill-rule="evenodd" d="M7 17h4a2 2 0 0 0 2-2v-1h1v-4a2 2 0 0 0-2-2H8v1h3a2 2 0 0 1 2 2v3h3l1.146 1.146a.5.5 0 0 0 .853-.354v-.793a2 2 0 0 0 2-2v-5a2 2 0 0 0-2-2h-8a2 2 0 0 0-2 2v2h-3a2 2 0 0 0-2 2v4a2 2 0 0 0 2 2v.793a.5.5 0 0 0 .853.354L6.998 17z"/></symbol><symbol viewBox="0 0 24 24" id="ic_contentdata" xmlns="http://www.w3.org/2000/svg"><path d="M4 4.51A.51.51 0 0 1 4.51 4h8.981a.51.51 0 0 1 .51.51v8.981a.51.51 0 0 1-.51.51H4.51a.51.51 0 0 1-.51-.51V4.51zm12 0c0-.281.215-.51.49-.51h3.019a.5.5 0 0 1 .49.51v8.981c0 .281-.215.51-.49.51H16.49a.5.5 0 0 1-.49-.51V4.51zM4 16.491c0-.271.215-.49.49-.49h3.019c.271 0 .49.215.49.49v3.019c0 .271-.215.49-.49.49H4.49a.487.487 0 0 1-.49-.49v-3.019zm6 0c0-.271.215-.49.49-.49h3.019c.271 0 .49.215.49.49v3.019c0 .271-.215.49-.49.49H10.49a.487.487 0 0 1-.49-.49v-3.019zm6 0c0-.271.215-.49.49-.49h3.019c.271 0 .49.215.49.49v3.019c0 .271-.215.49-.49.49H16.49a.487.487 0 0 1-.49-.49v-3.019z"/></symbol><symbol viewBox="0 0 24 24" id="ic_contentstype" xmlns="http://www.w3.org/2000/svg"><path fill-rule="evenodd" d="M3 4.995C3 3.893 3.893 3 4.995 3h14.01C20.107 3 21 3.893 21 4.995v14.01A1.995 1.995 0 0 1 19.005 21H4.995A1.995 1.995 0 0 1 3 19.005V4.995zM7 7h10v6H7V7zm0 8.5c0-.828.666-1.5 1.5-1.5.828 0 1.5.666 1.5 1.5 0 .828-.666 1.5-1.5 1.5-.828 0-1.5-.666-1.5-1.5zm4-1.5h6v3h-6v-3zm8 5V5H5v14h14z"/></symbol><symbol viewBox="0 0 24 24" id="ic_crop" xmlns="http://www.w3.org/2000/svg"><path fill-rule="evenodd" d="M16 16V8H2.5a.5.5 0 0 1-.5-.5v-1a.5.5 0 0 1 .5-.5H6V2.5a.5.5 0 0 1 .5-.5h1a.5.5 0 0 1 .5.5V6h9.5a.5.5 0 0 1 .5.5V16h3.5a.5.5 0 0 1 .5.5v1a.5.5 0 0 1-.5.5h-15a.5.5 0 0 1-.5-.5v-8a.5.5 0 0 1 .5-.5h1a.5.5 0 0 1 .5.5V16h8zm.5 3h1a.5.5 0 0 1 .5.5v2a.5.5 0 0 1-.5.5h-1a.5.5 0 0 1-.5-.5v-2a.5.5 0 0 1 .5-.5z"/></symbol><symbol viewBox="0 0 24 24" id="ic_customfield" xmlns="http://www.w3.org/2000/svg"><path fill-rule="evenodd" d="M7.931 13.885a4.968 4.968 0 0 1-1.629-.675l-.841.736-1.406-1.406.736-.841a4.977 4.977 0 0 1-.675-1.629l-1.115-.074V8.007l1.115-.074c.128-.589.36-1.138.675-1.629l-.736-.841 1.406-1.406.841.736a4.977 4.977 0 0 1 1.629-.675l.074-1.115h1.989l.074 1.115c.589.128 1.138.36 1.629.675l.841-.736 1.406 1.406-.736.841c.315.491.547 1.041.675 1.629l1.115.074v1.989l-1.115.074a4.968 4.968 0 0 1-.675 1.629l.736.841-1.406 1.406-.841-.736a4.977 4.977 0 0 1-1.629.675L9.994 15H8.005l-.074-1.115zm6.976 5.732l-.583.603-1.137-.954.498-.686a3.482 3.482 0 0 1-.684-1.995l-.959-.257.216-1.412 1.053.14a3.508 3.508 0 0 1 1.216-1.447l-.321-1.014 1.353-.458.42.901a3.492 3.492 0 0 1 2.082.327l.591-.611 1.137.954-.495.682c.424.561.683 1.254.705 2.006l.934.25-.216 1.412-1.019-.135a3.515 3.515 0 0 1-1.239 1.477l.31.979-1.353.458-.407-.874a3.48 3.48 0 0 1-2.102-.346zM16.5 18a1.5 1.5 0 1 0-.001-3.001A1.5 1.5 0 0 0 16.5 18zM9 11a2 2 0 1 0 .001-3.999A2 2 0 0 0 9 11z"/></symbol><symbol viewBox="0 0 24 24" id="ic_date" xmlns="http://www.w3.org/2000/svg"><path fill-rule="evenodd" d="M3 9h18v9.991A2.002 2.002 0 0 1 19.005 21H4.995A2.004 2.004 0 0 1 3 18.991V9zm16-5h1.5c.276 0 .5.215.5.49v3.019c0 .271-.228.49-.5.49h-17a.492.492 0 0 1-.5-.49V4.49c0-.271.228-.49.5-.49H5v1c0 .556.452 1 1.009 1H7.99a1 1 0 0 0 1.009-1V4h6v1c0 .556.452 1 1.009 1h1.981a1 1 0 0 0 1.009-1V4zm-5.76 14.239c0 .098-.08.178-.178.178h-1.47a.178.178 0 0 1-.178-.178v-4.844l-.966.368-.154-.013a.174.174 0 0 1-.085-.129l-.165-1.208a.177.177 0 0 1 .097-.183l2.107-1.042.079-.018h.734c.098 0 .178.08.178.178v6.891zM6 2.496c0-.274.214-.495.505-.495h.991c.279 0 .505.216.505.495v2.009A.492.492 0 0 1 7.496 5h-.991A.496.496 0 0 1 6 4.505V2.496zm10 0c0-.274.214-.495.505-.495h.991c.279 0 .505.216.505.495v2.009a.492.492 0 0 1-.505.495h-.991A.496.496 0 0 1 16 4.505V2.496z"/></symbol><symbol viewBox="0 0 24 24" id="ic_design" xmlns="http://www.w3.org/2000/svg"><path fill-rule="evenodd" d="M20.728 6.648l-2.759-2.759.722-.722a.5.5 0 0 1 .707 0l2.051 2.051a.5.5 0 0 1 0 .707l-.722.722zm-.699.699L7.965 19.411l-2.918.157.159-2.916L17.27 4.588l2.759 2.759zm-7.545 9.341l2.494 2.494 3.448-3.448-1.584-1.584-.906.906-.91-.91 2.285-2.285 3.538 3.538a.5.5 0 0 1 0 .707l-5.5 5.5a.5.5 0 0 1-.707 0l-3.538-3.538 1.379-1.379zm-4.483-4.483l-1.379 1.379L2.77 9.732a.5.5 0 0 1 0-.707l5.5-5.5a.5.5 0 0 1 .707 0l3.852 3.852-2.496 2.496-1.158-1.158 1.117-1.117-1.65-1.65-3.448 3.448 2.807 2.807z"/></symbol><symbol viewBox="0 0 24 24" id="ic_dot" xmlns="http://www.w3.org/2000/svg"><circle cx="12" cy="12" r="9" fill-rule="evenodd"/></symbol><symbol viewBox="0 0 24 24" id="ic_download" xmlns="http://www.w3.org/2000/svg"><path fill-rule="evenodd" d="M13 13.743V7.5a.5.5 0 0 0-.5-.5h-1a.5.5 0 0 0-.5.5v6.254l-2.232-2.232a.5.5 0 0 0-.707 0l-.707.707a.5.5 0 0 0 0 .707l4.243 4.243a.5.5 0 0 0 .506.123.496.496 0 0 0 .312-.145l4.243-4.243a.5.5 0 0 0 0-.707l-.707-.707a.5.5 0 0 0-.707 0l-2.243 2.243zM12 21c-4.971 0-9-4.029-9-9s4.029-9 9-9 9 4.029 9 9-4.029 9-9 9z"/></symbol><symbol viewBox="0 0 24 24" id="ic_draft" xmlns="http://www.w3.org/2000/svg"><path fill-rule="evenodd" d="M9 3v-.51c0-.271.228-.49.491-.49h5.018c.271 0 .491.215.491.49V3h1.994A2 2 0 0 1 19 4.997v15.005a2 2 0 0 1-2.006 1.997H7.006A2 2 0 0 1 5 20.002V4.997A2 2 0 0 1 7.006 3H9zm0 2H7v15.2h10.2V5H15v.51c0 .271-.228.49-.491.49H9.491A.488.488 0 0 1 9 5.51V5zm0 9h6v1H9v-1zm0-4h6v1H9v-1zm0 2h6v1H9v-1z"/></symbol><symbol viewBox="0 0 24 24" id="ic_duplicate" xmlns="http://www.w3.org/2000/svg"><path fill-rule="evenodd" d="M16 5H6v11H4V5.003C4 3.897 4.902 3 6.009 3H16v2zM8 9.006A2.01 2.01 0 0 1 10.009 7h7.983c1.109 0 2.009.897 2.009 2.006v9.988A2.01 2.01 0 0 1 17.992 21h-7.983A2.007 2.007 0 0 1 8 18.994V9.006zM10 9v10h8V9h-8z"/></symbol><symbol viewBox="0 0 24 24" id="ic_edit" xmlns="http://www.w3.org/2000/svg"><path fill-rule="evenodd" d="M12.88 5l-2.469 2.4H5.399v11.2h11.2v-4.944l2.4-2.333v7.683A1.996 1.996 0 0 1 17.005 21H4.993a1.996 1.996 0 0 1-1.994-1.994V6.994C2.999 5.893 3.894 5 4.993 5h7.886zm9.558.294a.536.536 0 0 1-.038.72l-9.234 8.901-.006-.008.002.011-4.487 1.036v-.002a.451.451 0 0 1-.53-.128.533.533 0 0 1-.086-.525h-.001l1.446-4.715.03.01-.018-.022 9.234-8.901a.455.455 0 0 1 .673.035l3.015 3.587zM9.561 14.449l.859-2.8 1.832 2.179-2.691.621z"/></symbol><symbol viewBox="0 0 24 24" id="ic_eraser" xmlns="http://www.w3.org/2000/svg"><path fill-rule="evenodd" d="M8.596 3.025h7a2 2 0 0 1 2 2v14.857a2 2 0 0 1-2 2h-7a2 2 0 0 1-2-2V5.025a2 2 0 0 1 2-2zm-.429 11v6.286h7.857v-6.286H8.167z"/></symbol><symbol viewBox="0 0 24 24" id="ic_error" xmlns="http://www.w3.org/2000/svg"><path fill-rule="evenodd" d="M21.927 19.342l.001-.001-.034-.058-.052-.09-9.088-15.741a.862.862 0 0 0-1.547.068h-.001L2.189 19.139l.009.005a.856.856 0 0 0-.198.544c0 .478.387.866.865.866h18.269a.865.865 0 0 0 .792-1.211zm-9.919-.424a1.24 1.24 0 0 1-1.254-1.237c0-.693.561-1.254 1.254-1.254.676 0 1.237.561 1.237 1.254s-.561 1.237-1.237 1.237zm1.237-10.939v6.828a.504.504 0 0 1-.505.505h-1.472a.506.506 0 0 1-.512-.505V7.998l-.002-.019c0-.269.209-.481.467-.501v-.004h1.516c.277.002.5.216.507.492h.001v.013z"/></symbol><symbol viewBox="0 0 24 24" id="ic_fav" xmlns="http://www.w3.org/2000/svg"><path fill-rule="evenodd" d="M12 17l-5.878 3.09 1.123-6.545L2.489 8.91l6.572-.955L12 2l2.939 5.955 6.572.955-4.756 4.635 1.123 6.545z"/></symbol><symbol viewBox="0 0 24 24" id="ic_feedback" xmlns="http://www.w3.org/2000/svg"><path d="M6 14.808h13V6.961H5v8.827l1-.981zm1 1.962l-3.15 3.09a.5.5 0 0 1-.85-.357V7a2 2 0 0 1 2-2h14a2 2 0 0 1 2 2v7.77a2 2 0 0 1-2 2H7zm9.364-7.803a.446.446 0 0 1 0 .642l-4.192 4.085a.469.469 0 0 1-.322.133h-.018a.472.472 0 0 1-.33-.133l-2.865-2.792a.444.444 0 0 1 .002-.644l.919-.896a.487.487 0 0 1 .659 0l1.621 1.579 2.948-2.873a.49.49 0 0 1 .659 0l.92.898z"/></symbol><symbol viewBox="0 0 24 24" id="ic_file" xmlns="http://www.w3.org/2000/svg"><path fill-rule="evenodd" d="M8.09 2h9.916c1.101 0 1.993.898 1.993 1.991v16.018A1.994 1.994 0 0 1 18.005 22H5.993a1.998 1.998 0 0 1-1.994-1.999V5.957L8.089 2zm.599 2l-.1 2.606h-2.59V20h12V4h-9.31zm.31 6h6v1h-6v-1zm0 2h6v1h-6v-1zm0 2h6v1h-6v-1z"/></symbol><symbol viewBox="0 0 24 24" id="ic_filter" xmlns="http://www.w3.org/2000/svg"><path fill-rule="evenodd" d="M14 14.222v6.112a.5.5 0 0 1-.5.5l-.149-.023-3-.939a.5.5 0 0 1-.351-.477v-5.173L3.168 8.149A.5.5 0 0 1 3 7.775V4.5a.5.5 0 0 1 .5-.5h17a.5.5 0 0 1 .5.5v3.275a.5.5 0 0 1-.168.374L14 14.222z"/></symbol><symbol viewBox="0 0 24 24" id="ic_flag" xmlns="http://www.w3.org/2000/svg"><path fill-rule="evenodd" d="M3 3.508C3 3.227 3.216 3 3.495 3h2.009a.5.5 0 0 1 .495.508v17.984a.498.498 0 0 1-.495.508H3.495A.5.5 0 0 1 3 21.492V3.508zm4-.007A.5.5 0 0 1 7.494 3h12.013c.273 0 .414.209.314.469l-1.745 4.562a1.518 1.518 0 0 0 0 .938l1.745 4.562c.099.259-.046.469-.314.469H7.494A.501.501 0 0 1 7 13.499V3.501z"/></symbol><symbol viewBox="0 0 24 24" id="ic_fliph" xmlns="http://www.w3.org/2000/svg"><path fill-rule="evenodd" d="M10 5.347V19.5a.5.5 0 0 1-.5.5H5.176a.5.5 0 0 1-.5-.5l.022-.146L9.022 5.201a.5.5 0 0 1 .978.146zM9 8L6 19h3V8zm5.978-2.799l4.324 14.153a.5.5 0 0 1-.332.624l-.146.022H14.5a.5.5 0 0 1-.5-.5V5.347a.5.5 0 0 1 .978-.146zM12 4a.5.5 0 0 1 .5.5v15a.5.5 0 0 1-1 0v-15A.5.5 0 0 1 12 4z"/></symbol><symbol viewBox="0 0 24 24" id="ic_flipv" xmlns="http://www.w3.org/2000/svg"><path fill-rule="evenodd" d="M4.5 11.5h15a.5.5 0 0 1 0 1h-15a.5.5 0 0 1 0-1zm0 2.5h14.996a.5.5 0 0 1 .144.979L4.644 19.478a.501.501 0 0 1-.623-.335L4 18.999V14.5a.5.5 0 0 1 .5-.5zm.144-9.512l15.102 4.533a.5.5 0 0 1-.144.979H4.5a.5.5 0 0 1-.5-.5V4.967a.5.5 0 0 1 .5-.5l.144.021zM5 5.5V9h11.5L5 5.5z"/></symbol><symbol viewBox="0 0 24 24" id="ic_fullscreen" xmlns="http://www.w3.org/2000/svg"><path fill-rule="evenodd" d="M3.923 15.095a.316.316 0 1 1 .534-.172l1.08 1.08 2.899-2.899a.316.316 0 0 1 .446 0l1.998 1.998a.316.316 0 0 1 0 .446l-2.9 2.899 1.08 1.08a.314.314 0 0 1-.17.534l-5.523.933a.317.317 0 0 1-.276-.087v-.001a.313.313 0 0 1-.088-.274l.919-5.538zm16.154-6.19a.314.314 0 0 1-.215.249.318.318 0 0 1-.32-.077l-1.08-1.08-2.899 2.899a.316.316 0 0 1-.446 0l-1.998-1.998a.316.316 0 0 1 0-.446l2.9-2.9-1.08-1.08a.315.315 0 0 1 .17-.534l5.523-.933a.317.317 0 0 1 .276.088v.001a.313.313 0 0 1 .088.274l-.919 5.538z"/></symbol><symbol viewBox="0 0 24 24" id="ic_gallery" xmlns="http://www.w3.org/2000/svg"><path fill-rule="evenodd" d="M2 9.006C2 7.898 2.895 7 3.994 7h12.012A2 2 0 0 1 18 9.006v9.988A2.001 2.001 0 0 1 16.006 21H3.994A2 2 0 0 1 2 18.994V9.006zM16 19h-1.959l-.03-.083.003-.002-4.098-7.416-.002.001a.552.552 0 0 0-.499-.328.554.554 0 0 0-.506.343L6.182 16.45l-.668-1.208-.001.001a.292.292 0 0 0-.263-.173.292.292 0 0 0-.267.181l-.985 1.782V9.001h12v10zm-2.5-6a1.5 1.5 0 1 0-.001-3.001A1.5 1.5 0 0 0 13.5 13zM7 4h12a2 2 0 0 1 2 2v11a2 2 0 0 1-2 2h-.001V7a1 1 0 0 0-1-1H5a2 2 0 0 1 2-2z"/></symbol><symbol viewBox="0 0 24 24" id="ic_grid" xmlns="http://www.w3.org/2000/svg"><path fill-rule="evenodd" d="M3 4.995C3 3.893 3.893 3 4.995 3h14.01C20.107 3 21 3.893 21 4.995v14.01A1.995 1.995 0 0 1 19.005 21H4.995A1.995 1.995 0 0 1 3 19.005V4.995zM19 19V5H5v14h14zM10.75 7h2.5v2.5h-2.5V7zM7 7h2.5v2.5H7V7zm7.5 0H17v2.5h-2.5V7zM7 10.75h2.5v2.5H7v-2.5zm3.75 0h2.5v2.5h-2.5v-2.5zm3.75 0H17v2.5h-2.5v-2.5zM7 14.5h2.5V17H7v-2.5zm3.75 0h2.5V17h-2.5v-2.5zm3.75 0H17V17h-2.5v-2.5z"/></symbol><symbol viewBox="0 0 24 24" id="ic_header" xmlns="http://www.w3.org/2000/svg"><path fill-rule="evenodd" d="M9 10.5v-6H6v15h3v-6h6v6h3v-15h-3v6H9z"/></symbol><symbol viewBox="0 0 24 24" id="ic_hr" xmlns="http://www.w3.org/2000/svg"><path fill-rule="evenodd" d="M4 8v8.425h1.853v-3.634h3.41v3.634h1.853V8H9.263v3.233h-3.41V8H4zm10.596 3.811h2.029c.425 0 .743-.094.956-.283.212-.189.319-.496.319-.92 0-.409-.106-.706-.319-.891-.212-.185-.531-.277-.956-.277h-2.029v2.372zM12.743 8h4.543c.378 0 .718.061 1.021.183.303.122.562.289.779.501.216.212.382.458.496.737.114.279.171.58.171.903 0 .496-.104.924-.313 1.286-.208.362-.549.637-1.021.826v.024c.228.063.417.159.566.289.149.13.271.283.366.46.094.177.163.372.206.584.043.212.073.425.088.637l.024.472.041.555c.02.189.051.368.094.537.043.169.108.313.195.431h-1.853a3.284 3.284 0 0 1-.189-.956c-.024-.37-.059-.724-.106-1.062-.063-.441-.197-.763-.401-.968-.205-.205-.539-.307-1.003-.307h-1.853v3.292h-1.853V7.999z"/></symbol><symbol viewBox="0 0 24 24" id="ic_image" xmlns="http://www.w3.org/2000/svg"><path fill-rule="evenodd" d="M3 5.994C3 4.893 3.893 4 4.995 4h14.01C20.107 4 21 4.895 21 5.994v12.012A1.995 1.995 0 0 1 19.005 20H4.995A1.996 1.996 0 0 1 3 18.006V5.994zM19 18h-2.285l-.035-.1.004-.002-4.781-8.9-.002.001a.646.646 0 0 0-.582-.394.648.648 0 0 0-.591.412l-3.182 5.922-.779-1.45-.001.001a.34.34 0 0 0-.307-.208.34.34 0 0 0-.311.217l-1.149 2.139V5.999h14v12zm-3-7a2 2 0 1 0 .001-3.999A2 2 0 0 0 16 11z"/></symbol><symbol viewBox="0 0 24 24" id="ic_info" xmlns="http://www.w3.org/2000/svg"><path fill-rule="evenodd" d="M12 3a9 9 0 1 0 0 18 9 9 0 0 0 0-18zm.918 14.006c0 .173-.14.313-.313.313h-1.211a.313.313 0 0 1-.313-.313v-5.812c0-.173.14-.313.313-.313h1.211c.173 0 .313.14.313.313v5.812zm-.926-7.422c-.593 0-1.084-.492-1.084-1.099s.492-1.084 1.084-1.084c.607 0 1.099.477 1.099 1.084 0 .607-.492 1.099-1.099 1.099z"/></symbol><symbol viewBox="0 0 24 24" id="ic_italic" xmlns="http://www.w3.org/2000/svg"><path fill-rule="evenodd" d="M12.435 16.33l.105-.38c.005-.021.557-2.182 1.147-4.438 1.015-3.879 1.263-4.66 1.318-4.779.189-.396.495-.695.936-.916.381-.19.866-.315 1.443-.373a.654.654 0 0 0 .447-.267.824.824 0 0 0 .168-.486.688.688 0 0 0-.682-.692H9.584a.688.688 0 0 0-.682.692v.024c0 .341.241.628.573.682.439.072 1.042.172 1.515.399.243.116.431.257.557.418.143.182.213.393.213.642 0 .467-.135.935-.265 1.387l-.082.291c-.167.603-.412 1.519-.696 2.579-.655 2.441-1.47 5.477-1.675 6.055-.138.389-.65 1.311-2.413 1.448a.674.674 0 0 0-.447.219.694.694 0 0 0-.181.47v.002c0 .381.306.692.682.692h7.735a.688.688 0 0 0 .682-.692v-.005a.686.686 0 0 0-.598-.685l-.201-.024c-.679-.079-1.523-.179-1.878-.647-.165-.217-.217-.504-.163-.872.035-.249.105-.491.178-.745"/></symbol><symbol viewBox="0 0 24 24" id="ic_link" xmlns="http://www.w3.org/2000/svg"><path fill-rule="evenodd" d="M16.366 6.438l1.732 1a2 2 0 0 1 .732 2.732l-5 8.66a2 2 0 0 1-2.732.732l-1.732-1-1.5 2.598a1 1 0 0 1-1.732-1l1.5-2.598-1.732-1a2 2 0 0 1-.732-2.732l5-8.66a2 2 0 0 1 2.732-.732l1.732 1 1.5-2.598a1 1 0 0 1 1.732 1l-1.5 2.598zm-1 1.732l-.5.866a1 1 0 0 1-1.732-1l.5-.866-1.299-.75a.5.5 0 0 0-.683.183l-4.5 7.794a.5.5 0 0 0 .183.683l1.299.75.5-.866a1 1 0 0 1 1.732 1l-.5.866 1.299.75a.5.5 0 0 0 .683-.183l4.5-7.794a.5.5 0 0 0-.183-.683l-1.299-.75z"/></symbol><symbol viewBox="0 0 24 24" id="ic_list" xmlns="http://www.w3.org/2000/svg"><path fill-rule="evenodd" d="M8 11.505c0-.279.229-.505.5-.505h10.999c.276 0 .5.214.5.505v.991a.506.506 0 0 1-.5.505H8.5a.495.495 0 0 1-.5-.505v-.991zm0 6c0-.279.229-.505.5-.505h10.999c.276 0 .5.214.5.505v.991a.506.506 0 0 1-.5.505H8.5a.495.495 0 0 1-.5-.505v-.991zm0-12C8 5.226 8.229 5 8.5 5h10.999c.276 0 .5.214.5.505v.991a.506.506 0 0 1-.5.505H8.5a.495.495 0 0 1-.5-.505v-.991zM5 7a1 1 0 1 1 0-2 1 1 0 0 1 0 2zm0 6a1 1 0 1 1 0-2 1 1 0 0 1 0 2zm0 6a1 1 0 1 1 0-2 1 1 0 0 1 0 2z"/></symbol><symbol viewBox="0 0 24 24" id="ic_lock" xmlns="http://www.w3.org/2000/svg"><path fill-rule="evenodd" d="M11 15.732V17.5a.5.5 0 0 0 .5.5h1a.5.5 0 0 0 .5-.5v-1.768A1.999 1.999 0 0 0 12 12a2 2 0 0 0-1 3.732zM18 9h1a2 2 0 0 1 2 2v8a2 2 0 0 1-2 2H5a2 2 0 0 1-2-2v-8a2 2 0 0 1 2-2h1V8a6 6 0 1 1 12 0v1zM8 9h8V8a4 4 0 0 0-8 0v1z"/></symbol><symbol viewBox="0 0 24 24" id="ic_mail" xmlns="http://www.w3.org/2000/svg"><path fill-rule="evenodd" d="M4 5h16a2 2 0 0 1 2 2v10a2 2 0 0 1-2 2H4a2 2 0 0 1-2-2V7a2 2 0 0 1 2-2zM2 8v2l9.995 5L22 10V8l-10.03 5L2 8z"/></symbol><symbol viewBox="0 0 24 24" id="ic_member" xmlns="http://www.w3.org/2000/svg"><path fill-rule="evenodd" d="M9.88 11.46l-2.558 1.161c-.704.322-1.159 1.045-1.159 1.846v3.093H3.63c-.348 0-.631-.32-.631-.715v-2.948c0-.294.157-.557.396-.666l3.832-1.738c-.908-.534-1.529-1.606-1.529-2.846 0-1.772 1.265-3.206 2.827-3.206.51 0 .982.165 1.394.433a5.463 5.463 0 0 0-.416 2.095c0 1.118.342 2.174.931 3.038a2.857 2.857 0 0 1-.555.454zm10.635 2.184c.293.138.484.46.484.822v3.648c0 .489-.35.885-.781.885H8.102c-.432 0-.781-.396-.781-.885v-3.648c0-.363.194-.689.49-.824l3.406-1.546 1.336-.607c-.603-.354-1.099-.905-1.434-1.573a4.336 4.336 0 0 1-.459-1.949c0-.409.07-.795.172-1.166.441-1.618 1.755-2.802 3.327-2.802 1.602 0 2.937 1.227 3.352 2.893.085.344.146.7.146 1.075 0 .668-.153 1.294-.41 1.846-.324.696-.819 1.273-1.428 1.647l1.395.649 3.3 1.534z"/></symbol><symbol viewBox="0 0 24 24" id="ic_menu" xmlns="http://www.w3.org/2000/svg"><path fill-rule="evenodd" d="M10 10.49c0-.27.215-.49.49-.49h3.02c.27 0 .49.215.49.49v3.02c0 .27-.215.49-.49.49h-3.02a.488.488 0 0 1-.49-.49v-3.02zm0-6c0-.27.215-.49.49-.49h3.02c.27 0 .49.215.49.49v3.02c0 .27-.215.49-.49.49h-3.02a.488.488 0 0 1-.49-.49V4.49zm0 12c0-.27.215-.49.49-.49h3.02c.27 0 .49.215.49.49v3.02c0 .27-.215.49-.49.49h-3.02a.488.488 0 0 1-.49-.49v-3.02z"/></symbol><symbol viewBox="0 0 24 24" id="ic_move" xmlns="http://www.w3.org/2000/svg"><path fill-rule="evenodd" d="M9 7a2 2 0 1 1 .001 3.999A2 2 0 0 1 9 7zm6 0a2 2 0 1 1 .001 3.999A2 2 0 0 1 15 7zm-6 6a2 2 0 1 1 .001 3.999A2 2 0 0 1 9 13zm6 0a2 2 0 1 1 .001 3.999A2 2 0 0 1 15 13zM9 1a2 2 0 1 1 .001 3.999A2 2 0 0 1 9 1zm6 0a2 2 0 1 1 .001 3.999A2 2 0 0 1 15 1zM9 19a2 2 0 1 1 .001 3.999A2 2 0 0 1 9 19zm6 0a2 2 0 1 1 .001 3.999A2 2 0 0 1 15 19z"/></symbol><symbol viewBox="0 0 24 24" id="ic_movie" xmlns="http://www.w3.org/2000/svg"><path fill-rule="evenodd" d="M3 7.006A2 2 0 0 1 4.995 5h14.01A2 2 0 0 1 21 7.006v9.988A2 2 0 0 1 19.005 19H4.995A2 2 0 0 1 3 16.994V7.006zM19 17V7H5v10h14zm-4-5l-2.501 1.5L10 15.001v-6l2.499 1.501L15 12.001z"/></symbol><symbol viewBox="0 0 24 24" id="ic_mt" xmlns="http://www.w3.org/2000/svg"><path fill-rule="evenodd" d="M10.654 17.361c.783.194 1.568.21 2.314.078l.724 2.506-.597.191-2.29.782c-.628.215-1.513-.005-1.966-.487l-1.653-1.758a24.124 24.124 0 0 0-.849-.85 24.906 24.906 0 0 0-.886-.814l-1.827-1.578c-.501-.433-.753-1.303-.558-1.934l.707-2.3.172-.598 2.548.631a5.504 5.504 0 0 0 1.642 4.745 5.552 5.552 0 0 0 2.519 1.387zm8.99-2.235l-.463 2.36c-.127.647-.76 1.299-1.408 1.447l-2.36.542-.608.152-.724-2.507c1.594-.64 2.87-2 3.318-3.783a5.486 5.486 0 0 0-1.14-4.887l1.825-1.876.465.417 1.827 1.578c.501.433.752 1.303.558 1.934l-.707 2.3c-.097.316-.211.735-.317 1.156-.106.421-.203.845-.266 1.168zm-9.178-8.437a5.546 5.546 0 0 0-3.693 3.424l-2.548-.631.131-.609.463-2.36c.127-.648.76-1.299 1.408-1.447l2.359-.542c.324-.074.746-.186 1.167-.305.42-.12.838-.247 1.152-.355l2.29-.782c.628-.215 1.513.004 1.966.487l1.653 1.758.436.447-1.824 1.875a5.578 5.578 0 0 0-4.96-.96z"/></symbol><symbol viewBox="0 0 24 24" id="ic_multiline" xmlns="http://www.w3.org/2000/svg"><path fill-rule="evenodd" d="M3 3.993C3 3.444 3.445 3 3.993 3h16.013c.549 0 .993.445.993.993v16.013a.993.993 0 0 1-.993.993H3.993A.993.993 0 0 1 3 20.006V3.993zM5 10v9h14v-9H5zm0-4v2h7V6H5z"/></symbol><symbol viewBox="0 0 24 24" id="ic_ol" xmlns="http://www.w3.org/2000/svg"><path fill-rule="evenodd" d="M6 18.5H4V18h2v-1h.5v2.5H4V19h2v-.5zm-2-6.25V12h2v-1h.5v1.5h-2v.5h2v.5H4v-1.25zm4-.745c0-.279.229-.505.5-.505h10.999c.276 0 .5.214.5.505v.991a.506.506 0 0 1-.5.505H8.5a.495.495 0 0 1-.5-.505v-.991zm0 6c0-.279.229-.505.5-.505h10.999c.276 0 .5.214.5.505v.991a.506.506 0 0 1-.5.505H8.5a.495.495 0 0 1-.5-.505v-.991zm0-12C8 5.226 8.229 5 8.5 5h10.999c.276 0 .5.214.5.505v.991a.506.506 0 0 1-.5.505H8.5a.495.495 0 0 1-.5-.505v-.991zM5 4.5h.5v3H5v-3zM4 11h2v.5H4V11zm0 6h2v.5H4V17z"/></symbol><symbol viewBox="0 0 24 24" id="ic_permalink" xmlns="http://www.w3.org/2000/svg"><path fill-rule="evenodd" d="M17.51 8.51l-7.743 7.743a.5.5 0 0 1-.707 0l-1.414-1.414a.5.5 0 0 1 0-.707l7.743-7.743-.702-.702a.5.5 0 0 1 .271-.847l4.351-.725a.5.5 0 0 1 .575.411v.164l-.725 4.351a.5.5 0 0 1-.846.271l-.803-.803zM12.864 4l-2 2H6v12h12v-4.994l2-2v7A1.996 1.996 0 0 1 18.006 20H5.994A1.996 1.996 0 0 1 4 18.006V5.994C4 4.893 4.895 4 5.994 4h6.87z"/></symbol><symbol viewBox="0 0 24 24" id="ic_plugin" xmlns="http://www.w3.org/2000/svg"><path fill-rule="evenodd" d="M3 11V7a2 2 0 0 1 2-2h4V4a2 2 0 1 1 4 0v1h4a2 2 0 0 1 2 2v4h1a2 2 0 1 1 0 4h-1v4a2 2 0 0 1-2 2h-4v-1a2 2 0 1 0-4 0v1H5a2 2 0 0 1-2-2v-4h1a2 2 0 1 0 0-4H3z"/></symbol><symbol viewBox="0 0 24 24" id="ic_preview" xmlns="http://www.w3.org/2000/svg"><path fill-rule="evenodd" d="M21.664 11.372c.202.13.336.351.336.602a.704.704 0 0 1-.196.484l-.052.05-4.342 4.18-.017-.017A7.38 7.38 0 0 1 11.977 19a7.401 7.401 0 0 1-4.943-1.867l-.01.009-4.74-4.562a.71.71 0 0 1-.283-.561c0-.183.073-.348.189-.475l-.003-.003 4.37-4.206A7.382 7.382 0 0 1 11.978 5c1.918 0 3.662.716 4.961 1.884l.033-.031 4.695 4.519zM11.999 17a5 5 0 1 0-.001-10.001A5 5 0 0 0 11.999 17zm0-2a3 3 0 1 1 0-6 3 3 0 0 1 0 6z"/></symbol><symbol viewBox="0 0 24 24" id="ic_private" xmlns="http://www.w3.org/2000/svg"><path fill-rule="evenodd" d="M17 16.343l1.646-1.646a.5.5 0 0 1 .707.707l-1.646 1.646 1.889 1.889a.5.5 0 0 1-.707.707L17 17.757l-1.889 1.889a.5.5 0 0 1-.707-.707l1.889-1.889-1.646-1.646a.5.5 0 0 1 .707-.707L17 16.343zM20.945 13h-3.028A6.007 6.007 0 0 0 12 6c-3.309 0-6 2.692-6 6a6.007 6.007 0 0 0 7 5.917v3.028A9 9 0 0 1 3 12a9 9 0 1 1 17.945 1zm-4.582-3.955a.461.461 0 0 1 0 .655l-4.192 4.165a.467.467 0 0 1-.322.136h-.018a.466.466 0 0 1-.33-.136l-2.865-2.846a.458.458 0 0 1 .002-.656l.919-.913a.481.481 0 0 1 .659 0l1.621 1.61 2.948-2.929a.483.483 0 0 1 .659 0l.92.915z"/></symbol><symbol viewBox="0 0 24 24" id="ic_publish" xmlns="http://www.w3.org/2000/svg"><g fill-rule="evenodd"><path d="M14 16v4.5a.5.5 0 0 1-.5.5h-3a.5.5 0 0 1-.5-.5V16H7.442a.458.458 0 0 1-.393-.197.314.314 0 0 1 .032-.378l4.544-5.271a.475.475 0 0 1 .36-.154c.142 0 .277.057.359.152l4.573 5.272a.31.31 0 0 1 .033.378.461.461 0 0 1-.392.197H14zm-8.25 3H5a2 2 0 0 1-2-2V6a2 2 0 0 1 2-2h14a2 2 0 0 1 2 2v11a2 2 0 0 1-2 2h-1v-2h1V8H5v9h2.5a.5.5 0 0 1 .5.5v1a.5.5 0 0 1-.5.5H5.75zM6 7a1 1 0 1 0 0-2 1 1 0 0 0 0 2z"/><rect width="3" height="2" x="16" y="17" rx=".5"/></g></symbol><symbol viewBox="0 0 24 24" id="ic_quotation" xmlns="http://www.w3.org/2000/svg"><path fill-rule="evenodd" d="M17.207 11c.068-1.487 1.044-2.733 2.929-2.997.124-.011.232-.079.322-.203a.408.408 0 0 0 .068-.356l-.458-2.085a.434.434 0 0 0-.17-.271.422.422 0 0 0-.305-.085c-2.204.113-3.854.757-4.95 1.932-1.096 1.175-1.644 2.485-1.644 4.451l.014-.001-.014.118v5.993c0 .271.22.503.491.503h5.018a.502.502 0 0 0 .491-.503v-5.993a.502.502 0 0 0-.491-.503h-1.302zm-9 0c.068-1.487 1.044-2.733 2.929-2.997.124-.011.232-.079.322-.203a.408.408 0 0 0 .068-.356l-.458-2.085a.434.434 0 0 0-.17-.271.422.422 0 0 0-.305-.085c-2.204.113-3.854.757-4.95 1.932C4.547 8.11 3.999 9.42 3.999 11.386l.014-.001-.014.118v5.993c0 .271.22.503.491.503h5.018a.502.502 0 0 0 .491-.503v-5.993A.502.502 0 0 0 9.508 11H8.206z"/></symbol><symbol viewBox="0 0 24 24" id="ic_radio" xmlns="http://www.w3.org/2000/svg"><path fill-rule="evenodd" d="M12 21c-4.971 0-9-4.029-9-9s4.029-9 9-9 9 4.029 9 9-4.029 9-9 9zm0-3a6 6 0 1 0 0-12 6 6 0 0 0 0 12zm0-2a4 4 0 1 1 0-8 4 4 0 0 1 0 8z"/></symbol><symbol viewBox="0 0 24 24" id="ic_redo" xmlns="http://www.w3.org/2000/svg"><path fill-rule="evenodd" d="M18.88 6.198a9 9 0 1 0-.053 11.667c.16-.26.134-.473-.073-.64a55.331 55.331 0 0 0-1.75-1.29c-.158-.112-.326-.102-.503.032-.083.096-.17.19-.26.28l-.008.01.007-.01a6 6 0 1 1 .343-8.12l-1.394 1.17c-.103.09-.14.217-.08.288.03.035.077.05.13.044l4.818.78.003-.004c.07.02.164-.004.243-.07.072-.06.11-.14.11-.206l.01-.003.068-4.9c.017-.054.012-.105-.018-.142-.06-.07-.197-.057-.304.033l-1.287 1.08z"/></symbol><symbol viewBox="0 0 24 24" id="ic_related" xmlns="http://www.w3.org/2000/svg"><path fill-rule="evenodd" d="M14.007 10.518l-3.186-3.186a.5.5 0 0 0-.707 0L9.051 8.395a.5.5 0 0 0 0 .707l2.87 2.87-2.87 2.87a.5.5 0 0 0 0 .707l1.063 1.063a.5.5 0 0 0 .707 0l3.186-3.186.039-.035 1.063-1.063a.497.497 0 0 0 .146-.356.503.503 0 0 0-.146-.356l-1.063-1.063-.039-.035zM12 21c-4.971 0-9-4.029-9-9s4.029-9 9-9 9 4.029 9 9-4.029 9-9 9z"/></symbol><symbol viewBox="0 0 24 24" id="ic_reload" xmlns="http://www.w3.org/2000/svg"><path fill-rule="evenodd" d="M7.499 18A7.467 7.467 0 0 0 12 19.5c4.144 0 7.5-3.358 7.5-7.5l-.005-.27c.264-.454.661-.694 1.191-.719.529-.025.963.14 1.301.494l.012.495c0 5.523-4.477 10-10 10a9.962 9.962 0 0 1-6.5-2.4v1.9a.5.5 0 0 1-1 0v-4a.502.502 0 0 1 .5-.5h4a.5.5 0 0 1 0 1H7.498zm13.355-9.146A.499.499 0 0 1 20.5 9h-4a.5.5 0 0 1 0-1h1.846A7.493 7.493 0 0 0 12 4.5a7.499 7.499 0 0 0-7.245 9.447c.013.487-.32.825-.998 1.012-.701.193-1.172.077-1.413-.349A10.027 10.027 0 0 1 2 12C2 6.477 6.477 2 12 2a9.985 9.985 0 0 1 8 3.999V4.5a.5.5 0 0 1 1 0v3.136l.012.026L21 7.641V8.5a.502.502 0 0 1-.146.354z"/></symbol><symbol viewBox="0 0 24 24" id="ic_remove" xmlns="http://www.w3.org/2000/svg"><path fill-rule="evenodd" d="M12 3a9 9 0 1 1-.001 18.001A9 9 0 0 1 12 3zm0 2c-3.86 0-7 3.141-7 7 0 3.86 3.14 7 7 7s7-3.14 7-7c0-3.859-3.14-7-7-7zm-4.5 6h9a.5.5 0 0 1 .5.5v1a.5.5 0 0 1-.5.5h-9a.5.5 0 0 1-.5-.5v-1a.5.5 0 0 1 .5-.5z"/></symbol><symbol viewBox="0 0 24 24" id="ic_replace" xmlns="http://www.w3.org/2000/svg"><path fill-rule="evenodd" d="M21.313 19.11a2 2 0 1 1-2.828 2.828l-4.421-4.421a7.958 7.958 0 0 1-5.759.903l-.582 1.046a.5.5 0 0 1-.89-.03l-1.859-3.963a.5.5 0 0 1 .394-.709l4.347-.509a.5.5 0 0 1 .495.739l-.338.61a4.936 4.936 0 0 0 3.663-1.444c1.347-1.347 1.742-3.267 1.23-4.972l2.292-2.292c1.29 2.441 1.248 5.402-.165 7.793l4.421 4.421zM15.34 6.405a.5.5 0 0 1-.444.679l-4.372.198a.5.5 0 0 1-.441-.773l.538-.823a4.94 4.94 0 0 0-4.157 1.403c-1.543 1.542-1.847 3.834-.953 5.694l-2.212 2.213A8.002 8.002 0 0 1 4.342 4.968c2.175-2.175 5.282-2.809 8.028-1.956l.514-.786a.5.5 0 0 1 .885.094l1.571 4.085z"/></symbol><symbol viewBox="0 0 24 24" id="ic_role" xmlns="http://www.w3.org/2000/svg"><path fill-rule="evenodd" d="M5.329 17.231C4.82 16.682 4.5 15.886 4.5 15c0-1.657 1.119-3 2.5-3s2.5 1.343 2.5 3c0 .89-.323 1.69-.837 2.24l1.991.648a.5.5 0 0 1 .345.475V20.5a.5.5 0 0 1-.5.5h-7a.5.5 0 0 1-.5-.5v-2.139a.5.5 0 0 1 .343-.475l1.986-.655zm10 0c-.509-.549-.829-1.345-.829-2.231 0-1.657 1.119-3 2.5-3s2.5 1.343 2.5 3c0 .89-.323 1.69-.837 2.24l1.991.648a.5.5 0 0 1 .345.475V20.5a.5.5 0 0 1-.5.5h-7a.5.5 0 0 1-.5-.5v-2.139a.5.5 0 0 1 .343-.475l1.986-.655zm-5-9C9.82 7.682 9.5 6.886 9.5 6c0-1.657 1.119-3 2.5-3s2.5 1.343 2.5 3c0 .89-.323 1.69-.837 2.24l1.991.648a.5.5 0 0 1 .345.475V11.5a.5.5 0 0 1-.5.5h-7a.5.5 0 0 1-.5-.5V9.361a.5.5 0 0 1 .343-.475l1.986-.655z"/></symbol><symbol viewBox="0 0 24 24" id="ic_rss" xmlns="http://www.w3.org/2000/svg"><path d="M6 16a1.999 1.999 0 1 1 0 4 2 2 0 0 1 0-4zm-.433-6c4.63 0 8.4 3.785 8.432 8.451H14v.822h-.009a.81.81 0 0 1-.706.717V20h-1.448v-.002a.81.81 0 0 1-.786-.725h-.009v-.822h.008c-.032-3.024-2.479-5.474-5.482-5.474l-.032-.002v.011h-.815v-.009a.809.809 0 0 1-.71-.713h-.01v-1.462h.002a.813.813 0 0 1 .719-.794v-.009h.815v.002l.032-.002zm14.432 8.414H20v.842h-.009a.83.83 0 0 1-.725.734V20h-1.487v-.002a.833.833 0 0 1-.808-.742h-.009v-.842h.008C16.936 12.14 11.854 7.047 5.609 7.047l-.033-.002v.012h-.837v-.009a.83.83 0 0 1-.73-.729h-.01V4.823h.002a.832.832 0 0 1 .738-.812v-.009h.837v.002l.033-.002c7.915 0 14.356 6.461 14.39 14.414z"/></symbol><symbol viewBox="0 0 24 24" id="ic_search" xmlns="http://www.w3.org/2000/svg"><path fill-rule="evenodd" d="M14.064 16.893a8 8 0 1 1 2.829-2.829l4.421 4.421a2 2 0 1 1-2.828 2.828l-4.421-4.421zm-.529-3.357a5 5 0 0 0 0-7.071 5 5 0 0 0-7.071 0 5 5 0 0 0 0 7.071 5 5 0 0 0 7.071 0z"/></symbol><symbol viewBox="0 0 24 24" id="ic_selectbox" xmlns="http://www.w3.org/2000/svg"><path fill-rule="evenodd" d="M3 9c0-1.104.893-2 1.995-2h14.01C20.107 7 21 7.887 21 9v6.001c0 1.104-.893 2-1.995 2H4.995a1.992 1.992 0 0 1-1.995-2V9zm11.5 5l1.249-2.001L17 10h-5l1.251 1.999L14.501 14z"/></symbol><symbol viewBox="0 0 24 24" id="ic_setting" xmlns="http://www.w3.org/2000/svg"><path fill-rule="evenodd" d="M21.52 10.381l-2.537-.25a7.157 7.157 0 0 0-.725-1.743l1.62-1.974a.531.531 0 0 0-.036-.714l-1.541-1.542a.535.535 0 0 0-.715-.035l-1.974 1.62a7.19 7.19 0 0 0-1.743-.725l-.25-2.538a.532.532 0 0 0-.53-.48H10.91a.533.533 0 0 0-.53.48l-.25 2.539a7.167 7.167 0 0 0-1.742.725L6.413 4.123a.531.531 0 0 0-.715.035L4.157 5.699a.533.533 0 0 0-.036.714l1.621 1.974a7.134 7.134 0 0 0-.725 1.742l-2.539.25a.532.532 0 0 0-.481.53v2.179c0 .274.208.504.481.53l2.539.25a7.15 7.15 0 0 0 .725 1.742l-1.62 1.974a.53.53 0 0 0 .035.715l1.541 1.541a.535.535 0 0 0 .715.035l1.974-1.62a7.157 7.157 0 0 0 1.743.725l.25 2.538c.027.273.256.48.53.48h2.179a.533.533 0 0 0 .53-.48l.25-2.538a7.121 7.121 0 0 0 1.743-.726l1.974 1.62a.531.531 0 0 0 .715-.035l1.541-1.541a.532.532 0 0 0 .035-.715l-1.619-1.973c.319-.55.562-1.134.725-1.742l2.537-.25a.533.533 0 0 0 .481-.53v-2.179a.533.533 0 0 0-.48-.53zm-9.519 4.57a2.95 2.95 0 1 1 0-5.901 2.95 2.95 0 0 1 0 5.901z"/></symbol><symbol viewBox="0 0 24 24" id="ic_singleline" xmlns="http://www.w3.org/2000/svg"><defs><path id="cxa" d="M3 4.995C3 3.893 3.893 3 4.995 3h14.01C20.107 3 21 3.893 21 4.995v14.01A1.995 1.995 0 0 1 19.005 21H4.995A1.995 1.995 0 0 1 3 19.005V4.995zM5 12v4h14v-4H5zm0-4v2h7V8H5z"/></defs><g><use xlink:href="#cxa"/><path stroke="#000" stroke-width="1.5" d="M3.75 4.995v14.01c0 .688.557 1.245 1.245 1.245h14.01c.688 0 1.245-.557 1.245-1.245V4.995c0-.688-.557-1.245-1.245-1.245H4.995c-.688 0-1.245.557-1.245 1.245zm.5 11.755v-5.5h15.5v5.5H4.25zm0-9.5h8.5v3.5h-8.5v-3.5z"/></g></symbol><symbol viewBox="0 0 24 24" id="ic_sites" xmlns="http://www.w3.org/2000/svg"><path fill-rule="evenodd" d="M18 7h1a2 2 0 0 1 2 2v10a2 2 0 0 1-2 2H8a2 2 0 0 1-2-2v-1h10a2 2 0 0 0 2-2V7h1v10a2 2 0 0 1-2 2H6v-1H5a2 2 0 0 1-2-2V6a2 2 0 0 1 2-2h11a2 2 0 0 1 2 2v1zM5 8v8h11V8H5zm1-1a1 1 0 1 0 0-2 1 1 0 0 0 0 2z"/></symbol><symbol viewBox="0 0 24 24" id="ic_statusdraft" xmlns="http://www.w3.org/2000/svg"><path fill-rule="evenodd" d="M18.439 6.755l-3.015-3.587a.455.455 0 0 0-.673-.035l-9.234 8.901.018.022-.03-.01-1.446 4.715h.001a.532.532 0 0 0 .086.525.45.45 0 0 0 .53.128v.002l4.487-1.036-.002-.011.006.008 9.234-8.901a.536.536 0 0 0 .038-.72zM5.562 15.91l.859-2.8 1.832 2.179-2.691.621zM4.5 18.001h15a.5.5 0 0 1 .5.5v1a.5.5 0 0 1-.5.5h-15a.5.5 0 0 1-.5-.5v-1a.5.5 0 0 1 .5-.5z"/></symbol><symbol viewBox="0 0 24 24" id="ic_stop" xmlns="http://www.w3.org/2000/svg"><path fill-rule="evenodd" d="M15.048 6.831a6.011 6.011 0 0 0-7.29.926 6.01 6.01 0 0 0-.926 7.29l8.217-8.217zm2.121 2.121l-8.217 8.217a6.012 6.012 0 0 0 7.291-.926 6.011 6.011 0 0 0 .926-7.291zM5.636 5.636a9 9 0 1 1 12.727 12.728A9 9 0 0 1 5.636 5.636z"/></symbol><symbol viewBox="0 0 24 24" id="ic_success" xmlns="http://www.w3.org/2000/svg"><path fill-rule="evenodd" d="M12 3a9 9 0 1 1-.001 18.001A9 9 0 0 1 12 3zm5.288 5.726L15.653 7.09a.307.307 0 0 0-.432 0L9.311 13l-1.152-1.151a.305.305 0 0 0-.433 0L6.09 13.485a.307.307 0 0 0 0 .432l2.994 2.993c.057.057.135.09.216.09l.011-.002.009.002c.079 0 .157-.03.216-.09l7.751-7.751a.305.305 0 0 0 0-.433z"/></symbol><symbol viewBox="0 0 24 24" id="ic_tag" xmlns="http://www.w3.org/2000/svg"><path fill-rule="evenodd" d="M20.925 16.488l-.02-.028h.001L13.702 3.983l-.004.002a.547.547 0 0 0-.249-.214l.01-.006-2.948-1.702v.012a.56.56 0 0 0-.494-.029l-.003-.006-.055.032-.003.002-.003.002-5.672 3.275a.557.557 0 0 0-.278.472l-.002-.001v3.404l.006-.003a.555.555 0 0 0 .07.341l.013.017 7.18 12.436.02.044c.15.26.478.352.742.214l.001.002 8.693-5.019-.004-.007a.56.56 0 0 0 .204-.764zM8.849 6.644a1.035 1.035 0 1 1-1.035-1.793 1.035 1.035 0 0 1 1.035 1.793z"/></symbol><symbol viewBox="0 0 24 24" id="ic_template" xmlns="http://www.w3.org/2000/svg"><path fill-rule="evenodd" d="M3 8h18v10.997A1.999 1.999 0 0 1 19.005 21H4.995A1.997 1.997 0 0 1 3 18.997V8zm8.67 11.08v-.84c-.92-.06-1.56-.29-2.02-.73-.4-.39-.58-.81-.68-1.58l1.41-.22c.05.57.13.79.37 1.03.23.25.52.37.92.4v-2.47c-.93-.21-1.27-.33-1.69-.61-.52-.34-.83-.97-.83-1.66 0-.77.35-1.4.97-1.8.46-.28.89-.41 1.55-.45v-.52h.68v.53c.83.07 1.33.27 1.79.71.38.36.55.69.68 1.33l-1.37.23c-.06-.4-.15-.6-.36-.81-.2-.21-.41-.31-.74-.36v2.22c1.02.21 1.47.38 1.87.68.55.43.79.95.79 1.7 0 .86-.35 1.52-1.01 1.94-.46.28-.92.41-1.65.45v.83h-.68zm0-5.73v-2.09c-.34.02-.55.09-.77.26-.25.19-.39.47-.39.78 0 .32.14.59.38.76.2.12.39.2.78.29zm4.951 3.393l.5.5 2.121-2.121-2.121-2.121-.5.5 1.621 1.621-1.621 1.621zm-9-3.243l-.5-.5L5 15.121l2.121 2.121.5-.5L6 15.121 7.621 13.5zm4.729 1.29c.57.14.77.21.93.34.21.18.32.45.32.8 0 .72-.44 1.15-1.25 1.22v-2.36zM5 3h14a2 2 0 0 1 2 2v1.5a.5.5 0 0 1-.5.5h-17a.5.5 0 0 1-.5-.5V5a2 2 0 0 1 2-2z"/></symbol><symbol viewBox="0 0 24 24" id="ic_time" xmlns="http://www.w3.org/2000/svg"><path fill-rule="evenodd" d="M12 3a9 9 0 1 1 0 18 9 9 0 0 1 0-18zM7.704 15.653l.707.707a.5.5 0 0 0 .707 0l3.625-3.625a1 1 0 0 0 .293-.707V5.5a.5.5 0 0 0-.5-.5h-1a.5.5 0 0 0-.5.5v6.114l-3.333 3.333a.5.5 0 0 0 0 .707z"/></symbol><symbol viewBox="0 0 24 24" id="ic_tool" xmlns="http://www.w3.org/2000/svg"><path fill-rule="evenodd" d="M20.098 6.318l-.934.934-1.19 1.19a2.27 2.27 0 0 1-2.416-2.416l1.19-1.19.934-.934.966-.966a.161.161 0 0 0 0-.228l-.066-.038a5.358 5.358 0 0 0-2.187-.47 5.404 5.404 0 0 0-5.151 7.039l-5.636 5.636a3.462 3.462 0 1 0 3.517 3.517l5.636-5.636A5.404 5.404 0 0 0 21.8 7.605c0-.78-.171-1.516-.469-2.186l-.038-.069a.16.16 0 0 0-.228.001l-.966.966zM7.095 18.337a1.431 1.431 0 1 1-2.863 0 1.431 1.431 0 0 1 2.863 0z"/></symbol><symbol viewBox="0 0 24 24" id="ic_trackback" xmlns="http://www.w3.org/2000/svg"><path fill-rule="evenodd" d="M14.587 7.097H4.5a.5.5 0 0 0-.5.5V10.5a.5.5 0 0 0 .5.5h14.983a.5.5 0 0 0 .376-.83l-4.395-5.004a.5.5 0 0 0-.876.33v1.601zm-5.174 9.807H19.5a.5.5 0 0 0 .5-.5v-2.903a.5.5 0 0 0-.5-.5H4.517a.5.5 0 0 0-.376.83l4.395 5.004a.5.5 0 0 0 .876-.33v-1.601z"/></symbol><symbol viewBox="0 0 24 24" id="ic_trash" xmlns="http://www.w3.org/2000/svg"><path fill-rule="evenodd" d="M9 4H4.496A.504.504 0 0 0 4 4.506v1.488c0 .275.222.506.496.506h15.007c.27 0 .496-.227.496-.506V4.506A.504.504 0 0 0 19.503 4h-4.504v-.495A.49.49 0 0 0 14.508 3H9.49a.503.503 0 0 0-.491.505V4zm10 3v12.006A2 2 0 0 1 16.994 21H7.006A2.001 2.001 0 0 1 5 19.006V7h14zM8.5 10.753v6.495a.75.75 0 1 0 1.5 0v-6.495a.75.75 0 1 0-1.5 0zm3 0v6.495a.75.75 0 1 0 1.5 0v-6.495a.75.75 0 1 0-1.5 0zm3 0v6.495a.75.75 0 1 0 1.5 0v-6.495a.75.75 0 1 0-1.5 0z"/></symbol><symbol viewBox="0 0 24 24" id="ic_tri-down" xmlns="http://www.w3.org/2000/svg"><path fill-rule="evenodd" d="M6.207 8.207H17.38a1 1 0 0 1 .707 1.707L12.5 15.5a1 1 0 0 1-1.414 0L5.5 9.914a1 1 0 0 1 .707-1.707z"/></symbol><symbol viewBox="0 0 24 24" id="ic_tri-left" xmlns="http://www.w3.org/2000/svg"><path fill-rule="evenodd" d="M15.586 6.414v11.172a1 1 0 0 1-1.707.707l-5.586-5.586a1 1 0 0 1 0-1.414l5.586-5.586a1 1 0 0 1 1.707.707z"/></symbol><symbol viewBox="0 0 24 24" id="ic_tri-right" xmlns="http://www.w3.org/2000/svg"><path fill-rule="evenodd" d="M8 6.414v11.172a1 1 0 0 0 1.707.707l5.586-5.586a1 1 0 0 0 0-1.414L9.707 5.707A1 1 0 0 0 8 6.414z"/></symbol><symbol viewBox="0 0 24 24" id="ic_tri-up" xmlns="http://www.w3.org/2000/svg"><path fill-rule="evenodd" d="M17.379 15.793H6.207a1 1 0 0 1-.707-1.707L11.086 8.5a1 1 0 0 1 1.414 0l5.586 5.586a1 1 0 0 1-.707 1.707z"/></symbol><symbol viewBox="0 0 24 24" id="ic_underline" xmlns="http://www.w3.org/2000/svg"><path fill-rule="evenodd" d="M6 20h12v1H6v-1zm12-7.242c0 1.907-.532 3.324-1.596 4.251-1.064.927-2.535 1.391-4.414 1.391-1.905 0-3.379-.46-4.424-1.381-1.044-.921-1.567-2.341-1.567-4.261V4h3.094v8.758c0 .381.033.756.099 1.124.066.368.204.694.414.976.21.283.502.513.877.69.374.178.877.266 1.507.266 1.103 0 1.865-.247 2.286-.74.42-.493.631-1.266.631-2.318V3.998h3.094v8.758z"/></symbol><symbol viewBox="0 0 24 24" id="ic_undo" xmlns="http://www.w3.org/2000/svg"><path fill-rule="evenodd" d="M5.112 6.208A9 9 0 0 1 21 12a9 9 0 0 1-15.827 5.865c-.159-.26-.135-.473.073-.64a53.81 53.81 0 0 1 1.75-1.29c.158-.112.326-.101.503.033l.262.278.008.01-.007-.009a6 6 0 1 0-.351-8.111l1.388 1.165-.001.001c.103.09.14.217.081.288l-.132.044-4.817.782-.003-.005c-.068.021-.163-.005-.243-.071a.284.284 0 0 1-.11-.205l-.011-.004-.067-4.899.019-.142c.06-.072.196-.057.304.033l1.292 1.084z"/></symbol><symbol viewBox="0 0 24 24" id="ic_unlink" xmlns="http://www.w3.org/2000/svg"><path fill-rule="evenodd" d="M16.407 6.284l1.732 1a2 2 0 0 1 .732 2.732l-5 8.66a2 2 0 0 1-2.732.732l-1.732-1-1.5 2.598a1 1 0 0 1-1.732-1l1.5-2.598-1.732-1a2 2 0 0 1-.732-2.732l5-8.66a2 2 0 0 1 2.732-.732l1.732 1 1.5-2.598a1 1 0 0 1 1.732 1l-1.5 2.598zm-1 1.732l-.5.866a1 1 0 0 1-1.732-1l.5-.866-1.299-.75a.5.5 0 0 0-.683.183l-4.5 7.794a.5.5 0 0 0 .183.683l1.299.75.5-.866a1 1 0 0 1 1.732 1l-.5.866 1.299.75a.5.5 0 0 0 .683-.183l4.5-7.794a.5.5 0 0 0-.183-.683l-1.299-.75zm-6.696-.402L6.75 11.011c.443-.415.872-.503 1.287-.263.415.24.564.661.445 1.263l1.961-3.397c-.448.57-.921.711-1.42.423-.499-.288-.603-.762-.312-1.423zm6.928 4l-1.961 3.397c.443-.415.872-.503 1.287-.263.415.24.564.661.445 1.263l1.961-3.397c-.448.57-.921.711-1.42.423-.499-.288-.603-.762-.312-1.423zm4.464 1.634a.5.5 0 0 1-.183.683l-.866.5a.5.5 0 0 1-.5-.866l.866-.5a.5.5 0 0 1 .683.183zm-2.866 2.964a.5.5 0 0 1 .5.5v1a.5.5 0 0 1-1 0v-1a.5.5 0 0 1 .5-.5zm2.732.268a.5.5 0 0 1-.683.183l-.866-.5a.5.5 0 0 1 .5-.866l.866.5a.5.5 0 0 1 .183.683zM7.329 5.873a.5.5 0 0 1 .5.5v1a.5.5 0 0 1-1 0v-1a.5.5 0 0 1 .5-.5zM6.195 9.837a.5.5 0 0 1-.183.683l-.866.5a.5.5 0 0 1-.5-.866l.866-.5a.5.5 0 0 1 .683.183zm.134-1.232a.5.5 0 0 1-.683.183l-.866-.5a.5.5 0 0 1 .5-.866l.866.5a.5.5 0 0 1 .183.683z"/></symbol><symbol viewBox="0 0 24 24" id="ic_upload" xmlns="http://www.w3.org/2000/svg"><path fill-rule="evenodd" d="M18 19v-4.5a.5.5 0 0 1 .5-.5h1a.5.5 0 0 1 .5.5V19a2 2 0 0 1-2 2H6a2 2 0 0 1-2-2v-4.5a.5.5 0 0 1 .5-.5h1a.5.5 0 0 1 .5.5V19h12zm-8.905-7.654H6.531a.55.55 0 0 1-.472-.241.389.389 0 0 1 .039-.463l5.452-6.454c.1-.118.26-.188.432-.188.17 0 .332.07.431.187l5.488 6.455a.386.386 0 0 1 .039.463.552.552 0 0 1-.471.241h-2.566v4.797c0 .248-.237.447-.53.447H9.625c-.293 0-.53-.199-.53-.447v-4.797z"/></symbol><symbol viewBox="0 0 24 24" id="ic_user" xmlns="http://www.w3.org/2000/svg"><path fill-rule="evenodd" d="M3 18.007v-2.106c0-.482.256-.914.645-1.094l4.483-2.054 1.529-.7C8.653 11.145 8 9.668 8 8c0-2.761 1.791-5 4-5s4 2.239 4 5c0 1.64-.632 3.096-1.607 4.007l1.628.764 4.342 2.037c.386.184.637.611.638 1.092v3.094a2 2 0 0 1-1.995 2.005H4.996a1.998 1.998 0 0 1-1.995-2.005v-.988z"/></symbol><symbol viewBox="0 0 24 24" id="ic_user-open" xmlns="http://www.w3.org/2000/svg"><path d="M3 4.995C3 3.893 3.893 3 4.995 3h14.01C20.107 3 21 3.893 21 4.995v14.01A1.995 1.995 0 0 1 19.005 21H4.995A1.995 1.995 0 0 1 3 19.005V4.995zM5 5v14h14V5H5zm5.777 3.518l4.599 3.066a.5.5 0 0 1 0 .832l-4.599 3.066a.5.5 0 0 1-.777-.416V8.934a.5.5 0 0 1 .777-.416z"/></symbol></svg>