<?xml version="1.0" encoding="utf-8"?><svg xmlns="http://www.w3.org/2000/svg" xmlns:xlink="http://www.w3.org/1999/xlink"><symbol viewBox="0 0 24 24" id="mt-static--images--svg--ic_Italic" xmlns="http://www.w3.org/2000/svg"><path fill-rule="evenodd" d="M12.435 16.33l.105-.38c.005-.021.557-2.182 1.147-4.438 1.015-3.879 1.263-4.66 1.318-4.779.189-.396.495-.695.936-.916.381-.19.866-.315 1.443-.373a.654.654 0 0 0 .447-.267.824.824 0 0 0 .168-.486.688.688 0 0 0-.682-.692H9.584a.688.688 0 0 0-.682.692v.024c0 .341.241.628.573.682.439.072 1.042.172 1.515.399.243.116.431.257.557.418.143.182.213.393.213.642 0 .467-.135.935-.265 1.387l-.082.291c-.167.603-.412 1.519-.696 2.579-.655 2.441-1.47 5.477-1.675 6.055-.138.389-.65 1.311-2.413 1.448a.674.674 0 0 0-.447.219.694.694 0 0 0-.181.47v.002c0 .381.306.692.682.692h7.735a.688.688 0 0 0 .682-.692v-.005a.686.686 0 0 0-.598-.685l-.201-.024c-.679-.079-1.523-.179-1.878-.647-.165-.217-.217-.504-.163-.872.035-.249.105-.491.178-.745"/></symbol><symbol viewBox="0 0 24 24" id="mt-static--images--svg--ic_add" xmlns="http://www.w3.org/2000/svg"><defs><path id="aba" d="M8 8V4.5a.5.5 0 0 1 .5-.5h1a.5.5 0 0 1 .5.5V8h3.5a.5.5 0 0 1 .5.5v1a.5.5 0 0 1-.5.5H10v3.5a.5.5 0 0 1-.5.5h-1a.5.5 0 0 1-.5-.5V10H4.5a.5.5 0 0 1-.5-.5v-1a.5.5 0 0 1 .5-.5H8zm1-8a9 9 0 1 1-.001 18.001A9 9 0 0 1 9 0zm0 2C5.14 2 2 5.141 2 9c0 3.86 3.14 7 7 7s7-3.14 7-7c0-3.859-3.14-7-7-7z"/></defs><g transform="translate(3 3)"><mask id="abb"><use xlink:href="#aba"/></mask><use xlink:href="#aba"/><path transform="translate(-24 -25)" mask="url(#abb)" d="M0 0h64v64H0z"/></g></symbol><symbol viewBox="0 0 24 24" id="mt-static--images--svg--ic_audio" xmlns="http://www.w3.org/2000/svg"><path fill-rule="evenodd" d="M19.895 3.744h-.008c-.039-.32-.328-.57-.682-.57a.732.732 0 0 0-.344.088l-.006-.01-6.821 3.667v.004L9.454 8.31H4.627v.012l-.012-.001c-.281 0-.508.212-.508.473v6.412c0 .261.228.473.508.473l.012-.001v.013h4.827l3.841 2.065v-.01l5.516 2.965a.725.725 0 0 0 .393.115c.381 0 .69-.288.69-.642l-.008-.072h.008V3.744z"/></symbol><symbol viewBox="0 0 24 24" id="mt-static--images--svg--ic_bold" xmlns="http://www.w3.org/2000/svg"><path fill-rule="evenodd" d="M18.045 7.95c0-1.877-1.596-3.95-4.207-3.95H5.576C5.149 4 5 4.24 5 4.647v14.79c0 .406.204.563.631.563h8.484C17.226 20 19 17.937 19 15.658c0-2.306-1.446-3.943-2.96-4.27.9-.409 2.006-1.561 2.006-3.438zM12.719 7a1.48 1.48 0 0 1 1.497 1.5c0 .694-.52 1.5-1.497 1.5h-4.52V7h4.52zm-4.52 9.5v-3h5.57c.897 0 1.472.775 1.472 1.5 0 .948-.79 1.5-1.472 1.5h-5.57z"/></symbol><symbol viewBox="0 0 24 24" id="mt-static--images--svg--ic_caution" xmlns="http://www.w3.org/2000/svg"><path fill-rule="evenodd" d="M12 10.586L9.172 7.758 7.758 9.172 10.586 12l-2.828 2.828 1.414 1.414L12 13.414l2.828 2.828 1.414-1.414L13.414 12l2.828-2.828-1.414-1.414L12 10.586zM12 21c-4.971 0-9-4.029-9-9s4.029-9 9-9 9 4.029 9 9-4.029 9-9 9z"/></symbol><symbol viewBox="0 0 24 24" id="mt-static--images--svg--ic_center" xmlns="http://www.w3.org/2000/svg"><path fill-rule="evenodd" d="M11 13v-2H3.5a.492.492 0 0 1-.5-.49V7.491c0-.271.228-.49.5-.49H11V4.497c0-.274.214-.496.505-.496h.991c.279 0 .505.226.505.496v2.504h7.5c.276 0 .5.215.5.49v3.019c0 .271-.228.49-.5.49h-7.5v2h2.5c.276 0 .5.215.5.49v3.019a.5.5 0 0 1-.5.49h-2.5v2.504a.493.493 0 0 1-.505.496h-.991a.503.503 0 0 1-.505-.496v-2.504H8.5a.492.492 0 0 1-.5-.49V13.49a.5.5 0 0 1 .5-.49H11z"/></symbol><symbol viewBox="0 0 24 24" id="mt-static--images--svg--ic_checkbox" xmlns="http://www.w3.org/2000/svg"><path fill-rule="evenodd" d="M16.278 3l-2 2H5v14h14v-7.408l2-2v9.413A1.995 1.995 0 0 1 19.005 21H4.995A1.995 1.995 0 0 1 3 19.005V4.995C3 3.893 3.893 3 4.995 3h11.283zm4.612 3.123a.377.377 0 0 1 0 .533l-9.538 9.538a.374.374 0 0 1-.266.11l-.012-.002-.013.002c-.1 0-.196-.04-.266-.11l-3.684-3.683a.376.376 0 0 1 0-.532l2.013-2.013a.377.377 0 0 1 .533 0l1.417 1.417 7.272-7.272a.374.374 0 0 1 .532 0l2.012 2.013z"/></symbol><symbol viewBox="0 0 24 24" id="mt-static--images--svg--ic_code" xmlns="http://www.w3.org/2000/svg"><path fill-rule="evenodd" d="M15.4 15.49L16.91 17l5-5-5-5-1.474 1.474 3.49 3.49L15.4 15.49zM9.474 8.474L8 7l-5 5 5 5 1.51-1.51-3.526-3.526 3.49-3.49zM14.196 6l.927.375-4.495 11.126-.927-.375L14.196 6z"/></symbol><symbol viewBox="0 0 24 24" id="mt-static--images--svg--ic_contentstype" xmlns="http://www.w3.org/2000/svg"><defs><path id="aia" d="M0 1.995C0 .893.893 0 1.995 0h14.01C17.107 0 18 .893 18 1.995v14.01A1.995 1.995 0 0 1 16.005 18H1.995A1.995 1.995 0 0 1 0 16.005V1.995zM4 4h10v6H4V4zm0 8.5c0-.828.666-1.5 1.5-1.5.828 0 1.5.666 1.5 1.5 0 .828-.666 1.5-1.5 1.5-.828 0-1.5-.666-1.5-1.5zM8 11h6v3H8v-3zm8 5V2H2v14h14z"/></defs><g transform="translate(3 3)"><mask id="aib"><use xlink:href="#aia"/></mask><use xlink:href="#aia"/><path transform="translate(-25 -22)" mask="url(#aib)" d="M0 0h64v64H0z"/></g></symbol><symbol viewBox="0 0 24 24" id="mt-static--images--svg--ic_dashboard" xmlns="http://www.w3.org/2000/svg"><path fill-rule="evenodd" d="M4 4.51A.51.51 0 0 1 4.51 4h8.981a.51.51 0 0 1 .51.51v8.981a.51.51 0 0 1-.51.51H4.51a.51.51 0 0 1-.51-.51V4.51zm12 0c0-.281.215-.51.49-.51h3.019a.5.5 0 0 1 .49.51v8.981c0 .281-.215.51-.49.51H16.49a.5.5 0 0 1-.49-.51V4.51zM4 16.491c0-.271.215-.49.49-.49h3.019c.271 0 .49.215.49.49v3.019c0 .271-.215.49-.49.49H4.49a.487.487 0 0 1-.49-.49v-3.019zm6 0c0-.271.215-.49.49-.49h3.019c.271 0 .49.215.49.49v3.019c0 .271-.215.49-.49.49H10.49a.487.487 0 0 1-.49-.49v-3.019zm6 0c0-.271.215-.49.49-.49h3.019c.271 0 .49.215.49.49v3.019c0 .271-.215.49-.49.49H16.49a.487.487 0 0 1-.49-.49v-3.019z"/></symbol><symbol viewBox="0 0 24 24" id="mt-static--images--svg--ic_data" xmlns="http://www.w3.org/2000/svg"><path fill-rule="evenodd" d="M3 10.49c0-.271.228-.49.5-.49h17c.276 0 .5.215.5.49v3.019c0 .271-.228.49-.5.49h-17a.492.492 0 0 1-.5-.49V10.49zm0-6A.5.5 0 0 1 3.51 4h8.981c.281 0 .51.215.51.49v3.019a.5.5 0 0 1-.51.49H3.51a.498.498 0 0 1-.51-.49V4.49zm0 12c0-.271.226-.49.494-.49h12.013a.49.49 0 0 1 .494.49v3.019c0 .271-.226.49-.494.49H3.494a.49.49 0 0 1-.494-.49V16.49z"/></symbol><symbol viewBox="0 0 24 24" id="mt-static--images--svg--ic_date" xmlns="http://www.w3.org/2000/svg"><path fill-rule="evenodd" d="M3 9h18v9.991A2.002 2.002 0 0 1 19.005 21H4.995A2.004 2.004 0 0 1 3 18.991V9zm16-5h1.5c.276 0 .5.215.5.49v3.019c0 .271-.228.49-.5.49h-17a.492.492 0 0 1-.5-.49V4.49c0-.271.228-.49.5-.49H5v1c0 .556.452 1 1.009 1H7.99a1 1 0 0 0 1.009-1V4h6v1c0 .556.452 1 1.009 1h1.981a1 1 0 0 0 1.009-1V4zm-5.76 14.239c0 .098-.08.178-.178.178h-1.47a.178.178 0 0 1-.178-.178v-4.844l-.966.368-.154-.013a.174.174 0 0 1-.085-.129l-.165-1.208a.177.177 0 0 1 .097-.183l2.107-1.042.079-.018h.734c.098 0 .178.08.178.178v6.891zM6 2.496c0-.274.214-.495.505-.495h.991c.279 0 .505.216.505.495v2.009A.492.492 0 0 1 7.496 5h-.991A.496.496 0 0 1 6 4.505V2.496zm10 0c0-.274.214-.495.505-.495h.991c.279 0 .505.216.505.495v2.009a.492.492 0 0 1-.505.495h-.991A.496.496 0 0 1 16 4.505V2.496z"/></symbol><symbol viewBox="0 0 24 24" id="mt-static--images--svg--ic_draft" xmlns="http://www.w3.org/2000/svg"><defs><path id="ama" d="M4 1V.49c0-.271.228-.49.491-.49h5.018C9.78 0 10 .215 10 .49V1h1.994A2 2 0 0 1 14 2.997v15.005a2 2 0 0 1-2.006 1.997H2.006A2 2 0 0 1 0 18.002V2.997A2 2 0 0 1 2.006 1H4zm0 2H2v15.2h10.2V3H10v.51c0 .271-.228.49-.491.49H4.491A.488.488 0 0 1 4 3.51V3zm0 9h6v1H4v-1zm0-4h6v1H4V8zm0 2h6v1H4v-1z"/></defs><g transform="translate(5 2)"><mask id="amb"><use xlink:href="#ama"/></mask><use xlink:href="#ama"/><path transform="translate(-28 -19)" mask="url(#amb)" d="M0 0h64v64H0z"/></g></symbol><symbol viewBox="0 0 24 24" id="mt-static--images--svg--ic_duplicate" xmlns="http://www.w3.org/2000/svg"><defs><path id="ana" d="M12 2H2v11H0V2.003C0 .897.902 0 2.009 0H12v2zM4 6.006A2.01 2.01 0 0 1 6.009 4h7.983c1.109 0 2.009.897 2.009 2.006v9.988A2.01 2.01 0 0 1 13.992 18H6.009A2.007 2.007 0 0 1 4 15.994V6.006zM6 6v10h8V6H6z"/></defs><g transform="translate(4 3)"><mask id="anb"><use xlink:href="#ana"/></mask><use xlink:href="#ana"/><path transform="translate(-28 -19)" mask="url(#anb)" d="M0 0h64v64H0z"/></g></symbol><symbol viewBox="0 0 24 24" id="mt-static--images--svg--ic_edit" xmlns="http://www.w3.org/2000/svg"><path fill-rule="evenodd" d="M12.88 5l-2.469 2.4H5.399v11.2h11.2v-4.944l2.4-2.333v7.683A1.996 1.996 0 0 1 17.005 21H4.993a1.996 1.996 0 0 1-1.994-1.994V6.994C2.999 5.893 3.894 5 4.993 5h7.886zm9.558.294a.536.536 0 0 1-.038.72l-9.234 8.901-.006-.008.002.011-4.487 1.036v-.002a.451.451 0 0 1-.53-.128.533.533 0 0 1-.086-.525h-.001l1.446-4.715.03.01-.018-.022 9.234-8.901a.455.455 0 0 1 .673.035l3.015 3.587zM9.561 14.449l.859-2.8 1.832 2.179-2.691.621z"/></symbol><symbol viewBox="0 0 24 24" id="mt-static--images--svg--ic_error" xmlns="http://www.w3.org/2000/svg"><path fill-rule="evenodd" d="M21.927 19.342l.001-.001-.034-.058-.052-.09-9.088-15.741a.862.862 0 0 0-1.547.068h-.001L2.189 19.139l.009.005a.856.856 0 0 0-.198.544c0 .478.387.866.865.866h18.269a.865.865 0 0 0 .792-1.211zm-9.919-.424a1.24 1.24 0 0 1-1.254-1.237c0-.693.561-1.254 1.254-1.254.676 0 1.237.561 1.237 1.254s-.561 1.237-1.237 1.237zm1.237-10.939v6.828a.504.504 0 0 1-.505.505h-1.472a.506.506 0 0 1-.512-.505V7.998l-.002-.019c0-.269.209-.481.467-.501v-.004h1.516c.277.002.5.216.507.492h.001v.013z"/></symbol><symbol viewBox="0 0 24 24" id="mt-static--images--svg--ic_fav" xmlns="http://www.w3.org/2000/svg"><defs><path id="aqa" d="M12 17l-5.878 3.09 1.123-6.545L2.489 8.91l6.572-.955L12 2l2.939 5.955 6.572.955-4.756 4.635 1.123 6.545z"/></defs><g><mask id="aqb"><use xlink:href="#aqa"/></mask><use xlink:href="#aqa"/><path transform="translate(-22 -23)" mask="url(#aqb)" d="M0 0h64v64H0z"/></g></symbol><symbol viewBox="0 0 24 24" id="mt-static--images--svg--ic_file" xmlns="http://www.w3.org/2000/svg"><path fill-rule="evenodd" d="M8.09 2h9.916c1.101 0 1.993.898 1.993 1.991v16.018A1.994 1.994 0 0 1 18.005 22H5.993a1.998 1.998 0 0 1-1.994-1.999V5.957L8.089 2zm.599 2l-.1 2.606h-2.59V20h12V4h-9.31zm.31 6h6v1h-6v-1zm0 2h6v1h-6v-1zm0 2h6v1h-6v-1z"/></symbol><symbol viewBox="0 0 24 24" id="mt-static--images--svg--ic_flag" xmlns="http://www.w3.org/2000/svg"><path fill-rule="evenodd" d="M3 3.508C3 3.227 3.216 3 3.495 3h2.009a.5.5 0 0 1 .495.508v17.984a.498.498 0 0 1-.495.508H3.495A.5.5 0 0 1 3 21.492V3.508zm4-.007A.5.5 0 0 1 7.494 3h12.013c.273 0 .414.209.314.469l-1.745 4.562a1.518 1.518 0 0 0 0 .938l1.745 4.562c.099.259-.046.469-.314.469H7.494A.501.501 0 0 1 7 13.499V3.501z"/></symbol><symbol viewBox="0 0 24 24" id="mt-static--images--svg--ic_grid" xmlns="http://www.w3.org/2000/svg"><defs><path id="ata" d="M0 1.995C0 .893.893 0 1.995 0h14.01C17.107 0 18 .893 18 1.995v14.01A1.995 1.995 0 0 1 16.005 18H1.995A1.995 1.995 0 0 1 0 16.005V1.995zM16 16V2H2v14h14zM7.75 4h2.5v2.5h-2.5V4zM4 4h2.5v2.5H4V4zm7.5 0H14v2.5h-2.5V4zM4 7.75h2.5v2.5H4v-2.5zm3.75 0h2.5v2.5h-2.5v-2.5zm3.75 0H14v2.5h-2.5v-2.5zM4 11.5h2.5V14H4v-2.5zm3.75 0h2.5V14h-2.5v-2.5zm3.75 0H14V14h-2.5v-2.5z"/></defs><g transform="translate(3 3)"><mask id="atb"><use xlink:href="#ata"/></mask><use xlink:href="#ata"/><path transform="translate(-29 -17)" mask="url(#atb)" d="M0 0h64v64H0z"/></g></symbol><symbol viewBox="0 0 24 24" id="mt-static--images--svg--ic_hr" xmlns="http://www.w3.org/2000/svg"><path fill-rule="evenodd" d="M4 8v8.425h1.853v-3.634h3.41v3.634h1.853V8H9.263v3.233h-3.41V8H4zm10.596 3.811h2.029c.425 0 .743-.094.956-.283.212-.189.319-.496.319-.92 0-.409-.106-.706-.319-.891-.212-.185-.531-.277-.956-.277h-2.029v2.372zM12.743 8h4.543c.378 0 .718.061 1.021.183.303.122.562.289.779.501.216.212.382.458.496.737.114.279.171.58.171.903 0 .496-.104.924-.313 1.286-.208.362-.549.637-1.021.826v.024c.228.063.417.159.566.289.149.13.271.283.366.46.094.177.163.372.206.584.043.212.073.425.088.637l.024.472.041.555c.02.189.051.368.094.537.043.169.108.313.195.431h-1.853a3.284 3.284 0 0 1-.189-.956c-.024-.37-.059-.724-.106-1.062-.063-.441-.197-.763-.401-.968-.205-.205-.539-.307-1.003-.307h-1.853v3.292h-1.853V7.999z"/></symbol><symbol viewBox="0 0 24 24" id="mt-static--images--svg--ic_image" xmlns="http://www.w3.org/2000/svg"><path fill-rule="evenodd" d="M3 5.994C3 4.893 3.893 4 4.995 4h14.01C20.107 4 21 4.895 21 5.994v12.012A1.995 1.995 0 0 1 19.005 20H4.995A1.996 1.996 0 0 1 3 18.006V5.994zM19 18h-2.285l-.035-.1.004-.002-4.781-8.9-.002.001a.646.646 0 0 0-.582-.394.648.648 0 0 0-.591.412l-3.182 5.922-.779-1.45-.001.001a.34.34 0 0 0-.307-.208.34.34 0 0 0-.311.217l-1.149 2.139V5.999h14v12zm-3-7a2 2 0 1 0 .001-3.999A2 2 0 0 0 16 11z"/></symbol><symbol viewBox="0 0 24 24" id="mt-static--images--svg--ic_info" xmlns="http://www.w3.org/2000/svg"><path fill-rule="evenodd" d="M12 3a9 9 0 1 0 0 18 9 9 0 0 0 0-18zm.918 14.006c0 .173-.14.313-.313.313h-1.211a.313.313 0 0 1-.313-.313v-5.812c0-.173.14-.313.313-.313h1.211c.173 0 .313.14.313.313v5.812zm-.926-7.422c-.593 0-1.084-.492-1.084-1.099s.492-1.084 1.084-1.084c.607 0 1.099.477 1.099 1.084 0 .607-.492 1.099-1.099 1.099z"/></symbol><symbol viewBox="0 0 24 24" id="mt-static--images--svg--ic_left" xmlns="http://www.w3.org/2000/svg"><path fill-rule="evenodd" d="M8 6.49c0-.271.229-.49.5-.49h10.999c.276 0 .5.215.5.49v3.019c0 .271-.229.49-.5.49H8.5a.492.492 0 0 1-.5-.49V6.49zM4 4.496C4 4.222 4.214 4 4.505 4h.991c.279 0 .505.226.505.496v15.007a.493.493 0 0 1-.505.496h-.991A.503.503 0 0 1 4 19.503V4.496zm4 9.994a.5.5 0 0 1 .5-.49h6.999c.276 0 .5.215.5.49v3.019a.5.5 0 0 1-.5.49H8.5a.492.492 0 0 1-.5-.49V14.49z"/></symbol><symbol viewBox="0 0 24 24" id="mt-static--images--svg--ic_list" xmlns="http://www.w3.org/2000/svg"><defs><path id="aya" d="M4 6.505C4 6.226 4.229 6 4.5 6h10.999c.276 0 .5.214.5.505v.991a.506.506 0 0 1-.5.505H4.5a.495.495 0 0 1-.5-.505v-.991zm0 6c0-.279.229-.505.5-.505h10.999c.276 0 .5.214.5.505v.991a.506.506 0 0 1-.5.505H4.5a.495.495 0 0 1-.5-.505v-.991zm0-12C4 .226 4.229 0 4.5 0h10.999c.276 0 .5.214.5.505v.991a.506.506 0 0 1-.5.505H4.5a.495.495 0 0 1-.5-.505V.505zM1 2a1 1 0 1 1 0-2 1 1 0 0 1 0 2zm0 6a1 1 0 1 1 0-2 1 1 0 0 1 0 2zm0 6a1 1 0 1 1 0-2 1 1 0 0 1 0 2z"/></defs><g transform="translate(4 5)"><mask id="ayb"><use xlink:href="#aya"/></mask><use xlink:href="#aya"/><path transform="translate(-28 -22)" mask="url(#ayb)" d="M0 0h64v64H0z"/></g></symbol><symbol viewBox="0 0 24 24" id="mt-static--images--svg--ic_movie" xmlns="http://www.w3.org/2000/svg"><path fill-rule="evenodd" d="M3 7.006A2 2 0 0 1 4.995 5h14.01A2 2 0 0 1 21 7.006v9.988A2 2 0 0 1 19.005 19H4.995A2 2 0 0 1 3 16.994V7.006zM19 17V7H5v10h14zm-4-5l-2.501 1.5L10 15.001v-6l2.499 1.501L15 12.001z"/></symbol><symbol viewBox="0 0 24 24" id="mt-static--images--svg--ic_multiline" xmlns="http://www.w3.org/2000/svg"><path fill-rule="evenodd" d="M3 3.993C3 3.444 3.445 3 3.993 3h16.013c.549 0 .993.445.993.993v16.013a.993.993 0 0 1-.993.993H3.993A.993.993 0 0 1 3 20.006V3.993zM5 10v9h14v-9H5zm0-4v2h7V6H5z"/></symbol><symbol viewBox="0 0 24 24" id="mt-static--images--svg--ic_preview" xmlns="http://www.w3.org/2000/svg"><defs><path id="bba" d="M19.664 6.372c.202.13.336.351.336.602a.704.704 0 0 1-.196.484l-.052.05-4.342 4.18-.017-.017A7.38 7.38 0 0 1 9.977 14a7.401 7.401 0 0 1-4.943-1.867l-.01.009L.284 7.58a.71.71 0 0 1-.283-.561c0-.183.073-.348.189-.475l-.003-.003 4.37-4.206A7.382 7.382 0 0 1 9.978 0c1.918 0 3.662.716 4.961 1.884l.033-.031 4.695 4.519zM9.999 12a5 5 0 1 0-.001-10.001A5 5 0 0 0 9.999 12zm0-2a3 3 0 1 1 0-6 3 3 0 0 1 0 6z"/></defs><g transform="translate(2 5)"><mask id="bbb"><use xlink:href="#bba"/></mask><use xlink:href="#bba"/><path transform="translate(-24 -19)" mask="url(#bbb)" d="M0 0h64v64H0z"/></g></symbol><symbol viewBox="0 0 24 24" id="mt-static--images--svg--ic_publish" xmlns="http://www.w3.org/2000/svg"><defs><path id="bca" d="M1.531 7.346a.55.55 0 0 1-.472-.241.389.389 0 0 1 .039-.463L6.55.188C6.65.07 6.81 0 6.981 0h.001c.17 0 .332.07.431.187l5.488 6.455a.386.386 0 0 1 .039.463.552.552 0 0 1-.471.241H9.903v5.797c0 .248-.237.447-.53.447H4.625c-.293 0-.53-.199-.53-.447V7.346H1.531zM0 15.504a.5.5 0 0 1 .498-.505h13.003c.275 0 .498.214.498.505v.991a.5.5 0 0 1-.498.505H.498A.494.494 0 0 1 0 16.495v-.991z"/></defs><g transform="translate(5 4)"><mask id="bcb"><use xlink:href="#bca"/></mask><use xlink:href="#bca"/><path transform="translate(-27 -23)" mask="url(#bcb)" d="M0 0h64v64H0z"/></g></symbol><symbol viewBox="0 0 24 24" id="mt-static--images--svg--ic_quotation" xmlns="http://www.w3.org/2000/svg"><path fill-rule="evenodd" d="M17.207 11c.068-1.487 1.044-2.733 2.929-2.997.124-.011.232-.079.322-.203a.408.408 0 0 0 .068-.356l-.458-2.085a.434.434 0 0 0-.17-.271.422.422 0 0 0-.305-.085c-2.204.113-3.854.757-4.95 1.932-1.096 1.175-1.644 2.485-1.644 4.451l.014-.001-.014.118v5.993c0 .271.22.503.491.503h5.018a.502.502 0 0 0 .491-.503v-5.993a.502.502 0 0 0-.491-.503h-1.302zm-9 0c.068-1.487 1.044-2.733 2.929-2.997.124-.011.232-.079.322-.203a.408.408 0 0 0 .068-.356l-.458-2.085a.434.434 0 0 0-.17-.271.422.422 0 0 0-.305-.085c-2.204.113-3.854.757-4.95 1.932C4.547 8.11 3.999 9.42 3.999 11.386l.014-.001-.014.118v5.993c0 .271.22.503.491.503h5.018a.502.502 0 0 0 .491-.503v-5.993A.502.502 0 0 0 9.508 11H8.206z"/></symbol><symbol viewBox="0 0 24 24" id="mt-static--images--svg--ic_radio" xmlns="http://www.w3.org/2000/svg"><path fill-rule="evenodd" d="M12 21c-4.971 0-9-4.029-9-9s4.029-9 9-9 9 4.029 9 9-4.029 9-9 9zm0-3a6 6 0 1 0 0-12 6 6 0 0 0 0 12zm0-2a4 4 0 1 1 0-8 4 4 0 0 1 0 8z"/></symbol><symbol viewBox="0 0 24 24" id="mt-static--images--svg--ic_right" xmlns="http://www.w3.org/2000/svg"><path fill-rule="evenodd" d="M4 6.49c0-.271.229-.49.5-.49h10.999c.276 0 .5.215.5.49v3.019c0 .271-.229.49-.5.49H4.5a.492.492 0 0 1-.5-.49V6.49zm4 8a.5.5 0 0 1 .5-.49h6.999c.276 0 .5.215.5.49v3.019a.5.5 0 0 1-.5.49H8.5a.492.492 0 0 1-.5-.49V14.49zm10-9.994c0-.274.214-.496.505-.496h.991c.279 0 .505.226.505.496v15.007a.493.493 0 0 1-.505.496h-.991a.503.503 0 0 1-.505-.496V4.496z"/></symbol><symbol viewBox="0 0 24 24" id="mt-static--images--svg--ic_search" xmlns="http://www.w3.org/2000/svg"><defs><path id="bga" d="M11.838.156a8.252 8.252 0 0 0-7.07 12.513L.766 16.67l.014.014a2.257 2.257 0 0 0-.689 1.645c0 1.267 1.009 2.258 2.275 2.258.647 0 1.225-.259 1.637-.68l.01.01 4.129-4.129a8.252 8.252 0 0 0 11.949-7.379A8.253 8.253 0 0 0 11.838.156zm.05 13.261a5.158 5.158 0 1 1 0-10.316 5.158 5.158 0 0 1 0 10.316z"/></defs><g transform="translate(2 2)"><mask id="bgb"><use xlink:href="#bga"/></mask><use transform="matrix(-1 0 0 1 20.182 0)" xlink:href="#bga"/><path transform="translate(-28 -18)" mask="url(#bgb)" d="M0 0h64v64H0z"/></g></symbol><symbol viewBox="0 0 24 24" id="mt-static--images--svg--ic_selectbox" xmlns="http://www.w3.org/2000/svg"><path fill-rule="evenodd" d="M3 9c0-1.104.893-2 1.995-2h14.01C20.107 7 21 7.887 21 9v6.001c0 1.104-.893 2-1.995 2H4.995a1.992 1.992 0 0 1-1.995-2V9zm11.5 5l1.249-2.001L17 10h-5l1.251 1.999L14.501 14z"/></symbol><symbol viewBox="0 0 24 24" id="mt-static--images--svg--ic_setting" xmlns="http://www.w3.org/2000/svg"><defs><path id="bia" d="M19.52 8.381l-2.537-.25a7.157 7.157 0 0 0-.725-1.743l1.62-1.974a.531.531 0 0 0-.036-.714l-1.541-1.542a.535.535 0 0 0-.715-.035l-1.974 1.62a7.19 7.19 0 0 0-1.743-.725L11.619.48a.532.532 0 0 0-.53-.48H8.91a.533.533 0 0 0-.53.48l-.25 2.539a7.167 7.167 0 0 0-1.742.725L4.413 2.123a.531.531 0 0 0-.715.035L2.157 3.699a.533.533 0 0 0-.036.714l1.621 1.974a7.134 7.134 0 0 0-.725 1.742l-2.539.25a.532.532 0 0 0-.481.53v2.179c0 .274.208.504.481.53l2.539.25a7.15 7.15 0 0 0 .725 1.742l-1.62 1.974a.53.53 0 0 0 .035.715l1.541 1.541a.535.535 0 0 0 .715.035l1.974-1.62a7.157 7.157 0 0 0 1.743.725l.25 2.538c.027.273.256.48.53.48h2.179a.533.533 0 0 0 .53-.48l.25-2.538a7.121 7.121 0 0 0 1.743-.726l1.974 1.62a.531.531 0 0 0 .715-.035l1.541-1.541a.532.532 0 0 0 .035-.715l-1.619-1.973c.319-.55.562-1.134.725-1.742l2.537-.25a.533.533 0 0 0 .481-.53V8.909a.533.533 0 0 0-.48-.53zm-9.519 4.57a2.95 2.95 0 1 1 0-5.901 2.95 2.95 0 0 1 0 5.901z"/></defs><g transform="translate(2 2)"><mask id="bib"><use xlink:href="#bia"/></mask><use xlink:href="#bia"/><path transform="translate(-25 -20)" mask="url(#bib)" d="M0 0h64v64H0z"/></g></symbol><symbol viewBox="0 0 24 24" id="mt-static--images--svg--ic_singleline" xmlns="http://www.w3.org/2000/svg"><defs><path id="bja" d="M3 4.995C3 3.893 3.893 3 4.995 3h14.01C20.107 3 21 3.893 21 4.995v14.01A1.995 1.995 0 0 1 19.005 21H4.995A1.995 1.995 0 0 1 3 19.005V4.995zM5 12v4h14v-4H5zm0-4v2h7V8H5z"/></defs><g><use xlink:href="#bja"/><path stroke="#000" stroke-width="1.5" d="M3.75 4.995v14.01c0 .688.557 1.245 1.245 1.245h14.01c.688 0 1.245-.557 1.245-1.245V4.995c0-.688-.557-1.245-1.245-1.245H4.995c-.688 0-1.245.557-1.245 1.245zm.5 11.755v-5.5h15.5v5.5H4.25zm0-9.5h8.5v3.5h-8.5v-3.5z"/></g></symbol><symbol viewBox="0 0 24 24" id="mt-static--images--svg--ic_tag" xmlns="http://www.w3.org/2000/svg"><path fill-rule="evenodd" d="M20.925 16.488l-.02-.028h.001L13.702 3.983l-.004.002a.547.547 0 0 0-.249-.214l.01-.006-2.948-1.702v.012a.56.56 0 0 0-.494-.029l-.003-.006-.055.032-.003.002-.003.002-5.672 3.275a.557.557 0 0 0-.278.472l-.002-.001v3.404l.006-.003a.555.555 0 0 0 .07.341l.013.017 7.18 12.436.02.044c.15.26.478.352.742.214l.001.002 8.693-5.019-.004-.007a.56.56 0 0 0 .204-.764zM8.849 6.644a1.035 1.035 0 1 1-1.035-1.793 1.035 1.035 0 0 1 1.035 1.793z"/></symbol><symbol viewBox="0 0 24 24" id="mt-static--images--svg--ic_textbigger" xmlns="http://www.w3.org/2000/svg"><path fill-rule="evenodd" d="M8.384 13.361h3.181l-1.547-4.403h-.034l-1.599 4.403zM17 11V9.491A.49.49 0 0 1 17.505 9h.991c.279 0 .505.228.505.491V11h1.509a.49.49 0 0 1 .491.505v.991a.503.503 0 0 1-.491.505h-1.509v1.509a.49.49 0 0 1-.505.491h-.991A.503.503 0 0 1 17 14.51v-1.509h-1.509a.49.49 0 0 1-.491-.505v-.991c0-.279.228-.505.491-.505H17zM8.642 6h2.768L16 18h-2.802l-.928-2.672H7.68L6.717 18H4.001L8.643 6z"/></symbol><symbol viewBox="0 0 24 24" id="mt-static--images--svg--ic_textsmaller" xmlns="http://www.w3.org/2000/svg"><path fill-rule="evenodd" d="M8.384 13.361h3.181l-1.547-4.403h-.034l-1.599 4.403zM8.642 6h2.768L16 18h-2.802l-.928-2.672H7.68L6.717 18H4.001L8.643 6zM15 11.505c0-.279.228-.505.491-.505h5.018a.49.49 0 0 1 .491.505v.991a.503.503 0 0 1-.491.505h-5.018a.49.49 0 0 1-.491-.505v-.991z"/></symbol><symbol viewBox="0 0 24 24" id="mt-static--images--svg--ic_time" xmlns="http://www.w3.org/2000/svg"><path fill-rule="evenodd" d="M12 6c3.309 0 6 2.692 6 6s-2.691 6-6 6-6-2.691-6-6c0-3.308 2.691-6 6-6zm0-3a9 9 0 1 1 0 18 9 9 0 0 1 0-18zm4.364 6.045l-.92-.915a.483.483 0 0 0-.659 0l-2.948 2.929-1.621-1.61a.481.481 0 0 0-.659 0l-.919.913a.459.459 0 0 0-.002.656l2.865 2.846a.463.463 0 0 0 .33.136h.018a.463.463 0 0 0 .322-.136l4.192-4.165a.461.461 0 0 0 0-.655z"/></symbol><symbol viewBox="0 0 24 24" id="mt-static--images--svg--ic_trash" xmlns="http://www.w3.org/2000/svg"><defs><path id="boa" d="M5 1H.496A.504.504 0 0 0 0 1.506v1.488c0 .275.222.506.496.506h15.007c.27 0 .496-.227.496-.506V1.506A.504.504 0 0 0 15.503 1h-4.504V.505A.49.49 0 0 0 10.508 0H5.49a.503.503 0 0 0-.491.505V1zm10 3v12.006A2 2 0 0 1 12.994 18H3.006A2.001 2.001 0 0 1 1 16.006V4h14zM4.5 7.753v6.495a.75.75 0 1 0 1.5 0V7.753a.75.75 0 1 0-1.5 0zm3 0v6.495a.75.75 0 1 0 1.5 0V7.753a.75.75 0 1 0-1.5 0zm3 0v6.495a.75.75 0 1 0 1.5 0V7.753a.75.75 0 1 0-1.5 0z"/></defs><g transform="translate(4 3)"><mask id="bob"><use xlink:href="#boa"/></mask><use xlink:href="#boa"/><path transform="translate(-29 -21)" mask="url(#bob)" d="M0 0h64v64H0z"/></g></symbol><symbol viewBox="0 0 24 24" id="mt-static--images--svg--ic_url" xmlns="http://www.w3.org/2000/svg"><path fill-rule="evenodd" d="M5.12 13.621l-.198-.344a3.003 3.003 0 0 1 1.1-4.1l6.517-3.763a3.005 3.005 0 0 1 4.101 1.097l.292.506 3.383-1.953a1.5 1.5 0 0 1 1.5 2.598l-3.383 1.953.207.359a3.003 3.003 0 0 1-1.1 4.1l-6.517 3.763a3.005 3.005 0 0 1-4.101-1.097l-.301-.522-2.823 1.63a1.5 1.5 0 0 1-1.5-2.598l2.823-1.63zm2.366-1.366l.878-.507a1.5 1.5 0 0 1 1.5 2.598l-.878.507.497.86 7.162-4.135-.403-.698-.494.285a1.5 1.5 0 0 1-1.5-2.598l.494-.285-.597-1.035-7.162 4.135.503.872z"/></symbol><symbol viewBox="0 0 24 24" id="mt-static--images--svg--ic_user" xmlns="http://www.w3.org/2000/svg"><path fill-rule="evenodd" d="M3 18.007v-2.106c0-.482.256-.914.645-1.094l4.483-2.054 1.529-.7C8.653 11.145 8 9.668 8 8c0-2.761 1.791-5 4-5s4 2.239 4 5c0 1.64-.632 3.096-1.607 4.007l1.628.764 4.342 2.037c.386.184.637.611.638 1.092v3.094a2 2 0 0 1-1.995 2.005H4.996a1.998 1.998 0 0 1-1.995-2.005v-.988z"/></symbol></svg>