<?xml version="1.0" encoding="utf-8"?><svg xmlns="http://www.w3.org/2000/svg" xmlns:xlink="http://www.w3.org/1999/xlink"><symbol viewBox="0 0 24 24" id="mt-static--images--svg--ic_Italic" xmlns="http://www.w3.org/2000/svg"><path fill-rule="evenodd" d="M12.435 16.33l.105-.38c.005-.021.557-2.182 1.147-4.438 1.015-3.879 1.263-4.66 1.318-4.779.189-.396.495-.695.936-.916.381-.19.866-.315 1.443-.373a.654.654 0 0 0 .447-.267.824.824 0 0 0 .168-.486.688.688 0 0 0-.682-.692H9.584a.688.688 0 0 0-.682.692v.024c0 .341.241.628.573.682.439.072 1.042.172 1.515.399.243.116.431.257.557.418.143.182.213.393.213.642 0 .467-.135.935-.265 1.387l-.082.291c-.167.603-.412 1.519-.696 2.579-.655 2.441-1.47 5.477-1.675 6.055-.138.389-.65 1.311-2.413 1.448a.674.674 0 0 0-.447.219.694.694 0 0 0-.181.47v.002c0 .381.306.692.682.692h7.735a.688.688 0 0 0 .682-.692v-.005a.686.686 0 0 0-.598-.685l-.201-.024c-.679-.079-1.523-.179-1.878-.647-.165-.217-.217-.504-.163-.872.035-.249.105-.491.178-.745"/></symbol><symbol viewBox="0 0 24 24" id="mt-static--images--svg--ic_add" xmlns="http://www.w3.org/2000/svg"><defs><path id="aba" d="M8 8V4.5a.5.5 0 0 1 .5-.5h1a.5.5 0 0 1 .5.5V8h3.5a.5.5 0 0 1 .5.5v1a.5.5 0 0 1-.5.5H10v3.5a.5.5 0 0 1-.5.5h-1a.5.5 0 0 1-.5-.5V10H4.5a.5.5 0 0 1-.5-.5v-1a.5.5 0 0 1 .5-.5H8zm1-8a9 9 0 1 1-.001 18.001A9 9 0 0 1 9 0zm0 2C5.14 2 2 5.141 2 9c0 3.86 3.14 7 7 7s7-3.14 7-7c0-3.859-3.14-7-7-7z"/></defs><g transform="translate(3 3)"><mask id="abb"><use xlink:href="#aba"/></mask><use xlink:href="#aba"/><path transform="translate(-24 -25)" mask="url(#abb)" d="M0 0h64v64H0z"/></g></symbol><symbol viewBox="0 0 24 24" id="mt-static--images--svg--ic_addhtml" xmlns="http://www.w3.org/2000/svg"><title>ico/addhtml</title><path d="M12.767 13.084l-2.211 2.211 2.233 2.233-.789.79-3-3 3-3 .767.766zm.884 4.538l2.327-2.327-2.305-2.305.673-.673 3 3-3 3-.695-.695zM8.091 2h9.916C19.107 2 20 2.898 20 3.99v16.02c0 1.099-.895 1.99-1.994 1.99H5.994A1.998 1.998 0 0 1 4 20V5.958L8.09 2zm.599 2l-.1 2.606H6V20h12V4H8.69z" fill-rule="evenodd"/></symbol><symbol viewBox="0 0 24 24" id="mt-static--images--svg--ic_addpage" xmlns="http://www.w3.org/2000/svg"><title>ico/addpage</title><path d="M15.5 16v-2.5h-1V16H12v1h2.5v2.5h1V17H18v-1h-2.5zM8.09 2h9.917C19.107 2 20 2.898 20 3.99v16.02c0 1.099-.895 1.99-1.994 1.99H5.994A1.998 1.998 0 0 1 4 20V5.958L8.09 2zM9 4L6 7h3V4z" fill-rule="evenodd"/></symbol><symbol viewBox="0 0 24 24" id="mt-static--images--svg--ic_audio" xmlns="http://www.w3.org/2000/svg"><path fill-rule="evenodd" d="M19.895 3.744h-.008c-.039-.32-.328-.57-.682-.57a.732.732 0 0 0-.344.088l-.006-.01-6.821 3.667v.004L9.454 8.31H4.627v.012l-.012-.001c-.281 0-.508.212-.508.473v6.412c0 .261.228.473.508.473l.012-.001v.013h4.827l3.841 2.065v-.01l5.516 2.965a.725.725 0 0 0 .393.115c.381 0 .69-.288.69-.642l-.008-.072h.008V3.744z"/></symbol><symbol viewBox="0 0 24 24" id="mt-static--images--svg--ic_backgroundcolor" xmlns="http://www.w3.org/2000/svg"><title>ico/backgroundcolor</title><path d="M10.384 13.53h3.18l-1.547-4.504h-.034l-1.599 4.504zM5 3h14a2 2 0 0 1 2 2v14a2 2 0 0 1-2 2H5a2 2 0 0 1-2-2V5a2 2 0 0 1 2-2zm5.642 3L6 18.275h2.716l.963-2.733h4.59l.929 2.733H18L13.41 6h-2.768z" fill-rule="evenodd" fill-opacity=".6"/></symbol><symbol viewBox="0 0 24 24" id="mt-static--images--svg--ic_bold" xmlns="http://www.w3.org/2000/svg"><title>ico/bold</title><defs><path d="M13.045 3.95C13.045 2.073 11.45 0 8.838 0H.576C.15 0 0 .24 0 .647v14.79c0 .406.204.563.63.563h8.485C12.227 16 14 13.937 14 11.658c0-2.306-1.446-3.943-2.96-4.27.9-.41 2.005-1.561 2.005-3.438zM7.72 3a1.48 1.48 0 0 1 1.496 1.5c0 .694-.52 1.5-1.496 1.5H3.2V3h4.52zM3.2 12.5v-3h5.57c.897 0 1.472.775 1.472 1.5 0 .948-.79 1.5-1.472 1.5H3.2z" id="aga"/></defs><g transform="translate(5 4)" fill-rule="evenodd"><mask id="agb"><use xlink:href="#aga"/></mask><use xlink:href="#aga"/><g mask="url(#agb)"><path d="M-26-20h64v64h-64z"/></g></g></symbol><symbol viewBox="0 0 24 24" id="mt-static--images--svg--ic_caution" xmlns="http://www.w3.org/2000/svg"><path fill-rule="evenodd" d="M12 10.586L9.172 7.758 7.758 9.172 10.586 12l-2.828 2.828 1.414 1.414L12 13.414l2.828 2.828 1.414-1.414L13.414 12l2.828-2.828-1.414-1.414L12 10.586zM12 21c-4.971 0-9-4.029-9-9s4.029-9 9-9 9 4.029 9 9-4.029 9-9 9z"/></symbol><symbol viewBox="0 0 24 24" id="mt-static--images--svg--ic_center" xmlns="http://www.w3.org/2000/svg"><path fill-rule="evenodd" d="M11 13v-2H3.5a.492.492 0 0 1-.5-.49V7.491c0-.271.228-.49.5-.49H11V4.497c0-.274.214-.496.505-.496h.991c.279 0 .505.226.505.496v2.504h7.5c.276 0 .5.215.5.49v3.019c0 .271-.228.49-.5.49h-7.5v2h2.5c.276 0 .5.215.5.49v3.019a.5.5 0 0 1-.5.49h-2.5v2.504a.493.493 0 0 1-.505.496h-.991a.503.503 0 0 1-.505-.496v-2.504H8.5a.492.492 0 0 1-.5-.49V13.49a.5.5 0 0 1 .5-.49H11z"/></symbol><symbol viewBox="0 0 24 24" id="mt-static--images--svg--ic_checkbox" xmlns="http://www.w3.org/2000/svg"><path fill-rule="evenodd" d="M16.278 3l-2 2H5v14h14v-7.408l2-2v9.413A1.995 1.995 0 0 1 19.005 21H4.995A1.995 1.995 0 0 1 3 19.005V4.995C3 3.893 3.893 3 4.995 3h11.283zm4.612 3.123a.377.377 0 0 1 0 .533l-9.538 9.538a.374.374 0 0 1-.266.11l-.012-.002-.013.002c-.1 0-.196-.04-.266-.11l-3.684-3.683a.376.376 0 0 1 0-.532l2.013-2.013a.377.377 0 0 1 .533 0l1.417 1.417 7.272-7.272a.374.374 0 0 1 .532 0l2.012 2.013z"/></symbol><symbol viewBox="0 0 24 24" id="mt-static--images--svg--ic_code" xmlns="http://www.w3.org/2000/svg"><path fill-rule="evenodd" d="M15.4 15.49L16.91 17l5-5-5-5-1.474 1.474 3.49 3.49L15.4 15.49zM9.474 8.474L8 7l-5 5 5 5 1.51-1.51-3.526-3.526 3.49-3.49zM14.196 6l.927.375-4.495 11.126-.927-.375L14.196 6z"/></symbol><symbol viewBox="0 0 24 24" id="mt-static--images--svg--ic_contentstype" xmlns="http://www.w3.org/2000/svg"><defs><path id="ala" d="M0 1.995C0 .893.893 0 1.995 0h14.01C17.107 0 18 .893 18 1.995v14.01A1.995 1.995 0 0 1 16.005 18H1.995A1.995 1.995 0 0 1 0 16.005V1.995zM4 4h10v6H4V4zm0 8.5c0-.828.666-1.5 1.5-1.5.828 0 1.5.666 1.5 1.5 0 .828-.666 1.5-1.5 1.5-.828 0-1.5-.666-1.5-1.5zM8 11h6v3H8v-3zm8 5V2H2v14h14z"/></defs><g transform="translate(3 3)"><mask id="alb"><use xlink:href="#ala"/></mask><use xlink:href="#ala"/><path transform="translate(-25 -22)" mask="url(#alb)" d="M0 0h64v64H0z"/></g></symbol><symbol viewBox="0 0 24 24" id="mt-static--images--svg--ic_crossoff" xmlns="http://www.w3.org/2000/svg"><title>ico/crossoff</title><defs><path d="M13.438 3h1.642a3.89 3.89 0 0 1 .198-.757c.168-.448.41-.84.724-1.173.314-.334.7-.596 1.159-.785.458-.19.973-.285 1.546-.285.413 0 .803.056 1.17.167.367.111.695.273.985.486.29.213.53.476.719.79.188.314.307.674.356 1.08h-1.594a1.209 1.209 0 0 0-.189-.486 1.587 1.587 0 0 0-.367-.388 1.817 1.817 0 0 0-1.08-.353c-.37 0-.685.067-.943.201a1.744 1.744 0 0 0-.63.54 2.29 2.29 0 0 0-.35.77c-.017.064-.032.128-.044.193h4.76a.5.5 0 1 1 0 1h-4.814c.016.19.049.377.097.56.074.278.19.529.351.751.161.223.37.4.63.535.258.134.573.201.943.201.504 0 .897-.144 1.18-.432.283-.288.456-.667.52-1.138H22c-.042.438-.15.834-.325 1.187a2.859 2.859 0 0 1-1.699 1.473c-.384.13-.807.196-1.269.196a4.068 4.068 0 0 1-1.546-.28 3.32 3.32 0 0 1-1.16-.77 3.371 3.371 0 0 1-.723-1.154A3.894 3.894 0 0 1 15.037 4h-1.153l.015.02c.228.311.341.686.341 1.124 0 .354-.073.66-.22.918-.147.259-.344.47-.592.633a2.709 2.709 0 0 1-.85.363 4.075 4.075 0 0 1-.98.118H7.969V4H6.051l1.268 3.176H5.61l-.566-1.56h-2.8l-.587 1.56H0L1.283 4H.5a.5.5 0 0 1 0-1h1.187L2.83.167H4.52L5.65 3H7.97V.167h3.524c.356 0 .681.03.975.088.294.06.545.156.755.29.21.134.372.312.488.535.115.222.173.497.173.825 0 .353-.086.647-.257.883a1.48 1.48 0 0 1-.189.212zM9.616 3h1.79c.239-.016.439-.08.6-.192.19-.131.284-.344.284-.638a.772.772 0 0 0-.095-.403.675.675 0 0 0-.251-.245 1.108 1.108 0 0 0-.362-.123 2.56 2.56 0 0 0-.425-.034H9.616V3zM2.85 4l-.177.467h1.94L4.443 4H2.85zm.38-1h.845L3.67 1.895h-.02L3.23 3zm6.385 2.979h1.762c.16 0 .314-.015.46-.045.148-.029.277-.078.389-.147a.76.76 0 0 0 .267-.28.912.912 0 0 0 .1-.451c0-.36-.108-.617-.325-.77-.217-.155-.504-.232-.86-.232H9.616V5.98z" id="ama"/></defs><g transform="translate(1 8)" fill-rule="evenodd"><mask id="amb"><use xlink:href="#ama"/></mask><use xlink:href="#ama"/><g mask="url(#amb)"><path d="M-28-25h64v64h-64z"/></g></g></symbol><symbol viewBox="0 0 24 24" id="mt-static--images--svg--ic_dashboard" xmlns="http://www.w3.org/2000/svg"><path fill-rule="evenodd" d="M4 4.51A.51.51 0 0 1 4.51 4h8.981a.51.51 0 0 1 .51.51v8.981a.51.51 0 0 1-.51.51H4.51a.51.51 0 0 1-.51-.51V4.51zm12 0c0-.281.215-.51.49-.51h3.019a.5.5 0 0 1 .49.51v8.981c0 .281-.215.51-.49.51H16.49a.5.5 0 0 1-.49-.51V4.51zM4 16.491c0-.271.215-.49.49-.49h3.019c.271 0 .49.215.49.49v3.019c0 .271-.215.49-.49.49H4.49a.487.487 0 0 1-.49-.49v-3.019zm6 0c0-.271.215-.49.49-.49h3.019c.271 0 .49.215.49.49v3.019c0 .271-.215.49-.49.49H10.49a.487.487 0 0 1-.49-.49v-3.019zm6 0c0-.271.215-.49.49-.49h3.019c.271 0 .49.215.49.49v3.019c0 .271-.215.49-.49.49H16.49a.487.487 0 0 1-.49-.49v-3.019z"/></symbol><symbol viewBox="0 0 24 24" id="mt-static--images--svg--ic_data" xmlns="http://www.w3.org/2000/svg"><path fill-rule="evenodd" d="M3 10.49c0-.271.228-.49.5-.49h17c.276 0 .5.215.5.49v3.019c0 .271-.228.49-.5.49h-17a.492.492 0 0 1-.5-.49V10.49zm0-6A.5.5 0 0 1 3.51 4h8.981c.281 0 .51.215.51.49v3.019a.5.5 0 0 1-.51.49H3.51a.498.498 0 0 1-.51-.49V4.49zm0 12c0-.271.226-.49.494-.49h12.013a.49.49 0 0 1 .494.49v3.019c0 .271-.226.49-.494.49H3.494a.49.49 0 0 1-.494-.49V16.49z"/></symbol><symbol viewBox="0 0 24 24" id="mt-static--images--svg--ic_date" xmlns="http://www.w3.org/2000/svg"><path fill-rule="evenodd" d="M3 9h18v9.991A2.002 2.002 0 0 1 19.005 21H4.995A2.004 2.004 0 0 1 3 18.991V9zm16-5h1.5c.276 0 .5.215.5.49v3.019c0 .271-.228.49-.5.49h-17a.492.492 0 0 1-.5-.49V4.49c0-.271.228-.49.5-.49H5v1c0 .556.452 1 1.009 1H7.99a1 1 0 0 0 1.009-1V4h6v1c0 .556.452 1 1.009 1h1.981a1 1 0 0 0 1.009-1V4zm-5.76 14.239c0 .098-.08.178-.178.178h-1.47a.178.178 0 0 1-.178-.178v-4.844l-.966.368-.154-.013a.174.174 0 0 1-.085-.129l-.165-1.208a.177.177 0 0 1 .097-.183l2.107-1.042.079-.018h.734c.098 0 .178.08.178.178v6.891zM6 2.496c0-.274.214-.495.505-.495h.991c.279 0 .505.216.505.495v2.009A.492.492 0 0 1 7.496 5h-.991A.496.496 0 0 1 6 4.505V2.496zm10 0c0-.274.214-.495.505-.495h.991c.279 0 .505.216.505.495v2.009a.492.492 0 0 1-.505.495h-.991A.496.496 0 0 1 16 4.505V2.496z"/></symbol><symbol viewBox="0 0 12 12" id="mt-static--images--svg--ic_down" xmlns="http://www.w3.org/2000/svg"><title>ico/down</title><defs><path id="aqa" d="M0 0h8L4 4z"/></defs><g transform="translate(2 4)" fill-rule="evenodd"><mask id="aqb"><use xlink:href="#aqa"/></mask><use transform="matrix(-1 0 0 1 8 0)" xlink:href="#aqa"/><g mask="url(#aqb)"><path d="M-33-30h64v64h-64z"/></g></g></symbol><symbol viewBox="0 0 24 24" id="mt-static--images--svg--ic_draft" xmlns="http://www.w3.org/2000/svg"><title>ico/draft</title><defs><path d="M4 1V.49c0-.27.228-.49.491-.49h5.018C9.78 0 10 .215 10 .49V1h1.994A2 2 0 0 1 14 2.997v15.006A2.001 2.001 0 0 1 11.994 20H2.006A2 2 0 0 1 0 18.003V2.997C0 1.894.897 1 2.006 1H4zm0 2H2v15.2h10.2V3H10v.51c0 .27-.228.49-.491.49H4.491A.488.488 0 0 1 4 3.51V3zm0 9h6v1H4v-1zm0-4h6v1H4V8zm0 2h6v1H4v-1z" id="ara"/></defs><g transform="translate(5 2)" fill-rule="evenodd"><mask id="arb"><use xlink:href="#ara"/></mask><use xlink:href="#ara"/><g mask="url(#arb)"><path d="M-28-19h64v64h-64z"/></g></g></symbol><symbol viewBox="0 0 24 24" id="mt-static--images--svg--ic_duplicate" xmlns="http://www.w3.org/2000/svg"><title>ico/duplicate</title><defs><path d="M12 2H2v11H0V2.003C0 .897.902 0 2.009 0H12v2zM4 6.006C4 4.898 4.902 4 6.009 4h7.982C15.101 4 16 4.897 16 6.006v9.988A2.009 2.009 0 0 1 13.991 18H6.01A2.007 2.007 0 0 1 4 15.994V6.006zM6 6v10h8V6H6z" id="asa"/></defs><g transform="translate(4 3)" fill-rule="evenodd"><mask id="asb"><use xlink:href="#asa"/></mask><use xlink:href="#asa"/><g mask="url(#asb)"><path d="M-28-19h64v64h-64z"/></g></g></symbol><symbol viewBox="0 0 24 24" id="mt-static--images--svg--ic_edit" xmlns="http://www.w3.org/2000/svg"><path fill-rule="evenodd" d="M12.88 5l-2.469 2.4H5.399v11.2h11.2v-4.944l2.4-2.333v7.683A1.996 1.996 0 0 1 17.005 21H4.993a1.996 1.996 0 0 1-1.994-1.994V6.994C2.999 5.893 3.894 5 4.993 5h7.886zm9.558.294a.536.536 0 0 1-.038.72l-9.234 8.901-.006-.008.002.011-4.487 1.036v-.002a.451.451 0 0 1-.53-.128.533.533 0 0 1-.086-.525h-.001l1.446-4.715.03.01-.018-.022 9.234-8.901a.455.455 0 0 1 .673.035l3.015 3.587zM9.561 14.449l.859-2.8 1.832 2.179-2.691.621z"/></symbol><symbol viewBox="0 0 20 21" id="mt-static--images--svg--ic_eraser" xmlns="http://www.w3.org/2000/svg"><title>Mask</title><defs><path d="M7.596 2.025h7a2 2 0 0 1 2 2v14.857a2 2 0 0 1-2 2h-7a2 2 0 0 1-2-2V4.025a2 2 0 0 1 2-2zm-.428 11v6.286h7.857v-6.286H7.168z" id="aua"/></defs><use transform="rotate(45 11.804 9.746)" xlink:href="#aua" fill-rule="evenodd"/></symbol><symbol viewBox="0 0 24 24" id="mt-static--images--svg--ic_error" xmlns="http://www.w3.org/2000/svg"><path fill-rule="evenodd" d="M21.927 19.342l.001-.001-.034-.058-.052-.09-9.088-15.741a.862.862 0 0 0-1.547.068h-.001L2.189 19.139l.009.005a.856.856 0 0 0-.198.544c0 .478.387.866.865.866h18.269a.865.865 0 0 0 .792-1.211zm-9.919-.424a1.24 1.24 0 0 1-1.254-1.237c0-.693.561-1.254 1.254-1.254.676 0 1.237.561 1.237 1.254s-.561 1.237-1.237 1.237zm1.237-10.939v6.828a.504.504 0 0 1-.505.505h-1.472a.506.506 0 0 1-.512-.505V7.998l-.002-.019c0-.269.209-.481.467-.501v-.004h1.516c.277.002.5.216.507.492h.001v.013z"/></symbol><symbol viewBox="0 0 24 24" id="mt-static--images--svg--ic_fav" xmlns="http://www.w3.org/2000/svg"><title>ico/fav</title><defs><path id="awa" d="M12 17l-5.878 3.09 1.123-6.545L2.489 8.91l6.572-.955L12 2l2.939 5.955 6.572.955-4.756 4.635 1.123 6.545z"/></defs><g fill-rule="evenodd"><mask id="awb"><use xlink:href="#awa"/></mask><use xlink:href="#awa"/><g mask="url(#awb)"><path d="M-22-23h64v64h-64z"/></g></g></symbol><symbol viewBox="0 0 24 24" id="mt-static--images--svg--ic_file" xmlns="http://www.w3.org/2000/svg"><path fill-rule="evenodd" d="M8.09 2h9.916c1.101 0 1.993.898 1.993 1.991v16.018A1.994 1.994 0 0 1 18.005 22H5.993a1.998 1.998 0 0 1-1.994-1.999V5.957L8.089 2zm.599 2l-.1 2.606h-2.59V20h12V4h-9.31zm.31 6h6v1h-6v-1zm0 2h6v1h-6v-1zm0 2h6v1h-6v-1z"/></symbol><symbol viewBox="0 0 24 24" id="mt-static--images--svg--ic_flag" xmlns="http://www.w3.org/2000/svg"><path fill-rule="evenodd" d="M3 3.508C3 3.227 3.216 3 3.495 3h2.009a.5.5 0 0 1 .495.508v17.984a.498.498 0 0 1-.495.508H3.495A.5.5 0 0 1 3 21.492V3.508zm4-.007A.5.5 0 0 1 7.494 3h12.013c.273 0 .414.209.314.469l-1.745 4.562a1.518 1.518 0 0 0 0 .938l1.745 4.562c.099.259-.046.469-.314.469H7.494A.501.501 0 0 1 7 13.499V3.501z"/></symbol><symbol viewBox="0 0 24 24" id="mt-static--images--svg--ic_fullscreen" xmlns="http://www.w3.org/2000/svg"><title>ico/fullscreen</title><defs><path d="M.923 12.095a.315.315 0 0 1 .534-.172l1.08 1.08 2.9-2.899a.315.315 0 0 1 .446 0l1.998 1.999a.315.315 0 0 1 0 .446l-2.9 2.9 1.08 1.079a.314.314 0 0 1-.17.534l-5.523.934a.315.315 0 0 1-.364-.362l.919-5.539zm16.154-6.19a.316.316 0 0 1-.534.172l-1.08-1.08-2.9 2.9a.315.315 0 0 1-.446 0L10.12 5.897a.316.316 0 0 1 0-.446l2.9-2.9-1.08-1.08a.315.315 0 0 1 .17-.534l5.523-.934a.315.315 0 0 1 .364.363l-.919 5.538z" id="aza"/></defs><g transform="translate(3 3)" fill-rule="evenodd"><mask id="azb"><use xlink:href="#aza"/></mask><use xlink:href="#aza"/><g mask="url(#azb)"><path d="M-29-20h64v64h-64z"/></g></g></symbol><symbol viewBox="0 0 24 24" id="mt-static--images--svg--ic_grid" xmlns="http://www.w3.org/2000/svg"><defs><path id="baa" d="M0 1.995C0 .893.893 0 1.995 0h14.01C17.107 0 18 .893 18 1.995v14.01A1.995 1.995 0 0 1 16.005 18H1.995A1.995 1.995 0 0 1 0 16.005V1.995zM16 16V2H2v14h14zM7.75 4h2.5v2.5h-2.5V4zM4 4h2.5v2.5H4V4zm7.5 0H14v2.5h-2.5V4zM4 7.75h2.5v2.5H4v-2.5zm3.75 0h2.5v2.5h-2.5v-2.5zm3.75 0H14v2.5h-2.5v-2.5zM4 11.5h2.5V14H4v-2.5zm3.75 0h2.5V14h-2.5v-2.5zm3.75 0H14V14h-2.5v-2.5z"/></defs><g transform="translate(3 3)"><mask id="bab"><use xlink:href="#baa"/></mask><use xlink:href="#baa"/><path transform="translate(-29 -17)" mask="url(#bab)" d="M0 0h64v64H0z"/></g></symbol><symbol viewBox="0 0 24 24" id="mt-static--images--svg--ic_hr" xmlns="http://www.w3.org/2000/svg"><path fill-rule="evenodd" d="M4 8v8.425h1.853v-3.634h3.41v3.634h1.853V8H9.263v3.233h-3.41V8H4zm10.596 3.811h2.029c.425 0 .743-.094.956-.283.212-.189.319-.496.319-.92 0-.409-.106-.706-.319-.891-.212-.185-.531-.277-.956-.277h-2.029v2.372zM12.743 8h4.543c.378 0 .718.061 1.021.183.303.122.562.289.779.501.216.212.382.458.496.737.114.279.171.58.171.903 0 .496-.104.924-.313 1.286-.208.362-.549.637-1.021.826v.024c.228.063.417.159.566.289.149.13.271.283.366.46.094.177.163.372.206.584.043.212.073.425.088.637l.024.472.041.555c.02.189.051.368.094.537.043.169.108.313.195.431h-1.853a3.284 3.284 0 0 1-.189-.956c-.024-.37-.059-.724-.106-1.062-.063-.441-.197-.763-.401-.968-.205-.205-.539-.307-1.003-.307h-1.853v3.292h-1.853V7.999z"/></symbol><symbol viewBox="0 0 24 24" id="mt-static--images--svg--ic_image" xmlns="http://www.w3.org/2000/svg"><path fill-rule="evenodd" d="M3 5.994C3 4.893 3.893 4 4.995 4h14.01C20.107 4 21 4.895 21 5.994v12.012A1.995 1.995 0 0 1 19.005 20H4.995A1.996 1.996 0 0 1 3 18.006V5.994zM19 18h-2.285l-.035-.1.004-.002-4.781-8.9-.002.001a.646.646 0 0 0-.582-.394.648.648 0 0 0-.591.412l-3.182 5.922-.779-1.45-.001.001a.34.34 0 0 0-.307-.208.34.34 0 0 0-.311.217l-1.149 2.139V5.999h14v12zm-3-7a2 2 0 1 0 .001-3.999A2 2 0 0 0 16 11z"/></symbol><symbol viewBox="0 0 24 24" id="mt-static--images--svg--ic_indent" xmlns="http://www.w3.org/2000/svg"><title>ico/unindent</title><defs><path d="M3.553 9.06c0 .06-.036.112-.088.135l.002.003L.25 11.054a.147.147 0 0 1-.25-.1H0V7.166a.148.148 0 0 1 .253-.103l3.229 1.864-.004.006a.146.146 0 0 1 .075.126zM.5 0h17a.5.5 0 0 1 .5.5v2a.5.5 0 0 1-.5.5H.5a.5.5 0 0 1-.5-.5v-2A.5.5 0 0 1 .5 0zm6 5h11a.5.5 0 0 1 .5.5v2a.5.5 0 0 1-.5.5h-11a.5.5 0 0 1-.5-.5v-2a.5.5 0 0 1 .5-.5zm0 5h11a.5.5 0 0 1 .5.5v2a.5.5 0 0 1-.5.5h-11a.5.5 0 0 1-.5-.5v-2a.5.5 0 0 1 .5-.5zm-6 5h17a.5.5 0 0 1 .5.5v2a.5.5 0 0 1-.5.5H.5a.5.5 0 0 1-.5-.5v-2a.5.5 0 0 1 .5-.5z" id="bda"/></defs><g transform="translate(3 3)" fill-rule="evenodd"><mask id="bdb"><use xlink:href="#bda"/></mask><use xlink:href="#bda"/><g mask="url(#bdb)"><path d="M-28-21h64v64h-64z"/></g></g></symbol><symbol viewBox="0 0 24 24" id="mt-static--images--svg--ic_info" xmlns="http://www.w3.org/2000/svg"><path fill-rule="evenodd" d="M12 3a9 9 0 1 0 0 18 9 9 0 0 0 0-18zm.918 14.006c0 .173-.14.313-.313.313h-1.211a.313.313 0 0 1-.313-.313v-5.812c0-.173.14-.313.313-.313h1.211c.173 0 .313.14.313.313v5.812zm-.926-7.422c-.593 0-1.084-.492-1.084-1.099s.492-1.084 1.084-1.084c.607 0 1.099.477 1.099 1.084 0 .607-.492 1.099-1.099 1.099z"/></symbol><symbol viewBox="0 0 24 24" id="mt-static--images--svg--ic_left" xmlns="http://www.w3.org/2000/svg"><path fill-rule="evenodd" d="M8 6.49c0-.271.229-.49.5-.49h10.999c.276 0 .5.215.5.49v3.019c0 .271-.229.49-.5.49H8.5a.492.492 0 0 1-.5-.49V6.49zM4 4.496C4 4.222 4.214 4 4.505 4h.991c.279 0 .505.226.505.496v15.007a.493.493 0 0 1-.505.496h-.991A.503.503 0 0 1 4 19.503V4.496zm4 9.994a.5.5 0 0 1 .5-.49h6.999c.276 0 .5.215.5.49v3.019a.5.5 0 0 1-.5.49H8.5a.492.492 0 0 1-.5-.49V14.49z"/></symbol><symbol viewBox="0 0 16 20" id="mt-static--images--svg--ic_link" xmlns="http://www.w3.org/2000/svg"><title>Mask</title><defs><path d="M11 6h2a2 2 0 0 1 2 2v10a2 2 0 0 1-2 2h-2v3a1 1 0 0 1-2 0v-3H7a2 2 0 0 1-2-2V8a2 2 0 0 1 2-2h2V3a1 1 0 1 1 2 0v3zm0 2v1a1 1 0 0 1-2 0V8H7.5a.5.5 0 0 0-.5.5v9a.5.5 0 0 0 .5.5H9v-1a1 1 0 0 1 2 0v1h1.5a.5.5 0 0 0 .5-.5v-9a.5.5 0 0 0-.5-.5H11z" id="bga"/></defs><use transform="rotate(30 14.598 7.768)" xlink:href="#bga" fill-rule="evenodd"/></symbol><symbol viewBox="0 0 24 24" id="mt-static--images--svg--ic_list" xmlns="http://www.w3.org/2000/svg"><title>ico/list</title><defs><path d="M4 6.505C4 6.226 4.229 6 4.5 6h11c.276 0 .5.214.5.505v.99a.506.506 0 0 1-.5.505h-11a.495.495 0 0 1-.5-.505v-.99zm0 6c0-.279.229-.505.5-.505h11c.276 0 .5.214.5.505v.99a.506.506 0 0 1-.5.505h-11a.495.495 0 0 1-.5-.505v-.99zm0-12C4 .226 4.229 0 4.5 0h11c.276 0 .5.214.5.505v.99a.506.506 0 0 1-.5.505h-11a.495.495 0 0 1-.5-.505v-.99zM1 2a1 1 0 1 1 0-2 1 1 0 0 1 0 2zm0 6a1 1 0 1 1 0-2 1 1 0 0 1 0 2zm0 6a1 1 0 1 1 0-2 1 1 0 0 1 0 2z" id="bha"/></defs><g transform="translate(4 5)" fill-rule="evenodd"><mask id="bhb"><use xlink:href="#bha"/></mask><use xlink:href="#bha"/><g mask="url(#bhb)"><path d="M-28-22h64v64h-64z"/></g></g></symbol><symbol viewBox="0 0 24 24" id="mt-static--images--svg--ic_movie" xmlns="http://www.w3.org/2000/svg"><path fill-rule="evenodd" d="M3 7.006A2 2 0 0 1 4.995 5h14.01A2 2 0 0 1 21 7.006v9.988A2 2 0 0 1 19.005 19H4.995A2 2 0 0 1 3 16.994V7.006zM19 17V7H5v10h14zm-4-5l-2.501 1.5L10 15.001v-6l2.499 1.501L15 12.001z"/></symbol><symbol viewBox="0 0 24 24" id="mt-static--images--svg--ic_multiline" xmlns="http://www.w3.org/2000/svg"><path fill-rule="evenodd" d="M3 3.993C3 3.444 3.445 3 3.993 3h16.013c.549 0 .993.445.993.993v16.013a.993.993 0 0 1-.993.993H3.993A.993.993 0 0 1 3 20.006V3.993zM5 10v9h14v-9H5zm0-4v2h7V6H5z"/></symbol><symbol viewBox="0 0 24 24" id="mt-static--images--svg--ic_ol" xmlns="http://www.w3.org/2000/svg"><title>ico/ol</title><defs><path d="M2 14.5H0V14h2v-1h.5v2.5H0V15h2v-.5zM0 8.25V8h2V7h.5v1.5h-2V9h2v.5H0V8.25zm4-.745C4 7.226 4.229 7 4.5 7h11c.276 0 .5.214.5.505v.99a.506.506 0 0 1-.5.505h-11a.495.495 0 0 1-.5-.505v-.99zm0 6c0-.279.229-.505.5-.505h11c.276 0 .5.214.5.505v.99a.506.506 0 0 1-.5.505h-11a.495.495 0 0 1-.5-.505v-.99zm0-12C4 1.226 4.229 1 4.5 1h11c.276 0 .5.214.5.505v.99a.506.506 0 0 1-.5.505h-11a.495.495 0 0 1-.5-.505v-.99zM1 .5h.5v3H1v-3zM0 7h2v.5H0V7zm0 6h2v.5H0V13z" id="bka"/></defs><g transform="translate(4 4)" fill-rule="evenodd"><mask id="bkb"><use xlink:href="#bka"/></mask><use xlink:href="#bka"/><g mask="url(#bkb)"><path d="M-32-23h64v64h-64z"/></g></g></symbol><symbol viewBox="0 0 24 24" id="mt-static--images--svg--ic_preview" xmlns="http://www.w3.org/2000/svg"><title>ico/preview</title><defs><path d="M19.664 6.372c.203.13.336.35.336.602a.704.704 0 0 1-.196.484.741.741 0 0 1-.053.05l-4.342 4.18-.017-.017A7.38 7.38 0 0 1 9.976 14c-1.91 0-3.646-.71-4.943-1.867l-.01.01L.283 7.58A.709.709 0 0 1 0 7.02c0-.183.073-.348.189-.475L.185 6.54l4.37-4.206A7.38 7.38 0 0 1 9.975 0a7.4 7.4 0 0 1 4.962 1.884l.032-.031 4.695 4.519zM10 12a5 5 0 1 0 0-10 5 5 0 0 0 0 10zm0-2a3 3 0 1 1 0-6 3 3 0 0 1 0 6z" id="bla"/></defs><g transform="translate(2 5)" fill-rule="evenodd"><mask id="blb"><use xlink:href="#bla"/></mask><use xlink:href="#bla"/><g mask="url(#blb)"><path d="M-24-19h64v64h-64z"/></g></g></symbol><symbol viewBox="0 0 24 24" id="mt-static--images--svg--ic_publish" xmlns="http://www.w3.org/2000/svg"><title>ico/publish</title><defs><path d="M1.53 7.346a.55.55 0 0 1-.471-.24.39.39 0 0 1 .038-.464L6.55.188C6.65.07 6.81 0 6.98 0h.001c.17 0 .332.07.432.187L12.9 6.64a.387.387 0 0 1 .04.464.55.55 0 0 1-.471.241H9.904v5.797c0 .248-.237.448-.53.448H4.624c-.292 0-.53-.2-.53-.448V7.346H1.531zM0 15.505A.5.5 0 0 1 .498 15h13.004c.275 0 .498.214.498.505v.99a.5.5 0 0 1-.498.505H.498A.494.494 0 0 1 0 16.495v-.99z" id="bma"/></defs><g transform="translate(5 4)" fill-rule="evenodd"><mask id="bmb"><use xlink:href="#bma"/></mask><use xlink:href="#bma"/><g mask="url(#bmb)"><path d="M-27-23h64v64h-64z"/></g></g></symbol><symbol viewBox="0 0 24 24" id="mt-static--images--svg--ic_quotation" xmlns="http://www.w3.org/2000/svg"><path fill-rule="evenodd" d="M17.207 11c.068-1.487 1.044-2.733 2.929-2.997.124-.011.232-.079.322-.203a.408.408 0 0 0 .068-.356l-.458-2.085a.434.434 0 0 0-.17-.271.422.422 0 0 0-.305-.085c-2.204.113-3.854.757-4.95 1.932-1.096 1.175-1.644 2.485-1.644 4.451l.014-.001-.014.118v5.993c0 .271.22.503.491.503h5.018a.502.502 0 0 0 .491-.503v-5.993a.502.502 0 0 0-.491-.503h-1.302zm-9 0c.068-1.487 1.044-2.733 2.929-2.997.124-.011.232-.079.322-.203a.408.408 0 0 0 .068-.356l-.458-2.085a.434.434 0 0 0-.17-.271.422.422 0 0 0-.305-.085c-2.204.113-3.854.757-4.95 1.932C4.547 8.11 3.999 9.42 3.999 11.386l.014-.001-.014.118v5.993c0 .271.22.503.491.503h5.018a.502.502 0 0 0 .491-.503v-5.993A.502.502 0 0 0 9.508 11H8.206z"/></symbol><symbol viewBox="0 0 24 24" id="mt-static--images--svg--ic_radio" xmlns="http://www.w3.org/2000/svg"><path fill-rule="evenodd" d="M12 21c-4.971 0-9-4.029-9-9s4.029-9 9-9 9 4.029 9 9-4.029 9-9 9zm0-3a6 6 0 1 0 0-12 6 6 0 0 0 0 12zm0-2a4 4 0 1 1 0-8 4 4 0 0 1 0 8z"/></symbol><symbol viewBox="0 0 24 24" id="mt-static--images--svg--ic_redo" xmlns="http://www.w3.org/2000/svg"><title>ico/redo</title><defs><path d="M2.12 3.198a9 9 0 1 1 .054 11.667c-.16-.26-.135-.473.072-.64a55.365 55.365 0 0 1 1.75-1.29c.158-.112.326-.102.503.032a6.037 6.037 0 0 0 .262.28 6 6 0 1 0-.344-8.12l1.394 1.17c.102.09.14.217.08.288-.03.035-.078.049-.132.044L.942 7.41l-.003-.005c-.068.02-.163-.004-.242-.07a.286.286 0 0 1-.11-.206l-.011-.003-.067-4.9c-.016-.054-.011-.105.02-.142.06-.071.196-.057.303.033l1.287 1.08z" id="bpa"/></defs><g transform="matrix(-1 0 0 1 21 3)" fill-rule="evenodd"><mask id="bpb"><use xlink:href="#bpa"/></mask><use xlink:href="#bpa"/><g mask="url(#bpb)"><path d="M-26-25h64v64h-64z"/></g></g></symbol><symbol viewBox="0 0 24 24" id="mt-static--images--svg--ic_right" xmlns="http://www.w3.org/2000/svg"><path fill-rule="evenodd" d="M4 6.49c0-.271.229-.49.5-.49h10.999c.276 0 .5.215.5.49v3.019c0 .271-.229.49-.5.49H4.5a.492.492 0 0 1-.5-.49V6.49zm4 8a.5.5 0 0 1 .5-.49h6.999c.276 0 .5.215.5.49v3.019a.5.5 0 0 1-.5.49H8.5a.492.492 0 0 1-.5-.49V14.49zm10-9.994c0-.274.214-.496.505-.496h.991c.279 0 .505.226.505.496v15.007a.493.493 0 0 1-.505.496h-.991a.503.503 0 0 1-.505-.496V4.496z"/></symbol><symbol viewBox="0 0 21 21" id="mt-static--images--svg--ic_search" xmlns="http://www.w3.org/2000/svg"><title>Mask</title><defs><path d="M11.838.156a8.252 8.252 0 0 0-7.07 12.513L.766 16.671l.014.014c-.427.408-.69.989-.69 1.645 0 1.267 1.01 2.258 2.276 2.257a2.28 2.28 0 0 0 1.637-.68l.01.01 4.129-4.128a8.252 8.252 0 0 0 11.949-7.38A8.253 8.253 0 0 0 11.838.156zm.05 13.261a5.158 5.158 0 1 1 0-10.317 5.158 5.158 0 0 1 0 10.317z" id="bra"/></defs><use transform="matrix(-1 0 0 1 20.182 0)" xlink:href="#bra" fill-rule="evenodd"/></symbol><symbol viewBox="0 0 24 24" id="mt-static--images--svg--ic_selectbox" xmlns="http://www.w3.org/2000/svg"><path fill-rule="evenodd" d="M3 9c0-1.104.893-2 1.995-2h14.01C20.107 7 21 7.887 21 9v6.001c0 1.104-.893 2-1.995 2H4.995a1.992 1.992 0 0 1-1.995-2V9zm11.5 5l1.249-2.001L17 10h-5l1.251 1.999L14.501 14z"/></symbol><symbol viewBox="0 0 24 24" id="mt-static--images--svg--ic_setting" xmlns="http://www.w3.org/2000/svg"><title>ico/setting</title><defs><path d="M19.52 8.38l-2.538-.25a7.165 7.165 0 0 0-.725-1.743l1.62-1.973a.533.533 0 0 0-.036-.714l-1.54-1.542a.532.532 0 0 0-.715-.035l-1.973 1.62a7.171 7.171 0 0 0-1.744-.725L11.62.48a.533.533 0 0 0-.53-.48H8.912a.533.533 0 0 0-.53.48L8.13 3.02a7.137 7.137 0 0 0-1.742.725l-1.975-1.62a.53.53 0 0 0-.714.035l-1.541 1.54a.533.533 0 0 0-.036.715l1.621 1.974a7.14 7.14 0 0 0-.724 1.743L.48 8.38A.532.532 0 0 0 0 8.91v2.179c0 .274.208.503.48.53l2.54.25c.162.608.405 1.192.724 1.741l-1.62 1.974a.531.531 0 0 0 .035.715l1.54 1.541a.532.532 0 0 0 .715.035l1.973-1.62c.551.32 1.134.562 1.744.725l.25 2.538c.026.273.256.481.53.481h2.178a.533.533 0 0 0 .53-.48l.25-2.538a7.124 7.124 0 0 0 1.744-.726l1.973 1.62a.532.532 0 0 0 .715-.035l1.54-1.541a.53.53 0 0 0 .035-.715l-1.619-1.973c.319-.55.562-1.134.725-1.742l2.537-.25a.533.533 0 0 0 .481-.53V8.91a.532.532 0 0 0-.48-.53zM10 12.95a2.95 2.95 0 1 1 0-5.901 2.95 2.95 0 0 1 0 5.902z" id="bta"/></defs><g transform="translate(2 2)" fill-rule="evenodd"><mask id="btb"><use xlink:href="#bta"/></mask><use xlink:href="#bta"/><g mask="url(#btb)"><path d="M-25-20h64v64h-64z"/></g></g></symbol><symbol viewBox="0 0 24 24" id="mt-static--images--svg--ic_singleline" xmlns="http://www.w3.org/2000/svg"><defs><path id="bua" d="M3 4.995C3 3.893 3.893 3 4.995 3h14.01C20.107 3 21 3.893 21 4.995v14.01A1.995 1.995 0 0 1 19.005 21H4.995A1.995 1.995 0 0 1 3 19.005V4.995zM5 12v4h14v-4H5zm0-4v2h7V8H5z"/></defs><g><use xlink:href="#bua"/><path stroke="#000" stroke-width="1.5" d="M3.75 4.995v14.01c0 .688.557 1.245 1.245 1.245h14.01c.688 0 1.245-.557 1.245-1.245V4.995c0-.688-.557-1.245-1.245-1.245H4.995c-.688 0-1.245.557-1.245 1.245zm.5 11.755v-5.5h15.5v5.5H4.25zm0-9.5h8.5v3.5h-8.5v-3.5z"/></g></symbol><symbol viewBox="0 0 24 24" id="mt-static--images--svg--ic_tag" xmlns="http://www.w3.org/2000/svg"><path fill-rule="evenodd" d="M20.925 16.488l-.02-.028h.001L13.702 3.983l-.004.002a.547.547 0 0 0-.249-.214l.01-.006-2.948-1.702v.012a.56.56 0 0 0-.494-.029l-.003-.006-.055.032-.003.002-.003.002-5.672 3.275a.557.557 0 0 0-.278.472l-.002-.001v3.404l.006-.003a.555.555 0 0 0 .07.341l.013.017 7.18 12.436.02.044c.15.26.478.352.742.214l.001.002 8.693-5.019-.004-.007a.56.56 0 0 0 .204-.764zM8.849 6.644a1.035 1.035 0 1 1-1.035-1.793 1.035 1.035 0 0 1 1.035 1.793z"/></symbol><symbol viewBox="0 0 24 24" id="mt-static--images--svg--ic_textbigger" xmlns="http://www.w3.org/2000/svg"><path fill-rule="evenodd" d="M8.384 13.361h3.181l-1.547-4.403h-.034l-1.599 4.403zM17 11V9.491A.49.49 0 0 1 17.505 9h.991c.279 0 .505.228.505.491V11h1.509a.49.49 0 0 1 .491.505v.991a.503.503 0 0 1-.491.505h-1.509v1.509a.49.49 0 0 1-.505.491h-.991A.503.503 0 0 1 17 14.51v-1.509h-1.509a.49.49 0 0 1-.491-.505v-.991c0-.279.228-.505.491-.505H17zM8.642 6h2.768L16 18h-2.802l-.928-2.672H7.68L6.717 18H4.001L8.643 6z"/></symbol><symbol viewBox="0 0 24 24" id="mt-static--images--svg--ic_textcolor" xmlns="http://www.w3.org/2000/svg"><title>ico/textcolor</title><g fill-rule="evenodd"><path d="M10.384 11.53h3.18l-1.547-4.504h-.034l-1.599 4.504zM10.642 4h2.768L18 16.275h-2.802l-.929-2.733H9.68l-.963 2.733H6L10.642 4z"/><rect fill-opacity=".6" x="4" y="18" width="16" height="3" rx=".5"/></g></symbol><symbol viewBox="0 0 24 24" id="mt-static--images--svg--ic_textsmaller" xmlns="http://www.w3.org/2000/svg"><path fill-rule="evenodd" d="M8.384 13.361h3.181l-1.547-4.403h-.034l-1.599 4.403zM8.642 6h2.768L16 18h-2.802l-.928-2.672H7.68L6.717 18H4.001L8.643 6zM15 11.505c0-.279.228-.505.491-.505h5.018a.49.49 0 0 1 .491.505v.991a.503.503 0 0 1-.491.505h-5.018a.49.49 0 0 1-.491-.505v-.991z"/></symbol><symbol viewBox="0 0 24 24" id="mt-static--images--svg--ic_time" xmlns="http://www.w3.org/2000/svg"><path fill-rule="evenodd" d="M12 6c3.309 0 6 2.692 6 6s-2.691 6-6 6-6-2.691-6-6c0-3.308 2.691-6 6-6zm0-3a9 9 0 1 1 0 18 9 9 0 0 1 0-18zm4.364 6.045l-.92-.915a.483.483 0 0 0-.659 0l-2.948 2.929-1.621-1.61a.481.481 0 0 0-.659 0l-.919.913a.459.459 0 0 0-.002.656l2.865 2.846a.463.463 0 0 0 .33.136h.018a.463.463 0 0 0 .322-.136l4.192-4.165a.461.461 0 0 0 0-.655z"/></symbol><symbol viewBox="0 0 24 24" id="mt-static--images--svg--ic_trash" xmlns="http://www.w3.org/2000/svg"><title>ico/trash</title><defs><path d="M5 1H.496A.504.504 0 0 0 0 1.506v1.488c0 .275.222.506.496.506h15.008c.27 0 .496-.227.496-.506V1.506A.504.504 0 0 0 15.504 1H11V.505A.49.49 0 0 0 10.509 0H5.491A.503.503 0 0 0 5 .505V1zm10 3v12.006A2 2 0 0 1 12.994 18H3.006A2.001 2.001 0 0 1 1 16.006V3.997 4h14zM4.5 7.753v6.494a.75.75 0 1 0 1.5 0V7.753a.75.75 0 1 0-1.5 0zm3 0v6.494a.75.75 0 1 0 1.5 0V7.753a.75.75 0 1 0-1.5 0zm3 0v6.494a.75.75 0 1 0 1.5 0V7.753a.75.75 0 1 0-1.5 0z" id="caa"/></defs><g transform="translate(4 3)" fill-rule="evenodd"><mask id="cab"><use xlink:href="#caa"/></mask><use xlink:href="#caa"/><g mask="url(#cab)"><path d="M-29-21h64v64h-64z"/></g></g></symbol><symbol viewBox="0 0 24 24" id="mt-static--images--svg--ic_underline" xmlns="http://www.w3.org/2000/svg"><title>ico/underline</title><defs><path d="M0 16h12v1H0v-1zm12-7.242c0 1.907-.532 3.324-1.596 4.251C9.34 13.936 7.869 14.4 5.99 14.4c-1.905 0-3.38-.46-4.423-1.38C.522 12.098 0 10.677 0 8.757V0h3.094v8.758c0 .382.032.757.098 1.125s.204.693.414.976c.21.283.502.513.877.69.374.178.877.267 1.507.267 1.104 0 1.865-.247 2.286-.74.42-.493.63-1.266.63-2.318V0H12v8.758z" id="cba"/></defs><g transform="translate(6 4)" fill-rule="evenodd"><mask id="cbb"><use xlink:href="#cba"/></mask><use xlink:href="#cba"/><g mask="url(#cbb)"><path d="M-26-22h64v64h-64z"/></g></g></symbol><symbol viewBox="0 0 24 24" id="mt-static--images--svg--ic_undo" xmlns="http://www.w3.org/2000/svg"><title>ico/undo</title><defs><path d="M2.112 3.208a9 9 0 1 1 .062 11.657c-.16-.26-.135-.473.072-.64a55.365 55.365 0 0 1 1.75-1.29c.158-.112.326-.102.503.032a6.037 6.037 0 0 0 .262.28 6 6 0 1 0-.352-8.11L5.8 6.3h-.001c.102.09.14.218.08.288-.03.036-.078.05-.132.044l-4.817.782-.003-.004c-.068.02-.163-.005-.242-.071a.286.286 0 0 1-.11-.205l-.011-.004-.067-4.899c-.016-.054-.011-.105.02-.142.06-.072.196-.057.303.033l1.293 1.085z" id="cca"/></defs><g transform="translate(3 3)" fill-rule="evenodd"><mask id="ccb"><use xlink:href="#cca"/></mask><use xlink:href="#cca"/><g mask="url(#ccb)"><path d="M-26-25h64v64h-64z"/></g></g></symbol><symbol viewBox="0 0 24 24" id="mt-static--images--svg--ic_unindent" xmlns="http://www.w3.org/2000/svg"><title>ico/indent</title><defs><path d="M0 9.06c0-.055.031-.1.075-.126l-.004-.006L3.3 7.064a.147.147 0 0 1 .253.103v3.786a.147.147 0 0 1-.25.101L.086 9.198l.001-.003A.147.147 0 0 1 0 9.06zM.5 0h17a.5.5 0 0 1 .5.5v2a.5.5 0 0 1-.5.5H.5a.5.5 0 0 1-.5-.5v-2A.5.5 0 0 1 .5 0zm6 5h11a.5.5 0 0 1 .5.5v2a.5.5 0 0 1-.5.5h-11a.5.5 0 0 1-.5-.5v-2a.5.5 0 0 1 .5-.5zm0 5h11a.5.5 0 0 1 .5.5v2a.5.5 0 0 1-.5.5h-11a.5.5 0 0 1-.5-.5v-2a.5.5 0 0 1 .5-.5zm-6 5h17a.5.5 0 0 1 .5.5v2a.5.5 0 0 1-.5.5H.5a.5.5 0 0 1-.5-.5v-2a.5.5 0 0 1 .5-.5z" id="cda"/></defs><g transform="translate(3 3)" fill-rule="evenodd"><mask id="cdb"><use xlink:href="#cda"/></mask><use xlink:href="#cda"/><g mask="url(#cdb)"><path d="M-27-26h64v64h-64z"/></g></g></symbol><symbol viewBox="0 0 24 24" id="mt-static--images--svg--ic_url" xmlns="http://www.w3.org/2000/svg"><path fill-rule="evenodd" d="M5.12 13.621l-.198-.344a3.003 3.003 0 0 1 1.1-4.1l6.517-3.763a3.005 3.005 0 0 1 4.101 1.097l.292.506 3.383-1.953a1.5 1.5 0 0 1 1.5 2.598l-3.383 1.953.207.359a3.003 3.003 0 0 1-1.1 4.1l-6.517 3.763a3.005 3.005 0 0 1-4.101-1.097l-.301-.522-2.823 1.63a1.5 1.5 0 0 1-1.5-2.598l2.823-1.63zm2.366-1.366l.878-.507a1.5 1.5 0 0 1 1.5 2.598l-.878.507.497.86 7.162-4.135-.403-.698-.494.285a1.5 1.5 0 0 1-1.5-2.598l.494-.285-.597-1.035-7.162 4.135.503.872z"/></symbol><symbol viewBox="0 0 24 24" id="mt-static--images--svg--ic_user" xmlns="http://www.w3.org/2000/svg"><path fill-rule="evenodd" d="M3 18.007v-2.106c0-.482.256-.914.645-1.094l4.483-2.054 1.529-.7C8.653 11.145 8 9.668 8 8c0-2.761 1.791-5 4-5s4 2.239 4 5c0 1.64-.632 3.096-1.607 4.007l1.628.764 4.342 2.037c.386.184.637.611.638 1.092v3.094a2 2 0 0 1-1.995 2.005H4.996a1.998 1.998 0 0 1-1.995-2.005v-.988z"/></symbol></svg>