<svg xmlns="http://www.w3.org/2000/svg" width="48" height="48" xmlns:xlink="http://www.w3.org/1999/xlink" viewBox="0 0 48 48">
  <defs>
    <circle id="a" cx="24" cy="24" r="20"/>
  </defs>
  <g fill="none" fill-rule="evenodd">
    <mask id="b" fill="#fff">
      <use xlink:href="#a"/>
    </mask>
    <use fill="#5FBCEB" xlink:href="#a"/>
    <circle cx="24" cy="24" r="21" stroke="#FFF" stroke-width="2"/>
    <path fill="#0176BF" d="M8 37.894v-2.96c0-.857.455-1.625 1.147-1.944l7.97-3.65 2.718-1.246c-1.785-1.615-2.946-4.24-2.946-7.205 0-4.91 3.183-8.89 7.11-8.89 3.927 0 7.11 3.98 7.11 8.89 0 2.914-1.122 5.502-2.857 7.123l2.894 1.358 7.72 3.623c.684.326 1.132 1.087 1.133 1.94v7.072C40 43.107 39.11 44 37.998 44H10.002C8.896 44 8 43.1 8 42.005v-4.11z" mask="url(#b)"/>
  </g>
</svg>
