<svg width="24" height="24" viewBox="0 0 24 24" xmlns="http://www.w3.org/2000/svg">
<path d="M7.83268 18.6663H9.02018L17.166 10.5205L15.9785 9.33301L7.83268 17.4788V18.6663ZM6.16602 20.333V16.7913L17.166 5.81217C17.3327 5.6594 17.5167 5.54134 17.7181 5.45801C17.9195 5.37467 18.1313 5.33301 18.3535 5.33301C18.5757 5.33301 18.791 5.37467 18.9993 5.45801C19.2077 5.54134 19.3882 5.66634 19.541 5.83301L20.6868 6.99967C20.8535 7.15245 20.975 7.33301 21.0514 7.54134C21.1278 7.74967 21.166 7.95801 21.166 8.16634C21.166 8.38856 21.1278 8.60037 21.0514 8.80176C20.975 9.00315 20.8535 9.18717 20.6868 9.35384L9.70768 20.333H6.16602ZM16.5618 9.93717L15.9785 9.33301L17.166 10.5205L16.5618 9.93717Z" />
<path d="M6.16667 7.00033V8.66699H7.83333V7.00033H9.5V5.33366H7.83333V3.66699H6.16667V5.33366H4.5V7.00033H6.16667Z" />
</svg>
