<svg width="26" height="26" viewBox="0 0 26 26" fill="none" xmlns="http://www.w3.org/2000/svg">
<g filter="url(#filter0_d_827_5430)">
<path d="M12.4354 13.0003L15.7667 16.3316L14.25 17.8753L9.375 13.0003L14.25 8.12533L15.7667 9.66908L12.4354 13.0003ZM13.1667 23.8337C14.6653 23.8337 16.0736 23.5493 17.3917 22.9805C18.7097 22.4118 19.8563 21.6399 20.8313 20.6649C21.8063 19.6899 22.5781 18.5434 23.1469 17.2253C23.7156 15.9073 24 14.4989 24 13.0003C24 11.5017 23.7156 10.0934 23.1469 8.77533C22.5781 7.45727 21.8063 6.31074 20.8313 5.33574C19.8563 4.36074 18.7097 3.58887 17.3917 3.02012C16.0736 2.45137 14.6653 2.16699 13.1667 2.16699C11.6681 2.16699 10.2597 2.45137 8.94167 3.02012C7.62361 3.58887 6.47709 4.36074 5.50208 5.33574C4.52708 6.31074 3.75521 7.45727 3.18646 8.77533C2.61771 10.0934 2.33333 11.5017 2.33333 13.0003C2.33333 14.4989 2.61771 15.9073 3.18646 17.2253C3.75521 18.5434 4.52708 19.6899 5.50208 20.6649C6.47709 21.6399 7.62361 22.4118 8.94167 22.9805C10.2597 23.5493 11.6681 23.8337 13.1667 23.8337Z" fill="white"/>
</g>
<rect x="7" y="7" width="13" height="13" fill="#004B9A"/>
<path d="M12.4354 13.0003L15.7667 16.3316L14.25 17.8753L9.375 13.0003L14.25 8.12533L15.7667 9.66908L12.4354 13.0003ZM13.1667 23.8337C14.6653 23.8337 16.0736 23.5493 17.3917 22.9805C18.7097 22.4118 19.8563 21.6399 20.8313 20.6649C21.8063 19.6899 22.5781 18.5434 23.1469 17.2253C23.7156 15.9073 24 14.4989 24 13.0003C24 11.5017 23.7156 10.0934 23.1469 8.77533C22.5781 7.45727 21.8063 6.31074 20.8313 5.33574C19.8563 4.36074 18.7097 3.58887 17.3917 3.02012C16.0736 2.45137 14.6653 2.16699 13.1667 2.16699C11.6681 2.16699 10.2597 2.45137 8.94167 3.02012C7.62361 3.58887 6.47709 4.36074 5.50208 5.33574C4.52708 6.31074 3.75521 7.45727 3.18646 8.77533C2.61771 10.0934 2.33333 11.5017 2.33333 13.0003C2.33333 14.4989 2.61771 15.9073 3.18646 17.2253C3.75521 18.5434 4.52708 19.6899 5.50208 20.6649C6.47709 21.6399 7.62361 22.4118 8.94167 22.9805C10.2597 23.5493 11.6681 23.8337 13.1667 23.8337Z" fill="white"/>
<defs>
<filter id="filter0_d_827_5430" x="0.333008" y="0.166992" width="25.667" height="25.667" filterUnits="userSpaceOnUse" color-interpolation-filters="sRGB">
<feFlood flood-opacity="0" result="BackgroundImageFix"/>
<feColorMatrix in="SourceAlpha" type="matrix" values="0 0 0 0 0 0 0 0 0 0 0 0 0 0 0 0 0 0 127 0" result="hardAlpha"/>
<feOffset/>
<feGaussianBlur stdDeviation="1"/>
<feComposite in2="hardAlpha" operator="out"/>
<feColorMatrix type="matrix" values="0 0 0 0 0 0 0 0 0 0 0 0 0 0 0 0 0 0 0.25 0"/>
<feBlend mode="normal" in2="BackgroundImageFix" result="effect1_dropShadow_827_5430"/>
<feBlend mode="normal" in="SourceGraphic" in2="effect1_dropShadow_827_5430" result="shape"/>
</filter>
</defs>
</svg>
