<svg xmlns="http://www.w3.org/2000/svg" width="24" height="24"><path fill="#1A1A1A" fill-rule="evenodd" d="M14.438 11h1.642a3.89 3.89 0 0 1 .198-.757c.168-.448.41-.84.724-1.173.314-.334.7-.596 1.159-.785.458-.19.973-.285 1.546-.285.413 0 .803.056 1.17.167.367.111.695.273.985.486.29.213.53.476.719.79.188.314.307.674.356 1.08h-1.594a1.209 1.209 0 0 0-.189-.486 1.587 1.587 0 0 0-.367-.388 1.817 1.817 0 0 0-1.08-.353c-.37 0-.685.067-.943.201a1.744 1.744 0 0 0-.63.54 2.29 2.29 0 0 0-.35.77c-.017.064-.032.128-.044.193h4.76a.5.5 0 1 1 0 1h-4.814c.016.19.049.377.097.56.074.278.19.529.351.751.161.223.37.4.63.535.258.134.573.201.943.201.504 0 .897-.144 1.18-.432.283-.288.456-.667.52-1.138H23c-.042.438-.15.834-.325 1.187a2.859 2.859 0 0 1-1.699 1.473c-.384.13-.807.196-1.269.196a4.068 4.068 0 0 1-1.546-.28 3.32 3.32 0 0 1-1.16-.77 3.371 3.371 0 0 1-.723-1.154A3.894 3.894 0 0 1 16.037 12h-1.153l.015.02c.228.311.341.686.341 1.124 0 .354-.073.66-.22.918-.147.259-.344.47-.592.633a2.709 2.709 0 0 1-.85.363 4.075 4.075 0 0 1-.98.118H8.969V12H7.051l1.268 3.176H6.61l-.566-1.56h-2.8l-.587 1.56H1L2.283 12H1.5a.5.5 0 1 1 0-1h1.187L3.83 8.167H5.52L6.65 11H8.97V8.167h3.524c.356 0 .681.03.975.088.294.06.545.156.755.29.21.134.372.312.488.535.115.222.173.497.173.825 0 .353-.086.647-.257.883a1.48 1.48 0 0 1-.189.212zm-3.822 0h1.79c.239-.016.439-.08.6-.192.19-.131.284-.344.284-.638a.772.772 0 0 0-.095-.403.675.675 0 0 0-.251-.245 1.108 1.108 0 0 0-.362-.123 2.56 2.56 0 0 0-.425-.034h-1.541V11zM3.85 12l-.177.467h1.94L5.443 12H3.85zm.38-1h.845L4.67 9.895h-.02L4.23 11zm6.385 2.979h1.762c.16 0 .314-.015.46-.045.148-.029.277-.078.389-.147a.76.76 0 0 0 .267-.28.912.912 0 0 0 .1-.451c0-.36-.108-.617-.325-.77-.217-.155-.504-.232-.86-.232h-1.793v1.925z"/></svg>