<svg xmlns="http://www.w3.org/2000/svg" width="24" height="24"><path fill-rule="evenodd" d="M20.728 6.648l-2.759-2.759.722-.722c.195-.195.512-.195.707 0l2.051 2.051c.195.195.195.512 0 .707l-.722.722zm-.699.699l-12.064 12.064-2.918.157.159-2.916 12.064-12.064 2.759 2.759zm-7.545 9.341l2.494 2.494 3.448-3.448-1.584-1.584-.906.906-.91-.91 2.285-2.285 3.538 3.538c.195.195.195.512 0 .707l-5.5 5.5c-.195.195-.512.195-.707 0l-3.538-3.538 1.379-1.379zm-4.483-4.483l-1.379 1.379-3.852-3.852c-.195-.195-.195-.512 0-.707l5.5-5.5c.195-.195.512-.195.707 0l3.852 3.852-2.496 2.496-1.158-1.158 1.117-1.117-1.65-1.65-3.448 3.448 2.807 2.807z"/></svg>