<svg xmlns="http://www.w3.org/2000/svg" width="24" height="24"><path d="M6 14.808h13v-7.847h-14v8.827l1-.981zm1 1.962l-3.15 3.09c-.197.193-.514.19-.707-.007-.092-.093-.143-.219-.143-.35v-12.503c0-1.105.895-2 2-2h14c1.105 0 2 .895 2 2v7.77c0 1.105-.895 2-2 2h-12zm9.364-7.803c.182.176.182.465 0 .642l-4.192 4.085c-.086.084-.2.131-.322.133h-.018c-.124 0-.241-.047-.33-.133l-2.865-2.792c-.088-.085-.136-.2-.136-.321 0-.122.05-.239.138-.323l.919-.896c.175-.171.483-.171.659 0l1.621 1.579 2.948-2.873c.169-.168.484-.172.659 0l.92.898z"/></svg>