<svg xmlns="http://www.w3.org/2000/svg" width="24" height="24"><path fill-rule="evenodd" d="M5.329 17.231C4.82 16.682 4.5 15.886 4.5 15c0-1.657 1.12-3 2.5-3s2.5 1.343 2.5 3c0 .89-.323 1.69-.837 2.24l1.992.648a.5.5 0 0 1 .345.475V20.5a.5.5 0 0 1-.5.5h-7a.5.5 0 0 1-.5-.5v-2.139a.5.5 0 0 1 .343-.474l1.986-.656zm10 0c-.509-.549-.829-1.345-.829-2.231 0-1.657 1.12-3 2.5-3s2.5 1.343 2.5 3c0 .89-.323 1.69-.837 2.24l1.992.648a.5.5 0 0 1 .345.475V20.5a.5.5 0 0 1-.5.5h-7a.5.5 0 0 1-.5-.5v-2.139a.5.5 0 0 1 .343-.474l1.986-.656zm-5-9C9.82 7.682 9.5 6.886 9.5 6c0-1.657 1.12-3 2.5-3s2.5 1.343 2.5 3c0 .89-.323 1.69-.837 2.24l1.992.648a.5.5 0 0 1 .345.475V11.5a.5.5 0 0 1-.5.5h-7a.5.5 0 0 1-.5-.5V9.361a.5.5 0 0 1 .343-.474l1.986-.656z"/></svg>