<svg xmlns="http://www.w3.org/2000/svg" width="24" height="24"><path fill-rule="evenodd" d="M12.435 16.33l.105-.38c.005-.021.557-2.182 1.147-4.438 1.015-3.879 1.263-4.66 1.318-4.779.189-.396.495-.695.936-.916.381-.19.866-.315 1.443-.373.17-.018.33-.113.447-.267.106-.14.168-.317.168-.486 0-.381-.306-.692-.682-.692h-7.733c-.376 0-.682.311-.682.692v.024c0 .341.241.628.573.682.439.072 1.042.172 1.515.399.243.116.431.257.557.418.143.182.213.393.213.642 0 .467-.135.935-.265 1.387l-.082.291c-.167.603-.412 1.519-.696 2.579-.655 2.441-1.47 5.477-1.675 6.055-.138.389-.65 1.311-2.413 1.448-.171.013-.332.092-.447.219-.117.129-.181.294-.181.47v.002c0 .381.306.692.682.692h7.735c.376 0 .682-.311.682-.692v-.005c0-.349-.257-.644-.598-.685l-.201-.024c-.679-.079-1.523-.179-1.878-.647-.165-.217-.217-.504-.163-.872.035-.249.105-.491.178-.745"/></svg>