<svg xmlns="http://www.w3.org/2000/svg" width="24" height="24"><path fill-rule="evenodd" d="M9.88 11.46l-2.558 1.161c-.704.322-1.159 1.045-1.159 1.846v3.093h-2.533c-.348 0-.631-.32-.631-.715v-2.948c0-.294.157-.557.396-.666l3.832-1.738c-.908-.534-1.529-1.606-1.529-2.846 0-1.772 1.265-3.206 2.827-3.206.51 0 .982.165 1.394.433-.265.64-.416 1.347-.416 2.095 0 1.118.342 2.174.931 3.038-.168.175-.353.329-.555.454zm10.635 2.184c.293.138.484.46.484.822v3.648c0 .489-.35.885-.781.885h-12.116c-.432 0-.781-.396-.781-.885v-3.648c0-.363.194-.689.49-.824l3.406-1.546 1.336-.607c-.603-.354-1.099-.905-1.434-1.573-.289-.576-.459-1.238-.459-1.949 0-.409.07-.795.172-1.166.441-1.618 1.755-2.802 3.327-2.802 1.602 0 2.937 1.227 3.352 2.893.085.344.146.7.146 1.075 0 .668-.153 1.294-.41 1.846-.324.696-.819 1.273-1.428 1.647l1.395.649 3.3 1.534z"/></svg>