<svg xmlns="http://www.w3.org/2000/svg" width="24" height="24"><path fill-rule="evenodd"  d="M10,10.4904785 C10,10.2195947 10.2150574,10 10.4904785,10 L13.5095215,10 C13.7804053,10 14,10.2150574 14,10.4904785 L14,13.5095215 C14,13.7804053 13.7849426,14 13.5095215,14 L10.4904785,14 C10.2195947,14 10,13.7849426 10,13.5095215 L10,10.4904785 Z M10,4.49047852 C10,4.21959471 10.2150574,4 10.4904785,4 L13.5095215,4 C13.7804053,4 14,4.21505737 14,4.49047852 L14,7.50952148 C14,7.78040529 13.7849426,8 13.5095215,8 L10.4904785,8 C10.2195947,8 10,7.78494263 10,7.50952148 L10,4.49047852 Z M10,16.4904785 C10,16.2195947 10.2150574,16 10.4904785,16 L13.5095215,16 C13.7804053,16 14,16.2150574 14,16.4904785 L14,19.5095215 C14,19.7804053 13.7849426,20 13.5095215,20 L10.4904785,20 C10.2195947,20 10,19.7849426 10,19.5095215 L10,16.4904785 Z"/></svg>
