<svg xmlns="http://www.w3.org/2000/svg" width="24" height="24"><path fill-rule="evenodd" d="M6 18.5h-2v-.5h2v-1h.5v2.5h-2.5v-.5h2v-.5zm-2-6.25v-.25h2v-1h.5v1.5h-2v.5h2v.5h-2.5v-1.25zm4-.745c0-.279.229-.505.5-.505h10.999c.276 0 .5.214.5.505v.991c0 .279-.229.505-.5.505h-10.999c-.276 0-.5-.214-.5-.505v-.991zm0 6c0-.279.229-.505.5-.505h10.999c.276 0 .5.214.5.505v.991c0 .279-.229.505-.5.505h-10.999c-.276 0-.5-.214-.5-.505v-.991zm0-12c0-.279.229-.505.5-.505h10.999c.276 0 .5.214.5.505v.991c0 .279-.229.505-.5.505h-10.999c-.276 0-.5-.214-.5-.505v-.991zm-3-1.005h.5v3h-.5v-3zm-1 6.5h2v.5h-2v-.5zm0 6h2v.5h-2v-.5z"/></svg>