<svg width="26" height="26" viewBox="0 0 26 26" fill="none" xmlns="http://www.w3.org/2000/svg">
<g filter="url(#filter0_d_827_11179)">
<path d="M13.5646 13.0003L10.2333 16.3316L11.75 17.8753L16.625 13.0003L11.75 8.12533L10.2333 9.66908L13.5646 13.0003ZM12.8333 23.8337C11.3347 23.8337 9.92639 23.5493 8.60833 22.9805C7.29028 22.4118 6.14375 21.6399 5.16875 20.6649C4.19375 19.6899 3.42187 18.5434 2.85312 17.2253C2.28437 15.9073 2 14.4989 2 13.0003C2 11.5017 2.28437 10.0934 2.85312 8.77533C3.42187 7.45727 4.19375 6.31074 5.16875 5.33574C6.14375 4.36074 7.29028 3.58887 8.60833 3.02012C9.92639 2.45137 11.3347 2.16699 12.8333 2.16699C14.3319 2.16699 15.7403 2.45137 17.0583 3.02012C18.3764 3.58887 19.5229 4.36074 20.4979 5.33574C21.4729 6.31074 22.2448 7.45727 22.8135 8.77533C23.3823 10.0934 23.6667 11.5017 23.6667 13.0003C23.6667 14.4989 23.3823 15.9073 22.8135 17.2253C22.2448 18.5434 21.4729 19.6899 20.4979 20.6649C19.5229 21.6399 18.3764 22.4118 17.0583 22.9805C15.7403 23.5493 14.3319 23.8337 12.8333 23.8337Z" fill="white"/>
</g>
<rect width="13" height="13" transform="matrix(-1 0 0 1 19 7)" fill="#004B9A"/>
<path d="M13.5646 13.0003L10.2333 16.3316L11.75 17.8753L16.625 13.0003L11.75 8.12533L10.2333 9.66908L13.5646 13.0003ZM12.8333 23.8337C11.3347 23.8337 9.92639 23.5493 8.60833 22.9805C7.29028 22.4118 6.14375 21.6399 5.16875 20.6649C4.19375 19.6899 3.42187 18.5434 2.85312 17.2253C2.28437 15.9073 2 14.4989 2 13.0003C2 11.5017 2.28437 10.0934 2.85312 8.77533C3.42187 7.45727 4.19375 6.31074 5.16875 5.33574C6.14375 4.36074 7.29028 3.58887 8.60833 3.02012C9.92639 2.45137 11.3347 2.16699 12.8333 2.16699C14.3319 2.16699 15.7403 2.45137 17.0583 3.02012C18.3764 3.58887 19.5229 4.36074 20.4979 5.33574C21.4729 6.31074 22.2448 7.45727 22.8135 8.77533C23.3823 10.0934 23.6667 11.5017 23.6667 13.0003C23.6667 14.4989 23.3823 15.9073 22.8135 17.2253C22.2448 18.5434 21.4729 19.6899 20.4979 20.6649C19.5229 21.6399 18.3764 22.4118 17.0583 22.9805C15.7403 23.5493 14.3319 23.8337 12.8333 23.8337Z" fill="white"/>
<defs>
<filter id="filter0_d_827_11179" x="0" y="0.166992" width="25.666" height="25.667" filterUnits="userSpaceOnUse" color-interpolation-filters="sRGB">
<feFlood flood-opacity="0" result="BackgroundImageFix"/>
<feColorMatrix in="SourceAlpha" type="matrix" values="0 0 0 0 0 0 0 0 0 0 0 0 0 0 0 0 0 0 127 0" result="hardAlpha"/>
<feOffset/>
<feGaussianBlur stdDeviation="1"/>
<feComposite in2="hardAlpha" operator="out"/>
<feColorMatrix type="matrix" values="0 0 0 0 0 0 0 0 0 0 0 0 0 0 0 0 0 0 0.25 0"/>
<feBlend mode="normal" in2="BackgroundImageFix" result="effect1_dropShadow_827_11179"/>
<feBlend mode="normal" in="SourceGraphic" in2="effect1_dropShadow_827_11179" result="shape"/>
</filter>
</defs>
</svg>
