<svg xmlns="http://www.w3.org/2000/svg" width="24" height="24"><path fill-rule="evenodd" d="M21.664 11.372c.202.13.336.351.336.602 0 .187-.075.355-.196.484l-.052.05-4.342 4.18-.017-.017c-1.331 1.429-3.264 2.329-5.416 2.329-1.909 0-3.646-.709-4.943-1.867l-.01.009-4.74-4.562c-.171-.133-.283-.333-.283-.561 0-.183.073-.348.189-.475l-.003-.003 4.37-4.206c1.332-1.432 3.266-2.335 5.421-2.335 1.918 0 3.662.716 4.961 1.884l.033-.031 4.695 4.519zm-9.665 5.628c2.761 0 5-2.239 5-5s-2.239-5-5-5-5 2.239-5 5c0 2.762 2.239 5 5 5zm0-2c-1.657 0-3-1.343-3-3s1.343-3 3-3 3 1.343 3 3-1.343 3-3 3z"/></svg>