<svg xmlns="http://www.w3.org/2000/svg" width="24" height="24" viewBox="0 0 24 24"><path fill-rule="evenodd" d="M18.88 6.198C17.23 4.242 14.76 3 12 3c-4.97 0-9 4.03-9 9s4.03 9 9 9c2.73 0 5.176-1.216 6.827-3.135.16-.26.134-.473-.073-.64-.358-.288-1.363-1.016-1.75-1.29-.158-.112-.326-.102-.503.032-.083.096-.17.19-.26.28l-.008.01.007-.01C15.152 17.33 13.654 18 12 18c-3.314 0-6-2.686-6-6s2.686-6 6-6c1.837 0 3.482.826 4.583 2.127l-1.394 1.17c-.103.09-.14.217-.08.288.03.035.077.05.13.044l4.818.78.003-.004c.07.02.164-.004.243-.07.072-.06.11-.14.11-.206l.01-.003.068-4.9c.017-.054.012-.105-.018-.142-.06-.07-.197-.057-.304.033l-1.287 1.08z"/></svg>