<?xml version="1.0" encoding="UTF-8"?><svg id="b" xmlns="http://www.w3.org/2000/svg" viewBox="0 0 24 24"><defs><style>.d{fill:#231815;}</style></defs><path class="d" d="M20.79,8.85c-.09.09-.22.15-.35.15h-4c-.28,0-.5-.22-.5-.5s.22-.5.5-.5h1.85c-1.33-2.1-3.67-3.5-6.35-3.5-4.14,0-7.5,3.36-7.5,7.5s3.36,7.5,7.5,7.5,7.5-3.36,7.5-7.5v-.27c.26-.45.66-.69,1.19-.72.53-.02.96.14,1.3.49v.49c.01,5.52-4.47,10-9.99,10S1.93,17.52,1.93,12,6.41,2,11.93,2c3.27,0,6.18,1.57,8,4v-1.5c0-.28.22-.5.5-.5s.5.22.5.5v3.16s0-.02,0-.02v.86c0,.14-.06.26-.15.35h0ZM7.43,11h1c.28,0,.5.22.5.5v3c0,.28-.22.5-.5.5h-1c-.28,0-.5-.22-.5-.5v-3c0-.28.22-.5.5-.5ZM10.43,10h1c.28,0,.5.22.5.5v4c0,.28-.22.5-.5.5h-1c-.28,0-.5-.22-.5-.5v-4c0-.28.22-.5.5-.5ZM13.43,8h1c.28,0,.5.22.5.5v6c0,.28-.22.5-.5.5h-1c-.28,0-.5-.22-.5-.5v-6c0-.28.22-.5.5-.5Z"/></svg>