<svg xmlns="http://www.w3.org/2000/svg" width="24" height="24"><path fill-rule="evenodd" d="M21.313 19.11c.781.781.781 2.047 0 2.828-.781.781-2.047.781-2.828 0l-4.421-4.421c-1.757 1.038-3.82 1.329-5.759.903l-.582 1.046c-.199.357-.717.339-.89-.03l-1.859-3.963c-.145-.308.055-.669.394-.709l4.347-.509c.405-.048.694.383.495.739l-.338.61c1.321.041 2.653-.434 3.663-1.444 1.347-1.347 1.742-3.267 1.23-4.972l2.292-2.292c1.29 2.441 1.248 5.402-.165 7.793l4.421 4.421zm-5.973-12.705c.123.319-.103.664-.444.679l-4.372.198c-.408.019-.664-.432-.441-.773l.538-.823c-1.478-.193-3.021.266-4.157 1.403-1.543 1.542-1.847 3.834-.953 5.694l-2.212 2.213c-2.028-3.103-1.682-7.303 1.043-10.028 2.175-2.175 5.282-2.809 8.028-1.956l.514-.786c.223-.342.739-.286.885.094l1.571 4.085z"/></svg>