<svg width="24" height="24" viewBox="0 0 24 24" fill="none" xmlns="http://www.w3.org/2000/svg">
<path d="M6.25065 15.3747C5.9451 14.8469 5.71593 14.3052 5.56315 13.7497C5.41037 13.1941 5.33398 12.6247 5.33398 12.0413C5.33398 10.1802 5.97982 8.5969 7.27148 7.29134C8.56315 5.98579 10.1395 5.33301 12.0007 5.33301H12.1465L10.8132 3.99967L11.9798 2.83301L15.3132 6.16634L11.9798 9.49968L10.8132 8.33301L12.1465 6.99967H12.0007C10.6118 6.99967 9.43121 7.48926 8.45898 8.46843C7.48676 9.44759 7.00065 10.6386 7.00065 12.0413C7.00065 12.4025 7.04232 12.7566 7.12565 13.1038C7.20898 13.4511 7.33398 13.7913 7.50065 14.1247L6.25065 15.3747ZM12.0215 21.1663L8.68815 17.833L12.0215 14.4997L13.1882 15.6663L11.8548 16.9997H12.0007C13.3895 16.9997 14.5701 16.5101 15.5423 15.5309C16.5145 14.5518 17.0007 13.3608 17.0007 11.958C17.0007 11.5969 16.959 11.2427 16.8757 10.8955C16.7923 10.5483 16.6673 10.208 16.5007 9.87468L17.7507 8.62468C18.0562 9.15245 18.2854 9.69412 18.4382 10.2497C18.5909 10.8052 18.6673 11.3747 18.6673 11.958C18.6673 13.8191 18.0215 15.4025 16.7298 16.708C15.4382 18.0136 13.8618 18.6663 12.0007 18.6663H11.8548L13.1882 19.9997L12.0215 21.1663Z" fill="#212529"/>
</svg>
