<?xml version="1.0" encoding="UTF-8"?><svg id="a" xmlns="http://www.w3.org/2000/svg" viewBox="0 0 24 24"><path d="M15.88,15.96h4c.28,0,.5-.22.5-.5v-4c0-.28-.22-.5-.5-.5h-4c-.28,0-.5.22-.5.5v1.25h-6.25v-1.71h4.5c.55,0,1-.45,1-1V3c0-.55-.45-1-1-1H4.62c-.55,0-1,.45-1,1v7c0,.55.45,1,1,1h3v8.5c0,.41.34.75.75.75h7v1.33c0,.23.19.42.42.42h4.17c.23,0,.42-.19.42-.42v-4.17c0-.23-.19-.42-.42-.42h-4.17c-.23,0-.42.19-.42.42v1.33h-6.25v-4.54h6.25v1.25c0,.28.22.5.5.5ZM4.62,3.38c0-.35.28-.62.62-.62s.62.28.62.62-.28.62-.62.62-.62-.28-.62-.62ZM5.12,5h8v4.5H5.12v-4.5ZM16.88,18.5h2v2h-2v-2ZM16.88,12.46h2v2h-2v-2Z"/></svg>