<svg xmlns="http://www.w3.org/2000/svg" width="24" height="24"><path fill-rule="evenodd" d="M7.931 13.885c-.589-.128-1.138-.36-1.629-.675l-.841.736-1.406-1.406.736-.841c-.315-.491-.547-1.041-.675-1.629l-1.115-.074v-1.989l1.115-.074c.128-.589.36-1.138.675-1.629l-.736-.841 1.406-1.406.841.736c.491-.315 1.041-.547 1.629-.675l.074-1.115h1.989l.074 1.115c.589.128 1.138.36 1.629.675l.841-.736 1.406 1.406-.736.841c.315.491.547 1.041.675 1.629l1.115.074v1.989l-1.115.074c-.128.589-.36 1.138-.675 1.629l.736.841-1.406 1.406-.841-.736c-.491.315-1.041.547-1.629.675l-.074 1.115h-1.989l-.074-1.115zm6.976 5.732l-.583.603-1.137-.954.498-.686c-.415-.56-.666-1.249-.684-1.995l-.959-.257.216-1.412 1.053.14c.266-.587.689-1.087 1.216-1.447l-.321-1.014 1.353-.458.42.901c.17-.025.344-.039.522-.039.56 0 1.09.132 1.56.366l.591-.611 1.137.954-.495.682c.424.561.683 1.254.705 2.006l.934.25-.216 1.412-1.019-.135c-.268.601-.7 1.112-1.239 1.477l.31.979-1.353.458-.407-.874c-.166.024-.336.037-.509.037-.574 0-1.115-.138-1.593-.383zm1.593-1.617c.828 0 1.5-.672 1.5-1.5s-.672-1.5-1.5-1.5-1.5.672-1.5 1.5.672 1.5 1.5 1.5zm-7.5-7c1.105 0 2-.895 2-2s-.895-2-2-2-2 .895-2 2 .895 2 2 2z"/></svg>