<?xml version="1.0" encoding="UTF-8"?><svg id="b" xmlns="http://www.w3.org/2000/svg" viewBox="0 0 24 24"><path d="M20.3,3.5H4c-1.1,0-2,.9-2,2v13c0,1.1.9,2,2,2h16c1.1,0,2-.9,2-2V5.5c0-1-.8-1.8-1.7-2ZM4,5.5c0-.6.4-1,1-1s1,.4,1,1-.4,1-1,1-1-.4-1-1ZM4,18.5V7.5h16v11H4Z"/><rect x="6" y="12" width="2" height="2" rx=".25" ry=".25"/><rect x="6" y="9" width="2" height="2" rx=".25" ry=".25"/><rect x="9" y="12" width="6" height="2" rx=".25" ry=".25"/><rect x="9" y="9" width="6" height="2" rx=".25" ry=".25"/></svg>