<?xml version="1.0" encoding="UTF-8"?>
<svg id="_レイヤー_1" data-name="レイヤー_1" xmlns="http://www.w3.org/2000/svg" version="1.1" viewBox="0 0 24 24">
  <!-- Generator: Adobe Illustrator 29.0.1, SVG Export Plug-In . SVG Version: 2.1.0 Build 192)  -->
  <defs>
    <style>
      .st0 {
        fill: none;
      }
    </style>
  </defs>
  <path d="M20.3,4h0s-.3,0-.3,0H4c-1.1,0-2,.9-2,2v13c0,1.1.9,2,2,2h16c1.1,0,2-.9,2-2V6c0-1-.8-1.8-1.7-2ZM4,6c0-.6.4-1,1-1s1,.4,1,1-.4,1-1,1-1-.4-1-1ZM4,19v-11h16v11s-16,0-16,0Z"/>
  <circle class="st0" cx="28.9" cy="-22.5" r="1"/>
</svg>