<svg xmlns="http://www.w3.org/2000/svg" width="24" height="24"><path fill-rule="evenodd" d="M3 8h18v10.997c0 1.106-.893 2.003-1.995 2.003h-14.01c-1.102 0-1.995-.894-1.995-2.003v-10.997zm8.67 11.08v-.84c-.92-.06-1.56-.29-2.02-.73-.4-.39-.58-.81-.68-1.58l1.41-.22c.05.57.13.79.37 1.03.23.25.52.37.92.4v-2.47c-.93-.21-1.27-.33-1.69-.61-.52-.34-.83-.97-.83-1.66 0-.77.35-1.4.97-1.8.46-.28.89-.41 1.55-.45v-.52h.68v.53c.83.07 1.33.27 1.79.71.38.36.55.69.68 1.33l-1.37.23c-.06-.4-.15-.6-.36-.81-.2-.21-.41-.31-.74-.36v2.22c1.02.21 1.47.38 1.87.68.55.43.79.95.79 1.7 0 .86-.35 1.52-1.01 1.94-.46.28-.92.41-1.65.45v.83h-.68zm0-5.73v-2.09c-.34.02-.55.09-.77.26-.25.19-.39.47-.39.78 0 .32.14.59.38.76.2.12.39.2.78.29zm4.951 3.393l.5.5 2.121-2.121-2.121-2.121-.5.5 1.621 1.621-1.621 1.621zm-9-3.243l-.5-.5-2.121 2.121 2.121 2.121.5-.5-1.621-1.621 1.621-1.621zm4.729 1.29c.57.14.77.21.93.34.21.18.32.45.32.8 0 .72-.44 1.15-1.25 1.22v-2.36zm-7.35-11.79h14c1.105 0 2 .895 2 2v1.5c0 .276-.224.5-.5.5h-17c-.276 0-.5-.224-.5-.5v-1.5c0-1.105.895-2 2-2z"/></svg>