<svg xmlns="http://www.w3.org/2000/svg" width="24" height="24"><path fill-rule="evenodd" d="M18 19v-4.5c0-.276.224-.5.5-.5h1c.276 0 .5.224.5.5v4.5c0 1.105-.895 2-2 2h-12c-1.105 0-2-.895-2-2v-4.5c0-.276.224-.5.5-.5h1c.276 0 .5.224.5.5v4.5h12zm-8.905-7.654h-2.564c-.198 0-.381-.092-.472-.241-.09-.149-.076-.327.039-.463l5.452-6.454c.1-.118.26-.188.432-.188.17 0 .332.07.431.187l5.488 6.455c.115.136.131.314.039.463-.091.147-.273.241-.471.241h-2.566v4.797c0 .248-.237.447-.53.447h-4.748c-.293 0-.53-.199-.53-.447v-4.797z"/></svg>