<svg xmlns="http://www.w3.org/2000/svg" width="24" height="24"><path fill-rule="evenodd" d="M5.112 6.208c1.651-1.961 4.124-3.208 6.888-3.208 4.971 0 9 4.029 9 9s-4.029 9-9 9c-2.73 0-5.176-1.216-6.827-3.135-.159-.26-.135-.473.073-.64.358-.289 1.363-1.016 1.75-1.29.158-.112.326-.101.503.033l.262.278.008.01-.007-.009c1.085 1.083 2.584 1.753 4.239 1.753 3.314 0 6-2.686 6-6s-2.686-6-6-6c-1.842 0-3.49.83-4.59 2.136l1.388 1.165-.001.001c.103.09.14.217.081.288l-.132.044-4.817.782-.003-.005c-.068.021-.163-.005-.243-.071-.072-.06-.109-.138-.11-.205l-.011-.004-.067-4.899.019-.142c.06-.072.196-.057.304.033l1.292 1.084z"/></svg>