<svg xmlns="http://www.w3.org/2000/svg" width="24" height="24"><path fill-rule="evenodd" d="M17.197 14.703l-.54.54-.693-.693-.353.353.692.693-.707.707-.693-.692-.353.353.693.693-2.122 2.121-1.4.014-.014-1.428 4.08-4.08a3 3 0 1 1 1.409 1.42zm-3.029-1.907L10.964 16H6.006A2.005 2.005 0 0 0 4 18.005v.004h5.466a.5.5 0 0 0 .084.112l2.829 2.829a.504.504 0 0 0 .058.05H6.006A2.003 2.003 0 0 1 4 18.995V15.901c0-.483.199-.915.502-1.094l3.486-2.054.883-.52C7.747 11.35 7 9.784 7 8c0-2.761 1.79-5 4-5s4 2.239 4 5c0 1.759-.727 3.306-1.825 4.197l.952.574.041.025zM18 16.036l-.569.569c.352.36.569.854.569 1.4v.99A2.005 2.005 0 0 1 15.994 21h-2.967a.504.504 0 0 0 .059-.05l2.94-2.941H18v-1.973zm1.5-4.416a.75.75 0 1 0 0-1.5.75.75 0 0 0 0 1.5z"/></svg>