<?xml version="1.0" encoding="UTF-8"?><svg id="b" xmlns="http://www.w3.org/2000/svg" viewBox="0 0 24 24"><defs><style>.d{fill:#231f20;fill-rule:evenodd;}</style></defs><path class="d" d="M17.51,8.51l-7.74,7.74c-.19.19-.51.19-.71,0l-1.41-1.41c-.2-.19-.2-.51,0-.71l7.74-7.74-.7-.7c-.19-.2-.19-.51,0-.71.07-.07.17-.12.27-.14l4.35-.72c.27-.05.53.14.58.41v.16l-.73,4.35c-.05.27-.3.46-.58.41-.1-.02-.2-.07-.27-.14l-.8-.8h0ZM12.86,4l-2,2h-4.86v12h12v-4.99l2-2v7c0,1.1-.9,1.99-1.99,1.99H5.99c-1.1,0-1.99-.9-1.99-1.99V5.99c0-1.1.89-1.99,1.99-1.99h6.87Z"/></svg>