<svg xmlns="http://www.w3.org/2000/svg" xmlns:xlink="http://www.w3.org/1999/xlink" width="24" height="24"><defs><path id="a" d="M8 8v-3.5c0-.276.224-.5.5-.5h1c.276 0 .5.224.5.5v3.5h3.5c.276 0 .5.224.5.5v1c0 .276-.224.5-.5.5h-3.5v3.5c0 .276-.224.5-.5.5h-1c-.276 0-.5-.224-.5-.5v-3.5h-3.5c-.276 0-.5-.224-.5-.5v-1c0-.276.224-.5.5-.5h3.5zm1-8c4.97 0 9 4.03 9 9s-4.03 9-9 9-9-4.029-9-9c0-4.97 4.03-9 9-9zm0 2c-3.86 0-7 3.141-7 7 0 3.86 3.14 7 7 7s7-3.14 7-7c0-3.859-3.14-7-7-7z"/></defs><g transform="translate(3 3)" fill="none"><mask id="b"><use xlink:href="#a"/></mask><use fill="#231F20" xlink:href="#a"/><rect width="64" height="64" transform="translate(-24 -25)" fill="#2F2F2F" mask="url(#b)"/></g></svg>