<?xml version="1.0" encoding="UTF-8"?>
<svg width="24px" height="24px" viewBox="0 0 24 24" version="1.1" xmlns="http://www.w3.org/2000/svg" xmlns:xlink="http://www.w3.org/1999/xlink">
    <!-- Generator: Sketch 46.1 (44463) - http://www.bohemiancoding.com/sketch -->
    <title>ico/addhtml</title>
    <desc>Created with Sketch.</desc>
    <defs></defs>
    <g id="Symbols" stroke="none" stroke-width="1" fill="none" fill-rule="evenodd">
        <g id="ico/addhtml" fill="#000000">
            <path d="M12.7669541,13.084244 L10.5558277,15.2953704 L12.7888736,17.5284163 L12,18.3172899 L9,15.3172899 L12,12.3172899 L12.7669541,13.084244 Z M13.6511262,17.6223248 L15.9780806,15.2953704 L13.6730456,12.9903355 L14.3460913,12.3172899 L17.3460913,15.3172899 L14.3460913,18.3172899 L13.6511262,17.6223248 Z M8.09033215,2 L18.0065894,2 C19.1075197,2 20,2.89821238 20,3.99079514 L20,20.0092049 C20,21.1086907 19.1054862,22 18.0059397,22 L5.99406028,22 C4.8927712,22 4,21.1030778 4,20.0005708 L4,5.95692073 L8.09033215,2 Z M8.68975763,4 L8.59009418,6.60591111 L6,6.60591111 L6,20 L18,20 L18,4 L8.68975763,4 Z" id="Combined-Shape"></path>
        </g>
    </g>
</svg>