<?xml version="1.0" encoding="UTF-8"?>
<svg width="24px" height="24px" viewBox="0 0 24 24" version="1.1" xmlns="http://www.w3.org/2000/svg" xmlns:xlink="http://www.w3.org/1999/xlink">
    <!-- Generator: Sketch 46.1 (44463) - http://www.bohemiancoding.com/sketch -->
    <title>ico/backgroundcolor</title>
    <desc>Created with Sketch.</desc>
    <defs></defs>
    <g id="Symbols" stroke="none" stroke-width="1" fill="none" fill-rule="evenodd" fill-opacity="0.6">
        <g id="ico/backgroundcolor" fill="#1A1A1A">
            <path d="M10.3839542,13.530086 L13.5644699,13.530086 L12.017192,9.02578797 L11.982808,9.02578797 L10.3839542,13.530086 Z M5,3 L19,3 C20.1045695,3 21,3.8954305 21,5 L21,19 C21,20.1045695 20.1045695,21 19,21 L5,21 C3.8954305,21 3,20.1045695 3,19 L3,5 L3,5 C3,3.8954305 3.8954305,3 5,3 L5,3 Z M10.6418338,6 L6,18.2750716 L8.71633238,18.2750716 L9.67908309,15.5415473 L14.269341,15.5415473 L15.1977077,18.2750716 L18,18.2750716 L13.4097421,6 L10.6418338,6 Z" id="A"></path>
        </g>
    </g>
</svg>