<svg xmlns="http://www.w3.org/2000/svg" width="24" height="24"><path fill-rule="evenodd" d="M21.927 19.342l.001-.001-.034-.058-.052-.09-9.088-15.741c-.147-.267-.428-.451-.755-.451-.354 0-.659.214-.792.519h-.001l-9.017 15.619.009.005c-.122.149-.198.337-.198.544 0 .478.387.866.865.866h18.269c.478 0 .865-.387.865-.865 0-.123-.027-.24-.073-.346zm-9.919-.424c-.693 0-1.254-.544-1.254-1.237 0-.693.561-1.254 1.254-1.254.676 0 1.237.561 1.237 1.254s-.561 1.237-1.237 1.237zm1.237-10.939v6.827999999999999c0 .283-.229.505-.505.505h-1.472c-.283 0-.512-.222-.512-.505v-6.808999999999999l-.002-.019c0-.269.209-.481.467-.501v-.004h1.516c.277.002.5.216.507.492h.001v.013z"/></svg>