<?xml version="1.0" encoding="UTF-8"?>
<svg width="24px" height="24px" viewBox="0 0 24 24" version="1.1" xmlns="http://www.w3.org/2000/svg" xmlns:xlink="http://www.w3.org/1999/xlink">
    <!-- Generator: Sketch 46.1 (44463) - http://www.bohemiancoding.com/sketch -->
    <title>ico/fullscreen</title>
    <desc>Created with Sketch.</desc>
    <defs>
        <path d="M0.923007342,12.0950248 C0.942447421,11.9782043 1.02542776,11.8822639 1.13792821,11.8462638 C1.25042867,11.8104436 1.37372916,11.8401438 1.4572495,11.9233041 L2.53761387,13.0036685 L5.43688559,10.1042167 C5.56036609,9.98091624 5.7598069,9.98091624 5.8831074,10.1042167 L7.88129548,12.1025848 C8.00459598,12.2258853 8.00459598,12.4253261 7.88129548,12.5486266 L4.98166375,15.4480783 L6.06166812,16.5279027 C6.14536846,16.6112431 6.17542858,16.7347235 6.13924843,16.846684 C6.10360829,16.9591845 6.0080279,17.0427048 5.89156743,17.0621449 L0.368245099,17.9956286 C0.267624692,18.0127287 0.165204278,17.9801486 0.0926639851,17.9081483 L0.0923039836,17.9076083 C0.0204836932,17.835788 -0.01245644,17.7337276 0.0042836277,17.6332872 L0.923007342,12.0950248 Z M17.0769927,5.90515976 C17.0577326,6.02198023 16.9745722,6.11792062 16.8622518,6.15428077 C16.7497513,6.19010091 16.6264508,6.16022079 16.5427505,6.07688046 L15.4625661,4.99669609 L12.5632944,7.89614781 C12.4399939,8.01944831 12.2403731,8.01944831 12.1170726,7.89614781 L10.1187045,5.89795973 C9.99540402,5.77447923 9.99540402,5.57503843 10.1187045,5.45155793 L13.0183362,2.5519262 L11.9381519,1.47228184 C11.8546315,1.3887615 11.8245714,1.265461 11.8605716,1.15332055 C11.8965717,1.04082009 11.9921521,0.957479758 12.1084326,0.937859678 L17.6317549,0.00437590386 C17.7323753,-0.0125441645 17.8346157,0.0202159679 17.907336,0.0920362583 L17.907696,0.0925762605 C17.9795163,0.164396551 18.0124564,0.266456964 17.9957164,0.36689737 L17.0769927,5.90515976 Z" id="path-1"></path>
    </defs>
    <g id="Symbols" stroke="none" stroke-width="1" fill="none" fill-rule="evenodd">
        <g id="ico/fullscreen">
            <g id="Colors/DarkGray" transform="translate(3.000000, 3.000000)">
                <mask id="mask-2" fill="white">
                    <use xlink:href="#path-1"></use>
                </mask>
                <use id="Mask" fill="#000000" xlink:href="#path-1"></use>
                <g mask="url(#mask-2)" id="#2F2F2F" fill="#2F2F2F">
                    <g transform="translate(-29.000000, -20.000000)">
                        <rect x="0" y="0" width="64" height="64"></rect>
                    </g>
                </g>
            </g>
        </g>
    </g>
</svg>