<?xml version="1.0" encoding="UTF-8"?>
<svg width="24px" height="24px" viewBox="0 0 24 24" version="1.1" xmlns="http://www.w3.org/2000/svg" xmlns:xlink="http://www.w3.org/1999/xlink">
    <!-- Generator: Sketch 46.1 (44463) - http://www.bohemiancoding.com/sketch -->
    <title>ico/unindent</title>
    <desc>Created with Sketch.</desc>
    <defs>
        <path d="M3.55333584,9.06001905 C3.55333584,9.12029793 3.51696065,9.17200266 3.4649961,9.19486706 L3.46655504,9.19772511 L0.25098877,11.0544184 C0.224227027,11.0806605 0.187851843,11.0970294 0.147579318,11.0970294 C0.0675539132,11.0970294 0.00311787292,11.0328531 0.000779468229,10.9533474 L0,10.9533474 L0,7.16695055 C0,7.08536621 0.0662547995,7.01911141 0.147839141,7.01911141 C0.189150957,7.01911141 0.226305609,7.03625971 0.253327175,7.06380092 L3.48188458,8.9280291 L3.47824706,8.93426485 C3.52215711,8.95972747 3.55333584,9.00545628 3.55333584,9.06001905 Z M0.5,0 L17.5,0 C17.7761424,-5.07265313e-17 18,0.223857625 18,0.5 L18,2.5 C18,2.77614237 17.7761424,3 17.5,3 L0.5,3 C0.223857625,3 3.38176876e-17,2.77614237 0,2.5 L0,0.5 L0,0.5 C-3.38176876e-17,0.223857625 0.223857625,5.07265313e-17 0.5,0 L0.5,0 Z M6.5,5 L17.5,5 C17.7761424,5 18,5.22385763 18,5.5 L18,7.5 C18,7.77614237 17.7761424,8 17.5,8 L6.5,8 C6.22385763,8 6,7.77614237 6,7.5 L6,5.5 C6,5.22385763 6.22385763,5 6.5,5 Z M6.5,10 L17.5,10 C17.7761424,10 18,10.2238576 18,10.5 L18,12.5 C18,12.7761424 17.7761424,13 17.5,13 L6.5,13 C6.22385763,13 6,12.7761424 6,12.5 L6,10.5 C6,10.2238576 6.22385763,10 6.5,10 Z M0.5,15 L17.5,15 C17.7761424,15 18,15.2238576 18,15.5 L18,17.5 C18,17.7761424 17.7761424,18 17.5,18 L0.5,18 C0.223857625,18 3.38176876e-17,17.7761424 0,17.5 L0,15.5 C-3.38176876e-17,15.2238576 0.223857625,15 0.5,15 L0.5,15 Z" id="path-1"></path>
    </defs>
    <g id="Symbols" stroke="none" stroke-width="1" fill="none" fill-rule="evenodd">
        <g id="ico/unindent">
            <g id="Colors/DarkGray" transform="translate(3.000000, 3.000000)">
                <mask id="mask-2" fill="white">
                    <use xlink:href="#path-1"></use>
                </mask>
                <use id="Mask" fill="#000000" xlink:href="#path-1"></use>
                <g mask="url(#mask-2)" id="#2F2F2F" fill="#2F2F2F">
                    <g transform="translate(-28.000000, -21.000000)">
                        <rect x="0" y="0" width="64" height="64"></rect>
                    </g>
                </g>
            </g>
        </g>
    </g>
</svg>