<svg xmlns="http://www.w3.org/2000/svg" xmlns:xlink="http://www.w3.org/1999/xlink" width="24" height="24"><defs><path id="a" d="M4 6.505c0-.279.229-.505.5-.505h10.999c.276 0 .5.214.5.505v.991c0 .279-.229.505-.5.505h-10.999c-.276 0-.5-.214-.5-.505v-.991zm0 6c0-.279.229-.505.5-.505h10.999c.276 0 .5.214.5.505v.991c0 .279-.229.505-.5.505h-10.999c-.276 0-.5-.214-.5-.505v-.991zm0-12c0-.279.229-.505.5-.505h10.999c.276 0 .5.214.5.505v.991c0 .279-.229.505-.5.505h-10.999c-.276 0-.5-.214-.5-.505v-.991zm-3 1.495c-.552 0-1-.448-1-1s.448-1 1-1 1 .448 1 1-.448 1-1 1zm0 6c-.552 0-1-.448-1-1s.448-1 1-1 1 .448 1 1-.448 1-1 1zm0 6c-.552 0-1-.448-1-1s.448-1 1-1 1 .448 1 1-.448 1-1 1z"/></defs><g transform="translate(4 5)" fill="none"><mask id="b"><use xlink:href="#a"/></mask><use xlink:href="#a"/><rect width="64" height="64" transform="translate(-28 -22)" fill="#2F2F2F" mask="url(#b)"/></g></svg>