<?xml version="1.0" encoding="UTF-8"?>
<svg width="24px" height="24px" viewBox="0 0 24 24" version="1.1" xmlns="http://www.w3.org/2000/svg" xmlns:xlink="http://www.w3.org/1999/xlink">
    <!-- Generator: Sketch 46.1 (44463) - http://www.bohemiancoding.com/sketch -->
    <title>ico/list</title>
    <desc>Created with Sketch.</desc>
    <defs>
        <path d="M4,6.50468445 C4,6.22595492 4.22900057,6 4.50034732,6 L15.4996527,6 C15.7759869,6 16,6.21403503 16,6.50468445 L16,7.49531555 C16,7.77404508 15.7709994,8 15.4996527,8 L4.50034732,8 C4.22401312,8 4,7.78596497 4,7.49531555 L4,6.50468445 Z M4,12.5046844 C4,12.2259549 4.22900057,12 4.50034732,12 L15.4996527,12 C15.7759869,12 16,12.214035 16,12.5046844 L16,13.4953156 C16,13.7740451 15.7709994,14 15.4996527,14 L4.50034732,14 C4.22401312,14 4,13.785965 4,13.4953156 L4,12.5046844 Z M4,0.504684448 C4,0.225954924 4.22900057,0 4.50034732,0 L15.4996527,0 C15.7759869,0 16,0.214035034 16,0.504684448 L16,1.49531555 C16,1.77404508 15.7709994,2 15.4996527,2 L4.50034732,2 C4.22401312,2 4,1.78596497 4,1.49531555 L4,0.504684448 Z M1,2 C0.44771525,2 0,1.55228475 0,1 C0,0.44771525 0.44771525,0 1,0 C1.55228475,0 2,0.44771525 2,1 C2,1.55228475 1.55228475,2 1,2 Z M1,8 C0.44771525,8 0,7.55228475 0,7 C0,6.44771525 0.44771525,6 1,6 C1.55228475,6 2,6.44771525 2,7 C2,7.55228475 1.55228475,8 1,8 Z M1,14 C0.44771525,14 0,13.5522847 0,13 C0,12.4477153 0.44771525,12 1,12 C1.55228475,12 2,12.4477153 2,13 C2,13.5522847 1.55228475,14 1,14 Z" id="path-1"></path>
    </defs>
    <g id="Symbols" stroke="none" stroke-width="1" fill="none" fill-rule="evenodd">
        <g id="ico/list">
            <g id="Colors/DarkGray" transform="translate(4.000000, 5.000000)">
                <mask id="mask-2" fill="white">
                    <use xlink:href="#path-1"></use>
                </mask>
                <use id="Mask" fill="#000000" xlink:href="#path-1"></use>
                <g mask="url(#mask-2)" id="#2F2F2F" fill="#2F2F2F">
                    <g transform="translate(-28.000000, -22.000000)">
                        <rect x="0" y="0" width="64" height="64"></rect>
                    </g>
                </g>
            </g>
        </g>
    </g>
</svg>