<svg xmlns="http://www.w3.org/2000/svg" xmlns:xlink="http://www.w3.org/1999/xlink" width="24" height="24"><defs><path id="a" d="M1.531 7.346c-.198 0-.381-.092-.472-.241-.09-.149-.076-.327.039-.463l5.452-6.454c.1-.118.26-.188.431-.188h.001c.17 0 .332.07.431.187l5.488 6.455c.115.136.131.314.039.463-.091.147-.273.241-.471.241h-2.566v5.797c0 .248-.237.447-.53.447h-4.748c-.293 0-.53-.199-.53-.447v-5.797h-2.564zm-1.531 8.158c0-.279.22-.505.498-.505h13.003c.275 0 .498.214.498.505v.991c0 .279-.22.505-.498.505h-13.003c-.275 0-.498-.214-.498-.505v-.991z"/></defs><g transform="translate(5 4)" fill="none"><mask id="b"><use xlink:href="#a"/></mask><use xlink:href="#a"/><rect width="64" height="64" transform="translate(-27 -23)" fill="#2F2F2F" mask="url(#b)"/></g></svg>