<?xml version="1.0" encoding="UTF-8"?>
<svg width="24px" height="24px" viewBox="0 0 24 24" version="1.1" xmlns="http://www.w3.org/2000/svg" xmlns:xlink="http://www.w3.org/1999/xlink">
    <!-- Generator: Sketch 46.1 (44463) - http://www.bohemiancoding.com/sketch -->
    <title>ico/redo</title>
    <desc>Created with Sketch.</desc>
    <defs>
        <path d="M2.11926126,3.19836338 C3.77019118,1.24236143 6.24001106,0 9,0 C13.9705627,0 18,4.02943725 18,9 C18,13.9705627 13.9705627,18 9,18 C6.26995669,18 3.82381998,16.7844513 2.1732871,14.8650512 C2.01439746,14.6054086 2.03866498,14.3920788 2.24608966,14.225062 C2.60441119,13.9365442 3.60924157,13.208719 3.99591547,12.9346567 C4.15409587,12.8225434 4.32174128,12.8334696 4.4988517,12.9674352 C4.58307724,13.0629175 4.67029343,13.1556989 4.76035374,13.245633 C4.76298732,13.2491071 4.76562405,13.252582 4.76826392,13.2560575 C4.7659528,13.2528903 4.76364312,13.249742 4.7613349,13.2466126 C5.84680576,14.3300647 7.34516699,15 9,15 C12.3137085,15 15,12.3137085 15,9 C15,5.6862915 12.3137085,3 9,3 C7.16257829,3 5.51806241,3.82592806 4.41745753,5.12677903 L5.81106352,6.2961533 L5.81048776,6.29683947 C5.91330759,6.38662344 5.95010045,6.5141578 5.89098869,6.58460446 C5.86124088,6.62005651 5.81284749,6.6340166 5.7585722,6.62861993 L0.941870891,7.41064747 L0.939264189,7.4061216 C0.870814082,7.42663795 0.775955296,7.40160895 0.696690806,7.33509814 C0.624942776,7.2748944 0.587841653,7.19699117 0.586793943,7.13024192 L0.57590727,7.12656361 L0.509330657,2.22749116 C0.493074803,2.17331542 0.497970172,2.12168686 0.528485663,2.08531991 C0.58874896,2.01350091 0.724811506,2.02828111 0.832091894,2.11830005 L2.11926126,3.19836338 Z" id="path-1"></path>
    </defs>
    <g id="Symbols" stroke="none" stroke-width="1" fill="none" fill-rule="evenodd">
        <g id="ico/redo">
            <g id="Colors/DarkGray" transform="translate(12.000000, 12.000000) scale(-1, 1) translate(-12.000000, -12.000000) translate(3.000000, 3.000000)">
                <mask id="mask-2" fill="white">
                    <use xlink:href="#path-1"></use>
                </mask>
                <use id="Mask" fill="#000000" xlink:href="#path-1"></use>
                <g mask="url(#mask-2)" id="#2F2F2F" fill="#2F2F2F">
                    <g transform="translate(-26.000000, -25.000000)">
                        <rect x="0" y="0" width="64" height="64"></rect>
                    </g>
                </g>
            </g>
        </g>
    </g>
</svg>