<?xml version="1.0" encoding="UTF-8"?>
<svg width="21px" height="21px" viewBox="0 0 21 21" version="1.1" xmlns="http://www.w3.org/2000/svg" xmlns:xlink="http://www.w3.org/1999/xlink">
    <!-- Generator: Sketch 46.1 (44463) - http://www.bohemiancoding.com/sketch -->
    <title>Mask</title>
    <desc>Created with Sketch.</desc>
    <defs>
        <path d="M11.8377405,0.1564 C7.27818309,0.1564 3.58468109,3.85196526 3.58468109,8.40945941 C3.58468109,9.96825601 4.01693508,11.4256947 4.76796349,12.6693276 L0.766261304,16.6707719 L0.780188342,16.6846989 C0.353092517,17.0934833 0.0907999728,17.6737765 0.0907999728,18.3296368 C0.0905420647,19.5967394 1.09999439,20.5876223 2.36580738,20.5873644 C3.01238301,20.5871065 3.59061298,20.3284247 4.00326595,19.9075186 L4.01332437,19.917577 L8.14191734,15.7887262 C9.2540171,16.3465814 10.5084821,16.6625188 11.8377405,16.6625188 C16.3975558,16.6625188 20.0907999,12.9674694 20.0907999,8.40945941 C20.090542,3.85196526 16.3972979,0.1564 11.8377405,0.1564 L11.8377405,0.1564 Z M11.8877747,13.4172611 C9.0378901,13.4172611 6.72961255,11.1079519 6.72961255,8.25909899 C6.72961255,5.41076186 9.03814801,3.10093685 11.8877747,3.10093685 C14.7376593,3.10093685 17.0459368,5.41050395 17.0459368,8.25909899 C17.0459368,11.1079519 14.7376593,13.4172611 11.8877747,13.4172611 L11.8877747,13.4172611 Z" id="path-1"></path>
    </defs>
    <g id="Symbols" stroke="none" stroke-width="1" fill="none" fill-rule="evenodd">
        <g id="ico/search" transform="translate(-2.000000, -2.000000)">
            <g id="Colors/DarkGray" transform="translate(2.000000, 2.000000)">
                <mask id="mask-2" fill="white">
                    <use xlink:href="#path-1"></use>
                </mask>
                <use id="Mask" fill="#000000" transform="translate(10.090800, 10.371882) scale(-1, 1) translate(-10.090800, -10.371882) " xlink:href="#path-1"></use>
            </g>
        </g>
    </g>
</svg>