<svg xmlns="http://www.w3.org/2000/svg" xmlns:xlink="http://www.w3.org/1999/xlink" width="24" height="24"><defs><path id="a" d="M11.838.156c-4.56 0-8.253 3.696-8.253 8.253 0 1.559.432 3.016 1.183 4.26l-4.002 4.001.014.014c-.427.409-.689.989-.689 1.645 0 1.267 1.009 2.258 2.275 2.258.647 0 1.225-.259 1.637-.68l.01.01 4.129-4.129c1.112.558 2.367.874 3.696.874 4.56 0 8.253-3.695 8.253-8.253 0-4.557-3.694-8.253-8.253-8.253zm.05 13.261c-2.85 0-5.158-2.309-5.158-5.158 0-2.848 2.309-5.158 5.158-5.158 2.85 0 5.158 2.31 5.158 5.158 0 2.849-2.308 5.158-5.158 5.158z"/></defs><g transform="translate(2 2)" fill="none"><mask id="b"><use xlink:href="#a"/></mask><use transform="matrix(-1 0 0 1 20.182 0)" xlink:href="#a"/><rect width="64" height="64" transform="translate(-28 -18)" fill="#2F2F2F" mask="url(#b)"/></g></svg>