<svg xmlns="http://www.w3.org/2000/svg" xmlns:xlink="http://www.w3.org/1999/xlink" width="24" height="24"><defs><path id="a" d="M3 4.995c0-1.102.893-1.995 1.995-1.995h14.01c1.102 0 1.995.893 1.995 1.995v14.01c0 1.102-.893 1.995-1.995 1.995h-14.01c-1.102 0-1.995-.893-1.995-1.995v-14.01zm2 7.005v4h14v-4h-14zm0-4v2h7v-2h-7z"/></defs><g fill="none"><use xlink:href="#a"/><path stroke="#000" stroke-width="1.5" d="M3.75 4.995v14.01c0 .688.557 1.245 1.245 1.245h14.01c.688 0 1.245-.557 1.245-1.245v-14.01c0-.688-.557-1.245-1.245-1.245h-14.01c-.688 0-1.245.557-1.245 1.245zm.5 11.755v-5.5h15.5v5.5h-15.5zm0-9.5h8.5v3.5h-8.5v-3.5z"/></g></svg>