<?xml version="1.0" encoding="UTF-8"?>
<svg width="24px" height="24px" viewBox="0 0 24 24" version="1.1" xmlns="http://www.w3.org/2000/svg" xmlns:xlink="http://www.w3.org/1999/xlink">
    <!-- Generator: Sketch 46.1 (44463) - http://www.bohemiancoding.com/sketch -->
    <title>ico/trash</title>
    <desc>Created with Sketch.</desc>
    <defs>
        <path d="M5,1 L0.496393204,1 C0.22618103,1 0,1.22650465 0,1.5059123 L0,2.9940877 C0,3.26928711 0.222242807,3.5 0.496393204,3.5 L15.5036068,3.5 C15.773819,3.5 16,3.27349535 16,2.9940877 L16,1.5059123 C16,1.23071289 15.7777572,1 15.5036068,1 L11,1 L11,0.504684448 C11,0.214035034 10.7801695,0 10.5089948,0 L5.49100518,0 C5.22788048,0 5,0.225954924 5,0.504684448 L5,1 Z M15,4 L15,16.0059397 C15,17.1072288 14.1029399,18 12.9941413,18 L3.00585866,18 C1.89805351,18 1,17.1054862 1,16.0059397 L1,3.99703014 L1,4 L15,4 Z M4.5,7.75262058 L4.5,14.2473794 C4.5,14.65625 4.83578644,15 5.25,15 C5.66710138,15 6,14.6630403 6,14.2473794 L6,7.75262058 C6,7.34375 5.66421356,7 5.25,7 C4.83289862,7 4.5,7.33695971 4.5,7.75262058 Z M7.5,7.75262058 L7.5,14.2473794 C7.5,14.65625 7.83578644,15 8.25,15 C8.66710138,15 9,14.6630403 9,14.2473794 L9,7.75262058 C9,7.34375 8.66421356,7 8.25,7 C7.83289862,7 7.5,7.33695971 7.5,7.75262058 Z M10.5,7.75262058 L10.5,14.2473794 C10.5,14.65625 10.8357864,15 11.25,15 C11.6671014,15 12,14.6630403 12,14.2473794 L12,7.75262058 C12,7.34375 11.6642136,7 11.25,7 C10.8328986,7 10.5,7.33695971 10.5,7.75262058 Z" id="path-1"></path>
    </defs>
    <g id="Symbols" stroke="none" stroke-width="1" fill="none" fill-rule="evenodd">
        <g id="ico/trash">
            <g id="Colors/DarkGray" transform="translate(4.000000, 3.000000)">
                <mask id="mask-2" fill="white">
                    <use xlink:href="#path-1"></use>
                </mask>
                <use id="Mask" fill="#000000" xlink:href="#path-1"></use>
                <g mask="url(#mask-2)" id="#2F2F2F" fill="#2F2F2F">
                    <g transform="translate(-29.000000, -21.000000)">
                        <rect x="0" y="0" width="64" height="64"></rect>
                    </g>
                </g>
            </g>
        </g>
    </g>
</svg>