<svg xmlns="http://www.w3.org/2000/svg" width="24" height="24"><path fill-rule="evenodd" d="M8.384 13.361h3.181l-1.547-4.403h-.034l-1.599 4.403zm8.616-2.361v-1.509c0-.271.214-.491.505-.491h.991c.279 0 .505.228.505.491v1.509h1.509c.271 0 .491.214.491.505v.991c0 .279-.228.505-.491.505h-1.509v1.509c0 .271-.214.491-.505.491h-.991c-.279 0-.505-.228-.505-.491v-1.509h-1.509c-.271 0-.491-.214-.491-.505v-.991c0-.279.228-.505.491-.505h1.509zm-8.358-5h2.768l4.59 12h-2.802l-.928-2.672h-4.59l-.963 2.672h-2.716l4.642-12z"/></svg>