<svg xmlns="http://www.w3.org/2000/svg" width="24" height="24"><path fill-rule="evenodd" d="M20.925 16.488l-.02-.028h.001l-7.204-12.477-.004.002c-.062-.099-.149-.171-.249-.214l.01-.006-2.948-1.702v.012c-.148-.084-.33-.098-.494-.029l-.003-.006-.055.032-.003.002-.003.002-5.672 3.275c-.176.101-.273.283-.278.472l-.002-.001v3.404l.006-.003c-.013.114.008.233.07.341l.013.017 7.18 12.436.02.044c.15.26.478.352.742.214l.001.002 8.693-5.019-.004-.007c.267-.155.358-.497.204-.764zm-12.076-9.844c-.495.286-1.128.116-1.414-.379-.286-.495-.116-1.128.379-1.414.495-.286 1.128-.116 1.414.379.286.495.116 1.128-.379 1.414z"/></svg>