<?xml version="1.0" encoding="UTF-8"?>
<svg width="24px" height="24px" viewBox="0 0 24 24" version="1.1" xmlns="http://www.w3.org/2000/svg" xmlns:xlink="http://www.w3.org/1999/xlink">
    <!-- Generator: Sketch 46.1 (44463) - http://www.bohemiancoding.com/sketch -->
    <title>ico/undo</title>
    <desc>Created with Sketch.</desc>
    <defs>
        <path d="M2.11150561,3.20756459 C3.76245082,1.24625837 6.23568579,0 9,0 C13.9705627,0 18,4.02943725 18,9 C18,13.9705627 13.9705627,18 9,18 C6.26995669,18 3.82381998,16.7844513 2.1732871,14.8650512 C2.01439746,14.6054086 2.03866498,14.3920788 2.24608966,14.225062 C2.60441119,13.9365442 3.60924157,13.208719 3.99591547,12.9346567 C4.15409587,12.8225434 4.32174128,12.8334696 4.4988517,12.9674352 C4.58307724,13.0629175 4.67029343,13.1556989 4.76035374,13.245633 C4.76298732,13.2491071 4.76562405,13.252582 4.76826392,13.2560575 C4.7659528,13.2528903 4.76364312,13.249742 4.7613349,13.2466126 C5.84680576,14.3300647 7.34516699,15 9,15 C12.3137085,15 15,12.3137085 15,9 C15,5.6862915 12.3137085,3 9,3 C7.15825295,3 5.51032101,3.82982115 4.40969402,5.13597363 L5.7980907,6.30097678 L5.79751493,6.30166294 C5.90033477,6.39144691 5.93712763,6.51898127 5.87801586,6.58942793 C5.84826806,6.62487999 5.79987466,6.63884007 5.74559938,6.6334434 L0.928898065,7.41547094 L0.926291363,7.41094508 C0.857841257,7.43146143 0.762982471,7.40643242 0.683717981,7.33992162 C0.611969951,7.27971787 0.574868827,7.20181465 0.573821118,7.13506539 L0.562934444,7.13138708 L0.496357832,2.23231463 C0.480101978,2.17813889 0.484997347,2.12651033 0.515512838,2.09014339 C0.575776134,2.01832439 0.711838681,2.03310459 0.819119069,2.12312352 L2.11150561,3.20756459 Z" id="path-1"></path>
    </defs>
    <g id="Symbols" stroke="none" stroke-width="1" fill="none" fill-rule="evenodd">
        <g id="ico/undo">
            <g id="Colors/DarkGray" transform="translate(3.000000, 3.000000)">
                <mask id="mask-2" fill="white">
                    <use xlink:href="#path-1"></use>
                </mask>
                <use id="Mask" fill="#000000" xlink:href="#path-1"></use>
                <g mask="url(#mask-2)" id="#2F2F2F" fill="#2F2F2F">
                    <g transform="translate(-26.000000, -25.000000)">
                        <rect x="0" y="0" width="64" height="64"></rect>
                    </g>
                </g>
            </g>
        </g>
    </g>
</svg>