<svg xmlns="http://www.w3.org/2000/svg" width="24" height="24"><path fill-rule="evenodd" d="M5.12 13.621l-.198-.344c-.829-1.435-.334-3.272 1.1-4.1l6.517-3.763c1.436-.829 3.275-.334 4.101 1.097l.292.506 3.383-1.953c.716-.413 1.629-.172 2.047.55.414.717.168 1.635-.547 2.048l-3.383 1.953.207.359c.829 1.435.334 3.272-1.1 4.1l-6.517 3.763c-1.436.829-3.275.334-4.101-1.097l-.301-.522-2.823 1.63c-.716.413-1.629.172-2.047-.55-.414-.717-.168-1.635.547-2.048l2.823-1.63zm2.366-1.366l.878-.507c.716-.413 1.629-.172 2.047.55.414.717.168 1.635-.547 2.048l-.878.507.497.86 7.162-4.135-.403-.698-.494.285c-.716.413-1.629.172-2.047-.55-.414-.717-.168-1.635.547-2.048l.494-.285-.597-1.035-7.162 4.135.503.872z"/></svg>