<svg xmlns="http://www.w3.org/2000/svg" width="151" height="30" viewBox="0 0 151 30">
  <g fill="#FFFFFF" fill-rule="evenodd">
    <path d="M8.53827243 16.049C7.46421595 15.762 6.53513953 15.2055 5.80271429 14.474 4.45525249 13.129 3.77700664 11.1875 4.09305316 9.2185L1.31033887 8.4755C1.24060797 8.716 1.17288372 8.941 1.11067774 9.131L.290963455 11.6495C.065717608 12.3405.324574751 13.304.86586711 13.7895L2.83940199 15.562C3.110299 15.805 3.45594352 16.1365 3.79506645 16.475 4.13469103 16.813 4.4667907 17.1575 4.71009635 17.427L6.48898671 19.394C6.97660133 19.934 7.942299 20.192 8.63559468 19.9675L11.1624618 19.1505C11.3535947 19.089 11.5788405 19.021 11.8206412 18.952L11.0751728 16.1795C10.2539535 16.31 9.39360465 16.2775 8.53827243 16.049L8.53827243 16.049zM18.4420664 13.7605C18.5178173 13.4055 18.6331993 12.941 18.7571096 12.4795 18.8810199 12.018 19.0149635 11.5585 19.1273355 11.2135L19.9470498 8.695C20.171794 8.004 19.9134385 7.041 19.3721462 6.555L17.3986113 4.782C17.2496179 4.6485 17.0775482 4.488 16.8964485 4.314L14.858701 6.345C16.0451296 7.807 16.5412724 9.7925 16.0155316 11.7475L16.0155316 11.7475C15.4897907 13.703 14.0640698 15.1755 12.3032392 15.85L13.0487076 18.6245C13.292515 18.564 13.5217741 18.51 13.7179236 18.4685L16.3170299 17.917C17.0298904 17.7655 17.7367309 17.061 17.8887342 16.3505L18.4420664 13.7605 18.4420664 13.7605zM8.53877409 4.2955C9.54059136 4.027 10.6246811 4.008 11.6982359 4.2945 12.5540698 4.523 13.3150897 4.924 13.9612292 5.4465L15.9974718 3.417C15.8228937 3.2365 15.6618605 3.0655 15.5274153 2.9165L13.7485249.9495C13.2609103.41 12.2952126.1515 11.6019169.376L9.07504983 1.193C8.72890365 1.3055 8.26787708 1.438 7.80484385 1.5615 7.34080731 1.6855 6.87526578 1.8 6.51958804 1.8755L3.92098339 2.427C3.20812292 2.5785 2.50078073 3.2835 2.34877741 3.994L1.79494352 6.5835C1.75330565 6.7795 1.69962791 7.008 1.63892691 7.2515L4.4216412 7.9945C5.13600664 6.132 6.69767774 4.7885 8.53877409 4.2955L8.53877409 4.2955z"/>
    <g transform="translate(25.585 9.5)">
      <path d="M11.8381993 1.2475L10.4154884 1.2475C10.1039568 1.2475 9.85613621 1.4185 9.73172425 1.726L6.45838538 10.487 3.04257475 1.7155C2.9231794 1.418 2.66783389 1.247 2.34275748 1.247L.94161794 1.247C.573900332 1.247.317049834 1.5025.317049834 1.868L.317049834 15.8415C.317049834 16.207.573900332 16.463.94161794 16.463L1.47187375 16.463C1.8390897 16.463 2.0959402 16.207 2.0959402 15.8415L2.09644186 4.0285 5.45205316 12.6235C5.58850498 12.9245 5.85689369 13.0965 6.18799003 13.0965L6.65553821 13.0965C7.0272691 13.0965 7.30769767 12.9135 7.42207641 12.6L10.6201661 4.234 10.6201661 15.8415C10.6201661 16.207 10.8770166 16.463 11.2432292 16.463L11.8381993 16.463C12.2054153 16.463 12.4622658 16.207 12.4622658 15.8415L12.4622658 1.868C12.4622658 1.503 12.2054153 1.2475 11.8381993 1.2475L11.8381993 1.2475zM23.9859236 5.3375C23.5720532 4.8935 23.0754086 4.572 22.5095349 4.3815 21.958711 4.196 21.2528738 4.1055 20.3503854 4.1055 19.4634485 4.1055 18.7651362 4.192 18.2158173 4.3685 17.6454286 4.553 17.1457741 4.8805 16.7303987 5.3415 16.2894385 5.828 15.9578405 6.5145 15.7446346 7.3815 15.5394551 8.214 15.4351096 9.195 15.4351096 10.295 15.4351096 11.381 15.5424651 12.3885 15.7546678 13.2885 15.9759003 14.2365 16.2929502 14.944 16.7243787 15.4525 17.126711 15.919 17.6148272 16.245 18.1751827 16.4225 18.7094518 16.5925 19.4072625 16.675 20.3077442 16.675 21.2067209 16.675 21.9125581 16.5925 22.4668937 16.424 23.0463123 16.2475 23.5524884 15.923 23.9783987 15.45 24.401299 14.9505 24.7268771 14.223 24.946103 13.2885 25.157804 12.387 25.2656611 11.38 25.2656611 10.295 25.2656611 9.1955 25.1613156 8.218 24.9561362 7.3905 24.7419269 6.5365 24.4208638 5.85 23.9859236 5.3375L23.9859236 5.3375zM23.221392 12.9445C23.0558439 13.6455 22.8155482 14.1505 22.5010066 14.453 22.4122126 14.5415 22.3163953 14.6175 22.2180698 14.678 22.1177375 14.739 21.9943289 14.7925 21.8493488 14.838 21.7033654 14.8845 21.5097243 14.9175 21.2734419 14.936 21.0160897 14.957 20.691515 14.967 20.3077442 14.967 19.9395249 14.967 19.6289967 14.957 19.385691 14.936 19.1644585 14.9185 18.9818538 14.885 18.8443987 14.839 18.7084485 14.795 18.5930664 14.742 18.5017641 14.6835 18.4064485 14.6215 18.3111329 14.544 18.213309 14.4455 17.9047874 14.15 17.6644917 13.645 17.5004485 12.944 17.3243654 12.195 17.2350698 11.318 17.2350698 10.3375 17.2350698 9.328 17.3213555 8.4555 17.4899136 7.742 17.6469336 7.076 17.8837176 6.5885 18.1982591 6.287 18.2940764 6.191 18.393907 6.107 18.4957442 6.0355 18.5750066 5.9795 18.6848704 5.9325 18.8208206 5.8955 18.9833588 5.8515 19.1875349 5.817 19.4273289 5.7905 19.6746478 5.7645 19.9921993 5.7505 20.3714551 5.7505 20.7366645 5.7505 21.0471927 5.7645 21.2935083 5.7905 21.5317973 5.817 21.7309568 5.8515 21.8849668 5.894 22.0209169 5.9325 22.1352957 5.982 22.2255947 6.042 22.3289369 6.11 22.4292691 6.1925 22.5296013 6.293 22.8376213 6.589 23.0744053 7.076 23.2319269 7.7425 23.4009867 8.456 23.4867708 9.3285 23.4867708 10.3375 23.4862691 11.3165 23.3974751 12.193 23.221392 12.9445L23.221392 12.9445zM36.2254518 4.2155L35.6856645 4.2155C35.2376811 4.2155 35.0355116 4.4935 34.9938738 4.746 34.8243123 5.4175 34.6030797 6.239 34.333186 7.1885 34.0592791 8.148 33.7758405 9.1225 33.4808638 10.1115 33.1924086 11.081 32.9024485 12.024 32.6200133 12.9135 32.4283787 13.512 32.2588173 14.033 32.1108272 14.4715 31.9653455 14.041 31.7967874 13.525 31.6021429 12.9135 31.3217143 12.0315 31.0302492 11.0965 30.7287508 10.1085 30.4267508 9.119 30.1312724 8.1435 29.8433189 7.1825 29.5608837 6.241 29.3306213 5.414 29.1600565 4.735 29.0737708 4.352 28.7928405 4.2155 28.5580631 4.2155L27.9099169 4.2155C27.5492226 4.2155 27.296887 4.467 27.296887 4.827L27.3099302 4.9275C27.3691262 5.1665 27.480495 5.5535 27.6385183 6.0765 27.7970432 6.6015 27.9846645 7.212 28.2013821 7.909 28.417598 8.6055 28.6468571 9.351 28.8916678 10.147 29.1369801 10.946 29.382794 11.723 29.6281063 12.478L30.3083588 14.576C30.5170498 15.2235 30.6976478 15.751 30.8466412 16.1515 30.9123588 16.3185 31.0277409 16.447 31.1777375 16.5215L31.3648571 16.5655 32.6390764 16.5655C32.7218505 16.5655 32.8051262 16.5535 32.8919136 16.5285 32.9947542 16.5 33.1813721 16.413 33.2902326 16.1435 33.4342093 15.7565 33.616814 15.2355 33.8345349 14.592 34.0517542 13.9515 34.2790066 13.2515 34.5172957 12.496 34.7550831 11.742 34.9988904 10.972 35.2512259 10.1835 35.5030598 9.3915 35.7348272 8.647 35.9450233 7.948 36.1537143 7.2495 36.334814 6.63 36.4863156 6.09 36.6393223 5.5465 36.7441694 5.159 36.8033654 4.927L36.8149037 4.8265C36.815907 4.467 36.573103 4.2155 36.2254518 4.2155L36.2254518 4.2155zM46.1066711 5.019C45.781093 4.696 45.356186 4.4575 44.8449934 4.3115 44.3639003 4.1755 43.7719402 4.1055 43.0856678 4.1055 42.518289 4.1055 41.949907 4.1425 41.3960731 4.215 40.8422392 4.288 40.3445914 4.3845 39.9131628 4.503 39.6206944 4.5865 39.4546445 4.8505 39.4912658 5.1745L39.4977874 5.2185 39.5800598 5.585C39.6262126 5.8765 39.8559734 6.071 40.1559668 6.071 40.1830565 6.071 40.2121528 6.0705 40.2427542 6.066L40.2964319 6.0565C40.6195017 5.976 41.0353787 5.9035 41.5320233 5.8425 42.0296711 5.7815 42.5378538 5.75 43.0425249 5.75 43.5246213 5.75 43.9174219 5.795 44.2113953 5.8815 44.4687475 5.958 44.664897 6.079 44.8118837 6.2515 44.963887 6.43 45.0732492 6.6755 45.1364585 6.98 45.208196 7.3255 45.2448173 7.757 45.2448173 8.262L45.2448173 9.2475 42.4600963 9.4415C41.6519203 9.5015 41.0198272 9.6125 40.5297043 9.781 40.0094817 9.9585 39.5996246 10.2165 39.3131761 10.5435 39.0242193 10.873 38.835093 11.27 38.750814 11.723 38.6755648 12.128 38.6374385 12.6015 38.6374385 13.1315 38.6374385 13.753 38.7126877 14.289 38.8606777 14.7245 39.0227143 15.1995 39.3116711 15.591 39.7195216 15.887 40.1063023 16.168 40.6134817 16.3735 41.2295216 16.4975 41.8129535 16.615 42.552402 16.675 43.4252924 16.675 43.9856478 16.675 44.5369734 16.653 45.0627143 16.61 45.6009967 16.566 46.0665382 16.49 46.4347575 16.3875 46.7809037 16.301 46.8937774 16.0815 46.9293953 15.9605 46.9630066 15.8525 46.9805648 15.741 46.9805648 15.6305L46.9805648 7.9665C46.9805648 7.314 46.9183588 6.746 46.7969568 6.275 46.6655216 5.7675 46.4332525 5.345 46.1066711 5.019L46.1066711 5.019zM43.9846445 15.0625C43.7910033 15.0695 43.6053887 15.073 43.4267973 15.073 42.7881827 15.073 42.2544153 15.036 41.8410465 14.9625 41.467309 14.8965 41.1708272 14.786 40.9601296 14.633 40.76699 14.493 40.6355548 14.3095 40.5557907 14.072 40.463485 13.799 40.4173322 13.447 40.4173322 13.027 40.4173322 12.6245 40.4524485 12.28 40.5221794 12.0035 40.5808738 11.7665 40.682711 11.5815 40.8327076 11.437 40.9852126 11.2905 41.2094551 11.178 41.4989136 11.105 41.8249934 11.0225 42.2594319 10.981 42.7886844 10.981L45.2453189 10.981 45.2453189 14.98C45.2026777 14.9895 45.1354551 15.002 45.0326146 15.011 44.8916478 15.0245 44.7321196 15.0345 44.5570399 15.041L43.9846445 15.0625 43.9846445 15.0625zM58.2408505 5.6225C57.8415282 5.0965 57.3082625 4.706 56.6566047 4.4605 56.0325382 4.225 55.2539601 4.1055 54.3444485 4.1055 53.6451329 4.1055 53.0717342 4.1435 52.6393023 4.2175 52.428103 4.254 52.2665681 4.278 52.1441628 4.2925L52.1441628.7045C52.1441628.339 51.8868106.083 51.5200963.083L50.9677674.083C50.6005515.083 50.3442027.339 50.3442027.7045L50.3442027 15.694C50.3442027 15.8005 50.3808239 16.1585 50.882485 16.307 51.3545482 16.407 51.880289 16.4945 52.4451595 16.5675 53.0130399 16.64 53.603495 16.6765 54.1959568 16.6765 55.1847309 16.6765 56.0204983 16.5255 56.6816877 16.2275 57.3574252 15.921 57.896711 15.4785 58.284495 14.9095 58.6622458 14.3575 58.9306346 13.6785 59.0821362 12.8935 59.2281196 12.137 59.3018638 11.278 59.3018638 10.339 59.3018638 9.2725 59.2241063 8.3475 59.070598 7.59 58.9105681 6.798 58.6316445 6.136 58.2408505 5.6225L58.2408505 5.6225zM54.2170266 15.0305C53.8222193 15.0305 53.4223953 15.01 53.0270864 14.9695 52.6658904 14.9325 52.365897 14.8895 52.1431595 14.843L52.1431595 5.941C52.3608804 5.889 52.6362924 5.846 52.9643787 5.812 53.3581827 5.7715 53.8006478 5.7505 54.2802359 5.7505 54.9469435 5.7505 55.4917475 5.8335 55.901103 5.9965 56.2863787 6.15 56.5818571 6.3875 56.8060997 6.722 57.0418804 7.074 57.2099369 7.544 57.3052525 8.1185 57.4075914 8.727 57.4587608 9.4735 57.4587608 10.3375 57.4587608 11.1965 57.4015714 11.945 57.2856877 12.559 57.1763256 13.1435 56.9937209 13.6255 56.7443953 13.9915 56.5040997 14.345 56.1950764 14.5985 55.7977608 14.766 55.384392 14.9415 54.8526312 15.0305 54.2170266 15.0305L54.2170266 15.0305zM65.9935216 15.0305L65.1657807 15.0305C64.8813389 15.0305 64.7223123 15 64.6365282 14.9735 64.595392 14.962 64.5522492 14.9395 64.509608 14.859 64.4699767 14.7825 64.4173023 14.6285 64.3962326 14.331 64.3756645 14.046 64.3651296 13.6565 64.3651296 13.175L64.3651296.705C64.3651296.3395 64.1082791.0835 63.7415648.0835L63.1887342.0835C62.8225216.0835 62.5651694.3395 62.5651694.705L62.5651694 13.2385C62.5651694 13.7995 62.5872425 14.282 62.6318904 14.6715 62.6810532 15.0985 62.7869037 15.4605 62.9464319 15.7455 63.1255249 16.066 63.3853854 16.299 63.717485 16.4405 64.0199867 16.571 64.3962326 16.6335 64.8672924 16.6335 65.1226379 16.6335 65.3498904 16.6215 65.5435316 16.599 65.7256346 16.577 65.8901794 16.5515 66.0386711 16.523 66.3597342 16.478 66.5739435 16.2325 66.5739435 15.9065L66.5739435 15.568C66.5744452 15.3085 66.3928439 15.0305 65.9935216 15.0305L65.9935216 15.0305zM76.9974585 5.6215C76.6718804 5.134 76.2013223 4.7535 75.6003322 4.489 75.018907 4.2345 74.2523688 4.105 73.3212857 4.105 72.3791661 4.105 71.5880465 4.271 70.9720066 4.5975 70.3514518 4.9265 69.849289 5.3875 69.4790631 5.9675 69.1193721 6.533 68.8675382 7.206 68.731588 7.9685 68.6001528 8.701 68.5334319 9.5045 68.5334319 10.358 68.5334319 11.1815 68.5961395 11.9735 68.7200498 12.712 68.8489767 13.488 69.1173654 14.1775 69.519196 14.7605 69.9270465 15.355 70.4999435 15.829 71.2228372 16.1695 71.9341927 16.505 72.8758106 16.675 74.0216047 16.675 75.1919801 16.675 76.2399502 16.478 77.15799 16.081 77.4238704 15.949 77.5653389 15.6925 77.5292193 15.375L77.4624983 14.9565C77.4173488 14.732 77.2638405 14.565 77.0511362 14.5115 76.9999668 14.4995 76.9467907 14.493 76.8946179 14.493 76.8003056 14.493 76.7044884 14.512 76.5976346 14.555 76.3001495 14.6845 75.9309269 14.793 75.5010033 14.878 75.0710797 14.9645 74.6306213 15.008 74.1916678 15.008 73.4206146 15.008 72.7764817 14.9195 72.2773289 14.7455 71.8002492 14.579 71.4325316 14.3325 71.1531063 13.993 70.8701694 13.65 70.6654917 13.2055 70.546598 12.6715 70.4327209 12.1685 70.3700133 11.572 70.3564684 10.8945L76.8043189 10.8945C77.0937774 10.8945 77.3270498 10.815 77.4976146 10.658 77.6897508 10.481 77.76801 10.179 77.76801 9.616L77.76801 9.3C77.76801 8.5775 77.7198505 7.9045 77.6245349 7.299 77.523701 6.6565 77.3130033 6.093 76.9974585 5.6215L76.9974585 5.6215zM73.3212857 5.7085C73.8876611 5.7085 74.3547076 5.781 74.7078771 5.922 75.0429867 6.0575 75.2988339 6.2455 75.4889635 6.4975 75.6831063 6.7555 75.8175515 7.083 75.8912957 7.47 75.9705581 7.895 76.012196 8.39 76.012196 8.9395 76.012196 9.101 76.0076811 9.214 76.0031661 9.292L70.3589767 9.292C70.3715183 8.883 70.4146611 8.4765 70.4863987 8.081 70.5691728 7.624 70.7201728 7.2105 70.9338804 6.852 71.1390598 6.5095 71.424505 6.2385 71.8022558 6.0255 72.1774983 5.8155 72.688691 5.7085 73.3212857 5.7085L73.3212857 5.7085zM101.431365 4.3175L100.900106 4.3175C100.58105 4.3175 100.331724 4.494 100.233399 4.789L100.222864 4.8255C100.068352 5.4955 99.8566512 6.296 99.5912724 7.2065 99.3228837 8.13 99.0464684 9.068 98.7635316 10.02 98.4841063 10.96 98.2041794 11.8645 97.9287674 12.71 97.7421495 13.28 97.5745947 13.784 97.4266047 14.2185 97.278113 13.7915 97.1085515 13.287 96.9144086 12.707 96.6359867 11.8745 96.3435183 10.969 96.0465349 10.0155 95.7485482 9.063 95.458588 8.1255 95.1756512 7.201 94.8972292 6.2935 94.6624518 5.4885 94.4833588 4.83 94.3990797 4.452 94.1226645 4.318 93.890897 4.318L93.2532857 4.318C92.8981096 4.318 92.6512924 4.565 92.6512924 4.9185L92.6618272 5.012C92.7205216 5.261 92.8273754 5.6365 92.987907 6.16 93.1439236 6.6695 93.3290365 7.26 93.5407375 7.932 93.7549468 8.604 93.9847076 9.318 94.2330299 10.074 94.4813522 10.83 94.7251595 11.568 94.9664585 12.2895 95.2082591 13.01 95.43501 13.6785 95.6477143 14.2935 95.8614219 14.9115 96.0395116 15.412 96.1769668 15.7825 96.2657608 16.048 96.4573953 16.229 96.7047143 16.2925 96.5266246 16.752 96.3580664 17.14 96.2020498 17.447 96.0370033 17.7695 95.8639302 18.0245 95.6883488 18.206 95.5283189 18.3705 95.3572525 18.486 95.1776578 18.549 94.9815083 18.618 94.7351927 18.6525 94.4437276 18.6525 94.1527641 18.6525 93.865814 18.6335 93.5979269 18.595 93.5582957 18.589 93.5231794 18.5855 93.4905714 18.5855 93.2056279 18.5855 92.9914186 18.8 92.9914186 19.0835L92.9914186 19.6345C92.9914186 19.944 93.1800432 20.113 93.3536179 20.1695 93.4684983 20.212 93.6305349 20.238 93.8853787 20.255 94.1081163 20.2695 94.3082791 20.2775 94.4858671 20.2775 95.0808372 20.2775 95.5905249 20.183 96.0038937 19.997 96.4257907 19.8075 96.8045449 19.494 97.1296213 19.066 97.4326246 18.6655 97.7210797 18.137 97.9884651 17.4935 98.2438106 16.878 98.5327674 16.104 98.8463056 15.1945 98.9742292 14.826 99.1342591 14.3515 99.326897 13.77 99.5150199 13.1985 99.7171894 12.583 99.9429369 11.8955 100.162664 11.224 100.386405 10.531 100.613156 9.8175 100.840409 9.1025 101.049601 8.431 101.241738 7.8015 101.430864 7.1795 101.596412 6.6085 101.732864 6.106 101.871322 5.596 101.96112 5.2325 102.006269 4.994L102.013794 4.9195C102.013292 4.5645 101.774 4.3175 101.431365 4.3175L101.431365 4.3175zM112.493495 5.5285C112.090159 5.031 111.532814 4.662 110.835505 4.434 110.173312 4.2165 109.315472 4.106 108.28506 4.106 107.689086 4.106 107.123213 4.143 106.60299 4.2165 106.100326 4.287 105.593648 4.373 105.097003 4.471 104.770924 4.517 104.560728 4.756 104.560728 5.088L104.560728 19.8265C104.560728 20.1925 104.817076 20.4485 105.183791 20.4485L105.736621 20.4485C106.104339 20.4485 106.360186 20.1925 106.360186 19.8265L106.360186 16.3055C106.587439 16.3395 106.833252 16.371 107.094618 16.399 107.503472 16.4425 107.882728 16.465 108.22185 16.465 109.235206 16.465 110.092545 16.323 110.769787 16.0415 111.469605 15.7515 112.032468 15.3125 112.444332 14.7375 112.845661 14.175 113.130103 13.465 113.28913 12.627 113.441635 11.8225 113.51889 10.8745 113.51889 9.809 113.51889 8.8695 113.448156 8.045 113.309196 7.357 113.161206 6.6305 112.886797 6.0155 112.493495 5.5285L112.493495 5.5285zM108.243924 14.819C107.892761 14.819 107.52404 14.795 107.146791 14.7475 106.833754 14.709 106.564864 14.667 106.360688 14.6275L106.360688 5.9195C106.567874 5.8685 106.807668 5.829 107.075053 5.802 107.401635 5.768 107.808983 5.7505 108.285561 5.7505 108.967821 5.7505 109.542223 5.814 109.993216 5.937 110.406585 6.051 110.727146 6.242 110.971455 6.521 111.220279 6.8045 111.399874 7.2015 111.505223 7.7005 111.619601 8.244 111.677292 8.953 111.677292 9.808 111.677292 10.714 111.62512 11.509 111.521777 12.17 111.42596 12.794 111.249375 13.3115 110.997542 13.707 110.757246 14.0835 110.436183 14.354 110.013784 14.5335 109.572824 14.7225 108.976349 14.819 108.243924 14.819L108.243924 14.819zM124.852419 10.6595C125.044555 10.4825 125.122814 10.1805 125.122814 9.6175L125.122814 9.3C125.122814 8.5775 125.074153 7.9045 124.979339 7.299 124.878003 6.657 124.667306 6.0925 124.352764 5.622 124.025681 5.1345 123.555123 4.754 122.954635 4.4895 122.373711 4.235 121.606671 4.1055 120.675588 4.1055 119.732967 4.1055 118.94285 4.2715 118.326309 4.598 117.705252 4.927 117.204093 5.388 116.833867 5.968 116.473674 6.532 116.222342 7.2055 116.085389 7.969 115.954957 8.703 115.888236 9.507 115.888236 10.3585 115.888236 11.182 115.950944 11.974 116.074352 12.7125 116.203279 13.4885 116.472169 14.178 116.874 14.761 117.281349 15.3555 117.854246 15.8295 118.57714 16.17 119.288495 16.5055 120.230113 16.6755 121.375907 16.6755 122.545781 16.6755 123.594754 16.4785 124.512292 16.0815 124.779678 15.9485 124.91914 15.692 124.883522 15.376L124.816801 14.957C124.772153 14.732 124.618645 14.5655 124.405439 14.512 124.354771 14.5 124.301595 14.4935 124.248419 14.4935 124.154608 14.4935 124.058791 14.5125 123.95294 14.5555 123.654953 14.685 123.286233 14.7935 122.856811 14.8785 122.426385 14.965 121.985425 15.0085 121.54597 15.0085 120.775419 15.0085 120.131286 14.92 119.632635 14.746 119.155555 14.5785 118.787336 14.333 118.50791 13.9935 118.224973 13.6505 118.020296 13.206 117.9009 12.672 117.787525 12.1675 117.724316 11.5715 117.711774 10.895L124.159625 10.895C124.448581 10.896 124.681352 10.8165 124.852419 10.6595L124.852419 10.6595zM120.675588 5.7085C121.241462 5.7085 121.708508 5.781 122.061678 5.922 122.397791 6.0575 122.653136 6.2455 122.842764 6.497 123.036907 6.7555 123.172355 7.083 123.245598 7.47 123.325864 7.8965 123.365997 8.3905 123.365997 8.9395 123.365997 9.102 123.361983 9.2145 123.35797 9.292L117.713279 9.292C117.725821 8.884 117.768963 8.4775 117.840701 8.0805 117.922973 7.6245 118.073973 7.211 118.288684 6.852 118.493864 6.5095 118.778306 6.2385 119.157561 6.0255 119.531299 5.8155 120.042492 5.7085 120.675588 5.7085L120.675588 5.7085zM92.1847475 1.2475L83.2115349 1.2475C82.8478306 1.2475 82.5934884 1.501 82.5934884 1.863L82.5934884 2.3245C82.5934884 2.687 82.8483322 2.956 83.2115349 2.956L86.7763389 2.956 86.7763389 15.842C86.7763389 16.2075 87.033691 16.4635 87.3999037 16.4635L87.9948738 16.4635C88.3620897 16.4635 88.6184385 16.2075 88.6184385 15.842L88.6184385 2.956 92.1842458 2.956C92.5474485 2.956 92.8017907 2.687 92.8017907 2.3245L92.8017907 1.863C92.8022924 1.501 92.5474485 1.2475 92.1847475 1.2475L92.1847475 1.2475z"/>
    </g>
  </g>
</svg>
