<svg width="28" height="30" viewBox="0 0 28 30" fill="none" xmlns="http://www.w3.org/2000/svg">
  <path d="M11.7719 23.391C10.2993 23.0115 8.9561 22.2422 7.88366 21.164C6.9136 20.1911 6.18817 19.002 5.76698 17.6943C5.34579 16.3866 5.24084 14.9976 5.46076 13.6414L1.50127 12.5547C1.38713 12.8646 1.30214 13.1844 1.2474 13.51L0.100526 17.0731C-0.037237 17.6113 -0.0333435 18.1759 0.111827 18.7121C0.256998 19.2483 0.538502 19.7378 0.928946 20.1329L3.73266 22.6828C4.11569 23.0012 4.62343 23.5112 5.06882 23.9566C5.57878 24.4666 6.02417 24.9119 6.34262 25.2928L8.89246 28.0965C9.28535 28.4903 9.77474 28.7741 10.3117 28.9194C10.8487 29.0648 11.4144 29.0667 11.9523 28.9249L15.5154 27.778C15.8293 27.6767 16.1482 27.5912 16.4707 27.5219L15.3862 23.5691C14.1841 23.7935 12.9461 23.7325 11.7719 23.391Z" fill="#666666"/>
  <path d="M25.7965 20.1382C25.9235 19.6282 26.0504 18.9913 26.2419 18.2898C26.4334 17.6529 26.625 16.9537 26.7519 16.5083L27.8988 12.9452C28.0365 12.407 28.0326 11.8424 27.8875 11.3062C27.7423 10.77 27.4608 10.2805 27.0704 9.88538L24.2666 7.3244C24.0475 7.09646 23.8131 6.88367 23.5652 6.6875L20.6969 9.55579C21.547 10.628 22.1386 11.8816 22.426 13.2194C22.7133 14.5572 22.6886 15.9432 22.3537 17.2699C22.005 18.5992 21.3425 19.8254 20.4218 20.8457C19.5011 21.866 18.3491 22.6505 17.0625 23.1334L18.147 27.0862C18.4601 26.9979 18.7795 26.9339 19.1024 26.8947L22.7991 26.1309C23.3377 25.9973 23.8297 25.7194 24.2221 25.327C24.6145 24.9346 24.8925 24.4426 25.026 23.9039L25.7965 20.1382Z" fill="#B3B3B3"/>
  <path d="M11.7741 6.6912C13.2342 6.31002 14.7678 6.31002 16.228 6.6912C17.4018 6.99536 18.4914 7.56185 19.4147 8.34804L22.3543 5.41517C22.1004 5.1613 21.9089 4.9052 21.7174 4.71368L19.1675 1.90997C18.7746 1.51616 18.2852 1.23237 17.7483 1.087C17.2113 0.94162 16.6456 0.939743 16.1077 1.08155L12.5446 2.22842C11.9447 2.45243 11.3262 2.62308 10.6963 2.73839C10.0593 2.92991 9.36009 3.05684 8.8479 3.18378L5.21354 4.0122C4.67491 4.14576 4.18291 4.4237 3.79051 4.81611C3.39811 5.20851 3.12017 5.70051 2.9866 6.23913L2.22277 9.93585C2.15893 10.1912 2.09509 10.5097 2.03125 10.8912L5.98406 11.9757C6.4514 10.6932 7.22206 9.54278 8.23027 8.62259C9.23848 7.7024 10.4543 7.03976 11.7741 6.6912Z" fill="#333333"/>
</svg>
