<svg aria-hidden="true" style="position: absolute; width: 0; height: 0; overflow: hidden;" version="1.1" xmlns="http://www.w3.org/2000/svg" xmlns:xlink="http://www.w3.org/1999/xlink">
<defs>
<symbol id="ic_add" viewBox="0 0 32 32">
<path d="M14.667 14.667v-4.667c0-0.368 0.298-0.667 0.667-0.667v0h1.333c0.368 0 0.667 0.298 0.667 0.667v0 4.667h4.667c0.368 0 0.667 0.298 0.667 0.667v0 1.333c0 0.368-0.298 0.667-0.667 0.667v0h-4.667v4.667c0 0.368-0.298 0.667-0.667 0.667v0h-1.333c-0.368 0-0.667-0.298-0.667-0.667v0-4.667h-4.667c-0.368 0-0.667-0.298-0.667-0.667v0-1.333c0-0.368 0.298-0.667 0.667-0.667v0h4.667zM16 4c6.628 0 12 5.373 12 12.001s-5.373 12.001-12.001 12.001c-0 0-0 0-0.001 0h0c-6.627-0-12-5.373-12-12.001s5.373-12.001 12.001-12.001c0 0 0 0 0.001 0h-0zM16 6.667c-5.147 0-9.333 4.188-9.333 9.333 0 5.147 4.187 9.333 9.333 9.333s9.333-4.187 9.333-9.333c0-5.145-4.187-9.333-9.333-9.333z"></path>
</symbol>
<symbol id="ic_addhtml" viewBox="0 0 32 32">
<path d="M17.023 17.445l-2.948 2.948 2.977 2.977-1.052 1.052-4-4 4-4 1.023 1.023zM18.201 23.496l3.103-3.103-3.073-3.073 0.897-0.897 4 4-4 4-0.927-0.927zM10.787 2.667h13.221c1.468 0 2.657 1.197 2.657 2.655v21.357c0 1.465-1.193 2.655-2.659 2.655h-16.016c-1.468 0-2.659-1.196-2.659-2.665v-18.725l5.453-5.276zM11.585 5.333l-0.133 3.475h-3.453v17.859h16v-21.333h-12.413z"></path>
</symbol>
<symbol id="ic_addpage" viewBox="0 0 32 32">
<path d="M20.667 21.333v-3.333h-1.333v3.333h-3.333v1.333h3.333v3.333h1.333v-3.333h3.333v-1.333h-3.333zM10.787 2.667h13.221c1.468 0 2.657 1.197 2.657 2.655v21.357c0 1.465-1.193 2.655-2.659 2.655h-16.016c-1.468 0-2.659-1.196-2.659-2.665v-18.725l5.453-5.276zM12 5.333l-4 4h4v-4z"></path>
</symbol>
<symbol id="ic_aligncenter" viewBox="0 0 32 32">
<path d="M14.667 17.333v-2.667h-10c-0.368 0-0.667-0.287-0.667-0.653v-4.025c0-0.361 0.304-0.653 0.667-0.653h10v-3.339c0-0.365 0.285-0.661 0.673-0.661h1.321c0.372 0 0.673 0.301 0.673 0.661v3.339h10c0.368 0 0.667 0.287 0.667 0.653v4.025c0 0.361-0.304 0.653-0.667 0.653h-10v2.667h3.333c0.368 0 0.667 0.287 0.667 0.653v4.025c0 0.361-0.308 0.653-0.667 0.653h-3.333v3.339c0 0.365-0.285 0.661-0.673 0.661h-1.321c-0.372 0-0.673-0.301-0.673-0.661v-3.339h-3.333c-0.368 0-0.667-0.287-0.667-0.653v-4.025c0-0.361 0.308-0.653 0.667-0.653h3.333z"></path>
</symbol>
<symbol id="ic_alignleft" viewBox="0 0 32 32">
<path d="M10.667 8.653c0-0.361 0.305-0.653 0.667-0.653h14.665c0.368 0 0.667 0.287 0.667 0.653v4.025c0 0.361-0.305 0.653-0.667 0.653h-14.665c-0.368 0-0.667-0.287-0.667-0.653v-4.025zM5.333 5.995c0-0.365 0.285-0.661 0.673-0.661h1.321c0.372 0 0.673 0.301 0.673 0.661v20.009c0 0.365-0.285 0.661-0.673 0.661h-1.321c-0.372 0-0.673-0.301-0.673-0.661v-20.009zM10.667 19.32c0-0.361 0.308-0.653 0.667-0.653h9.332c0.368 0 0.667 0.287 0.667 0.653v4.025c0 0.361-0.308 0.653-0.667 0.653h-9.332c-0.368 0-0.667-0.287-0.667-0.653v-4.025z"></path>
</symbol>
<symbol id="ic_alignnone" viewBox="0 0 32 32">
<path d="M5.333 8.653c0-0.361 0.301-0.653 0.661-0.653h20.009c0.365 0 0.661 0.287 0.661 0.653v4.025c0 0.361-0.301 0.653-0.661 0.653h-20.009c-0.365 0-0.661-0.287-0.661-0.653v-4.025zM5.333 19.32c0-0.361 0.308-0.653 0.667-0.653h9.332c0.368 0 0.667 0.287 0.667 0.653v4.025c0 0.361-0.308 0.653-0.667 0.653h-9.332c-0.368 0-0.667-0.287-0.667-0.653v-4.025z"></path>
</symbol>
<symbol id="ic_alignright" viewBox="0 0 32 32">
<path d="M5.333 8.653c0-0.361 0.305-0.653 0.667-0.653h14.665c0.368 0 0.667 0.287 0.667 0.653v4.025c0 0.361-0.305 0.653-0.667 0.653h-14.665c-0.368 0-0.667-0.287-0.667-0.653v-4.025zM10.667 19.32c0-0.361 0.308-0.653 0.667-0.653h9.332c0.368 0 0.667 0.287 0.667 0.653v4.025c0 0.361-0.308 0.653-0.667 0.653h-9.332c-0.368 0-0.667-0.287-0.667-0.653v-4.025zM24 5.995c0-0.365 0.285-0.661 0.673-0.661h1.321c0.372 0 0.673 0.301 0.673 0.661v20.009c0 0.365-0.285 0.661-0.673 0.661h-1.321c-0.372 0-0.673-0.301-0.673-0.661v-20.009z"></path>
</symbol>
<symbol id="ic_asset" viewBox="0 0 32 32">
<path d="M21.139 4.195c-0.12-0.12-0.287-0.195-0.472-0.195h-9.333c-0.184 0-0.351 0.075-0.472 0.195-0.12 0.12-0.195 0.287-0.195 0.472v2.667c0 0.368 0.299 0.667 0.667 0.667s0.667-0.299 0.667-0.667v-2h8v2c0 0.368 0.299 0.667 0.667 0.667s0.667-0.299 0.667-0.667v-2.667c0-0.184-0.075-0.351-0.195-0.472zM5.333 9.333h21.333c1.473 0 2.667 1.193 2.667 2.667v13.333c0 1.473-1.193 2.667-2.667 2.667h-21.333c-1.473 0-2.667-1.193-2.667-2.667v-13.333c0-1.473 1.193-2.667 2.667-2.667z"></path>
</symbol>
<symbol id="ic_audio" viewBox="0 0 32 32">
<path d="M26.527 4.992h-0.011c-0.052-0.427-0.437-0.76-0.909-0.76-0.168 0-0.323 0.045-0.459 0.117l-0.008-0.013-12.535 6.744h-6.436v0.016l-0.016-0.001c-0.375 0-0.677 0.283-0.677 0.631v8.549c0 0.348 0.304 0.631 0.677 0.631l0.016-0.001v0.017h6.436l5.121 2.753v-0.013l7.355 3.953c0.149 0.096 0.329 0.153 0.524 0.153 0.508 0 0.92-0.384 0.92-0.856l-0.011-0.096h0.011v-21.824z"></path>
</symbol>
<symbol id="ic_backgroundcolor" viewBox="0 0 32 32">
<path d="M13.845 18.040h4.24l-2.063-6.005h-0.045l-2.132 6.005zM6.667 4h18.667c1.473 0 2.667 1.194 2.667 2.667v0 18.667c0 1.473-1.194 2.667-2.667 2.667v0h-18.667c-1.473 0-2.667-1.194-2.667-2.667v0-18.667c0-1.473 1.194-2.667 2.667-2.667v0zM14.189 8l-6.189 16.367h3.621l1.284-3.644h6.12l1.239 3.644h3.736l-6.12-16.367h-3.691z"></path>
</symbol>
<symbol id="ic_blank" viewBox="0 0 32 32">
<path d="M13.845 18.040h4.24l-2.063-6.005h-0.045l-2.132 6.005zM6.667 4h18.667c1.473 0 2.667 1.194 2.667 2.667v0 18.667c0 1.473-1.194 2.667-2.667 2.667v0h-18.667c-1.473 0-2.667-1.194-2.667-2.667v0-18.667c0-1.473 1.194-2.667 2.667-2.667v0zM14.189 8l-6.189 16.367h3.621l1.284-3.644h6.12l1.239 3.644h3.736l-6.12-16.367h-3.691z"></path>
</symbol>
<symbol id="ic_bold" viewBox="0 0 32 32">
<path d="M24.060 10.6c0-2.503-2.128-5.267-5.609-5.267h-11.016c-0.569 0-0.768 0.32-0.768 0.863v19.72c0 0.541 0.272 0.751 0.841 0.751h11.312c4.148 0 6.513-2.751 6.513-5.789 0-3.075-1.928-5.257-3.947-5.693 1.2-0.545 2.675-2.081 2.675-4.584zM16.959 9.333c1.156 0 1.996 0.909 1.996 2 0 0.925-0.693 2-1.996 2h-6.027v-4h6.027zM10.932 22v-4h7.427c1.196 0 1.963 1.033 1.963 2 0 1.264-1.053 2-1.963 2h-7.427z"></path>
</symbol>
<symbol id="ic_box" viewBox="0 0 32 32">
<path d="M26.667 9.984v15.349c0 1.473-1.193 2.667-2.667 2.667h-16c-1.473 0-2.667-1.193-2.667-2.667v-15.349c0-0.428 0.103-0.848 0.3-1.228l2.032-3.917c0.203-0.507 0.693-0.839 1.239-0.839h14.193c0.545 0 1.036 0.332 1.237 0.839l2.032 3.917c0.197 0.38 0.3 0.8 0.3 1.228zM12 13.333c-0.736 0-1.333 0.597-1.333 1.333s0.597 1.333 1.333 1.333h8c0.736 0 1.333-0.597 1.333-1.333s-0.597-1.333-1.333-1.333h-8zM22.917 5.333h-13.832c-0.109 0-0.207 0.067-0.248 0.168l-1 2.504c0.053-0.003 16.275-0.003 16.329 0l-1.001-2.504c-0.040-0.101-0.139-0.168-0.248-0.168z"></path>
</symbol>
<symbol id="ic_build" viewBox="0 0 32 32">
<path d="M26.667 9.984v15.349c0 1.473-1.193 2.667-2.667 2.667h-16c-1.473 0-2.667-1.193-2.667-2.667v-15.349c0-0.428 0.103-0.848 0.3-1.228l2.032-3.917c0.203-0.507 0.693-0.839 1.239-0.839h14.193c0.545 0 1.036 0.332 1.237 0.839l2.032 3.917c0.197 0.38 0.3 0.8 0.3 1.228zM12 13.333c-0.736 0-1.333 0.597-1.333 1.333s0.597 1.333 1.333 1.333h8c0.736 0 1.333-0.597 1.333-1.333s-0.597-1.333-1.333-1.333h-8zM22.917 5.333h-13.832c-0.109 0-0.207 0.067-0.248 0.168l-1 2.504c0.053-0.003 16.275-0.003 16.329 0l-1.001-2.504c-0.040-0.101-0.139-0.168-0.248-0.168z"></path>
</symbol>
<symbol id="ic_category" viewBox="0 0 32 32">
<path d="M10 13.333h7.333v-2c0-0.368 0.299-0.667 0.667-0.667h6.667c0.368 0 0.667 0.299 0.667 0.667v6.667c0 0.368-0.299 0.667-0.667 0.667h-6.667c-0.368 0-0.667-0.299-0.667-0.667v-2.667h-7.333v7.333h7.333v-2c0-0.368 0.299-0.667 0.667-0.667h6.667c0.368 0 0.667 0.299 0.667 0.667v6.667c0 0.368-0.299 0.667-0.667 0.667h-6.667c-0.368 0-0.667-0.299-0.667-0.667v-2.667h-8.667c-0.368 0-0.667-0.299-0.667-0.667v-12.667l0.013-0.133h-2.013c-0.368 0-0.667-0.299-0.667-0.667v-5.867c0-0.368 0.299-0.667 0.667-0.667h5.867c0.368 0 0.667 0.299 0.667 0.667v5.867c0 0.368-0.299 0.667-0.667 0.667h-1.88l0.013 0.133v2zM20 13.333v2.667h2.667v-2.667h-2.667zM20 22.667v2.667h2.667v-2.667h-2.667z"></path>
</symbol>
<symbol id="ic_caution" viewBox="0 0 32 32">
<path d="M16 14.115l-3.771-3.771-1.885 1.885 3.771 3.771-3.771 3.771 1.885 1.885 3.771-3.771 3.771 3.771 1.885-1.885-3.771-3.771 3.771-3.771-1.885-1.885-3.771 3.771zM16 28c-6.628 0-12-5.372-12-12s5.372-12 12-12 12 5.372 12 12-5.372 12-12 12z"></path>
</symbol>
<symbol id="ic_checkbox" viewBox="0 0 32 32">
<path d="M21.704 4l-2.667 2.667h-12.371v18.667h18.667v-9.877l2.667-2.667v12.551c0 1.469-1.191 2.66-2.66 2.66h-18.68c-1.469 0-2.66-1.191-2.66-2.66v-18.68c0-1.469 1.191-2.66 2.66-2.66h15.044zM27.853 8.164c0.196 0.196 0.196 0.513 0 0.711l-12.717 12.717c-0.099 0.099-0.227 0.147-0.355 0.147l-0.016-0.003-0.017 0.003c-0.133 0-0.261-0.053-0.355-0.147l-4.912-4.911c-0.095-0.095-0.147-0.223-0.147-0.355 0-0.133 0.053-0.261 0.147-0.355l2.684-2.684c0.196-0.196 0.515-0.196 0.711 0l1.889 1.889 9.696-9.696c0.095-0.095 0.221-0.147 0.355-0.147s0.261 0.053 0.355 0.147l2.683 2.684z"></path>
</symbol>
<symbol id="ic_clock" viewBox="0 0 32 32">
<path d="M15.768 19.452c0.013-0.011 0.024-0.023 0.036-0.034l1.334-1.334c0.121-0.12 0.196-0.287 0.196-0.471v-8.947c0-0.368-0.298-0.667-0.667-0.667v0h-1.333c-0.368 0-0.667 0.298-0.667 0.667v0 8.141c-0.043 0.027-0.080 0.057-0.113 0.091l0-0-3.415 3.411c-0.121 0.121-0.196 0.288-0.196 0.472 0 0.183 0.074 0.349 0.193 0.469l-0-0 0.941 0.949c0.121 0.121 0.287 0.195 0.471 0.195s0.351-0.075 0.471-0.195l2.747-2.748zM16 4c6.628 0.001 12 5.374 12 12.001s-5.373 12.001-12.001 12.001c-0 0-0.001 0-0.001 0h0c-6.628-0.001-12-5.374-12-12.001s5.373-12.001 12.001-12.001c0 0 0.001 0 0.001 0h-0z"></path>
</symbol>
<symbol id="ic_code" viewBox="0 0 32 32">
<path d="M20.533 20.653l2.013 2.013 6.667-6.667-6.667-6.667-1.965 1.965 4.653 4.653-4.701 4.701zM12.632 11.299l-1.965-1.965-6.667 6.667 6.667 6.667 2.013-2.013-4.701-4.701 4.653-4.653zM18.928 8l1.236 0.5-5.993 14.835-1.236-0.5 5.993-14.835z"></path>
</symbol>
<symbol id="ic_collapse" viewBox="0 0 32 32">
<path d="M21.041 24.292l-4.653-4.653-4.701 4.701-2.013-2.013 6.667-6.667 6.667 6.667-1.965 1.965zM21.041 16.292l-4.653-4.653-4.701 4.701-2.013-2.013 6.667-6.667 6.667 6.667-1.965 1.965z"></path>
</symbol>
<symbol id="ic_comment" viewBox="0 0 32 32">
<path d="M9.333 22.667h5.333c1.473 0 2.667-1.193 2.667-2.667v-1.333h1.333v-5.333c0-1.473-1.193-2.667-2.667-2.667h-5.333v1.333h4c1.473 0 2.667 1.193 2.667 2.667v4h4l1.528 1.528c0.26 0.26 0.683 0.26 0.943 0 0.125-0.125 0.195-0.295 0.195-0.472v-1.057c1.473 0 2.667-1.193 2.667-2.667v-6.667c0-1.473-1.193-2.667-2.667-2.667h-10.667c-1.473 0-2.667 1.193-2.667 2.667v2.667h-4c-1.473 0-2.667 1.193-2.667 2.667v5.333c0 1.473 1.193 2.667 2.667 2.667v1.057c0 0.177 0.071 0.347 0.195 0.472 0.26 0.26 0.683 0.26 0.943 0l1.528-1.528z"></path>
</symbol>
<symbol id="ic_contentdata" viewBox="0 0 32 32">
<path d="M5.333 6.013c0-0.375 0.304-0.68 0.68-0.68h11.975c0.375 0 0.68 0.304 0.68 0.68v11.975c0 0.375-0.304 0.68-0.68 0.68h-11.975c-0.375 0-0.68-0.304-0.68-0.68v-11.975zM21.333 6.013c0-0.375 0.287-0.68 0.653-0.68h4.025c0.361 0 0.653 0.304 0.653 0.68v11.975c0 0.375-0.287 0.68-0.653 0.68h-4.025c-0.361 0-0.653-0.304-0.653-0.68v-11.975zM5.333 21.988c0-0.361 0.287-0.653 0.653-0.653h4.025c0.361 0 0.653 0.287 0.653 0.653v4.025c0 0.361-0.287 0.653-0.653 0.653h-4.025c-0.361 0-0.653-0.287-0.653-0.653v-4.025zM13.333 21.988c0-0.361 0.287-0.653 0.653-0.653h4.025c0.361 0 0.653 0.287 0.653 0.653v4.025c0 0.361-0.287 0.653-0.653 0.653h-4.025c-0.361 0-0.653-0.287-0.653-0.653v-4.025zM21.333 21.988c0-0.361 0.287-0.653 0.653-0.653h4.025c0.361 0 0.653 0.287 0.653 0.653v4.025c0 0.361-0.287 0.653-0.653 0.653h-4.025c-0.361 0-0.653-0.287-0.653-0.653v-4.025z"></path>
</symbol>
<symbol id="ic_contentstype" viewBox="0 0 32 32">
<path d="M4 6.66c0-1.469 1.191-2.66 2.66-2.66h18.68c1.469 0 2.66 1.191 2.66 2.66v18.68c0 1.469-1.191 2.66-2.66 2.66h-18.68c-1.469 0-2.66-1.191-2.66-2.66v-18.68zM9.333 9.333h13.333v8h-13.333v-8zM9.333 20.667c0-1.104 0.888-2 2-2 1.104 0 2 0.888 2 2 0 1.104-0.888 2-2 2-1.104 0-2-0.888-2-2zM14.667 18.667h8v4h-8v-4zM25.333 25.333v-18.667h-18.667v18.667h18.667z"></path>
</symbol>
<symbol id="ic_crop" viewBox="0 0 32 32">
<path d="M21.333 21.333v-10.667h-18c-0.368 0-0.667-0.299-0.667-0.667v-1.333c0-0.368 0.299-0.667 0.667-0.667h4.667v-4.667c0-0.368 0.299-0.667 0.667-0.667h1.333c0.368 0 0.667 0.299 0.667 0.667v4.667h12.667c0.368 0 0.667 0.299 0.667 0.667v12.667h4.667c0.368 0 0.667 0.299 0.667 0.667v1.333c0 0.368-0.299 0.667-0.667 0.667h-20c-0.368 0-0.667-0.299-0.667-0.667v-10.667c0-0.368 0.299-0.667 0.667-0.667h1.333c0.368 0 0.667 0.299 0.667 0.667v8.667h10.667zM22 25.333h1.333c0.368 0 0.667 0.299 0.667 0.667v2.667c0 0.368-0.299 0.667-0.667 0.667h-1.333c-0.368 0-0.667-0.299-0.667-0.667v-2.667c0-0.368 0.299-0.667 0.667-0.667z"></path>
</symbol>
<symbol id="ic_crossoff" viewBox="0 0 32 32">
<path d="M19.251 14.667h2.189c0.061-0.381 0.152-0.721 0.276-1.045l-0.012 0.036c0.224-0.597 0.547-1.12 0.965-1.564 0.419-0.445 0.933-0.795 1.545-1.047 0.611-0.253 1.297-0.38 2.061-0.38 0.551 0 1.071 0.075 1.56 0.223s0.927 0.364 1.313 0.648c0.387 0.284 0.707 0.635 0.959 1.053 0.251 0.419 0.409 0.899 0.475 1.44h-2.125c-0.039-0.245-0.128-0.464-0.256-0.654l0.004 0.006c-0.136-0.201-0.298-0.373-0.484-0.514l-0.005-0.004c-0.396-0.294-0.895-0.471-1.435-0.471-0.002 0-0.004 0-0.005 0h0c-0.493 0-0.913 0.089-1.257 0.268-0.34 0.174-0.621 0.418-0.835 0.713l-0.005 0.007c-0.208 0.293-0.369 0.636-0.462 1.006l-0.005 0.021c-0.023 0.085-0.043 0.171-0.059 0.257h6.347c0.368 0 0.667 0.298 0.667 0.667s-0.298 0.667-0.667 0.667v0h-6.419c0.021 0.253 0.065 0.503 0.129 0.747 0.099 0.371 0.253 0.705 0.468 1.001 0.215 0.297 0.493 0.533 0.84 0.713 0.344 0.179 0.764 0.268 1.257 0.268 0.672 0 1.196-0.192 1.573-0.576s0.608-0.889 0.693-1.517h2.124c-0.056 0.584-0.2 1.112-0.433 1.583-0.46 0.932-1.262 1.636-2.238 1.956l-0.027 0.008c-0.512 0.173-1.076 0.261-1.692 0.261-0.024 0-0.053 0.001-0.082 0.001-0.712 0-1.393-0.137-2.016-0.387l0.037 0.013c-0.605-0.242-1.12-0.59-1.546-1.026l-0.001-0.001c-0.41-0.429-0.738-0.941-0.954-1.508l-0.010-0.031c-0.172-0.443-0.287-0.956-0.321-1.49l-0.001-0.015h-1.537l0.020 0.027c0.304 0.415 0.455 0.915 0.455 1.499 0 0.472-0.097 0.88-0.293 1.224-0.196 0.345-0.459 0.627-0.789 0.844-0.325 0.214-0.703 0.381-1.109 0.479l-0.025 0.005c-0.39 0.1-0.837 0.157-1.298 0.157-0.003 0-0.006 0-0.009 0h-4.838v-4.235h-2.557l1.691 4.235h-2.279l-0.755-2.080h-3.733l-0.783 2.080h-2.209l1.711-4.235h-1.044c-0.368 0-0.667-0.298-0.667-0.667s0.298-0.667 0.667-0.667v0h1.583l1.524-3.777h2.253l1.507 3.777h3.093v-3.777h4.699c0.475 0 0.908 0.040 1.3 0.117 0.392 0.080 0.727 0.208 1.007 0.387s0.496 0.416 0.651 0.713c0.153 0.296 0.231 0.663 0.231 1.1 0 0.471-0.115 0.863-0.343 1.177-0.077 0.105-0.16 0.197-0.251 0.281l-0.001 0.001zM14.155 14.667h2.387c0.319-0.021 0.585-0.107 0.8-0.256 0.253-0.175 0.379-0.459 0.379-0.851 0.001-0.012 0.001-0.027 0.001-0.041 0-0.182-0.047-0.353-0.13-0.501l0.003 0.005c-0.082-0.137-0.195-0.248-0.33-0.324l-0.004-0.002c-0.139-0.078-0.302-0.135-0.474-0.163l-0.008-0.001c-0.167-0.029-0.359-0.045-0.555-0.045-0.004 0-0.009 0-0.013 0h-2.054v2.18zM5.133 16l-0.236 0.623h2.587l-0.227-0.623h-2.124zM5.64 14.667h1.127l-0.54-1.473h-0.027l-0.56 1.473zM14.153 18.639h2.349c0.213 0 0.419-0.020 0.613-0.060 0.197-0.039 0.369-0.104 0.519-0.196s0.27-0.219 0.353-0.368l0.003-0.005c0.085-0.161 0.134-0.353 0.134-0.555 0-0.016-0-0.032-0.001-0.048l0 0.002c0-0.48-0.144-0.823-0.433-1.027-0.289-0.207-0.672-0.309-1.147-0.309h-2.391v2.567z"></path>
</symbol>
<symbol id="ic_customfield" viewBox="0 0 32 32">
<path d="M10.575 18.513c-0.785-0.171-1.517-0.48-2.172-0.9l-1.121 0.981-1.875-1.875 0.981-1.121c-0.42-0.655-0.729-1.388-0.9-2.172l-1.487-0.099v-2.652l1.487-0.099c0.171-0.785 0.48-1.517 0.9-2.172l-0.981-1.121 1.875-1.875 1.121 0.981c0.655-0.42 1.388-0.729 2.172-0.9l0.099-1.487h2.652l0.099 1.487c0.785 0.171 1.517 0.48 2.172 0.9l1.121-0.981 1.875 1.875-0.981 1.121c0.42 0.655 0.729 1.388 0.9 2.172l1.487 0.099v2.652l-1.487 0.099c-0.171 0.785-0.48 1.517-0.9 2.172l0.981 1.121-1.875 1.875-1.121-0.981c-0.655 0.42-1.388 0.729-2.172 0.9l-0.099 1.487h-2.652l-0.099-1.487zM19.876 26.156l-0.777 0.804-1.516-1.272 0.664-0.915c-0.553-0.747-0.888-1.665-0.912-2.66l-1.279-0.343 0.288-1.883 1.404 0.187c0.355-0.783 0.919-1.449 1.621-1.929l-0.428-1.352 1.804-0.611 0.56 1.201c0.227-0.033 0.459-0.052 0.696-0.052 0.747 0 1.453 0.176 2.080 0.488l0.788-0.815 1.516 1.272-0.66 0.909c0.565 0.748 0.911 1.672 0.94 2.675l1.245 0.333-0.288 1.883-1.359-0.18c-0.357 0.801-0.933 1.483-1.652 1.969l0.413 1.305-1.804 0.611-0.543-1.165c-0.221 0.032-0.448 0.049-0.679 0.049-0.765 0-1.487-0.184-2.124-0.511zM22 24c1.104 0 2-0.896 2-2s-0.896-2-2-2-2 0.896-2 2 0.896 2 2 2zM12 14.667c1.473 0 2.667-1.193 2.667-2.667s-1.193-2.667-2.667-2.667-2.667 1.193-2.667 2.667 1.193 2.667 2.667 2.667z"></path>
</symbol>
<symbol id="ic_dashboard" viewBox="0 0 32 32">
<path d="M17.891 15.017c0.48-0.603 0.776-1.433 0.776-2.351 0-1.84-1.193-3.333-2.667-3.333s-2.667 1.493-2.667 3.333c0 0.933 0.307 1.775 0.8 2.38l-0.427 0.245-2.657 1.52c-0.231 0.133-0.383 0.453-0.383 0.811v3.044c0 0.368 0.298 0.667 0.667 0.667v0h9.333c0.368 0 0.667-0.298 0.667-0.667v0-3.044c0-0.356-0.149-0.673-0.379-0.809l-3.064-1.796zM5.333 7.992c0-1.468 1.193-2.659 2.659-2.659h16.016c1.468 0 2.659 1.193 2.659 2.659v16.016c-0.001 1.468-1.191 2.658-2.659 2.659h-16.016c-1.468-0.001-2.658-1.191-2.659-2.659v-16.016z"></path>
</symbol>
<symbol id="ic_date" viewBox="0 0 32 32">
<path d="M4 12v13.321c0 1.476 1.191 2.679 2.66 2.679h18.68c1.469 0 2.66-1.2 2.66-2.679v-13.321h-24zM25.333 5.333h2c0.368 0 0.667 0.287 0.667 0.653v4.025c0 0.361-0.304 0.653-0.667 0.653h-22.667c-0.368 0-0.667-0.287-0.667-0.653v-4.025c0-0.361 0.304-0.653 0.667-0.653h2v1.333c0 0.741 0.603 1.333 1.345 1.333h2.641c0.755 0 1.345-0.597 1.345-1.333v-1.333h8v1.333c0 0.741 0.603 1.333 1.345 1.333h2.641c0.755 0 1.345-0.597 1.345-1.333v-1.333zM17.653 24.319c0 0.131-0.107 0.237-0.237 0.237h-1.96c-0.132 0-0.237-0.107-0.237-0.237v-6.459l-1.288 0.491-0.205-0.017c-0.063-0.036-0.104-0.1-0.113-0.172l-0.22-1.611c-0.013-0.101 0.039-0.2 0.129-0.244l2.809-1.389 0.105-0.024h0.979c0.131 0 0.237 0.107 0.237 0.237v9.188zM8 3.328c0-0.365 0.285-0.66 0.673-0.66h1.321c0.372 0 0.673 0.288 0.673 0.66v2.679c0 0.365-0.285 0.66-0.673 0.66h-1.321c-0.372 0-0.673-0.288-0.673-0.66v-2.679zM21.333 3.328c0-0.365 0.285-0.66 0.673-0.66h1.321c0.372 0 0.673 0.288 0.673 0.66v2.679c0 0.365-0.285 0.66-0.673 0.66h-1.321c-0.372 0-0.673-0.288-0.673-0.66v-2.679z"></path>
</symbol>
<symbol id="ic_design" viewBox="0 0 32 32">
<path d="M27.637 8.864l-3.679-3.679 0.963-0.963c0.26-0.26 0.683-0.26 0.943 0l2.735 2.735c0.26 0.26 0.26 0.683 0 0.943l-0.963 0.963zM26.705 9.796l-16.085 16.085-3.891 0.209 0.212-3.888 16.085-16.085 3.679 3.679zM16.645 22.251l3.325 3.325 4.597-4.597-2.112-2.112-1.208 1.208-1.213-1.213 3.047-3.047 4.717 4.717c0.26 0.26 0.26 0.683 0 0.943l-7.333 7.333c-0.26 0.26-0.683 0.26-0.943 0l-4.717-4.717 1.839-1.839zM10.668 16.273l-1.839 1.839-5.136-5.136c-0.26-0.26-0.26-0.683 0-0.943l7.333-7.333c0.26-0.26 0.683-0.26 0.943 0l5.136 5.136-3.328 3.328-1.544-1.544 1.489-1.489-2.2-2.2-4.597 4.597 3.743 3.743z"></path>
</symbol>
<symbol id="ic_dot" viewBox="0 0 32 32">
<path d="M28 16c0 6.627-5.373 12-12 12s-12-5.373-12-12c0-6.627 5.373-12 12-12s12 5.373 12 12z"></path>
</symbol>
<symbol id="ic_download" viewBox="0 0 32 32">
<path d="M17.333 18.324v-8.324c0-0.368-0.299-0.667-0.667-0.667h-1.333c-0.368 0-0.667 0.299-0.667 0.667v8.339l-2.976-2.976c-0.26-0.26-0.683-0.26-0.943 0l-0.943 0.943c-0.26 0.26-0.26 0.683 0 0.943l5.657 5.657c0.183 0.183 0.444 0.237 0.675 0.164 0.152-0.012 0.3-0.077 0.416-0.193l5.657-5.657c0.26-0.26 0.26-0.683 0-0.943l-0.943-0.943c-0.26-0.26-0.683-0.26-0.943 0l-2.991 2.991zM16 28c-6.628 0-12-5.372-12-12s5.372-12 12-12 12 5.372 12 12-5.372 12-12 12z"></path>
</symbol>
<symbol id="ic_draft" viewBox="0 0 32 32">
<path d="M12 4v-0.68c0-0.361 0.304-0.653 0.655-0.653h6.691c0.361 0 0.655 0.287 0.655 0.653v0.68h2.659c1.477 0 2.675 1.188 2.675 2.663v20.007c0 1.471-1.196 2.663-2.675 2.663h-13.317c-1.477 0-2.675-1.188-2.675-2.663v-20.007c0-1.471 1.196-2.663 2.675-2.663h2.659zM12 6.667h-2.667v20.267h13.6v-20.267h-2.933v0.68c0 0.361-0.304 0.653-0.655 0.653h-6.691c-0.361 0-0.655-0.287-0.655-0.653v-0.68zM12 18.667h8v1.333h-8v-1.333zM12 13.333h8v1.333h-8v-1.333zM12 16h8v1.333h-8v-1.333z"></path>
</symbol>
<symbol id="ic_duplicate" viewBox="0 0 32 32">
<path d="M21.333 6.667h-13.333v14.667h-2.667v-14.663c0-1.475 1.203-2.671 2.679-2.671h13.321v2.667zM10.667 12.008c0-1.477 1.203-2.675 2.679-2.675h10.644c1.479 0 2.679 1.196 2.679 2.675v13.317c0 1.477-1.203 2.675-2.679 2.675h-10.644c-1.479 0-2.679-1.196-2.679-2.675v-13.317zM13.333 12v13.333h10.667v-13.333h-10.667z"></path>
</symbol>
<symbol id="ic_edit" viewBox="0 0 32 32">
<path d="M17.172 6.667h-10.515c-1.465 0-2.659 1.191-2.659 2.659v16.016c0 1.465 1.191 2.659 2.659 2.659h16.016c1.465 0 2.659-1.191 2.659-2.659v-10.244l-3.2 3.111v6.592h-14.933v-14.933h6.683l3.292-3.2zM29.917 7.059c0.233 0.279 0.211 0.708-0.051 0.96l-12.312 11.868-0.008-0.011 0.003 0.015-5.983 1.379c-0.24 0.104-0.524 0.047-0.707-0.171-0.165-0.197-0.2-0.469-0.115-0.7h-0.001l1.928-6.287 0.040 0.013-0.024-0.029 12.312-11.868c0.261-0.252 0.663-0.231 0.897 0.047l4.020 4.783zM12.748 19.265l1.145-3.733 2.443 2.905-3.588 0.828z"></path>
</symbol>
<symbol id="ic_entry" viewBox="0 0 32 32">
<path d="M5.333 6.013c0-0.375 0.304-0.68 0.68-0.68h11.975c0.375 0 0.68 0.304 0.68 0.68v11.975c0 0.375-0.304 0.68-0.68 0.68h-11.975c-0.375 0-0.68-0.304-0.68-0.68v-11.975zM21.333 6.013c0-0.375 0.287-0.68 0.653-0.68h4.025c0.361 0 0.653 0.304 0.653 0.68v11.975c0 0.375-0.287 0.68-0.653 0.68h-4.025c-0.361 0-0.653-0.304-0.653-0.68v-11.975zM5.333 21.988c0-0.361 0.287-0.653 0.653-0.653h4.025c0.361 0 0.653 0.287 0.653 0.653v4.025c0 0.361-0.287 0.653-0.653 0.653h-4.025c-0.361 0-0.653-0.287-0.653-0.653v-4.025zM13.333 21.988c0-0.361 0.287-0.653 0.653-0.653h4.025c0.361 0 0.653 0.287 0.653 0.653v4.025c0 0.361-0.287 0.653-0.653 0.653h-4.025c-0.361 0-0.653-0.287-0.653-0.653v-4.025zM21.333 21.988c0-0.361 0.287-0.653 0.653-0.653h4.025c0.361 0 0.653 0.287 0.653 0.653v4.025c0 0.361-0.287 0.653-0.653 0.653h-4.025c-0.361 0-0.653-0.287-0.653-0.653v-4.025z"></path>
</symbol>
<symbol id="ic_eraser" viewBox="0 0 32 32">
<path d="M11.461 4.033h9.333c1.473 0 2.667 1.193 2.667 2.667v19.809c0 1.473-1.193 2.667-2.667 2.667h-9.333c-1.473 0-2.667-1.193-2.667-2.667v-19.809c0-1.473 1.193-2.667 2.667-2.667zM10.889 18.7v8.381h10.476v-8.381h-10.476z"></path>
</symbol>
<symbol id="ic_error" viewBox="0 0 32 32">
<path d="M29.236 25.789l0.001-0.001-0.045-0.077-0.069-0.12-12.117-20.988c-0.196-0.356-0.571-0.601-1.007-0.601-0.472 0-0.879 0.285-1.056 0.692h-0.001l-12.023 20.825 0.012 0.007c-0.163 0.199-0.264 0.449-0.264 0.725 0 0.637 0.516 1.155 1.153 1.155h24.359c0.637 0 1.153-0.516 1.153-1.153 0-0.164-0.036-0.32-0.097-0.461zM16.011 25.224c-0.924 0-1.672-0.725-1.672-1.649s0.748-1.672 1.672-1.672c0.901 0 1.649 0.748 1.649 1.672s-0.748 1.649-1.649 1.649zM17.66 10.639v9.104c0 0.377-0.305 0.673-0.673 0.673h-1.963c-0.377 0-0.683-0.296-0.683-0.673v-9.079l-0.003-0.025c0-0.359 0.279-0.641 0.623-0.668v-0.005h2.021c0.369 0.003 0.667 0.288 0.676 0.656h0.001v0.017z"></path>
</symbol>
<symbol id="ic_fav" viewBox="0 0 32 32">
<path d="M16 22.667l-7.837 4.12 1.497-8.727-6.341-6.18 8.763-1.273 3.919-7.94 3.919 7.94 8.763 1.273-6.341 6.18 1.497 8.727z"></path>
</symbol>
<symbol id="ic_feedback" viewBox="0 0 32 32">
<path d="M8 19.744h17.333v-10.463h-18.667v11.769l1.333-1.308zM9.333 22.36l-4.2 4.12c-0.263 0.257-0.685 0.253-0.943-0.009-0.123-0.124-0.191-0.292-0.191-0.467v-16.671c0-1.473 1.193-2.667 2.667-2.667h18.667c1.473 0 2.667 1.193 2.667 2.667v10.36c0 1.473-1.193 2.667-2.667 2.667h-16zM21.819 11.956c0.243 0.235 0.243 0.62 0 0.856l-5.589 5.447c-0.115 0.112-0.267 0.175-0.429 0.177h-0.024c-0.165 0-0.321-0.063-0.44-0.177l-3.82-3.723c-0.117-0.113-0.181-0.267-0.181-0.428 0-0.163 0.067-0.319 0.184-0.431l1.225-1.195c0.233-0.228 0.644-0.228 0.879 0l2.161 2.105 3.931-3.831c0.225-0.224 0.645-0.229 0.879 0l1.227 1.197z"></path>
</symbol>
<symbol id="ic_file" viewBox="0 0 32 32">
<path d="M10.787 2.667h13.221c1.468 0 2.657 1.197 2.657 2.655v21.357c0 1.465-1.193 2.655-2.659 2.655h-16.016c-1.468 0-2.659-1.196-2.659-2.665v-18.725l5.453-5.276zM11.585 5.333l-0.133 3.475h-3.453v17.859h16v-21.333h-12.413zM11.999 13.333h8v1.333h-8v-1.333zM11.999 16h8v1.333h-8v-1.333zM11.999 18.667h8v1.333h-8v-1.333z"></path>
</symbol>
<symbol id="ic_filter" viewBox="0 0 32 32">
<path d="M18.667 18.963v8.149c0 0.368-0.299 0.667-0.667 0.667l-0.199-0.031-4-1.252c-0.279-0.087-0.468-0.345-0.468-0.636v-6.897l-9.109-8.097c-0.143-0.127-0.224-0.308-0.224-0.499v-4.367c0-0.368 0.299-0.667 0.667-0.667h22.667c0.368 0 0.667 0.299 0.667 0.667v4.367c0 0.191-0.081 0.372-0.224 0.499l-9.109 8.097z"></path>
</symbol>
<symbol id="ic_flag" viewBox="0 0 32 32">
<path d="M4 4.677c0-0.375 0.288-0.677 0.66-0.677h2.679c0.365 0 0.66 0.303 0.66 0.677v23.979c0 0.375-0.288 0.677-0.66 0.677h-2.679c-0.365 0-0.66-0.303-0.66-0.677v-23.979zM9.333 4.668c0-0.369 0.301-0.668 0.659-0.668h16.017c0.364 0 0.552 0.279 0.419 0.625l-2.327 6.083c-0.132 0.345-0.132 0.904 0 1.251l2.327 6.083c0.132 0.345-0.061 0.625-0.419 0.625h-16.017c-0.364 0-0.659-0.307-0.659-0.668v-13.331z"></path>
</symbol>
<symbol id="ic_fliph" viewBox="0 0 32 32">
<path d="M13.333 7.129v18.871c0 0.368-0.299 0.667-0.667 0.667h-5.765c-0.368 0-0.667-0.299-0.667-0.667l0.029-0.195 5.765-18.871c0.108-0.352 0.48-0.551 0.832-0.443 0.28 0.085 0.472 0.344 0.472 0.637zM12 10.667l-4 14.667h4v-14.667zM19.971 6.935l5.765 18.871c0.108 0.352-0.091 0.725-0.443 0.832l-0.195 0.029h-5.765c-0.368 0-0.667-0.299-0.667-0.667v-18.871c0-0.368 0.299-0.667 0.667-0.667 0.293 0 0.552 0.192 0.637 0.472zM16 5.333c0.368 0 0.667 0.299 0.667 0.667v20c0 0.368-0.299 0.667-0.667 0.667s-0.667-0.299-0.667-0.667v-20c0-0.368 0.299-0.667 0.667-0.667z"></path>
</symbol>
<symbol id="ic_flipv" viewBox="0 0 32 32">
<path d="M6 15.333h20c0.368 0 0.667 0.299 0.667 0.667s-0.299 0.667-0.667 0.667h-20c-0.368 0-0.667-0.299-0.667-0.667s0.299-0.667 0.667-0.667zM6 18.667h19.995c0.368 0 0.667 0.299 0.667 0.667 0 0.295-0.193 0.553-0.475 0.639l-19.995 5.999c-0.352 0.105-0.724-0.095-0.831-0.447l-0.028-0.192v-5.999c0-0.368 0.299-0.667 0.667-0.667zM6.192 5.984l20.136 6.044c0.352 0.105 0.553 0.477 0.447 0.831-0.084 0.281-0.344 0.475-0.639 0.475h-20.136c-0.368 0-0.667-0.299-0.667-0.667v-6.044c0-0.368 0.299-0.667 0.667-0.667l0.192 0.028zM6.667 7.333v4.667h15.333l-15.333-4.667z"></path>
</symbol>
<symbol id="ic_fullscreen" viewBox="0 0 32 32">
<path d="M5.231 20.127c0.025-0.156 0.136-0.284 0.287-0.332s0.315-0.008 0.425 0.103l1.44 1.44 3.865-3.865c0.164-0.164 0.431-0.164 0.595 0l2.664 2.664c0.164 0.164 0.164 0.431 0 0.595l-3.867 3.865 1.44 1.44c0.112 0.111 0.152 0.276 0.104 0.425-0.048 0.151-0.175 0.261-0.331 0.287l-7.364 1.244c-0.135 0.023-0.271-0.020-0.368-0.116v-0.001c-0.096-0.096-0.14-0.232-0.117-0.365l1.225-7.384zM26.769 11.873c-0.025 0.156-0.136 0.284-0.287 0.332s-0.315 0.008-0.427-0.103l-1.44-1.44-3.865 3.865c-0.164 0.164-0.431 0.164-0.595 0l-2.664-2.664c-0.164-0.164-0.164-0.431 0-0.595l3.867-3.867-1.44-1.44c-0.112-0.112-0.152-0.276-0.104-0.425 0.048-0.151 0.176-0.261 0.331-0.287l7.364-1.244c0.135-0.023 0.271 0.021 0.368 0.117v0.001c0.096 0.096 0.14 0.232 0.117 0.365l-1.225 7.384z"></path>
</symbol>
<symbol id="ic_gallery" viewBox="0 0 32 32">
<path d="M2.667 12.008v13.317c0 1.479 1.191 2.675 2.659 2.675h16.016c1.465 0 2.659-1.197 2.659-2.675v-13.317c0-1.479-1.191-2.675-2.659-2.675h-16.016c-1.465 0-2.659 1.197-2.659 2.675zM21.333 25.333h-2.612l-0.040-0.111 0.004-0.003-5.464-9.888-0.003 0.001c-0.12-0.259-0.371-0.437-0.665-0.437-0.301 0-0.559 0.188-0.675 0.457l-3.636 6.58-0.891-1.611-0.001 0.001c-0.064-0.136-0.196-0.231-0.351-0.231-0.159 0-0.295 0.099-0.356 0.241l-1.313 2.376v-10.709h16v13.333zM18 17.333c1.104 0 2-0.896 2-2s-0.896-2-2-2-2 0.896-2 2 0.896 2 2 2zM9.333 5.333h16c1.473 0 2.667 1.193 2.667 2.667v14.667c0 1.473-1.193 2.667-2.667 2.667h-0.001v-16c0-0.736-0.597-1.333-1.333-1.333h-17.332c0-1.473 1.193-2.667 2.667-2.667z"></path>
</symbol>
<symbol id="ic_grid" viewBox="0 0 32 32">
<path d="M4 6.66c0-1.469 1.191-2.66 2.66-2.66h18.68c1.469 0 2.66 1.191 2.66 2.66v18.68c0 1.469-1.191 2.66-2.66 2.66h-18.68c-1.469 0-2.66-1.191-2.66-2.66v-18.68zM25.333 25.333v-18.667h-18.667v18.667h18.667zM14.333 9.333h3.333v3.333h-3.333v-3.333zM9.333 9.333h3.333v3.333h-3.333v-3.333zM19.333 9.333h3.333v3.333h-3.333v-3.333zM9.333 14.333h3.333v3.333h-3.333v-3.333zM14.333 14.333h3.333v3.333h-3.333v-3.333zM19.333 14.333h3.333v3.333h-3.333v-3.333zM9.333 19.333h3.333v3.333h-3.333v-3.333zM14.333 19.333h3.333v3.333h-3.333v-3.333zM19.333 19.333h3.333v3.333h-3.333v-3.333z"></path>
</symbol>
<symbol id="ic_group" viewBox="0 0 32 32">
<path d="M7.105 22.975c-0.679-0.732-1.105-1.793-1.105-2.975 0-2.209 1.493-4 3.333-4s3.333 1.791 3.333 4c0 1.187-0.431 2.253-1.116 2.987l2.656 0.864c0.269 0.090 0.46 0.339 0.46 0.633v2.849c0 0.368-0.298 0.667-0.667 0.667v0h-9.333c-0.368 0-0.667-0.298-0.667-0.667v0-2.852c0-0.293 0.19-0.542 0.453-0.631l0.005-0.001 2.648-0.875zM20.439 22.975c-0.679-0.732-1.105-1.793-1.105-2.975 0-2.209 1.493-4 3.333-4s3.333 1.791 3.333 4c0 1.187-0.431 2.253-1.116 2.987l2.656 0.864c0.269 0.090 0.46 0.339 0.46 0.633v2.849c0 0.368-0.298 0.667-0.667 0.667v0h-9.333c-0.368 0-0.667-0.298-0.667-0.667v0-2.852c0-0.293 0.19-0.542 0.453-0.631l0.005-0.001 2.648-0.875zM13.772 10.975c-0.679-0.732-1.105-1.793-1.105-2.975 0-2.209 1.493-4 3.333-4s3.333 1.791 3.333 4c0 1.187-0.431 2.253-1.116 2.987l2.656 0.864c0.269 0.090 0.46 0.339 0.46 0.633v2.849c0 0.368-0.298 0.667-0.667 0.667v0h-9.333c-0.368 0-0.667-0.298-0.667-0.667v0-2.852c0-0.293 0.19-0.542 0.453-0.631l0.005-0.001 2.648-0.875z"></path>
</symbol>
<symbol id="ic_header" viewBox="0 0 32 32">
<path d="M12 14v-8h-4v20h4v-8h8v8h4v-20h-4v8h-8z"></path>
</symbol>
<symbol id="ic_hr" viewBox="0 0 32 32">
<path d="M5.333 10.667v11.233h2.471v-4.845h4.547v4.845h2.471v-11.233h-2.471v4.311h-4.547v-4.311h-2.471zM19.461 15.748h2.705c0.567 0 0.991-0.125 1.275-0.377 0.283-0.252 0.425-0.661 0.425-1.227 0-0.545-0.141-0.941-0.425-1.188-0.283-0.247-0.708-0.369-1.275-0.369h-2.705v3.163zM16.991 10.667h6.057c0.504 0 0.957 0.081 1.361 0.244s0.749 0.385 1.039 0.668c0.288 0.283 0.509 0.611 0.661 0.983s0.228 0.773 0.228 1.204c0 0.661-0.139 1.232-0.417 1.715-0.277 0.483-0.732 0.849-1.361 1.101v0.032c0.304 0.084 0.556 0.212 0.755 0.385s0.361 0.377 0.488 0.613c0.125 0.236 0.217 0.496 0.275 0.779s0.097 0.567 0.117 0.849l0.032 0.629 0.055 0.74c0.027 0.252 0.068 0.491 0.125 0.716s0.144 0.417 0.26 0.575h-2.471c-0.136-0.356-0.22-0.781-0.252-1.275s-0.079-0.965-0.141-1.416c-0.084-0.588-0.263-1.017-0.535-1.291-0.273-0.273-0.719-0.409-1.337-0.409h-2.471v4.389h-2.471v-11.233z"></path>
</symbol>
<symbol id="ic_htmlmode" viewBox="0 0 32 32">
<path d="M22.636 20.093l4.123-4.124-4.061-4.061 1.272-1.272 5.333 5.333-5.395 5.395-1.272-1.272zM9.303 11.907l-4.063 4.064 4.123 4.123-1.272 1.272-5.395-5.395 5.333-5.333 1.272 1.272zM14.491 9.333h3.076l5.1 13.333h-3.113l-1.032-2.969h-5.1l-1.069 2.969h-3.019l5.157-13.333zM14.204 17.512h3.533l-1.719-4.892h-0.037l-1.777 4.893z"></path>
</symbol>
<symbol id="ic_image" viewBox="0 0 32 32">
<path d="M4 7.992v16.016c0 1.465 1.191 2.659 2.66 2.659h18.68c1.469 0 2.66-1.191 2.66-2.659v-16.016c0-1.465-1.191-2.659-2.66-2.659h-18.68c-1.469 0-2.66 1.191-2.66 2.659zM25.333 24h-3.047l-0.047-0.133 0.005-0.003-6.377-11.865c-0.14-0.309-0.433-0.525-0.776-0.525-0.351 0-0.652 0.225-0.788 0.549l-4.243 7.896-1.039-1.933-0.001 0.001c-0.075-0.164-0.228-0.277-0.409-0.277-0.185 0-0.344 0.119-0.415 0.289l-1.532 2.852v-12.852h18.667v16zM21.333 14.667c1.473 0 2.667-1.193 2.667-2.667s-1.193-2.667-2.667-2.667-2.667 1.193-2.667 2.667 1.193 2.667 2.667 2.667z"></path>
</symbol>
<symbol id="ic_indent" viewBox="0 0 32 32">
<path d="M8.737 16.080c0 0.080-0.048 0.149-0.117 0.18l0.003 0.004-4.288 2.475c-0.035 0.035-0.084 0.056-0.137 0.056-0.106 0-0.192-0.084-0.196-0.189v-0h-0.001v-5.049c0.001-0.108 0.089-0.196 0.197-0.196 0.055 0 0.104 0.022 0.14 0.058v0l4.305 2.485-0.005 0.008c0.059 0.034 0.099 0.096 0.1 0.168v0zM4.667 4h22.667c0.368 0 0.667 0.298 0.667 0.667v0 2.667c0 0.368-0.298 0.667-0.667 0.667v0h-22.667c-0.368 0-0.667-0.298-0.667-0.667v0-2.667c0-0.368 0.298-0.667 0.667-0.667v0zM12.667 10.667h14.667c0.368 0 0.667 0.298 0.667 0.667v0 2.667c0 0.368-0.298 0.667-0.667 0.667v0h-14.667c-0.368 0-0.667-0.298-0.667-0.667v0-2.667c0-0.368 0.298-0.667 0.667-0.667v0zM12.667 17.333h14.667c0.368 0 0.667 0.298 0.667 0.667v0 2.667c0 0.368-0.298 0.667-0.667 0.667v0h-14.667c-0.368 0-0.667-0.298-0.667-0.667v0-2.667c0-0.368 0.298-0.667 0.667-0.667v0zM4.667 24h22.667c0.368 0 0.667 0.298 0.667 0.667v0 2.667c0 0.368-0.298 0.667-0.667 0.667v0h-22.667c-0.368 0-0.667-0.298-0.667-0.667v0-2.667c0-0.368 0.298-0.667 0.667-0.667v0z"></path>
</symbol>
<symbol id="ic_info" viewBox="0 0 32 32">
<path d="M16 4c-6.628 0-12 5.373-12 12s5.372 12 12 12 12-5.372 12-12c0-6.627-5.372-12-12-12zM17.224 22.675c0 0.231-0.187 0.417-0.417 0.417h-1.615c-0.231 0-0.417-0.187-0.417-0.417v-7.749c0-0.231 0.187-0.417 0.417-0.417h1.615c0.231 0 0.417 0.187 0.417 0.417v7.749zM15.989 12.779c-0.791 0-1.445-0.656-1.445-1.465s0.656-1.445 1.445-1.445c0.809 0 1.465 0.636 1.465 1.445s-0.656 1.465-1.465 1.465z"></path>
</symbol>
<symbol id="ic_italic" viewBox="0 0 32 32">
<path d="M16.58 21.773l0.14-0.507c0.007-0.028 0.743-2.909 1.529-5.917 1.353-5.172 1.684-6.213 1.757-6.372 0.252-0.528 0.66-0.927 1.248-1.221 0.508-0.253 1.155-0.42 1.924-0.497 0.227-0.024 0.44-0.151 0.596-0.356 0.141-0.187 0.224-0.423 0.224-0.648 0-0.508-0.408-0.923-0.909-0.923h-10.311c-0.501 0-0.909 0.415-0.909 0.923v0.032c0 0.455 0.321 0.837 0.764 0.909 0.585 0.096 1.389 0.229 2.020 0.532 0.324 0.155 0.575 0.343 0.743 0.557 0.191 0.243 0.284 0.524 0.284 0.856 0 0.623-0.18 1.247-0.353 1.849l-0.109 0.388c-0.223 0.804-0.549 2.025-0.928 3.439-0.873 3.255-1.96 7.303-2.233 8.073-0.184 0.519-0.867 1.748-3.217 1.931-0.228 0.017-0.443 0.123-0.596 0.292-0.156 0.172-0.241 0.392-0.241 0.627v0.003c0 0.508 0.408 0.923 0.909 0.923h10.313c0.501 0 0.909-0.415 0.909-0.923v-0.007c0-0.465-0.343-0.859-0.797-0.913l-0.268-0.032c-0.905-0.105-2.031-0.239-2.504-0.863-0.22-0.289-0.289-0.672-0.217-1.163 0.047-0.332 0.14-0.655 0.237-0.993z"></path>
</symbol>
<symbol id="ic_link" viewBox="0 0 32 32">
<path d="M21.821 8.584l2.309 1.333c1.276 0.736 1.712 2.367 0.976 3.643l-6.667 11.547c-0.736 1.276-2.367 1.712-3.643 0.976l-2.309-1.333-2 3.464c-0.368 0.637-1.184 0.856-1.821 0.488s-0.856-1.184-0.488-1.821l2-3.464-2.309-1.333c-1.276-0.736-1.712-2.367-0.976-3.643l6.667-11.547c0.736-1.276 2.367-1.712 3.643-0.976l2.309 1.333 2-3.464c0.368-0.637 1.184-0.856 1.821-0.488s0.856 1.184 0.488 1.821l-2 3.464zM20.488 10.893l-0.667 1.155c-0.368 0.637-1.184 0.856-1.821 0.488s-0.856-1.184-0.488-1.821l0.667-1.155-1.732-1c-0.319-0.184-0.727-0.075-0.911 0.244l-6 10.392c-0.184 0.319-0.075 0.727 0.244 0.911l1.732 1 0.667-1.155c0.368-0.637 1.184-0.856 1.821-0.488s0.856 1.184 0.488 1.821l-0.667 1.155 1.732 1c0.319 0.184 0.727 0.075 0.911-0.244l6-10.392c0.184-0.319 0.075-0.727-0.244-0.911l-1.732-1z"></path>
</symbol>
<symbol id="ic_list" viewBox="0 0 32 32">
<path d="M10.667 15.34c0-0.372 0.305-0.673 0.667-0.673h14.665c0.368 0 0.667 0.285 0.667 0.673v1.321c0 0.372-0.305 0.673-0.667 0.673h-14.665c-0.368 0-0.667-0.285-0.667-0.673v-1.321zM10.667 23.34c0-0.372 0.305-0.673 0.667-0.673h14.665c0.368 0 0.667 0.285 0.667 0.673v1.321c0 0.372-0.305 0.673-0.667 0.673h-14.665c-0.368 0-0.667-0.285-0.667-0.673v-1.321zM10.667 7.34c0-0.372 0.305-0.673 0.667-0.673h14.665c0.368 0 0.667 0.285 0.667 0.673v1.321c0 0.372-0.305 0.673-0.667 0.673h-14.665c-0.368 0-0.667-0.285-0.667-0.673v-1.321zM6.667 9.333c-0.736 0-1.333-0.597-1.333-1.333s0.597-1.333 1.333-1.333 1.333 0.597 1.333 1.333-0.597 1.333-1.333 1.333zM6.667 17.333c-0.736 0-1.333-0.597-1.333-1.333s0.597-1.333 1.333-1.333 1.333 0.597 1.333 1.333-0.597 1.333-1.333 1.333zM6.667 25.333c-0.736 0-1.333-0.597-1.333-1.333s0.597-1.333 1.333-1.333 1.333 0.597 1.333 1.333-0.597 1.333-1.333 1.333z"></path>
</symbol>
<symbol id="ic_lock" viewBox="0 0 32 32">
<path d="M14.667 20.976v2.357c0 0.368 0.299 0.667 0.667 0.667h1.333c0.368 0 0.667-0.299 0.667-0.667v-2.357c0.797-0.461 1.333-1.323 1.333-2.309 0-1.473-1.193-2.667-2.667-2.667s-2.667 1.193-2.667 2.667c0 0.987 0.536 1.849 1.333 2.309zM24 12h1.333c1.473 0 2.667 1.193 2.667 2.667v10.667c0 1.473-1.193 2.667-2.667 2.667h-18.667c-1.473 0-2.667-1.193-2.667-2.667v-10.667c0-1.473 1.193-2.667 2.667-2.667h1.333v-1.333c0-4.419 3.581-8 8-8s8 3.581 8 8v1.333zM10.667 12h10.667v-1.333c0-2.945-2.388-5.333-5.333-5.333s-5.333 2.388-5.333 5.333v1.333z"></path>
</symbol>
<symbol id="ic_mail" viewBox="0 0 32 32">
<path d="M5.333 6.667h21.333c1.473 0 2.667 1.193 2.667 2.667v13.333c0 1.473-1.193 2.667-2.667 2.667h-21.333c-1.473 0-2.667-1.193-2.667-2.667v-13.333c0-1.473 1.193-2.667 2.667-2.667zM2.667 10.667v2.667l13.327 6.667 13.34-6.667v-2.667l-13.373 6.667-13.293-6.667z"></path>
</symbol>
<symbol id="ic_member" viewBox="0 0 32 32">
<path d="M13.173 15.28l-3.411 1.548c-0.939 0.429-1.545 1.393-1.545 2.461v4.124h-3.377c-0.464 0-0.841-0.427-0.841-0.953v-3.931c0-0.392 0.209-0.743 0.528-0.888l5.109-2.317c-1.211-0.712-2.039-2.141-2.039-3.795 0-2.363 1.687-4.275 3.769-4.275 0.68 0 1.309 0.22 1.859 0.577-0.353 0.853-0.555 1.796-0.555 2.793 0 1.491 0.456 2.899 1.241 4.051-0.224 0.233-0.471 0.439-0.74 0.605zM27.353 18.192c0.391 0.184 0.645 0.613 0.645 1.096v4.864c0 0.652-0.467 1.18-1.041 1.18h-16.155c-0.576 0-1.041-0.528-1.041-1.18v-4.864c0-0.484 0.259-0.919 0.653-1.099l6.323-2.871c-0.804-0.472-1.465-1.207-1.912-2.097-0.385-0.768-0.612-1.651-0.612-2.599 0-0.545 0.093-1.060 0.229-1.555 0.588-2.157 2.34-3.736 4.436-3.736 2.136 0 3.916 1.636 4.469 3.857 0.113 0.459 0.195 0.933 0.195 1.433 0 0.891-0.204 1.725-0.547 2.461-0.432 0.928-1.092 1.697-1.904 2.196l6.26 2.911z"></path>
</symbol>
<symbol id="ic_menu" viewBox="0 0 32 32">
<path d="M13.333 13.987c0-0.361 0.287-0.654 0.654-0.654h4.025c0.361 0 0.654 0.287 0.654 0.654v4.025c0 0.361-0.287 0.654-0.654 0.654h-4.025c-0.361 0-0.654-0.287-0.654-0.654v-4.025zM13.333 5.987c0-0.361 0.287-0.654 0.654-0.654h4.025c0.361 0 0.654 0.287 0.654 0.654v4.025c0 0.361-0.287 0.654-0.654 0.654h-4.025c-0.361 0-0.654-0.287-0.654-0.654v-4.025zM13.333 21.987c0-0.361 0.287-0.654 0.654-0.654h4.025c0.361 0 0.654 0.287 0.654 0.654v4.025c0 0.361-0.287 0.654-0.654 0.654h-4.025c-0.361 0-0.654-0.287-0.654-0.654v-4.025z"></path>
</symbol>
<symbol id="ic_menuhamburger" viewBox="0 0 32 32">
<path d="M5.333 15.34c0-0.372 0.301-0.673 0.661-0.673h20.011c0.365 0 0.661 0.285 0.661 0.673v1.32c0 0.001 0 0.002 0 0.003 0 0.367-0.295 0.665-0.661 0.671h-20.011c-0.001 0-0.003 0-0.004 0-0.363 0-0.657-0.294-0.657-0.657 0-0.006 0-0.011 0-0.017l-0 0.001v-1.32zM5.333 23.34c0-0.372 0.301-0.673 0.661-0.673h20.011c0.365 0 0.661 0.285 0.661 0.673v1.32c0 0.001 0 0.002 0 0.003 0 0.367-0.295 0.665-0.661 0.671h-20.011c-0.001 0-0.003 0-0.004 0-0.363 0-0.657-0.294-0.657-0.657 0-0.006 0-0.011 0-0.017l-0 0.001v-1.32zM5.333 7.34c0-0.372 0.301-0.673 0.661-0.673h20.011c0.365 0 0.661 0.285 0.661 0.673v1.32c0 0.001 0 0.002 0 0.003 0 0.367-0.295 0.665-0.661 0.671h-20.011c-0.001 0-0.003 0-0.004 0-0.363 0-0.657-0.294-0.657-0.657 0-0.006 0-0.011 0-0.017l-0 0.001v-1.32z"></path>
</symbol>
<symbol id="ic_minus" viewBox="0 0 32 32">
<path d="M4.667 13.6h22.667c0.368 0 0.667 0.298 0.667 0.667v3.467c0 0.368-0.298 0.667-0.667 0.667h-22.667c-0.368 0-0.667-0.298-0.667-0.667v-3.467c0-0.368 0.298-0.667 0.667-0.667z"></path>
</symbol>
<symbol id="ic_move" viewBox="0 0 32 32">
<path d="M12 9.333c1.473 0 2.667 1.193 2.667 2.667s-1.193 2.667-2.667 2.667-2.667-1.193-2.667-2.667 1.193-2.667 2.667-2.667zM20 9.333c1.473 0 2.667 1.193 2.667 2.667s-1.193 2.667-2.667 2.667-2.667-1.193-2.667-2.667 1.193-2.667 2.667-2.667zM12 17.333c1.473 0 2.667 1.193 2.667 2.667s-1.193 2.667-2.667 2.667-2.667-1.193-2.667-2.667 1.193-2.667 2.667-2.667zM20 17.333c1.473 0 2.667 1.193 2.667 2.667s-1.193 2.667-2.667 2.667-2.667-1.193-2.667-2.667 1.193-2.667 2.667-2.667zM12 1.333c1.473 0 2.667 1.193 2.667 2.667s-1.193 2.667-2.667 2.667-2.667-1.193-2.667-2.667 1.193-2.667 2.667-2.667zM20 1.333c1.473 0 2.667 1.193 2.667 2.667s-1.193 2.667-2.667 2.667-2.667-1.193-2.667-2.667 1.193-2.667 2.667-2.667zM12 25.333c1.473 0 2.667 1.193 2.667 2.667s-1.193 2.667-2.667 2.667-2.667-1.193-2.667-2.667 1.193-2.667 2.667-2.667zM20 25.333c1.473 0 2.667 1.193 2.667 2.667s-1.193 2.667-2.667 2.667-2.667-1.193-2.667-2.667 1.193-2.667 2.667-2.667z"></path>
</symbol>
<symbol id="ic_movie" viewBox="0 0 32 32">
<path d="M4 9.341c0-1.477 1.191-2.675 2.66-2.675h18.68c1.469 0 2.66 1.196 2.66 2.675v13.317c0 1.477-1.191 2.675-2.66 2.675h-18.68c-1.469 0-2.66-1.196-2.66-2.675v-13.317zM25.333 22.667v-13.333h-18.667v13.333h18.667zM20 16l-6.667 4.001v-8l6.667 4z"></path>
</symbol>
<symbol id="ic_mt" viewBox="0 0 32 32">
<path d="M14.205 23.148c1.044 0.259 2.091 0.28 3.085 0.104l0.965 3.341-0.796 0.255-3.053 1.043c-0.837 0.287-2.017-0.007-2.621-0.649l-2.204-2.344c-0.301-0.321-0.713-0.732-1.132-1.133-0.42-0.403-0.847-0.796-1.181-1.085l-2.436-2.104c-0.668-0.577-1.004-1.737-0.744-2.579l0.943-3.067 0.229-0.797 3.397 0.841c-0.341 2.389 0.524 4.725 2.189 6.327 0.907 0.871 2.047 1.524 3.359 1.849zM26.192 20.168l-0.617 3.147c-0.169 0.863-1.013 1.732-1.877 1.929l-3.147 0.723-0.811 0.203-0.965-3.343c2.125-0.853 3.827-2.667 4.424-5.044 0.597-2.379-0.048-4.771-1.52-6.516l2.433-2.501 0.62 0.556 2.436 2.104c0.668 0.577 1.003 1.737 0.744 2.579l-0.943 3.067c-0.129 0.421-0.281 0.98-0.423 1.541s-0.271 1.127-0.355 1.557zM13.955 8.919c-2.228 0.636-4.096 2.296-4.924 4.565l-3.397-0.841 0.175-0.812 0.617-3.147c0.169-0.864 1.013-1.732 1.877-1.929l3.145-0.723c0.432-0.099 0.995-0.248 1.556-0.407 0.56-0.16 1.117-0.329 1.536-0.473l3.053-1.043c0.837-0.287 2.017 0.005 2.621 0.649l2.204 2.344 0.581 0.596-2.432 2.5c-0.796-0.619-1.729-1.088-2.773-1.347-1.312-0.325-2.628-0.279-3.84 0.067z"></path>
</symbol>
<symbol id="ic_multiline" viewBox="0 0 32 32">
<path d="M4 5.324c0-0.732 0.593-1.324 1.324-1.324h21.351c0.732 0 1.324 0.593 1.324 1.324v21.351c0 0.732-0.593 1.324-1.324 1.324h-21.351c-0.732 0-1.324-0.593-1.324-1.324v-21.351zM6.667 13.333v12h18.667v-12h-18.667zM6.667 8v2.667h9.333v-2.667h-9.333z"></path>
</symbol>
<symbol id="ic_ol" viewBox="0 0 32 32">
<path d="M8 24.667h-2.667v-0.667h2.667v-1.333h0.667v3.333h-3.333v-0.667h2.667v-0.667zM5.333 16.333v-0.333h2.667v-1.333h0.667v2h-2.667v0.667h2.667v0.667h-3.333v-1.667zM10.667 15.34c0-0.372 0.305-0.673 0.667-0.673h14.665c0.368 0 0.667 0.285 0.667 0.673v1.321c0 0.372-0.305 0.673-0.667 0.673h-14.665c-0.368 0-0.667-0.285-0.667-0.673v-1.321zM10.667 23.34c0-0.372 0.305-0.673 0.667-0.673h14.665c0.368 0 0.667 0.285 0.667 0.673v1.321c0 0.372-0.305 0.673-0.667 0.673h-14.665c-0.368 0-0.667-0.285-0.667-0.673v-1.321zM10.667 7.34c0-0.372 0.305-0.673 0.667-0.673h14.665c0.368 0 0.667 0.285 0.667 0.673v1.321c0 0.372-0.305 0.673-0.667 0.673h-14.665c-0.368 0-0.667-0.285-0.667-0.673v-1.321zM6.667 6h0.667v4h-0.667v-4zM5.333 14.667h2.667v0.667h-2.667v-0.667zM5.333 22.667h2.667v0.667h-2.667v-0.667z"></path>
</symbol>
<symbol id="ic_page" viewBox="0 0 32 32">
<path d="M5.333 6.013c0-0.375 0.304-0.68 0.68-0.68h11.975c0.375 0 0.68 0.304 0.68 0.68v11.975c0 0.375-0.304 0.68-0.68 0.68h-11.975c-0.375 0-0.68-0.304-0.68-0.68v-11.975zM21.333 6.013c0-0.375 0.287-0.68 0.653-0.68h4.025c0.361 0 0.653 0.304 0.653 0.68v11.975c0 0.375-0.287 0.68-0.653 0.68h-4.025c-0.361 0-0.653-0.304-0.653-0.68v-11.975zM5.333 21.988c0-0.361 0.287-0.653 0.653-0.653h4.025c0.361 0 0.653 0.287 0.653 0.653v4.025c0 0.361-0.287 0.653-0.653 0.653h-4.025c-0.361 0-0.653-0.287-0.653-0.653v-4.025zM13.333 21.988c0-0.361 0.287-0.653 0.653-0.653h4.025c0.361 0 0.653 0.287 0.653 0.653v4.025c0 0.361-0.287 0.653-0.653 0.653h-4.025c-0.361 0-0.653-0.287-0.653-0.653v-4.025zM21.333 21.988c0-0.361 0.287-0.653 0.653-0.653h4.025c0.361 0 0.653 0.287 0.653 0.653v4.025c0 0.361-0.287 0.653-0.653 0.653h-4.025c-0.361 0-0.653-0.287-0.653-0.653v-4.025z"></path>
</symbol>
<symbol id="ic_permalink" viewBox="0 0 32 32">
<path d="M23.347 11.347l-10.324 10.324c-0.26 0.26-0.683 0.26-0.943 0l-1.885-1.885c-0.26-0.26-0.26-0.683 0-0.943l10.324-10.324-0.936-0.936c-0.26-0.26-0.26-0.683 0-0.943 0.099-0.099 0.225-0.164 0.361-0.187l5.801-0.967c0.363-0.060 0.707 0.185 0.767 0.548v0.219l-0.967 5.801c-0.060 0.363-0.404 0.608-0.767 0.548-0.137-0.023-0.264-0.088-0.361-0.187l-1.071-1.071zM17.152 5.333l-2.667 2.667h-6.485v16h16v-6.659l2.667-2.667v9.333c0 1.468-1.193 2.659-2.659 2.659h-16.016c-1.468 0-2.659-1.193-2.659-2.659v-16.016c0-1.468 1.193-2.659 2.659-2.659h9.16z"></path>
</symbol>
<symbol id="ic_plugin" viewBox="0 0 32 32">
<path d="M4 14.667v-5.333c0-1.473 1.193-2.667 2.667-2.667h5.333v-1.333c0-1.473 1.193-2.667 2.667-2.667s2.667 1.193 2.667 2.667v1.333h5.333c1.473 0 2.667 1.193 2.667 2.667v5.333h1.333c1.473 0 2.667 1.193 2.667 2.667s-1.193 2.667-2.667 2.667h-1.333v5.333c0 1.473-1.193 2.667-2.667 2.667h-5.333v-1.333c0-1.473-1.193-2.667-2.667-2.667s-2.667 1.193-2.667 2.667v1.333h-5.333c-1.473 0-2.667-1.193-2.667-2.667v-5.333h1.333c1.473 0 2.667-1.193 2.667-2.667s-1.193-2.667-2.667-2.667h-1.333z"></path>
</symbol>
<symbol id="ic_plus" viewBox="0 0 32 32">
<path d="M13.6 13.6v-8.933c0-0.368 0.298-0.667 0.667-0.667v0h3.467c0.368 0 0.667 0.298 0.667 0.667v0 8.933h8.933c0.368 0 0.667 0.298 0.667 0.667v0 3.467c0 0.368-0.298 0.667-0.667 0.667v0h-8.933v8.933c0 0.368-0.298 0.667-0.667 0.667v0h-3.467c-0.368 0-0.667-0.298-0.667-0.667v0-8.933h-8.933c-0.368 0-0.667-0.298-0.667-0.667v0-3.467c0-0.368 0.298-0.667 0.667-0.667v0h8.933z"></path>
</symbol>
<symbol id="ic_preview" viewBox="0 0 32 32">
<path d="M28.885 15.163c0.269 0.173 0.448 0.468 0.448 0.803 0 0.249-0.1 0.473-0.261 0.645l-0.069 0.067-5.789 5.573-0.023-0.023c-1.775 1.905-4.352 3.105-7.221 3.105-2.545 0-4.861-0.945-6.591-2.489l-0.013 0.012-6.32-6.083c-0.228-0.177-0.377-0.444-0.377-0.748 0-0.244 0.097-0.464 0.252-0.633l-0.004-0.004 5.827-5.608c1.776-1.909 4.355-3.113 7.228-3.113 2.557 0 4.883 0.955 6.615 2.512l0.044-0.041 6.26 6.025zM15.999 22.667c3.681 0 6.667-2.985 6.667-6.667s-2.985-6.667-6.667-6.667-6.667 2.985-6.667 6.667c0 3.683 2.985 6.667 6.667 6.667zM15.999 20c-2.209 0-4-1.791-4-4s1.791-4 4-4 4 1.791 4 4-1.791 4-4 4z"></path>
</symbol>
<symbol id="ic_private" viewBox="0 0 32 32">
<path d="M22.667 21.791l2.195-2.195c0.26-0.26 0.683-0.26 0.943 0s0.26 0.683 0 0.943l-2.195 2.195 2.519 2.519c0.26 0.26 0.26 0.683 0 0.943s-0.683 0.26-0.943 0l-2.519-2.519-2.519 2.519c-0.26 0.26-0.683 0.26-0.943 0s-0.26-0.683 0-0.943l2.519-2.519-2.195-2.195c-0.26-0.26-0.26-0.683 0-0.943s0.683-0.26 0.943 0l2.195 2.195zM27.927 17.333h-4.037c0.073-0.433 0.111-0.879 0.111-1.333 0-4.411-3.588-8-8-8s-8 3.589-8 8 3.588 8 8 8c0.455 0 0.9-0.039 1.333-0.111v4.037c-0.437 0.048-0.883 0.073-1.333 0.073-6.628 0-12-5.372-12-12 0-6.627 5.372-12 12-12s12 5.373 12 12c0 0.451-0.025 0.895-0.073 1.333zM21.817 12.060c0.243 0.24 0.243 0.632 0 0.873l-5.589 5.553c-0.115 0.115-0.267 0.177-0.429 0.181h-0.024c-0.165 0-0.321-0.064-0.44-0.181l-3.82-3.795c-0.117-0.116-0.181-0.272-0.181-0.436 0-0.165 0.067-0.324 0.184-0.439l1.225-1.217c0.233-0.232 0.644-0.232 0.879 0l2.161 2.147 3.931-3.905c0.225-0.228 0.645-0.233 0.879 0l1.227 1.22z"></path>
</symbol>
<symbol id="ic_publish" viewBox="0 0 32 32">
<path d="M18.667 21.333v6c0 0.368-0.299 0.667-0.667 0.667h-4c-0.368 0-0.667-0.299-0.667-0.667v-6h-3.411c-0.22 0-0.424-0.1-0.524-0.263s-0.084-0.356 0.043-0.504l6.059-7.028c0.112-0.129 0.289-0.205 0.48-0.205 0.189 0 0.369 0.076 0.479 0.203l6.097 7.029c0.128 0.148 0.145 0.343 0.044 0.504-0.1 0.16-0.303 0.263-0.523 0.263h-3.411zM7.667 25.333h-1c-1.473 0-2.667-1.193-2.667-2.667v-14.667c0-1.473 1.193-2.667 2.667-2.667h18.667c1.473 0 2.667 1.193 2.667 2.667v14.667c0 1.473-1.193 2.667-2.667 2.667h-1.333v-2.667h1.333v-12h-18.667v12h3.333c0.368 0 0.667 0.299 0.667 0.667v1.333c0 0.368-0.299 0.667-0.667 0.667h-2.333zM8 9.333c0.736 0 1.333-0.597 1.333-1.333s-0.597-1.333-1.333-1.333-1.333 0.597-1.333 1.333 0.597 1.333 1.333 1.333z"></path>
<path d="M22 22.667h2.667c0.368 0 0.667 0.298 0.667 0.667v1.333c0 0.368-0.298 0.667-0.667 0.667h-2.667c-0.368 0-0.667-0.298-0.667-0.667v-1.333c0-0.368 0.298-0.667 0.667-0.667z"></path>
</symbol>
<symbol id="ic_quotation" viewBox="0 0 32 32">
<path d="M22.943 14.667c0.091-1.983 1.392-3.644 3.905-3.996 0.165-0.015 0.309-0.105 0.429-0.271 0.105-0.151 0.136-0.309 0.091-0.475l-0.611-2.78c-0.031-0.151-0.105-0.271-0.227-0.361-0.12-0.091-0.256-0.128-0.407-0.113-2.939 0.151-5.139 1.009-6.6 2.576s-2.192 3.313-2.192 5.935l0.019-0.001-0.019 0.157v7.991c0 0.361 0.293 0.671 0.655 0.671h6.691c0.351 0 0.655-0.3 0.655-0.671v-7.991c0-0.361-0.293-0.671-0.655-0.671h-1.736zM10.943 14.667c0.091-1.983 1.392-3.644 3.905-3.996 0.165-0.015 0.309-0.105 0.429-0.271 0.105-0.151 0.136-0.309 0.091-0.475l-0.611-2.78c-0.031-0.151-0.105-0.271-0.227-0.361-0.12-0.091-0.256-0.128-0.407-0.113-2.939 0.151-5.139 1.009-6.6 2.576s-2.192 3.313-2.192 5.935l0.019-0.001-0.019 0.157v7.991c0 0.361 0.293 0.671 0.655 0.671h6.691c0.351 0 0.655-0.3 0.655-0.671v-7.991c0-0.361-0.293-0.671-0.655-0.671h-1.736z"></path>
</symbol>
<symbol id="ic_radio" viewBox="0 0 32 32">
<path d="M16 28c-6.628 0-12-5.372-12-12s5.372-12 12-12 12 5.372 12 12-5.372 12-12 12zM16 24c4.419 0 8-3.581 8-8s-3.581-8-8-8-8 3.581-8 8 3.581 8 8 8zM16 21.333c-2.945 0-5.333-2.388-5.333-5.333s2.388-5.333 5.333-5.333 5.333 2.388 5.333 5.333-2.388 5.333-5.333 5.333z"></path>
</symbol>
<symbol id="ic_redo" viewBox="0 0 32 32">
<path d="M25.173 8.264c-2.2-2.608-5.493-4.264-9.173-4.264-6.627 0-12 5.373-12 12s5.373 12 12 12c3.64 0 6.901-1.621 9.103-4.18 0.213-0.347 0.179-0.631-0.097-0.853-0.477-0.384-1.817-1.355-2.333-1.72-0.211-0.149-0.435-0.136-0.671 0.043-0.111 0.128-0.227 0.253-0.347 0.373h-0.001c-1.451 1.444-3.448 2.337-5.653 2.337-4.419 0-8-3.581-8-8s3.581-8 8-8c2.449 0 4.643 1.101 6.111 2.836l-1.859 1.56c-0.137 0.12-0.187 0.289-0.107 0.384 0.040 0.047 0.103 0.067 0.173 0.059l6.428 1.035c0.093 0.027 0.219-0.005 0.324-0.093 0.096-0.080 0.147-0.187 0.147-0.275l0.013-0.004 0.091-6.533c0.023-0.072 0.016-0.14-0.024-0.189-0.080-0.093-0.263-0.076-0.405 0.044l-1.716 1.44z"></path>
</symbol>
<symbol id="ic_related" viewBox="0 0 32 32">
<path d="M18.676 14.024l-4.248-4.248c-0.26-0.26-0.683-0.26-0.943 0l-1.417 1.417c-0.26 0.26-0.26 0.683 0 0.943l3.827 3.827-3.827 3.827c-0.26 0.26-0.26 0.683 0 0.943l1.417 1.417c0.26 0.26 0.683 0.26 0.943 0l4.248-4.248 0.052-0.047 1.417-1.417c0.131-0.131 0.196-0.303 0.195-0.475 0-0.172-0.064-0.343-0.195-0.475l-1.417-1.417-0.052-0.047zM16 28c-6.628 0-12-5.372-12-12s5.372-12 12-12 12 5.372 12 12-5.372 12-12 12z"></path>
</symbol>
<symbol id="ic_reload" viewBox="0 0 32 32">
<path d="M9.999 24c1.672 1.256 3.749 2 6.001 2 5.525 0 10-4.477 10-10l-0.007-0.36c0.352-0.605 0.881-0.925 1.588-0.959 0.705-0.033 1.284 0.187 1.735 0.659l0.016 0.66c0 7.364-5.969 13.333-13.333 13.333-3.309 0-6.336-1.205-8.667-3.2v2.533c0 0.368-0.299 0.667-0.667 0.667s-0.667-0.299-0.667-0.667v-5.333c0-0.184 0.075-0.351 0.195-0.472 0.12-0.12 0.287-0.195 0.472-0.195h5.333c0.368 0 0.667 0.299 0.667 0.667s-0.299 0.667-0.667 0.667h-2.001zM27.805 11.805c-0.12 0.12-0.287 0.195-0.472 0.195h-5.333c-0.368 0-0.667-0.299-0.667-0.667s0.299-0.667 0.667-0.667h2.461c-1.771-2.804-4.897-4.667-8.461-4.667-5.525 0-10 4.477-10 10 0 0.897 0.119 1.768 0.34 2.596 0.017 0.649-0.427 1.1-1.331 1.349-0.935 0.257-1.563 0.103-1.884-0.465-0.299-1.109-0.459-2.276-0.459-3.48 0-7.364 5.969-13.333 13.333-13.333 4.361 0 8.235 2.095 10.667 5.332v-1.999c0-0.368 0.299-0.667 0.667-0.667s0.667 0.299 0.667 0.667v4.181l0.016 0.035-0.016-0.028v1.145c0 0.184-0.075 0.351-0.195 0.472z"></path>
</symbol>
<symbol id="ic_remove" viewBox="0 0 32 32">
<path d="M16 4c6.627 0 12 5.373 12 12s-5.373 12-12 12-12-5.372-12-12c0-6.627 5.373-12 12-12zM16 6.667c-5.147 0-9.333 4.188-9.333 9.333 0 5.147 4.187 9.333 9.333 9.333s9.333-4.187 9.333-9.333c0-5.145-4.187-9.333-9.333-9.333zM10 14.667h12c0.368 0 0.667 0.299 0.667 0.667v1.333c0 0.368-0.299 0.667-0.667 0.667h-12c-0.368 0-0.667-0.299-0.667-0.667v-1.333c0-0.368 0.299-0.667 0.667-0.667z"></path>
</symbol>
<symbol id="ic_replace" viewBox="0 0 32 32">
<path d="M28.417 25.48c1.041 1.041 1.041 2.729 0 3.771s-2.729 1.041-3.771 0l-5.895-5.895c-2.343 1.384-5.093 1.772-7.679 1.204l-0.776 1.395c-0.265 0.476-0.956 0.452-1.187-0.040l-2.479-5.284c-0.193-0.411 0.073-0.892 0.525-0.945l5.796-0.679c0.54-0.064 0.925 0.511 0.66 0.985l-0.451 0.813c1.761 0.055 3.537-0.579 4.884-1.925 1.796-1.796 2.323-4.356 1.64-6.629l3.056-3.056c1.72 3.255 1.664 7.203-0.22 10.391l5.895 5.895zM20.453 8.54c0.164 0.425-0.137 0.885-0.592 0.905l-5.829 0.264c-0.544 0.025-0.885-0.576-0.588-1.031l0.717-1.097c-1.971-0.257-4.028 0.355-5.543 1.871-2.057 2.056-2.463 5.112-1.271 7.592l-2.949 2.951c-2.704-4.137-2.243-9.737 1.391-13.371 2.9-2.9 7.043-3.745 10.704-2.608l0.685-1.048c0.297-0.456 0.985-0.381 1.18 0.125l2.095 5.447z"></path>
</symbol>
<symbol id="ic_role" viewBox="0 0 32 32">
<path d="M7.105 22.975c-0.679-0.732-1.105-1.793-1.105-2.975 0-2.209 1.492-4 3.333-4s3.333 1.791 3.333 4c0 1.187-0.431 2.253-1.116 2.987l2.655 0.864c0.275 0.089 0.46 0.345 0.46 0.633v2.849c0 0.368-0.299 0.667-0.667 0.667h-9.333c-0.368 0-0.667-0.299-0.667-0.667v-2.852c0-0.288 0.184-0.543 0.457-0.633l2.648-0.873zM20.439 22.975c-0.679-0.732-1.105-1.793-1.105-2.975 0-2.209 1.492-4 3.333-4s3.333 1.791 3.333 4c0 1.187-0.431 2.253-1.116 2.987l2.655 0.864c0.275 0.089 0.46 0.345 0.46 0.633v2.849c0 0.368-0.299 0.667-0.667 0.667h-9.333c-0.368 0-0.667-0.299-0.667-0.667v-2.852c0-0.288 0.184-0.543 0.457-0.633l2.648-0.873zM13.772 10.975c-0.679-0.732-1.105-1.793-1.105-2.975 0-2.209 1.492-4 3.333-4s3.333 1.791 3.333 4c0 1.187-0.431 2.253-1.116 2.987l2.655 0.864c0.275 0.089 0.46 0.345 0.46 0.633v2.849c0 0.368-0.299 0.667-0.667 0.667h-9.333c-0.368 0-0.667-0.299-0.667-0.667v-2.852c0-0.288 0.184-0.543 0.457-0.633l2.648-0.873z"></path>
</symbol>
<symbol id="ic_rss" viewBox="0 0 32 32">
<path d="M7.105 22.975c-0.679-0.732-1.105-1.793-1.105-2.975 0-2.209 1.492-4 3.333-4s3.333 1.791 3.333 4c0 1.187-0.431 2.253-1.116 2.987l2.655 0.864c0.275 0.089 0.46 0.345 0.46 0.633v2.849c0 0.368-0.299 0.667-0.667 0.667h-9.333c-0.368 0-0.667-0.299-0.667-0.667v-2.852c0-0.288 0.184-0.543 0.457-0.633l2.648-0.873zM20.439 22.975c-0.679-0.732-1.105-1.793-1.105-2.975 0-2.209 1.492-4 3.333-4s3.333 1.791 3.333 4c0 1.187-0.431 2.253-1.116 2.987l2.655 0.864c0.275 0.089 0.46 0.345 0.46 0.633v2.849c0 0.368-0.299 0.667-0.667 0.667h-9.333c-0.368 0-0.667-0.299-0.667-0.667v-2.852c0-0.288 0.184-0.543 0.457-0.633l2.648-0.873zM13.772 10.975c-0.679-0.732-1.105-1.793-1.105-2.975 0-2.209 1.492-4 3.333-4s3.333 1.791 3.333 4c0 1.187-0.431 2.253-1.116 2.987l2.655 0.864c0.275 0.089 0.46 0.345 0.46 0.633v2.849c0 0.368-0.299 0.667-0.667 0.667h-9.333c-0.368 0-0.667-0.299-0.667-0.667v-2.852c0-0.288 0.184-0.543 0.457-0.633l2.648-0.873z"></path>
</symbol>
<symbol id="ic_search" viewBox="0 0 32 32">
<path d="M18.752 22.524c-4.091 2.416-9.447 1.867-12.961-1.648-4.165-4.165-4.165-10.92 0-15.085s10.92-4.165 15.085 0c3.515 3.515 4.064 8.871 1.648 12.961l5.895 5.895c1.041 1.041 1.041 2.729 0 3.771s-2.729 1.041-3.771 0l-5.895-5.895zM18.047 18.048c2.604-2.604 2.604-6.824 0-9.428s-6.824-2.604-9.428 0c-2.604 2.604-2.604 6.824 0 9.428s6.824 2.604 9.428 0z"></path>
</symbol>
<symbol id="ic_selectbox" viewBox="0 0 32 32">
<path d="M4 12c0-1.472 1.191-2.667 2.66-2.667h18.68c1.469 0 2.66 1.183 2.66 2.667v8.001c0 1.472-1.191 2.667-2.66 2.667h-18.68c-1.469 0-2.66-1.183-2.66-2.667v-8.001zM19.333 18.667l1.665-2.668 1.668-2.665h-6.667l1.668 2.665 1.667 2.668z"></path>
</symbol>
<symbol id="ic_setting" viewBox="0 0 32 32">
<path d="M28.693 13.841l-3.383-0.333c-0.217-0.812-0.541-1.591-0.967-2.324l2.16-2.632c0.232-0.283 0.211-0.695-0.048-0.952l-2.055-2.056c-0.139-0.137-0.32-0.208-0.503-0.208-0.16 0-0.32 0.053-0.451 0.161l-2.632 2.16c-0.735-0.425-1.513-0.749-2.324-0.967l-0.333-3.384c-0.036-0.364-0.341-0.64-0.707-0.64h-2.905c-0.365 0-0.671 0.277-0.707 0.64l-0.333 3.385c-0.811 0.217-1.589 0.541-2.323 0.967l-2.633-2.161c-0.132-0.108-0.291-0.161-0.451-0.161-0.183 0-0.364 0.069-0.503 0.208l-2.055 2.055c-0.259 0.257-0.279 0.671-0.048 0.952l2.161 2.632c-0.425 0.732-0.749 1.511-0.967 2.323l-3.385 0.333c-0.364 0.035-0.641 0.341-0.641 0.707v2.905c0 0.365 0.277 0.672 0.641 0.707l3.385 0.333c0.217 0.812 0.541 1.589 0.967 2.323l-2.16 2.632c-0.233 0.283-0.213 0.695 0.047 0.953l2.055 2.055c0.139 0.137 0.32 0.208 0.503 0.208 0.16 0 0.32-0.053 0.451-0.161l2.632-2.16c0.735 0.425 1.511 0.749 2.324 0.967l0.333 3.384c0.036 0.364 0.341 0.64 0.707 0.64h2.905c0.365 0 0.671-0.277 0.707-0.64l0.333-3.384c0.813-0.217 1.589-0.541 2.324-0.968l2.632 2.16c0.132 0.108 0.291 0.161 0.451 0.161 0.183 0 0.364-0.071 0.503-0.208l2.055-2.055c0.26-0.257 0.279-0.671 0.047-0.953l-2.159-2.631c0.425-0.733 0.749-1.512 0.967-2.323l3.383-0.333c0.364-0.036 0.641-0.341 0.641-0.707v-2.905c0-0.365-0.277-0.671-0.64-0.707zM16.001 19.935c-2.173 0-3.935-1.761-3.935-3.935s1.761-3.935 3.935-3.935c2.172 0 3.933 1.761 3.933 3.935 0 2.172-1.761 3.935-3.933 3.935z"></path>
</symbol>
<symbol id="ic_singleline" viewBox="0 0 32 32">
<path stroke-linejoin="miter" stroke-linecap="butt" stroke-miterlimit="4" stroke-width="2" d="M5 6.66v18.68c0 0.917 0.743 1.66 1.66 1.66h18.68c0.917 0 1.66-0.743 1.66-1.66v-18.68c0-0.917-0.743-1.66-1.66-1.66h-18.68c-0.917 0-1.66 0.743-1.66 1.66zM5.667 22.333v-7.333h20.667v7.333h-20.667zM5.667 9.667h11.333v4.667h-11.333v-4.667z"></path>
</symbol>
<symbol id="ic_sites" viewBox="0 0 32 32">
<path d="M24 9.333h1.333c1.473 0 2.667 1.193 2.667 2.667v13.333c0 1.473-1.193 2.667-2.667 2.667h-14.667c-1.473 0-2.667-1.193-2.667-2.667v-1.333h13.333c1.473 0 2.667-1.193 2.667-2.667v-12h1.333v13.333c0 1.473-1.193 2.667-2.667 2.667h-14.667v-1.333h-1.333c-1.473 0-2.667-1.193-2.667-2.667v-13.333c0-1.473 1.193-2.667 2.667-2.667h14.667c1.473 0 2.667 1.193 2.667 2.667v1.333zM6.667 10.667v10.667h14.667v-10.667h-14.667zM8 9.333c0.736 0 1.333-0.597 1.333-1.333s-0.597-1.333-1.333-1.333-1.333 0.597-1.333 1.333 0.597 1.333 1.333 1.333z"></path>
</symbol>
<symbol id="ic_statusdraft" viewBox="0 0 32 32">
<path d="M24.585 9.007l-4.020-4.783c-0.233-0.279-0.635-0.299-0.897-0.047l-12.312 11.868 0.024 0.029-0.040-0.013-1.928 6.287h0.001c-0.085 0.232-0.051 0.504 0.115 0.7 0.183 0.217 0.467 0.276 0.707 0.171v0.003l5.983-1.381-0.003-0.015 0.008 0.011 12.312-11.868c0.261-0.252 0.284-0.681 0.051-0.96zM7.416 21.213l1.145-3.733 2.443 2.905-3.588 0.828zM6 24.001h20c0.368 0 0.667 0.299 0.667 0.667v1.333c0 0.368-0.299 0.667-0.667 0.667h-20c-0.368 0-0.667-0.299-0.667-0.667v-1.333c0-0.368 0.299-0.667 0.667-0.667z"></path>
</symbol>
<symbol id="ic_stop" viewBox="0 0 32 32">
<path d="M20.064 9.108c-3.067-1.807-7.089-1.396-9.72 1.235s-3.043 6.653-1.235 9.72l10.956-10.956zM22.892 11.936l-10.956 10.956c3.067 1.808 7.089 1.396 9.721-1.235 2.631-2.631 3.043-6.655 1.235-9.721zM7.515 7.515c4.685-4.685 12.285-4.685 16.971 0 4.687 4.687 4.685 12.284 0 16.971-4.687 4.687-12.284 4.687-16.971 0-4.685-4.685-4.687-12.285 0-16.971z"></path>
</symbol>
<symbol id="ic_success" viewBox="0 0 32 32">
<path d="M16 4c6.627 0 12 5.373 12 12s-5.373 12-12 12-12-5.372-12-12c0-6.627 5.373-12 12-12zM23.051 11.635l-2.18-2.181c-0.076-0.076-0.18-0.12-0.288-0.12s-0.212 0.043-0.288 0.12l-7.88 7.88-1.536-1.535c-0.16-0.16-0.417-0.16-0.577 0l-2.181 2.181c-0.076 0.076-0.12 0.18-0.12 0.288s0.043 0.212 0.12 0.288l3.992 3.991c0.076 0.076 0.18 0.12 0.288 0.12l0.015-0.003 0.012 0.003c0.105 0 0.209-0.040 0.288-0.12l10.335-10.335c0.16-0.16 0.16-0.419 0-0.577z"></path>
</symbol>
<symbol id="ic_system" viewBox="0 0 32 32">
<path d="M22.929 19.604l-0.72 0.72-0.924-0.924-0.471 0.471 0.923 0.924-0.943 0.943-0.924-0.923-0.471 0.471 0.924 0.924-2.829 2.828-1.867 0.019-0.019-1.904 5.44-5.44c-0.242-0.5-0.384-1.088-0.384-1.71 0-2.209 1.791-4 4-4s4 1.791 4 4c0 2.209-1.791 4-4 4-0.632 0-1.23-0.147-1.761-0.408l0.024 0.010zM18.891 17.061l-6.157 6.157c-0.121 0.121-0.195 0.287-0.195 0.471s0.075 0.351 0.195 0.471l3.772 3.772c0.024 0.024 0.049 0.045 0.076 0.065l0.002 0.001h-8.575c-0.003 0-0.007 0-0.011 0-1.471 0-2.664-1.193-2.664-2.664 0-0.001 0-0.002 0-0.003v0-4.132c0-0.644 0.265-1.22 0.669-1.459l5.825-3.432c-1.499-1.177-2.495-3.265-2.495-5.644 0-3.681 2.387-6.667 5.333-6.667s5.333 2.985 5.333 6.667c0 2.345-0.969 4.408-2.433 5.596l1.324 0.799zM24 21.381v3.952c0 1.473-1.196 2.667-2.675 2.667h-3.956c0.029-0.021 0.055-0.043 0.079-0.067l6.552-6.552zM26 15.493c0.552 0 1-0.448 1-1s-0.448-1-1-1v0c-0.552 0-1 0.448-1 1s0.448 1 1 1v0z"></path>
</symbol>
<symbol id="ic_tag" viewBox="0 0 32 32">
<path d="M27.9 21.984l-0.027-0.037h0.001l-9.605-16.636-0.005 0.003c-0.083-0.132-0.199-0.228-0.332-0.285l0.013-0.008-3.931-2.269v0.016c-0.197-0.112-0.44-0.131-0.659-0.039l-0.004-0.008-0.073 0.043-0.008 0.005-7.563 4.367c-0.235 0.135-0.364 0.377-0.371 0.629l-0.003-0.001v4.539l0.008-0.004c-0.017 0.152 0.011 0.311 0.093 0.455l0.017 0.023 9.573 16.581 0.027 0.059c0.2 0.347 0.637 0.469 0.989 0.285l0.001 0.003 11.591-6.692-0.005-0.009c0.356-0.207 0.477-0.663 0.272-1.019zM11.799 8.859c-0.66 0.381-1.504 0.155-1.885-0.505s-0.155-1.504 0.505-1.885c0.66-0.381 1.504-0.155 1.885 0.505s0.155 1.504-0.505 1.885z"></path>
</symbol>
<symbol id="ic_template" viewBox="0 0 32 32">
<path d="M4 10.667h24v14.663c0 1.475-1.191 2.671-2.66 2.671h-18.68c-1.469 0-2.66-1.192-2.66-2.671v-14.663zM15.56 25.44v-1.12c-1.227-0.080-2.080-0.387-2.693-0.973-0.533-0.52-0.773-1.080-0.907-2.107l1.88-0.293c0.067 0.76 0.173 1.053 0.493 1.373 0.307 0.333 0.693 0.493 1.227 0.533v-3.293c-1.24-0.28-1.693-0.44-2.253-0.813-0.693-0.453-1.107-1.293-1.107-2.213 0-1.027 0.467-1.867 1.293-2.4 0.613-0.373 1.187-0.547 2.067-0.6v-0.693h0.907v0.707c1.107 0.093 1.773 0.36 2.387 0.947 0.507 0.48 0.733 0.92 0.907 1.773l-1.827 0.307c-0.080-0.533-0.2-0.8-0.48-1.080-0.267-0.28-0.547-0.413-0.987-0.48v2.96c1.36 0.28 1.96 0.507 2.493 0.907 0.733 0.573 1.053 1.267 1.053 2.267 0 1.147-0.467 2.027-1.347 2.587-0.613 0.373-1.227 0.547-2.2 0.6v1.107h-0.907zM15.56 17.8v-2.787c-0.453 0.027-0.733 0.12-1.027 0.347-0.333 0.253-0.52 0.627-0.52 1.040 0 0.427 0.187 0.787 0.507 1.013 0.267 0.16 0.52 0.267 1.040 0.387zM22.161 22.324l0.667 0.667 2.828-2.828-2.828-2.828-0.667 0.667 2.161 2.161-2.161 2.161zM10.161 18l-0.667-0.667-2.828 2.828 2.828 2.828 0.667-0.667-2.161-2.161 2.161-2.161zM16.467 19.72c0.76 0.187 1.027 0.28 1.24 0.453 0.28 0.24 0.427 0.6 0.427 1.067 0 0.96-0.587 1.533-1.667 1.627v-3.147zM6.667 4h18.667c1.473 0 2.667 1.193 2.667 2.667v2c0 0.368-0.299 0.667-0.667 0.667h-22.667c-0.368 0-0.667-0.299-0.667-0.667v-2c0-1.473 1.193-2.667 2.667-2.667z"></path>
</symbol>
<symbol id="ic_textbigger" viewBox="0 0 32 32">
<path d="M11.179 17.815h4.24l-2.063-5.871h-0.045l-2.132 5.871zM22.667 14.667v-2.012c0-0.001 0-0.001 0-0.002 0-0.361 0.293-0.653 0.653-0.653 0.007 0 0.014 0 0.021 0l-0.001-0h1.32c0.372 0 0.673 0.304 0.673 0.655v2.012h2.012c0 0 0.001 0 0.002 0 0.361 0 0.653 0.293 0.653 0.653 0 0.007-0 0.014-0 0.021l0-0.001v1.32c0 0.001 0 0.002 0 0.003 0 0.365-0.291 0.662-0.654 0.67l-0.001 0h-2.012v2.012c0 0 0 0.001 0 0.002 0 0.361-0.293 0.653-0.653 0.653-0.007 0-0.014-0-0.021-0l0.001 0h-1.32c-0.001 0-0.002 0-0.003 0-0.365 0-0.662-0.291-0.67-0.654l-0-0.001v-2.012h-2.012c-0 0-0.001 0-0.002 0-0.361 0-0.653-0.293-0.653-0.653 0-0.007 0-0.014 0-0.021l-0 0.001v-1.32c0-0.372 0.304-0.673 0.655-0.673h2.012zM11.523 8h3.691l6.12 16h-3.736l-1.239-3.563h-6.119l-1.285 3.563h-3.621l6.189-16z"></path>
</symbol>
<symbol id="ic_textcolor" viewBox="0 0 32 32">
<path d="M13.845 15.373h4.24l-2.063-6.005h-0.045l-2.132 6.005zM14.189 5.333h3.691l6.12 16.367h-3.736l-1.239-3.644h-6.119l-1.284 3.644h-3.623l6.189-16.367z"></path>
<path d="M6 24h20c0.368 0 0.667 0.298 0.667 0.667v2.667c0 0.368-0.298 0.667-0.667 0.667h-20c-0.368 0-0.667-0.298-0.667-0.667v-2.667c0-0.368 0.298-0.667 0.667-0.667z"></path>
</symbol>
<symbol id="ic_textsmaller" viewBox="0 0 32 32">
<path d="M11.179 17.815h4.24l-2.063-5.871h-0.045l-2.132 5.871zM11.523 8h3.691l6.12 16h-3.736l-1.239-3.563h-6.119l-1.285 3.563h-3.621l6.189-16zM20 15.34c0-0.372 0.304-0.673 0.655-0.673h6.691c0 0 0.001 0 0.002 0 0.361 0 0.653 0.293 0.653 0.653 0 0.007-0 0.014-0 0.021l0-0.001v1.32c0 0.001 0 0.002 0 0.003 0 0.365-0.291 0.662-0.654 0.67l-0.001 0h-6.691c-0 0-0.001 0-0.002 0-0.361 0-0.653-0.293-0.653-0.653 0-0.007 0-0.014 0-0.021l-0 0.001v-1.32z"></path>
</symbol>
<symbol id="ic_time" viewBox="0 0 32 32">
<path d="M16 4c6.628 0 12 5.373 12 12s-5.372 12-12 12-12-5.372-12-12c0-6.627 5.372-12 12-12zM10.272 20.871l0.943 0.943c0.26 0.26 0.683 0.26 0.943 0l4.833-4.833c0.251-0.251 0.391-0.589 0.391-0.943v-8.704c0-0.368-0.299-0.667-0.667-0.667h-1.333c-0.368 0-0.667 0.299-0.667 0.667v8.152l-4.444 4.444c-0.26 0.26-0.26 0.683 0 0.943z"></path>
</symbol>
<symbol id="ic_tool" viewBox="0 0 32 32">
<path d="M26.797 8.424l-2.832 2.832c-0.84 0.053-1.699-0.237-2.341-0.88s-0.933-1.5-0.88-2.341l4.12-4.12c0.084-0.084 0.084-0.22 0-0.304l-0.088-0.051c-0.892-0.397-1.876-0.627-2.916-0.627-3.98 0-7.205 3.227-7.205 7.207 0 0.76 0.12 1.492 0.337 2.179l-7.515 7.515c-2.515 0.040-4.543 2.089-4.543 4.615 0 2.549 2.068 4.617 4.617 4.617 2.525 0 4.573-2.028 4.615-4.543l7.515-7.515c0.688 0.219 1.42 0.337 2.18 0.337 3.98 0 7.205-3.227 7.205-7.205 0-1.040-0.228-2.021-0.625-2.915l-0.051-0.092c-0.084-0.084-0.22-0.084-0.304 0.001l-1.288 1.288zM9.46 24.449c0 1.053-0.855 1.908-1.908 1.908s-1.908-0.855-1.908-1.908c0-1.055 0.855-1.908 1.908-1.908s1.908 0.855 1.908 1.908z"></path>
</symbol>
<symbol id="ic_trackback" viewBox="0 0 32 32">
<path d="M19.449 9.463h-13.449c-0.368 0-0.667 0.299-0.667 0.667v3.871c0 0.368 0.299 0.667 0.667 0.667h19.977c0.161 0 0.319-0.059 0.44-0.165 0.276-0.243 0.304-0.664 0.061-0.941l-5.86-6.672c-0.127-0.144-0.309-0.227-0.501-0.227-0.368 0-0.667 0.299-0.667 0.667v2.135zM12.551 22.539h13.449c0.368 0 0.667-0.299 0.667-0.667v-3.871c0-0.368-0.299-0.667-0.667-0.667h-19.977c-0.161 0-0.319 0.059-0.44 0.165-0.276 0.243-0.304 0.664-0.061 0.941l5.86 6.672c0.127 0.144 0.309 0.227 0.501 0.227 0.368 0 0.667-0.299 0.667-0.667v-2.135z"></path>
</symbol>
<symbol id="ic_trash" viewBox="0 0 32 32">
<path d="M12 5.333h-6.005c-0.36 0-0.661 0.303-0.661 0.675v1.984c0 0.367 0.296 0.675 0.661 0.675h20.009c0.36 0 0.661-0.303 0.661-0.675v-1.984c0-0.367-0.296-0.675-0.661-0.675h-6.005v-0.66c0-0.388-0.293-0.673-0.655-0.673h-6.691c-0.351 0-0.655 0.301-0.655 0.673v0.66zM25.333 9.333v16.008c0 1.468-1.196 2.659-2.675 2.659h-13.317c-1.477 0-2.675-1.193-2.675-2.659v-16.008h18.667zM11.333 14.337v8.66c0 0.545 0.448 1.004 1 1.004 0.556 0 1-0.449 1-1.004v-8.66c0-0.545-0.448-1.004-1-1.004-0.556 0-1 0.449-1 1.004zM15.333 14.337v8.66c0 0.545 0.448 1.004 1 1.004 0.556 0 1-0.449 1-1.004v-8.66c0-0.545-0.448-1.004-1-1.004-0.556 0-1 0.449-1 1.004zM19.333 14.337v8.66c0 0.545 0.448 1.004 1 1.004 0.556 0 1-0.449 1-1.004v-8.66c0-0.545-0.448-1.004-1-1.004-0.556 0-1 0.449-1 1.004z"></path>
</symbol>
<symbol id="ic_tri-down" viewBox="0 0 32 32">
<path d="M8.276 10.943h14.897c0.736 0 1.333 0.597 1.333 1.333 0 0.368-0.149 0.701-0.39 0.943l-7.449 7.448c-0.241 0.241-0.575 0.39-0.943 0.39s-0.701-0.149-0.943-0.39l-7.448-7.448c-0.241-0.241-0.39-0.575-0.39-0.943 0-0.736 0.597-1.333 1.333-1.333h0z"></path>
</symbol>
<symbol id="ic_tri-left" viewBox="0 0 32 32">
<path d="M20.781 8.552v14.896c-0 0.736-0.597 1.333-1.333 1.333-0.368 0-0.701-0.149-0.943-0.39l-7.448-7.448c-0.241-0.241-0.39-0.575-0.39-0.943s0.149-0.701 0.39-0.943l7.448-7.448c0.241-0.241 0.575-0.39 0.943-0.39 0.736 0 1.333 0.597 1.333 1.333v0z"></path>
</symbol>
<symbol id="ic_tri-right" viewBox="0 0 32 32">
<path d="M10.667 8.552v14.896c0 0.736 0.597 1.333 1.333 1.333 0.368 0 0.701-0.149 0.943-0.39l7.448-7.448c0.241-0.241 0.39-0.575 0.39-0.943s-0.149-0.701-0.39-0.943l-7.448-7.448c-0.241-0.241-0.575-0.39-0.943-0.39-0.736 0-1.333 0.597-1.333 1.333v0z"></path>
</symbol>
<symbol id="ic_tri-up" viewBox="0 0 32 32">
<path d="M23.172 21.057h-14.896c-0.736-0-1.333-0.597-1.333-1.333 0-0.368 0.149-0.701 0.39-0.943l7.448-7.448c0.241-0.241 0.575-0.39 0.943-0.39s0.701 0.149 0.943 0.39l7.448 7.448c0.241 0.241 0.39 0.575 0.39 0.943 0 0.736-0.597 1.333-1.333 1.333h-0z"></path>
</symbol>
<symbol id="ic_underline" viewBox="0 0 32 32">
<path d="M8 26.667h16v1.333h-16v-1.333zM24 17.011c0 2.543-0.709 4.432-2.128 5.668s-3.38 1.855-5.885 1.855c-2.54 0-4.505-0.613-5.899-1.841-1.392-1.228-2.089-3.121-2.089-5.681v-11.677h4.125v11.677c0 0.508 0.044 1.008 0.132 1.499s0.272 0.925 0.552 1.301c0.28 0.377 0.669 0.684 1.169 0.92 0.499 0.237 1.169 0.355 2.009 0.355 1.471 0 2.487-0.329 3.048-0.987 0.56-0.657 0.841-1.688 0.841-3.091v-11.677h4.125v11.677z"></path>
</symbol>
<symbol id="ic_undo" viewBox="0 0 32 32">
<path d="M6.816 8.277c2.201-2.615 5.499-4.277 9.184-4.277 6.628 0 12 5.372 12 12s-5.372 12-12 12c-3.64 0-6.901-1.621-9.103-4.18-0.212-0.347-0.18-0.631 0.097-0.853 0.477-0.385 1.817-1.355 2.333-1.72 0.211-0.149 0.435-0.135 0.671 0.044l0.349 0.371 0.011 0.013-0.009-0.012c1.447 1.444 3.445 2.337 5.652 2.337 4.419 0 8-3.581 8-8s-3.581-8-8-8c-2.456 0-4.653 1.107-6.12 2.848l1.851 1.553-0.001 0.001c0.137 0.12 0.187 0.289 0.108 0.384l-0.176 0.059-6.423 1.043-0.004-0.007c-0.091 0.028-0.217-0.007-0.324-0.095-0.096-0.080-0.145-0.184-0.147-0.273l-0.015-0.005-0.089-6.532 0.025-0.189c0.080-0.096 0.261-0.076 0.405 0.044l1.723 1.445z"></path>
</symbol>
<symbol id="ic_unindent" viewBox="0 0 32 32">
<path d="M4 16.080c0-0.073 0.041-0.133 0.1-0.168l-0.005-0.008 4.305-2.485c0.036-0.037 0.086-0.060 0.141-0.060 0.108 0 0.196 0.088 0.196 0.196 0 0.001 0 0.001 0 0.002v-0 5.048c-0.003 0.106-0.089 0.191-0.196 0.191-0.054 0-0.102-0.021-0.137-0.056l0 0-4.288-2.475 0.001-0.004c-0.070-0.031-0.117-0.1-0.117-0.18 0-0 0-0 0-0v0zM4.667 4h22.667c0.368 0 0.667 0.298 0.667 0.667v0 2.667c0 0.368-0.298 0.667-0.667 0.667v0h-22.667c-0.368 0-0.667-0.298-0.667-0.667v0-2.667c0-0.368 0.298-0.667 0.667-0.667v0zM12.667 10.667h14.667c0.368 0 0.667 0.298 0.667 0.667v0 2.667c0 0.368-0.298 0.667-0.667 0.667v0h-14.667c-0.368 0-0.667-0.298-0.667-0.667v0-2.667c0-0.368 0.298-0.667 0.667-0.667v0zM12.667 17.333h14.667c0.368 0 0.667 0.298 0.667 0.667v0 2.667c0 0.368-0.298 0.667-0.667 0.667v0h-14.667c-0.368 0-0.667-0.298-0.667-0.667v0-2.667c0-0.368 0.298-0.667 0.667-0.667v0zM4.667 24h22.667c0.368 0 0.667 0.298 0.667 0.667v0 2.667c0 0.368-0.298 0.667-0.667 0.667v0h-22.667c-0.368 0-0.667-0.298-0.667-0.667v0-2.667c0-0.368 0.298-0.667 0.667-0.667v0z"></path>
</symbol>
<symbol id="ic_unlink" viewBox="0 0 32 32">
<path d="M21.876 8.379l2.309 1.333c1.276 0.736 1.712 2.367 0.976 3.643l-6.667 11.547c-0.736 1.276-2.367 1.712-3.643 0.976l-2.309-1.333-2 3.464c-0.368 0.637-1.184 0.856-1.821 0.488s-0.856-1.184-0.488-1.821l2-3.464-2.309-1.333c-1.276-0.736-1.712-2.367-0.976-3.643l6.667-11.547c0.736-1.276 2.367-1.712 3.643-0.976l2.309 1.333 2-3.464c0.368-0.637 1.184-0.856 1.821-0.488s0.856 1.184 0.488 1.821l-2 3.464zM20.543 10.688l-0.667 1.155c-0.368 0.637-1.184 0.856-1.821 0.488s-0.856-1.184-0.488-1.821l0.667-1.155-1.732-1c-0.319-0.184-0.727-0.075-0.911 0.244l-6 10.392c-0.184 0.319-0.075 0.727 0.244 0.911l1.732 1 0.667-1.155c0.368-0.637 1.184-0.856 1.821-0.488s0.856 1.184 0.488 1.821l-0.667 1.155 1.732 1c0.319 0.184 0.727 0.075 0.911-0.244l6-10.392c0.184-0.319 0.075-0.727-0.244-0.911l-1.732-1zM11.615 10.152l-2.615 4.529c0.591-0.553 1.163-0.671 1.716-0.351s0.752 0.881 0.593 1.684l2.615-4.529c-0.597 0.76-1.228 0.948-1.893 0.564s-0.804-1.016-0.416-1.897zM20.852 15.485l-2.615 4.529c0.591-0.553 1.163-0.671 1.716-0.351s0.752 0.881 0.593 1.684l2.615-4.529c-0.597 0.76-1.228 0.948-1.893 0.564s-0.804-1.016-0.416-1.897zM26.804 17.664c0.184 0.319 0.075 0.727-0.244 0.911l-1.155 0.667c-0.319 0.184-0.727 0.075-0.911-0.244s-0.075-0.727 0.244-0.911l1.155-0.667c0.319-0.184 0.727-0.075 0.911 0.244zM22.983 21.616c0.368 0 0.667 0.299 0.667 0.667v1.333c0 0.368-0.299 0.667-0.667 0.667s-0.667-0.299-0.667-0.667v-1.333c0-0.368 0.299-0.667 0.667-0.667zM26.625 21.973c-0.184 0.319-0.592 0.428-0.911 0.244l-1.155-0.667c-0.319-0.184-0.428-0.592-0.244-0.911s0.592-0.428 0.911-0.244l1.155 0.667c0.319 0.184 0.428 0.592 0.244 0.911zM9.772 7.831c0.368 0 0.667 0.299 0.667 0.667v1.333c0 0.368-0.299 0.667-0.667 0.667s-0.667-0.299-0.667-0.667v-1.333c0-0.368 0.299-0.667 0.667-0.667zM8.26 13.116c0.184 0.319 0.075 0.727-0.244 0.911l-1.155 0.667c-0.319 0.184-0.727 0.075-0.911-0.244s-0.075-0.727 0.244-0.911l1.155-0.667c0.319-0.184 0.727-0.075 0.911 0.244zM8.439 11.473c-0.184 0.319-0.592 0.428-0.911 0.244l-1.155-0.667c-0.319-0.184-0.428-0.592-0.244-0.911s0.592-0.428 0.911-0.244l1.155 0.667c0.319 0.184 0.428 0.592 0.244 0.911z"></path>
</symbol>
<symbol id="ic_upload" viewBox="0 0 32 32">
<path d="M24 25.333v-6c0-0.368 0.299-0.667 0.667-0.667h1.333c0.368 0 0.667 0.299 0.667 0.667v6c0 1.473-1.193 2.667-2.667 2.667h-16c-1.473 0-2.667-1.193-2.667-2.667v-6c0-0.368 0.299-0.667 0.667-0.667h1.333c0.368 0 0.667 0.299 0.667 0.667v6h16zM12.127 15.128h-3.419c-0.264 0-0.508-0.123-0.629-0.321-0.12-0.199-0.101-0.436 0.052-0.617l7.269-8.605c0.133-0.157 0.347-0.251 0.576-0.251 0.227 0 0.443 0.093 0.575 0.249l7.317 8.607c0.153 0.181 0.175 0.419 0.052 0.617-0.121 0.196-0.364 0.321-0.628 0.321h-3.421v6.396c0 0.331-0.316 0.596-0.707 0.596h-6.331c-0.391 0-0.707-0.265-0.707-0.596v-6.396z"></path>
</symbol>
<symbol id="ic_user-auth" viewBox="0 0 32 32">
<path d="M22.929 19.604l-0.72 0.72-0.924-0.924-0.471 0.471 0.923 0.924-0.943 0.943-0.924-0.923-0.471 0.471 0.924 0.924-2.829 2.828-1.867 0.019-0.019-1.904 5.44-5.44c-0.242-0.5-0.384-1.088-0.384-1.71 0-2.209 1.791-4 4-4s4 1.791 4 4c0 2.209-1.791 4-4 4-0.632 0-1.23-0.147-1.761-0.408l0.024 0.010zM18.891 17.061l-4.272 4.272h-6.611c-0 0-0.001 0-0.001 0-1.476 0-2.673 1.197-2.673 2.673v0 0.005h7.288c0.032 0.057 0.069 0.106 0.112 0.149v-0l3.772 3.772c0.024 0.024 0.049 0.045 0.076 0.065l0.002 0.001h-8.575c-0.001 0-0.003 0-0.004 0-1.475 0-2.671-1.196-2.671-2.671 0-0.001 0-0.002 0-0.003v0-4.125c0-0.644 0.265-1.22 0.669-1.459l5.825-3.432c-1.499-1.177-2.495-3.265-2.495-5.644 0-3.681 2.387-6.667 5.333-6.667s5.333 2.985 5.333 6.667c0 2.345-0.969 4.408-2.433 5.596l1.324 0.799zM24 21.381l-0.759 0.759c0.469 0.48 0.759 1.139 0.759 1.867v1.32c0 1.476-1.197 2.673-2.673 2.673-0 0-0.001 0-0.001 0h-3.956c0.029-0.021 0.055-0.043 0.079-0.067l3.92-3.921h2.632v-2.631zM26 15.493c0.552 0 1-0.448 1-1s-0.448-1-1-1v0c-0.552 0-1 0.448-1 1s0.448 1 1 1v0z"></path>
</symbol>
<symbol id="ic_user-open" viewBox="0 0 32 32">
<path d="M4 6.66c0-1.469 1.191-2.66 2.66-2.66h18.68c1.469 0 2.66 1.191 2.66 2.66v18.68c0 1.469-1.191 2.66-2.66 2.66v0h-18.68c-1.469 0-2.66-1.191-2.66-2.66v0-18.68zM6.667 6.667v18.667h18.667v-18.667h-18.667zM14.369 11.357l6.132 4.088c0.18 0.121 0.297 0.324 0.297 0.555s-0.117 0.433-0.294 0.553l-0.002 0.002-6.132 4.088c-0.104 0.070-0.232 0.112-0.369 0.112-0.368 0-0.666-0.298-0.667-0.666v-8.176c0-0.368 0.299-0.666 0.667-0.666 0.138 0 0.266 0.042 0.372 0.113l-0.002-0.002z"></path>
</symbol>
<symbol id="ic_user" viewBox="0 0 32 32">
<path d="M4 24.009v-2.808c0-0.643 0.341-1.219 0.86-1.459l8.016-3.672c-1.339-1.211-2.209-3.18-2.209-5.404 0-3.681 2.388-6.667 5.333-6.667s5.333 2.985 5.333 6.667c0 2.187-0.843 4.128-2.143 5.343l7.96 3.735c0.515 0.245 0.849 0.815 0.851 1.456v4.125c0 1.476-1.191 2.673-2.66 2.673h-18.68c-1.469 0-2.66-1.192-2.66-2.673v-1.317z"></path>
</symbol>
<symbol id="ic_wysiwyg" viewBox="0 0 32 32">
<path d="M14.204 17.512h3.533l-1.719-4.892h-0.037l-1.777 4.893zM14.491 9.333h3.076l5.1 13.333h-3.113l-1.032-2.969h-5.1l-1.069 2.969h-3.019l5.157-13.333z"></path>
<path d="M4 6.66c0-1.469 1.191-2.66 2.66-2.66h18.68c1.469 0 2.66 1.191 2.66 2.66v18.68c0 1.469-1.191 2.66-2.66 2.66v0h-18.68c-1.469 0-2.66-1.191-2.66-2.66v0-18.68zM6.667 6.667v18.667h18.667v-18.667h-18.667z"></path>
</symbol>
<symbol id="ic_close" viewBox="0 0 32 32">
<path style="fill: var(--color1, #004b9a)" d="M8.615 8.615h16v16h-16v-16z"></path>
<path style="fill: var(--color2, #fff)" d="M15.305 16l4.1 4.1-1.867 1.9-6-6 6-6 1.867 1.9-4.1 4.1zM16.205 29.334c1.844 0 3.578-0.35 5.2-1.050s3.033-1.65 4.233-2.85 2.15-2.611 2.85-4.233c0.7-1.622 1.050-3.356 1.050-5.2s-0.35-3.578-1.050-5.2c-0.7-1.622-1.65-3.033-2.85-4.233s-2.611-2.15-4.233-2.85c-1.622-0.7-3.356-1.050-5.2-1.050s-3.578 0.35-5.2 1.050c-1.622 0.7-3.033 1.65-4.233 2.85s-2.15 2.611-2.85 4.233c-0.7 1.622-1.050 3.356-1.050 5.2s0.35 3.578 1.050 5.2c0.7 1.622 1.65 3.033 2.85 4.233s2.611 2.15 4.233 2.85c1.622 0.7 3.356 1.050 5.2 1.050z"></path>
</symbol>
<symbol id="ic_create" viewBox="0 0 32 32">
<path d="M10.444 24.888h1.583l10.861-10.861-1.583-1.583-10.861 10.861v1.583zM8.221 27.111v-4.722l14.667-14.639c0.222-0.204 0.468-0.361 0.736-0.472s0.551-0.167 0.847-0.167c0.296 0 0.583 0.056 0.861 0.167s0.519 0.278 0.722 0.5l1.528 1.556c0.222 0.204 0.384 0.444 0.486 0.722s0.153 0.556 0.153 0.833c0 0.296-0.051 0.579-0.153 0.847s-0.264 0.514-0.486 0.736l-14.639 14.639h-4.722zM22.082 13.25l-0.778-0.806 1.583 1.583-0.806-0.778z"></path>
<path d="M8.222 9.334v2.222h2.222v-2.222h2.222v-2.222h-2.222v-2.222h-2.222v2.222h-2.222v2.222h2.222z"></path>
</symbol>
<symbol id="ic_open" viewBox="0 0 32 32">
<path style="fill: var(--color1, #004b9a)" d="M23.385 8.615h-16v16h16v-16z"></path>
<path style="fill: var(--color2, #fff)" d="M16.695 16l-4.1 4.1 1.867 1.9 6-6-6-6-1.867 1.9 4.1 4.1zM15.795 29.334c-1.844 0-3.578-0.35-5.2-1.050s-3.033-1.65-4.233-2.85-2.15-2.611-2.85-4.233c-0.7-1.622-1.050-3.356-1.050-5.2s0.35-3.578 1.050-5.2c0.7-1.622 1.65-3.033 2.85-4.233s2.611-2.15 4.233-2.85c1.622-0.7 3.356-1.050 5.2-1.050s3.578 0.35 5.2 1.050c1.622 0.7 3.033 1.65 4.233 2.85s2.15 2.611 2.85 4.233c0.7 1.622 1.050 3.356 1.050 5.2s-0.35 3.578-1.050 5.2c-0.7 1.622-1.65 3.033-2.85 4.233s-2.611 2.15-4.233 2.85c-1.622 0.7-3.356 1.050-5.2 1.050z"></path>
</symbol>
<symbol id="ic_rebuild" viewBox="0 0 32 32">
<path d="M8.334 20.5c-0.407-0.704-0.713-1.426-0.917-2.167s-0.306-1.5-0.306-2.278c0-2.481 0.861-4.593 2.583-6.333s3.824-2.611 6.306-2.611h0.194l-1.778-1.778 1.555-1.556 4.445 4.444-4.445 4.444-1.555-1.556 1.778-1.778h-0.194c-1.852 0-3.426 0.653-4.722 1.958s-1.944 2.894-1.944 4.764c0 0.482 0.056 0.954 0.167 1.417s0.278 0.917 0.5 1.361l-1.667 1.667zM16.029 28.222l-4.444-4.444 4.444-4.444 1.556 1.555-1.778 1.778h0.195c1.852 0 3.426-0.653 4.722-1.958s1.945-2.893 1.945-4.764c0-0.481-0.056-0.954-0.167-1.417s-0.278-0.917-0.5-1.361l1.667-1.667c0.407 0.704 0.713 1.426 0.917 2.167s0.305 1.5 0.305 2.278c0 2.481-0.861 4.593-2.583 6.333s-3.824 2.611-6.305 2.611h-0.195l1.778 1.778-1.556 1.555z"></path>
</symbol>
<symbol id="ic_site-link" viewBox="0 0 32 32">
<path d="M4.16667 17.5C3.70833 17.5 3.31597 17.3368 2.98958 17.0104C2.66319 16.684 2.5 16.2917 2.5 15.8333V4.16667C2.5 3.70833 2.66319 3.31597 2.98958 2.98958C3.31597 2.66319 3.70833 2.5 4.16667 2.5H10V4.16667H4.16667V15.8333H15.8333V10H17.5V15.8333C17.5 16.2917 17.3368 16.684 17.0104 17.0104C16.684 17.3368 16.2917 17.5 15.8333 17.5H4.16667ZM8.08333 13.0833L6.91667 11.9167L14.6667 4.16667H11.6667V2.5H17.5V8.33333H15.8333V5.33333L8.08333 13.0833Z"/>
</symbol>
<symbol id="ic_view" viewBox="0 0 32 32">
<path d="M6.667 28c-0.733 0-1.361-0.261-1.883-0.783s-0.783-1.15-0.783-1.883v-18.667c0-0.733 0.261-1.361 0.783-1.883s1.15-0.783 1.883-0.783h9.333v2.667h-9.333v18.667h18.667v-9.333h2.667v9.333c0 0.733-0.261 1.361-0.783 1.883s-1.15 0.783-1.883 0.783h-18.667zM12.933 20.933l-1.867-1.867 12.4-12.4h-4.8v-2.667h9.333v9.333h-2.667v-4.8l-12.4 12.4z"></path>
</symbol>
<symbol id="ic_home" viewBox="0 0 32 32">
<path d="M7.75 19V12.1375L5.65 13.75L4.75 12.55L13 6.25L16 8.5375V7H18.25V10.2625L21.25 12.55L20.35 13.75L18.25 12.1375V19H14.5V14.5H11.5V19H7.75ZM11.5 11.5188H14.5C14.5 11.1188 14.35 10.7906 14.05 10.5344C13.75 10.2781 13.4 10.15 13 10.15C12.6 10.15 12.25 10.2781 11.95 10.5344C11.65 10.7906 11.5 11.1188 11.5 11.5188Z" />
</symbol>
<symbol id="ic_site-list" viewBox="0 0 20 19">
<path d="M11.75 16.25V14H8.75V6.5H7.25V8.75H2V2.75H7.25V5H11.75V2.75H17V8.75H11.75V6.5H10.25V12.5H11.75V10.25H17V16.25H11.75Z" />
</symbol>
</defs>
</svg>
