<svg xmlns="http://www.w3.org/2000/svg" xmlns:xlink="http://www.w3.org/1999/xlink" width="24" height="24" viewBox="0 0 24 24">
  <defs>
    <path id="a" d="M4,6.49047852 C4,6.21959471 4.22618103,6 4.4963932,6 L19.5036068,6 C19.7777572,6 20,6.21505737 20,6.49047852 L20,9.50952148 C20,9.78040529 19.773819,10 19.5036068,10 L4.4963932,10 C4.22224281,10 4,9.78494263 4,9.50952148 L4,6.49047852 Z M4,14.4904785 C4,14.2195947 4.23079681,14 4.50043583,14 L11.4995642,14 C11.7759472,14 12,14.2150574 12,14.4904785 L12,17.5095215 C12,17.7804053 11.7692032,18 11.4995642,18 L4.50043583,18 C4.22405275,18 4,17.7849426 4,17.5095215 L4,14.4904785 Z"/>
  </defs>
  <g fill="none" fill-rule="evenodd">
    <use fill="#000000" xlink:href="#a"/>
  </g>
</svg>
