<svg xmlns="http://www.w3.org/2000/svg" xmlns:xlink="http://www.w3.org/1999/xlink" width="24" height="24" viewBox="0 0 24 24">
  <defs>
    <path id="a" d="M8,6.49047852 C8,6.21959471 8.22900057,6 8.50034732,6 L19.4996527,6 C19.7759869,6 20,6.21505737 20,6.49047852 L20,9.50952148 C20,9.78040529 19.7709994,10 19.4996527,10 L8.50034732,10 C8.22401312,10 8,9.78494263 8,9.50952148 L8,6.49047852 Z M4,4.4963932 C4,4.22224281 4.21403503,4 4.50468445,4 L5.49531555,4 C5.77404508,4 6,4.22618103 6,4.4963932 L6,19.5036068 C6,19.7777572 5.78596497,20 5.49531555,20 L4.50468445,20 C4.22595492,20 4,19.773819 4,19.5036068 L4,4.4963932 Z M8,14.4904785 C8,14.2195947 8.23079681,14 8.50043583,14 L15.4995642,14 C15.7759472,14 16,14.2150574 16,14.4904785 L16,17.5095215 C16,17.7804053 15.7692032,18 15.4995642,18 L8.50043583,18 C8.22405275,18 8,17.7849426 8,17.5095215 L8,14.4904785 Z"/>
  </defs>
  <g fill="none" fill-rule="evenodd">
    <use fill="#000000" xlink:href="#a"/>
  </g>
</svg>
