<svg xmlns="http://www.w3.org/2000/svg" width="24" height="24" viewBox="0 0 24 24">
  <path fill="#000000" fill-rule="evenodd" d="M19.8946667,3.74358621 L19.8866667,3.74358621 C19.8476667,3.42362069 19.559,3.17348276 19.2043333,3.17348276 C19.0783333,3.17348276 18.9623333,3.207 18.8606667,3.26193103 L18.8543333,3.252 L12.0333333,6.91872414 L12.0333333,6.92244828 L9.45333333,8.30937931 L4.62633333,8.30937931 L4.62633333,8.3217931 C4.622,8.3217931 4.61833333,8.32055172 4.614,8.32055172 C4.33333333,8.32055172 4.10566667,8.53282759 4.10566667,8.79382759 L4.10566667,15.2055517 C4.10566667,15.4668621 4.33366667,15.6785172 4.614,15.6785172 C4.61833333,15.6785172 4.622,15.6775862 4.62633333,15.6772759 L4.62633333,15.69 L9.45333333,15.69 L13.2946667,17.7547241 L13.2946667,17.7451034 L18.811,20.7104483 C18.923,20.7824483 19.058,20.8258966 19.2043333,20.8258966 C19.5856667,20.8258966 19.8946667,20.5382069 19.8946667,20.1834828 C19.8946667,20.1583448 19.8896667,20.1353793 19.8866667,20.1111724 L19.8946667,20.1111724 L19.8946667,3.74358621 L19.8946667,3.74358621 Z"/>
</svg>
