<svg xmlns="http://www.w3.org/2000/svg" width="24" height="24" viewBox="0 0 24 24">
  <path fill="#000000" fill-rule="evenodd" d="M4,6.49047852 C4,6.21959471 4.22900057,6 4.50034732,6 L15.4996527,6 C15.7759869,6 16,6.21505737 16,6.49047852 L16,9.50952148 C16,9.78040529 15.7709994,10 15.4996527,10 L4.50034732,10 C4.22401312,10 4,9.78494263 4,9.50952148 L4,6.49047852 Z M8,14.4904785 C8,14.2195947 8.23079681,14 8.50043583,14 L15.4995642,14 C15.7759472,14 16,14.2150574 16,14.4904785 L16,17.5095215 C16,17.7804053 15.7692032,18 15.4995642,18 L8.50043583,18 C8.22405275,18 8,17.7849426 8,17.5095215 L8,14.4904785 Z M18,4.4963932 C18,4.22224281 18.214035,4 18.5046844,4 L19.4953156,4 C19.7740451,4 20,4.22618103 20,4.4963932 L20,19.5036068 C20,19.7777572 19.785965,20 19.4953156,20 L18.5046844,20 C18.2259549,20 18,19.773819 18,19.5036068 L18,4.4963932 Z"/>
</svg>
