<svg xmlns="http://www.w3.org/2000/svg" width="24" height="24" viewBox="0 0 24 24">
  <path fill="#000000" fill-rule="evenodd" d="M11,13 L11,11 L3.50020972,11 C3.22395152,11 3,10.7849426 3,10.5095215 L3,7.49047852 C3,7.21959471 3.22758651,7 3.50020972,7 L11,7 L11,4.4963932 C11,4.22224281 11.214035,4 11.5046844,4 L12.4953156,4 C12.7740451,4 13,4.22618103 13,4.4963932 L13,7 L20.4997903,7 C20.7760485,7 21,7.21505737 21,7.49047852 L21,10.5095215 C21,10.7804053 20.7724135,11 20.4997903,11 L13,11 L13,13 L15.4995642,13 C15.7759472,13 16,13.2150574 16,13.4904785 L16,16.5095215 C16,16.7804053 15.7692032,17 15.4995642,17 L13,17 L13,19.5036068 C13,19.7777572 12.785965,20 12.4953156,20 L11.5046844,20 C11.2259549,20 11,19.773819 11,19.5036068 L11,17 L8.50043583,17 C8.22405275,17 8,16.7849426 8,16.5095215 L8,13.4904785 C8,13.2195947 8.23079681,13 8.50043583,13 L11,13 Z"/>
</svg>
