<svg xmlns="http://www.w3.org/2000/svg" xmlns:xlink="http://www.w3.org/1999/xlink" width="24" height="24" viewBox="0 0 24 24">
  <defs>
    <path id="a" d="M11,11 L11,7.5 C11,7.22385763 11.2238576,7 11.5,7 L12.5,7 C12.7761424,7 13,7.22385763 13,7.5 L13,11 L16.5,11 C16.7761424,11 17,11.2238576 17,11.5 L17,12.5 C17,12.7761424 16.7761424,13 16.5,13 L13,13 L13,16.5 C13,16.7761424 12.7761424,17 12.5,17 L11.5,17 C11.2238576,17 11,16.7761424 11,16.5 L11,13 L7.5,13 C7.22385763,13 7,12.7761424 7,12.5 L7,11.5 C7,11.2238576 7.22385763,11 7.5,11 L11,11 Z M12,3 C16.97016,3 21,7.03032 21,12.00048 C21,16.97088 16.97016,21 12,21 C7.0296,21 3,16.97088 3,12.00048 C3,7.03032 7.0296,3 12,3 Z M11.999873,5 C8.14029136,5 5,8.14105332 5,12.000381 C5,15.8602166 8.14029136,19 11.999873,19 C15.8594547,19 18.999746,15.8602166 18.999746,12.000381 C18.999746,8.14105332 15.8594547,5 11.999873,5 Z"/>
  </defs>
  <g fill="none" fill-rule="evenodd">
    <use fill="#231F20" xlink:href="#a"/>
  </g>
</svg>
