<svg xmlns="http://www.w3.org/2000/svg" xmlns:xlink="http://www.w3.org/1999/xlink" width="24" height="24" viewBox="0 0 24 24">
  <defs>
    <path id="a" d="M15.8535534,3.14644661 C15.7630712,3.05596441 15.6380712,3 15.5,3 L8.5,3 C8.36192881,3 8.23692881,3.05596441 8.14644661,3.14644661 C8.05596441,3.23692881 8,3.36192881 8,3.5 L8,5.5 C8,5.77614237 8.22385763,6 8.5,6 C8.77614237,6 9,5.77614237 9,5.5 L9,4 L15,4 L15,5.5 C15,5.77614237 15.2238576,6 15.5,6 C15.7761424,6 16,5.77614237 16,5.5 L16,3.5 C16,3.36192881 15.9440356,3.23692881 15.8535534,3.14644661 Z M4,7 L20,7 C21.1045695,7 22,7.8954305 22,9 L22,19 C22,20.1045695 21.1045695,21 20,21 L4,21 C2.8954305,21 2,20.1045695 2,19 L2,9 C2,7.8954305 2.8954305,7 4,7 Z"/>
  </defs>
  <g fill="none" fill-rule="evenodd">
    <use fill="#000000" xlink:href="#a"/>
  </g>
</svg>
