<?xml version="1.0" encoding="UTF-8"?>
<svg width="24px" height="24px" viewBox="0 0 24 24" version="1.1" xmlns="http://www.w3.org/2000/svg" xmlns:xlink="http://www.w3.org/1999/xlink">
    <!-- Generator: Sketch 46.2 (44496) - http://www.bohemiancoding.com/sketch -->
    <title>ico/build</title>
    <desc>Created with Sketch.</desc>
    <defs></defs>
    <g id="Symbols" stroke="none" stroke-width="1" fill="none" fill-rule="evenodd">
        <g id="ico/build" fill="#000000">
            <path d="M20.8535534,8.85355339 C20.7630712,8.94403559 20.6380712,9 20.5,9 L16.5,9 C16.2238576,9 16,8.77614237 16,8.5 C16,8.22385763 16.2238576,8 16.5,8 L18.3455635,8 C17.0172297,5.89697188 14.6722396,4.5 12,4.5 C7.85625,4.5 4.5,7.858125 4.5,12 C4.5,16.14225 7.85625,19.5 12,19.5 C16.14375,19.5 19.5,16.14225 19.5,12 C19.5,11.9095275 19.4983982,11.8194286 19.4952213,11.7297303 C19.7595698,11.2755458 20.1567006,11.0359465 20.6866138,11.0109323 C21.2160767,10.9859394 21.6498619,11.1506767 21.9879695,11.5051442 C21.9959588,11.6690902 22,11.8340732 22,12 C22,17.5228475 17.5228475,22 12,22 C6.4771525,22 2,17.5228475 2,12 C2,6.4771525 6.4771525,2 12,2 C15.2711979,2 18.1755424,3.5706862 20,5.99902509 L20,4.5 C20,4.22385763 20.2238576,4 20.5,4 C20.7761424,4 21,4.22385763 21,4.5 L21,7.6358734 C21.0041594,7.64443673 21.008307,7.65300556 21.0124427,7.6615812 C21.0083088,7.65470683 21.0041612,7.64784086 21,7.6409833 L21,8.5 C21,8.63807119 20.9440356,8.76307119 20.8535534,8.85355339 Z M7.5,11 L8.5,11 C8.77614237,11 9,11.2238576 9,11.5 L9,14.5 C9,14.7761424 8.77614237,15 8.5,15 L7.5,15 C7.22385763,15 7,14.7761424 7,14.5 L7,11.5 C7,11.2238576 7.22385763,11 7.5,11 Z M10.5,10 L11.5,10 C11.7761424,10 12,10.2238576 12,10.5 L12,14.5 C12,14.7761424 11.7761424,15 11.5,15 L10.5,15 C10.2238576,15 10,14.7761424 10,14.5 L10,10.5 C10,10.2238576 10.2238576,10 10.5,10 Z M13.5,8 L14.5,8 C14.7761424,8 15,8.22385763 15,8.5 L15,14.5 C15,14.7761424 14.7761424,15 14.5,15 L13.5,15 L13.5,15 C13.2238576,15 13,14.7761424 13,14.5 L13,8.5 C13,8.22385763 13.2238576,8 13.5,8 Z" id="Mask"></path>
        </g>
    </g>
</svg>