<svg width="24" height="24" xmlns="http://www.w3.org/2000/svg"><title>ico/build</title><desc>Created with Sketch.</desc><path d="M20.854 8.854c-.09.09-.215.146-.354.146h-4c-.276 0-.5-.224-.5-.5s.224-.5.5-.5h1.846c-1.328-2.103-3.673-3.5-6.346-3.5-4.144 0-7.5 3.358-7.5 7.5 0 4.142 3.356 7.5 7.5 7.5s7.5-3.358 7.5-7.5l-.005-.27c.264-.454.661-.694 1.191-.719.529-.025.963.14 1.301.494l.012.495c0 5.523-4.477 10-10 10s-10-4.477-10-10 4.477-10 10-10c3.271 0 6.176 1.571 8 3.999v-1.499c0-.276.224-.5.5-.5s.5.224.5.5v3.136l.012.026-.012-.021v.859c0 .138-.056.263-.146.354zm-13.354 2.146h1c.276 0 .5.224.5.5v3c0 .276-.224.5-.5.5h-1c-.276 0-.5-.224-.5-.5v-3c0-.276.224-.5.5-.5zm3-1h1c.276 0 .5.224.5.5v4c0 .276-.224.5-.5.5h-1c-.276 0-.5-.224-.5-.5v-4c0-.276.224-.5.5-.5zm3-2h1c.276 0 .5.224.5.5v6c0 .276-.224.5-.5.5h-1c-.276 0-.5-.224-.5-.5v-6c0-.276.224-.5.5-.5z" fill="none"/></svg>