<svg xmlns="http://www.w3.org/2000/svg" xmlns:xlink="http://www.w3.org/1999/xlink" width="24" height="24" viewBox="0 0 24 24">
  <defs>
    <path id="a" d="M18.0451529,7.94963514 C18.0451529,6.07251175 16.4488826,4 13.8380452,4 L5.57618562,4 C5.14953364,4 5,4.24022288 5,4.64667437 L5,19.4369463 C5,19.8433978 5.20404324,20 5.63069522,20 L14.1151613,20 C17.2265527,20 19,17.9365574 19,15.6582048 C19,13.3523964 17.5539928,11.715196 16.0395825,11.3877559 C16.9400427,10.9784558 18.0451529,9.82675852 18.0451529,7.94963514 Z M12.7195147,7 C13.5860609,7 14.2163642,7.68168083 14.2163642,8.49987375 C14.2163642,9.19426106 13.6963532,10 12.7195147,10 L8.19999981,10 L8.19999981,7 L12.7195147,7 Z M8.19999981,16.5 L8.19999981,13.5 L13.7697905,13.5 C14.6665747,13.5 15.2421041,14.274824 15.2421041,15 C15.2421041,15.9480264 14.4524048,16.5 13.7697905,16.5 L8.19999981,16.5 Z"/>
  </defs>
  <g fill="none" fill-rule="evenodd">
    <use fill="#000000" xlink:href="#a"/>
  </g>
</svg>
