<svg xmlns="http://www.w3.org/2000/svg" width="24" height="24" viewBox="0 0 24 24">
  <path fill="#000000" d="M20,7.48779346 L20,19 C20,20.1045695 19.1045695,21 18,21 L6,21 C4.8954305,21 4,20.1045695 4,19 L4,7.48794237 L4,7.48794237 C4,7.16734909 4.07706939,6.85145362 4.22471243,6.56688099 L5.74881274,3.62927401 C5.90050108,3.24926458 6.26838939,3 6.67755503,3 L17.322967,3 C17.7318716,3 18.0995804,3.24895094 18.2514437,3.62860932 L19.775417,6.5669816 C19.9229763,6.8514906 20,7.16729523 20,7.48779346 L20,7.48779346 Z M9,10 C8.44771525,10 8,10.4477153 8,11 C8,11.5522847 8.44771525,12 9,12 L15,12 C15.5522847,12 16,11.5522847 16,11 C16,10.4477153 15.5522847,10 15,10 L9,10 Z M17.1875604,4 L6.81306604,4 L6.81306604,4 C6.73123291,4 6.65765525,4.04985292 6.62731758,4.1258548 L5.87774818,6.00367516 C5.91818643,6.0012368 18.0833189,6.00128289 18.1244916,6.00381146 L17.3732558,4.12572186 L17.3732558,4.12572186 C17.3428831,4.04979019 17.2693414,4 17.1875604,4 Z"/>
</svg>
