<svg xmlns="http://www.w3.org/2000/svg" width="24" height="24"><path d="M4 4.51c0-.281.228-.51.51-.51h8.981c.281 0 .51.228.51.51v8.981c0 .281-.228.51-.51.51h-8.981c-.281 0-.51-.228-.51-.51v-8.981zm12 0c0-.281.215-.51.49-.51h3.019c.271 0 .49.228.49.51v8.981c0 .281-.215.51-.49.51h-3.019c-.271 0-.49-.228-.49-.51v-8.981zm-12 11.981c0-.271.215-.49.49-.49h3.019c.271 0 .49.215.49.49v3.019c0 .271-.215.49-.49.49h-3.019c-.271 0-.49-.215-.49-.49v-3.019zm6 0c0-.271.215-.49.49-.49h3.019c.271 0 .49.215.49.49v3.019c0 .271-.215.49-.49.49h-3.019c-.271 0-.49-.215-.49-.49v-3.019zm6 0c0-.271.215-.49.49-.49h3.019c.271 0 .49.215.49.49v3.019c0 .271-.215.49-.49.49h-3.019c-.271 0-.49-.215-.49-.49v-3.019z"/></svg>