<svg xmlns="http://www.w3.org/2000/svg" width="24" height="24"><path fill="#231F20" fill-rule="evenodd" d="M16.278 3l-2 2h-9.278v14h14v-7.408l2-2v9.413c0 1.102-.893 1.995-1.995 1.995h-14.01c-1.102 0-1.995-.893-1.995-1.995v-14.01c0-1.102.893-1.995 1.995-1.995h11.283zm4.612 3.123c.147.147.147.385 0 .533l-9.538 9.538c-.074.074-.17.11-.266.11l-.012-.002-.013.002c-.1 0-.196-.04-.266-.11l-3.684-3.683c-.071-.071-.11-.167-.11-.266 0-.1.04-.196.11-.266l2.013-2.013c.147-.147.386-.147.533 0l1.417 1.417 7.272-7.272c.071-.071.166-.11.266-.11s.196.04.266.11l2.012 2.013z"/></svg>