<?xml version="1.0" encoding="UTF-8"?>
<svg width="24px" height="24px" viewBox="0 0 24 24" version="1.1" xmlns="http://www.w3.org/2000/svg" xmlns:xlink="http://www.w3.org/1999/xlink">
    <!-- Generator: Sketch 46.1 (44463) - http://www.bohemiancoding.com/sketch -->
    <title>ico/crossoff</title>
    <desc>Created with Sketch.</desc>
    <defs>
        <path d="M13.4383725,3 L15.0803212,3 C15.1220187,2.73682457 15.1880316,2.484557 15.2783603,2.243195 C15.44614,1.794881 15.6873197,1.40383924 16.0019066,1.07005801 C16.3164935,0.736276778 16.7027305,0.474491504 17.1606292,0.284694333 C17.6185279,0.094897162 18.1340931,0 18.7073403,0 C19.1197987,0 19.5095311,0.0556293708 19.8765491,0.166889781 C20.2435671,0.278150192 20.5721307,0.44012983 20.8622498,0.652833556 C21.1523688,0.865537282 21.3918008,1.12895871 21.5805529,1.44310576 C21.769305,1.7572528 21.8881472,2.11720755 21.9370829,2.52298081 L20.343184,2.52298081 C20.3152207,2.3462731 20.2523043,2.18429346 20.1544328,2.03703704 C20.0565613,1.88978061 19.9342238,1.76052413 19.7874166,1.64926372 C19.6406094,1.53800331 19.4745799,1.45128694 19.2893232,1.389112 C19.1040664,1.32693707 18.9100741,1.29585007 18.7073403,1.29585007 C18.3368269,1.29585007 18.0222447,1.36293254 17.7635844,1.49709951 C17.504924,1.63126647 17.2952026,1.81124385 17.1344137,2.03703704 C16.9736249,2.26283022 16.8565304,2.51970702 16.7831268,2.80767515 C16.7669076,2.87130432 16.7524803,2.93541257 16.7398449,3 L21.5,3 C21.7761424,3 22,3.22385763 22,3.5 C22,3.77614237 21.7761424,4 21.5,4 L16.6858725,4 C16.7023816,4.19021855 16.7347997,4.3768903 16.7831268,4.56001785 C16.8565304,4.83816888 16.9736249,5.08850104 17.1344137,5.31102187 C17.2952026,5.53354269 17.504924,5.7118839 17.7635844,5.84605087 C18.0222447,5.98021784 18.3368269,6.04730031 18.7073403,6.04730031 C19.2106794,6.04730031 19.6039071,5.90331841 19.8870353,5.61535029 C20.1701635,5.32738217 20.3431837,4.94779352 20.406101,4.47657296 L22,4.47657296 C21.9580551,4.91506987 21.849699,5.3110201 21.6749285,5.66443552 C21.500158,6.01785094 21.2694644,6.31890401 20.9828408,6.56760375 C20.6962172,6.81630349 20.3606629,7.00609781 19.9761678,7.13699241 C19.5916727,7.26788701 19.1687344,7.33333333 18.7073403,7.33333333 C18.1340931,7.33333333 17.6185279,7.24007233 17.1606292,7.05354752 C16.7027305,6.86702272 16.3164935,6.61014592 16.0019066,6.28290942 C15.6873197,5.95567291 15.44614,5.57117579 15.2783603,5.12940651 C15.1437769,4.77504387 15.0631719,4.39857749 15.036544,4 L13.8844914,4 C13.8895253,4.00664964 13.8945041,4.01334308 13.899428,4.02008032 C14.1266297,4.330955 14.2402288,4.70563517 14.2402288,5.14413208 C14.2402288,5.49754751 14.1668263,5.80350905 14.0200191,6.06202588 C13.8732118,6.32054272 13.6757242,6.5316071 13.42755,6.69522535 C13.1793759,6.8588436 12.896252,6.97991929 12.5781697,7.05845605 C12.2600874,7.13699281 11.9332715,7.1762606 11.5977121,7.1762606 L7.96949476,7.1762606 L7.96949476,4 L6.05063246,4 L7.31935176,7.1762606 L5.61010486,7.1762606 L5.04385129,5.61535029 L2.24404194,5.61535029 L1.65681602,7.1762606 L0,7.1762606 L1.28297458,4 L0.5,4 C0.223857625,4 3.38176876e-17,3.77614237 0,3.5 C-3.38176876e-17,3.22385763 0.223857625,3 0.5,3 L0.5,3 L1.68690069,3 L2.83126787,0.166889781 L4.51954242,0.166889781 L5.65119441,3 L7.96949476,3 L7.96949476,0.166889781 L11.4928503,0.166889781 C11.8493821,0.166889781 12.1744504,0.196340625 12.4680648,0.255243195 C12.7616793,0.314145765 13.013345,0.410679085 13.2230696,0.544846051 C13.4327942,0.679013017 13.5953283,0.857354235 13.7106768,1.07987506 C13.8260254,1.30239588 13.8836988,1.57727041 13.8836988,1.90450692 C13.8836988,2.25792234 13.7980625,2.55243077 13.6267874,2.78804105 C13.5722965,2.86300018 13.5094916,2.9336531 13.4383725,3 Z M9.61582459,3 L11.4058874,3 C11.6446559,2.98395707 11.8449162,2.9198492 12.006673,2.80767515 C12.1954252,2.67678054 12.2897998,2.46408001 12.2897998,2.16956716 C12.2897998,2.00594891 12.2583416,1.87178395 12.1954242,1.76706827 C12.1325068,1.66235259 12.0486183,1.58054469 11.943756,1.52164212 C11.8388937,1.46273955 11.7183038,1.4218356 11.5819828,1.39892905 C11.4456619,1.37602249 11.3040999,1.36456939 11.1572927,1.36456939 L9.61582459,1.36456939 L9.61582459,3 Z M2.85094856,4 L2.67397521,4.46675591 L4.61391802,4.46675591 L4.44265349,4 L2.85094856,4 Z M3.23010464,3 L4.07572825,3 L3.67016206,1.89468987 L3.6491897,1.89468987 L3.23010464,3 Z M9.61582459,5.97858099 L11.3775024,5.97858099 C11.5382912,5.97858099 11.692087,5.96385557 11.8388942,5.93440428 C11.9857014,5.904953 12.1150296,5.85586826 12.2268827,5.78714859 C12.3387359,5.71842893 12.4278675,5.62516793 12.4942803,5.50736278 C12.5606931,5.38955764 12.593899,5.23903111 12.593899,5.05577867 C12.593899,4.69581852 12.4855429,4.43894172 12.2688275,4.28514056 C12.052112,4.13133941 11.7654927,4.05443998 11.4089609,4.05443998 L9.61582459,4.05443998 L9.61582459,5.97858099 Z" id="path-1"></path>
    </defs>
    <g id="Symbols" stroke="none" stroke-width="1" fill="none" fill-rule="evenodd">
        <g id="ico/crossoff">
            <g id="Colors/DarkGray" transform="translate(1.000000, 8.000000)">
                <mask id="mask-2" fill="white">
                    <use xlink:href="#path-1"></use>
                </mask>
                <use id="Mask" fill="#1A1A1A" xlink:href="#path-1"></use>
                <g mask="url(#mask-2)" id="#2F2F2F" fill="#2F2F2F">
                    <g transform="translate(-28.000000, -25.000000)">
                        <rect x="0" y="0" width="64" height="64"></rect>
                    </g>
                </g>
            </g>
        </g>
    </g>
</svg>