<svg xmlns="http://www.w3.org/2000/svg" xmlns:xlink="http://www.w3.org/1999/xlink" width="24" height="24"><defs><path id="a" d="M16 16v-8h-13.5c-.276 0-.5-.224-.5-.5v-1c0-.276.224-.5.5-.5h3.5v-3.5c0-.276.224-.5.5-.5h1c.276 0 .5.224.5.5v3.5h9.5c.276 0 .5.224.5.5v9.5h3.5c.276 0 .5.224.5.5v1c0 .276-.224.5-.5.5h-15c-.276 0-.5-.224-.5-.5v-8c0-.276.224-.5.5-.5h1c.276 0 .5.224.5.5v6.5h8zm.5 3h1c.276 0 .5.224.5.5v2c0 .276-.224.5-.5.5h-1c-.276 0-.5-.224-.5-.5v-2c0-.276.224-.5.5-.5z"/></defs><use xlink:href="#a" fill="none"/></svg>