<svg xmlns="http://www.w3.org/2000/svg" width="24" height="24" viewBox="0 0 24 24">
  <path fill="#000000" fill-rule="evenodd" d="M7,17 L11,17 C12.1045695,17 13,16.1045695 13,15 L13,14 L14,14 L14,10 C14,8.8954305 13.1045695,8 12,8 L8,8 L8,9 L11,9 C12.1045695,9 13,9.8954305 13,11 L13,14 L16,14 L17.1464466,15.1464466 L17.1464466,15.1464466 C17.3417088,15.3417088 17.6582912,15.3417088 17.8535534,15.1464466 C17.9473216,15.0526784 18,14.9255015 18,14.7928932 L18,14 C19.1045695,14 20,13.1045695 20,12 L20,7 C20,5.8954305 19.1045695,5 18,5 L10,5 C8.8954305,5 8,5.8954305 8,7 L8,7 L8,9 L5,9 L5,9 C3.8954305,9 3,9.8954305 3,11 L3,15 C3,16.1045695 3.8954305,17 5,17 L5,17.7928932 C5,17.9255015 5.05267842,18.0526784 5.14644661,18.1464466 C5.34170876,18.3417088 5.65829124,18.3417088 5.85355339,18.1464466 L5.85355339,18.1464466 L7,17 Z"/>
</svg>
