<svg xmlns="http://www.w3.org/2000/svg" xmlns:xlink="http://www.w3.org/1999/xlink" width="24" height="24" viewBox="0 0 24 24">
  <defs>
    <path id="a" d="M3,4.99508929 C3,3.8932319 3.8926228,3 4.99508929,3 L19.0049107,3 C20.1067681,3 21,3.8926228 21,4.99508929 L21,19.0049107 C21,20.1067681 20.1073772,21 19.0049107,21 L4.99508929,21 C3.8932319,21 3,20.1073772 3,19.0049107 L3,4.99508929 Z M7,7 L17,7 L17,13 L7,13 L7,7 Z M7,15.5 C7,14.6715729 7.66579723,14 8.5,14 C9.32842712,14 10,14.6657972 10,15.5 C10,16.3284271 9.33420277,17 8.5,17 C7.67157288,17 7,16.3342028 7,15.5 Z M11,14 L17,14 L17,17 L11,17 L11,14 Z M18.9997432,19 L19,19 L19,5 L5,5 L5,19 L18.9997432,19 Z"/>
  </defs>
  <g fill="none" fill-rule="evenodd">
    <use fill="#231F20" xlink:href="#a"/>
  </g>
</svg>
