<svg xmlns="http://www.w3.org/2000/svg" width="24" height="24" viewBox="0 0 24 24">
  <path fill="#000000" fill-rule="evenodd" d="M7.93110761,13.8854889 C7.34256056,13.7573167 6.79271595,13.5254983 6.30165446,13.2101145 L5.46062779,13.94594 L4.05413371,12.5394459 L4.78993274,11.6984191 C4.47453817,11.2073598 4.24270934,10.6575154 4.11452739,10.0689672 L3,9.99459645 L3,8.00547723 L4.11451111,7.93110761 C4.24268601,7.34254814 4.47451144,6.79269273 4.78990544,6.30162336 L4.05413371,5.46062779 L5.46062779,4.05413371 L6.30162336,4.78990544 C6.79269273,4.47451144 7.34254814,4.24268601 7.93110761,4.11451111 L8.00547723,3 L9.99452277,3 L10.0688924,4.11451111 C10.6574519,4.24268601 11.2073073,4.47451144 11.6983766,4.78990544 L12.5393722,4.05413371 L13.9458663,5.46062779 L13.2100946,6.30162336 C13.5254886,6.79269273 13.757314,7.34254814 13.8854889,7.93110761 L15,8.00547723 L15,9.99459645 L13.8854785,10.0689403 C13.7572991,10.6574926 13.5254714,11.2073409 13.2100771,11.6984038 L13.9458663,12.5394459 L12.5393722,13.94594 L11.6983455,13.2101145 C11.2072841,13.5254983 10.6574394,13.7573167 10.0688924,13.8854889 L9.99452277,15 L8.00547723,15 L7.93110761,13.8854889 Z M14.9071853,19.6173917 L14.3243926,20.2204242 L13.1869851,19.266026 L13.6849202,18.5801194 C13.2701599,18.0197425 13.0187389,17.3311629 13.0010055,16.5847287 L12.0424704,16.328087 L12.2580807,14.9161788 L13.3108771,15.0558711 C13.5768966,14.4693411 13.9999669,13.9691925 14.5264135,13.6090997 L14.205614,12.595199 L15.5586318,12.137689 L15.9784912,13.0385893 C16.148634,13.0131716 16.3227788,13 16.5,13 C17.0604917,13 17.5902118,13.1317486 18.0598811,13.3659665 L18.6506798,12.7546482 L19.7880873,13.7090465 L19.2932562,14.3907125 C19.7175608,14.9517249 19.9767494,15.6445621 19.998511,16.3969131 L20.9326021,16.6469855 L20.7169917,18.0588937 L19.6982914,17.9237401 C19.4305499,18.5242897 18.9986258,19.0355373 18.4595523,19.40045 L18.7694585,20.3798734 L17.4164406,20.8373835 L17.0090305,19.9632518 C16.8428544,19.9874642 16.6728912,20 16.5,20 C15.9263681,20 15.3849674,19.8620015 14.9071853,19.6173917 Z M16.5,18 C17.3284271,18 18,17.3284271 18,16.5 C18,15.6715729 17.3284271,15 16.5,15 C15.6715729,15 15,15.6715729 15,16.5 C15,17.3284271 15.6715729,18 16.5,18 Z M9,11 C10.1045695,11 11,10.1045695 11,9 C11,7.8954305 10.1045695,7 9,7 C7.8954305,7 7,7.8954305 7,9 C7,10.1045695 7.8954305,11 9,11 Z"/>
</svg>
