<svg xmlns="http://www.w3.org/2000/svg" width="24" height="24" viewBox="0 0 24 24">
  <path fill="#231F20" fill-rule="evenodd" d="M16.2781746,3 L14.2781746,5 L5,5 L5,19 L19,19 L19,11.5918831 L21,9.59188309 L21,19.0049107 C21,20.1067681 20.1073772,21 19.0049107,21 L4.99508929,21 C3.8932319,21 3,20.1073772 3,19.0049107 L3,4.99508929 C3,3.8932319 3.8926228,3 4.99508929,3 L16.2781746,3 Z M20.8896958,6.12321058 C21.0367681,6.27028289 21.0367681,6.50863341 20.8896958,6.65617262 L11.3521732,16.1941621 C11.2784035,16.2676983 11.1824564,16.3045831 11.0858089,16.3045831 C11.0818402,16.3045831 11.0778716,16.3024821 11.0741365,16.3024821 C11.0697009,16.3024821 11.0654989,16.3048165 11.0610634,16.3048165 C10.9609141,16.3048165 10.8652004,16.2648969 10.7946991,16.1943956 L7.11042096,12.5110513 C7.03968618,12.4403165 7,12.3443693 7,12.244687 C7,12.1447712 7.03968618,12.048824 7.11042096,11.9783227 L9.12321058,9.96553305 C9.27051634,9.81846074 9.50886686,9.81846074 9.65593917,9.96553305 L11.0729692,11.3820962 L18.3446445,4.11042096 C18.4153792,4.03991963 18.511093,4 18.6110087,4 C18.711158,4 18.8066383,4.03991963 18.877373,4.11042096 L20.8896958,6.12321058 Z"/>
</svg>
