<svg xmlns="http://www.w3.org/2000/svg" width="24" height="24" viewBox="0 0 24 24">
  <path fill="#000000" fill-rule="evenodd" d="M7.5,10 L13,10 L13,8.5 C13,8.22385763 13.2238576,8 13.5,8 L18.5,8 C18.7761424,8 19,8.22385763 19,8.5 L19,13.5 C19,13.7761424 18.7761424,14 18.5,14 L13.5,14 C13.2238576,14 13,13.7761424 13,13.5 L13,11.5 L7.5,11.5 L7.5,17 L13,17 L13,15.5 C13,15.2238576 13.2238576,15 13.5,15 L18.5,15 C18.7761424,15 19,15.2238576 19,15.5 L19,20.5 C19,20.7761424 18.7761424,21 18.5,21 L13.5,21 C13.2238576,21 13,20.7761424 13,20.5 L13,18.5 L6.5,18.5 C6.22385763,18.5 6,18.2761424 6,18 L6,8.5 C6,8.46575342 6.00344303,8.43231099 6.01000181,8.4 L4.5,8.4 C4.22385763,8.4 4,8.17614237 4,7.9 L4,3.5 C4,3.22385763 4.22385763,3 4.5,3 L8.9,3 C9.17614237,3 9.4,3.22385763 9.4,3.5 L9.4,7.9 C9.4,8.17614237 9.17614237,8.4 8.9,8.4 L7.48999819,8.4 C7.49655697,8.43231099 7.5,8.46575342 7.5,8.5 L7.5,10 Z M15,10 L15,12 L17,12 L17,10 L15,10 Z M15,17 L15,19 L17,19 L17,17 L15,17 Z"/>
</svg>
