<svg xmlns="http://www.w3.org/2000/svg" xmlns:xlink="http://www.w3.org/1999/xlink" width="24" height="24"><defs><path id="a" d="M0 1.995c0-1.102.893-1.995 1.995-1.995h14.01c1.102 0 1.995.893 1.995 1.995v14.01c0 1.102-.893 1.995-1.995 1.995h-14.01c-1.102 0-1.995-.893-1.995-1.995v-14.01zm4 2.005h10v6h-10v-6zm0 8.5c0-.828.666-1.5 1.5-1.5.828 0 1.5.666 1.5 1.5 0 .828-.666 1.5-1.5 1.5-.828 0-1.5-.666-1.5-1.5zm4-1.5h6v3h-6v-3zm8 5v-14h-14v14h14z"/></defs><g transform="translate(3 3)" fill="none"><mask id="b"><use xlink:href="#a"/></mask><use fill="#231F20" xlink:href="#a"/><rect width="64" height="64" transform="translate(-25 -22)" fill="#2F2F2F" mask="url(#b)"/></g></svg>