<svg xmlns="http://www.w3.org/2000/svg" width="24" height="24" viewBox="0 0 24 24">
  <path fill="#000000" fill-rule="evenodd" d="M20.7281355,6.64778198 L17.9695401,3.88918657 L18.6914054,3.16732128 C18.8866675,2.97205913 19.20325,2.97205913 19.3985121,3.16732128 L21.4500008,5.2188099 C21.6452629,5.41407204 21.6452629,5.73065453 21.4500008,5.92591668 L20.7281355,6.64778198 L20.7281355,6.64778198 Z M20.0292538,7.34666362 L7.96569768,19.4102198 L5.04789093,19.5674922 L5.20710227,16.6516244 L17.2706584,4.58806821 L20.0292538,7.34666362 L20.0292538,7.34666362 Z M12.4841094,16.687192 L14.9783088,19.1813915 L18.4265531,15.7331472 L16.8427093,14.1493034 L15.937084,15.0549287 L15.0267284,14.144573 L17.3116514,11.8596501 L20.8500607,15.3980594 C21.0453228,15.5933215 21.0453228,15.909904 20.8500607,16.1051662 L15.3503278,21.6048991 C15.1550657,21.8001612 14.8384832,21.8001612 14.643221,21.6048991 L11.1048117,18.0664897 L12.4841094,16.687192 L12.4841094,16.687192 Z M8.00139187,12.2044745 L6.62209417,13.5837722 L2.77045829,9.73213631 C2.57519614,9.53687417 2.57519614,9.22029168 2.77045829,9.02502953 L8.27019116,3.52529665 C8.46545331,3.33003451 8.7820358,3.33003451 8.97729794,3.52529665 L12.8289338,7.37693254 L10.332826,9.87304036 L9.17511156,8.71532591 L10.2919217,7.59851579 L8.64221013,5.94880425 L5.19396588,9.3970485 L8.00139187,12.2044745 Z"/>
</svg>
