<?xml version="1.0" encoding="UTF-8"?>
<svg width="24px" height="24px" viewBox="0 0 24 24" version="1.1" xmlns="http://www.w3.org/2000/svg" xmlns:xlink="http://www.w3.org/1999/xlink">
    <!-- Generator: Sketch 46.1 (44463) - http://www.bohemiancoding.com/sketch -->
    <title>ico/draft</title>
    <desc>Created with Sketch.</desc>
    <defs>
        <path d="M4,1 L4,0.490478516 C4,0.219594711 4.22788048,0 4.49100518,0 L9.50899482,0 C9.78016949,0 10,0.215057373 10,0.490478516 L10,1 L11.9941413,1 C13.1019465,1 14,1.89092539 14,2.99742191 L14,18.0025781 C14,19.1057238 13.1029399,20 11.9941413,20 L2.00585866,20 C0.898053512,20 0,19.1090746 0,18.0025781 L0,2.99742191 C0,1.89427625 0.897060126,1 2.00585866,1 L4,1 Z M4,3 L2,3 L2,18.1999998 L12.1999998,18.1999998 L12.1999998,3 L10,3 L10,3.50952148 C10,3.78040529 9.77211952,4 9.50899482,4 L4.49100518,4 C4.21983051,4 4,3.78494263 4,3.50952148 L4,3 Z M4,12 L10,12 L10,13 L4,13 L4,12 Z M4,8 L10,8 L10,9 L4,9 L4,8 Z M4,10 L10,10 L10,11 L4,11 L4,10 Z" id="path-1"></path>
    </defs>
    <g id="Symbols" stroke="none" stroke-width="1" fill="none" fill-rule="evenodd">
        <g id="ico/draft">
            <g id="Colors/DarkGray" transform="translate(5.000000, 2.000000)">
                <mask id="mask-2" fill="white">
                    <use xlink:href="#path-1"></use>
                </mask>
                <use id="Mask" fill="#000000" xlink:href="#path-1"></use>
                <g mask="url(#mask-2)" id="#2F2F2F" fill="#2F2F2F">
                    <g transform="translate(-28.000000, -19.000000)">
                        <rect x="0" y="0" width="64" height="64"></rect>
                    </g>
                </g>
            </g>
        </g>
    </g>
</svg>