<svg xmlns="http://www.w3.org/2000/svg" xmlns:xlink="http://www.w3.org/1999/xlink" width="24" height="24" viewBox="0 0 24 24">
  <defs>
    <path id="a" d="M16,5 L6,5 L6,16 L4,16 L4,5.00276013 C4,3.89666625 4.90195036,3 6.0085302,3 L16,3 L16,5 Z M8,9.00585866 C8,7.89805351 8.90195036,7 10.0085302,7 L17.9914698,7 C19.1007504,7 20,7.89706013 20,9.00585866 L20,18.9941413 C20,20.1019465 19.0980496,21 17.9914698,21 L10.0085302,21 C8.8992496,21 8,20.1029399 8,18.9941413 L8,9.00585866 Z M10,9 L10,19 L18,19 L18,9 L10,9 Z"/>
  </defs>
  <g fill="none" fill-rule="evenodd">
    <use fill="#000000" xlink:href="#a"/>
  </g>
</svg>
