<svg xmlns="http://www.w3.org/2000/svg" width="24" height="24" viewBox="0 0 24 24">
  <path fill="#000000" fill-rule="evenodd" d="M13,13.7426407 L13,7.5 C13,7.22385763 12.7761424,7 12.5,7 L11.5,7 C11.2238576,7 11,7.22385763 11,7.5 L11,13.7541465 L8.76776695,11.5219135 C8.57250481,11.3266513 8.25592232,11.3266513 8.06066017,11.5219135 L7.35355339,12.2290202 C7.15829124,12.4242824 7.15829124,12.7408649 7.35355339,12.936127 L11.5961941,17.1787677 C11.7330243,17.315598 11.9294292,17.3565442 12.1019147,17.3016064 C12.2157986,17.2922344 12.3270841,17.2439837 12.4142136,17.1568542 L16.6568542,12.9142136 C16.8521164,12.7189514 16.8521164,12.4023689 16.6568542,12.2071068 L15.9497475,11.5 C15.7544853,11.3047379 15.4379028,11.3047379 15.2426407,11.5 L13,13.7426407 L13,13.7426407 Z M12,21 C7.02943725,21 3,16.9705627 3,12 C3,7.02943725 7.02943725,3 12,3 C16.9705627,3 21,7.02943725 21,12 C21,16.9705627 16.9705627,21 12,21 Z"/>
</svg>
