<svg xmlns="http://www.w3.org/2000/svg" width="24" height="24"><path fill-rule="evenodd" d="M3 9h18v9.991c0 1.109-.893 2.009-1.995 2.009h-14.01c-1.102 0-1.995-.902-1.995-2.009v-9.991zm16-5h1.5c.276 0 .5.215.5.49v3.019c0 .271-.228.49-.5.49h-17c-.276 0-.5-.215-.5-.49v-3.019c0-.271.228-.49.5-.49h1.5v1c0 .556.452 1 1.009 1h1.981c.566 0 1.009-.448 1.009-1v-1h6v1c0 .556.452 1 1.009 1h1.981c.566 0 1.009-.448 1.009-1v-1zm-5.76 14.239c0 .098-.08.178-.178.178h-1.47c-.099 0-.178-.08-.178-.178v-4.844l-.966.368-.154-.013c-.047-.027-.078-.075-.085-.129l-.165-1.208c-.01-.076.029-.15.097-.183l2.107-1.042.079-.018h.734c.098 0 .178.08.178.178v6.891zm-7.24-15.743c0-.274.214-.495.505-.495h.991c.279 0 .505.216.505.495v2.009c0 .274-.214.495-.505.495h-.991c-.279 0-.505-.216-.505-.495v-2.009zm10 0c0-.274.214-.495.505-.495h.991c.279 0 .505.216.505.495v2.009c0 .274-.214.495-.505.495h-.991c-.279 0-.505-.216-.505-.495v-2.009z"/></svg>