<svg xmlns="http://www.w3.org/2000/svg" width="24" height="24" viewBox="0 0 24 24">
  <path fill="#000000" fill-rule="evenodd" d="M4,4.50964952 C4,4.22817786 4.22765279,4 4.50964952,4 L13.4903505,4 C13.7718221,4 14,4.22765279 14,4.50964952 L14,13.4903505 C14,13.7718221 13.7723472,14 13.4903505,14 L4.50964952,14 C4.22817786,14 4,13.7723472 4,13.4903505 L4,4.50964952 Z M16,4.50964952 C16,4.22817786 16.2150574,4 16.4904785,4 L19.5095215,4 C19.7804053,4 20,4.22765279 20,4.50964952 L20,13.4903505 C20,13.7718221 19.7849426,14 19.5095215,14 L16.4904785,14 C16.2195947,14 16,13.7723472 16,13.4903505 L16,4.50964952 Z M4,16.4904785 C4,16.2195947 4.21505737,16 4.49047852,16 L7.50952148,16 C7.78040529,16 8,16.2150574 8,16.4904785 L8,19.5095215 C8,19.7804053 7.78494263,20 7.50952148,20 L4.49047852,20 C4.21959471,20 4,19.7849426 4,19.5095215 L4,16.4904785 Z M10,16.4904785 C10,16.2195947 10.2150574,16 10.4904785,16 L13.5095215,16 C13.7804053,16 14,16.2150574 14,16.4904785 L14,19.5095215 C14,19.7804053 13.7849426,20 13.5095215,20 L10.4904785,20 C10.2195947,20 10,19.7849426 10,19.5095215 L10,16.4904785 Z M16,16.4904785 C16,16.2195947 16.2150574,16 16.4904785,16 L19.5095215,16 C19.7804053,16 20,16.2150574 20,16.4904785 L20,19.5095215 C20,19.7804053 19.7849426,20 19.5095215,20 L16.4904785,20 C16.2195947,20 16,19.7849426 16,19.5095215 L16,16.4904785 Z"/>
</svg>
