<svg xmlns="http://www.w3.org/2000/svg" width="24" height="24" viewBox="0 0 24 24">
  <path fill="#000000" fill-rule="evenodd" d="M3,9 L21,9 L21,18.9914698 C21,20.1007504 20.1073772,21 19.0049107,21 L4.99508929,21 C3.8932319,21 3,20.0980496 3,18.9914698 L3,9 Z M19,4 L20.4997903,4 C20.7760485,4 21,4.21505737 21,4.49047852 L21,7.50952148 C21,7.78040529 20.7724135,8 20.4997903,8 L3.50020972,8 C3.22395152,8 3,7.78494263 3,7.50952148 L3,4.49047852 C3,4.21959471 3.22758651,4 3.50020972,4 L5,4 L5,5.00019251 C5,5.55628335 5.45190985,6 6.0093689,6 L7.9906311,6 C8.55664682,6 9,5.55237094 9,5.00019251 L9,4 L15,4 L15,5.00019251 C15,5.55628335 15.4519098,6 16.0093689,6 L17.9906311,6 C18.5566468,6 19,5.55237094 19,5.00019251 L19,4 Z M13.2402585,18.2388438 C13.2402585,18.337 13.1603835,18.4165938 13.0622272,18.4165938 L11.5921335,18.4165938 C11.4934147,18.4165938 11.4141022,18.337 11.4141022,18.2388438 L11.4141022,13.3951562 L10.4480085,13.7635937 C10.3962585,13.7827187 10.3402897,13.7782187 10.2938835,13.7500937 C10.2469147,13.7228125 10.2154147,13.6752812 10.2086647,13.6215625 L10.0441335,12.413875 C10.0337272,12.3382187 10.072821,12.26425 10.141446,12.2307812 L12.2488522,11.1884687 C12.2736022,11.1766562 12.3006022,11.1701875 12.3281647,11.1701875 L13.0625085,11.1701875 C13.1606647,11.1701875 13.2405397,11.2497812 13.2405397,11.3482187 L13.2405397,18.2388438 L13.2402585,18.2388438 Z M6,2.49538898 C6,2.2217932 6.21403503,2 6.50468445,2 L7.49531555,2 C7.77404508,2 8,2.2157526 8,2.49538898 L8,4.50461102 C8,4.7782068 7.78596497,5 7.49531555,5 L6.50468445,5 C6.22595492,5 6,4.7842474 6,4.50461102 L6,2.49538898 Z M16,2.49538898 C16,2.2217932 16.214035,2 16.5046844,2 L17.4953156,2 C17.7740451,2 18,2.2157526 18,2.49538898 L18,4.50461102 C18,4.7782068 17.785965,5 17.4953156,5 L16.5046844,5 C16.2259549,5 16,4.7842474 16,4.50461102 L16,2.49538898 Z"/>
</svg>
