<svg xmlns="http://www.w3.org/2000/svg" xmlns:xlink="http://www.w3.org/1999/xlink" width="24" height="24" viewBox="0 0 24 24">
  <defs>
    <path id="a" d="M9,3 L9,2.49047852 C9,2.21959471 9.22788048,2 9.49100518,2 L14.5089948,2 C14.7801695,2 15,2.21505737 15,2.49047852 L15,3 L16.9941413,3 C18.1019465,3 19,3.89092539 19,4.99742191 L19,20.0025781 C19,21.1057238 18.1029399,22 16.9941413,22 L7.00585866,22 C5.89805351,22 5,21.1090746 5,20.0025781 L5,4.99742191 C5,3.89427625 5.89706013,3 7.00585866,3 L9,3 Z M9,5 L7,5 L7,20.1999998 L17.1999998,20.1999998 L17.1999998,5 L15,5 L15,5.50952148 C15,5.78040529 14.7721195,6 14.5089948,6 L9.49100518,6 C9.21983051,6 9,5.78494263 9,5.50952148 L9,5 Z M9,14 L15,14 L15,15 L9,15 L9,14 Z M9,10 L15,10 L15,11 L9,11 L9,10 Z M9,12 L15,12 L15,13 L9,13 L9,12 Z"/>
  </defs>
  <g fill="none" fill-rule="evenodd">
    <use fill="#000000" xlink:href="#a"/>
  </g>
</svg>
