<svg xmlns="http://www.w3.org/2000/svg" width="24" height="24" viewBox="0 0 24 24">
  <path fill="#000000" fill-rule="evenodd" d="M12.8803096,5 L10.4117434,7.4 L5.4,7.4 L5.4,18.6 L16.6,18.6 L16.6,13.6558705 L19,11.3225322 L19,19.0059397 C19,20.1072288 18.1054862,21 17.0059397,21 L4.99406028,21 C3.8927712,21 3,20.1054862 3,19.0059397 L3,6.99406028 C3,5.8927712 3.89451376,5 4.99406028,5 L12.8803096,5 Z M22.4387542,5.29425752 C22.6141331,5.50288455 22.5972497,5.82504023 22.401024,6.01419228 L13.1670391,14.9153067 L13.1607041,14.9077707 L13.1629454,14.9190733 L8.67627846,15.9552455 L8.6760144,15.9535254 C8.49570176,16.0316606 8.28262835,15.9880761 8.1455927,15.8250614 C8.02138382,15.6775061 7.99559227,15.4734958 8.05943139,15.2995862 L8.05873483,15.2993601 L9.50519151,10.5841565 L9.53493744,10.594436 L9.51676605,10.5728197 L18.750741,1.67189441 C18.9469667,1.48274236 19.2479241,1.49851487 19.423303,1.70714189 L22.4387542,5.29425752 Z M9.56209849,14.4490275 L10.421168,11.6486768 L12.2529779,13.8277583 L9.56209849,14.4490275 L9.56209849,14.4490275 Z"/>
</svg>
