<?xml version="1.0" encoding="UTF-8"?>
<svg width="20px" height="21px" viewBox="0 0 20 21" version="1.1" xmlns="http://www.w3.org/2000/svg" xmlns:xlink="http://www.w3.org/1999/xlink">
    <!-- Generator: Sketch 46.1 (44463) - http://www.bohemiancoding.com/sketch -->
    <title>Mask</title>
    <desc>Created with Sketch.</desc>
    <defs>
        <path d="M7.59644917,2.0250206 L14.5964492,2.0250206 L14.5964492,2.0250206 C15.7010187,2.0250206 16.5964492,2.9204511 16.5964492,4.0250206 L16.5964492,18.8821635 L16.5964492,18.8821635 C16.5964492,19.986733 15.7010187,20.8821635 14.5964492,20.8821635 L7.59644917,20.8821635 C6.49187967,20.8821635 5.59644917,19.986733 5.59644917,18.8821635 L5.59644917,4.0250206 L5.59644917,4.0250206 C5.59644917,2.9204511 6.49187967,2.0250206 7.59644917,2.0250206 L7.59644917,2.0250206 Z M7.16787774,13.0250206 L7.16787774,19.3107349 L15.0250206,19.3107349 L15.0250206,13.0250206 L7.16787774,13.0250206 Z" id="path-1"></path>
    </defs>
    <g id="Symbols" stroke="none" stroke-width="1" fill="none" fill-rule="evenodd">
        <g id="ico/eraser" transform="translate(-2.000000, -2.000000)">
            <g id="Colors/DarkGray" transform="translate(1.000000, 1.000000)">
                <mask id="mask-2" fill="white">
                    <use xlink:href="#path-1"></use>
                </mask>
                <use id="Mask" fill="#000000" transform="translate(11.096449, 11.453592) rotate(45.000000) translate(-11.096449, -11.453592) " xlink:href="#path-1"></use>
            </g>
        </g>
    </g>
</svg>