<svg xmlns="http://www.w3.org/2000/svg" width="24" height="24"><path fill-rule="evenodd" d="M12.88 5l-2.469 2.4h-5.012v11.2h11.2v-4.944l2.4-2.333v7.683c0 1.101-.895 1.994-1.994 1.994h-12.012c-1.101 0-1.994-.895-1.994-1.994v-12.012c0-1.101.895-1.994 1.994-1.994h7.886zm9.558.294c.175.209.158.531-.038.72l-9.234 8.901-.006-.008.002.011-4.487 1.036v-.002c-.18.078-.393.035-.53-.128-.124-.148-.15-.352-.086-.525h-.001l1.446-4.715.03.01-.018-.022 9.234-8.901c.196-.189.497-.173.673.035l3.015 3.587zm-12.877 9.155l.859-2.8 1.832 2.179-2.691.621z"/></svg>