<svg xmlns="http://www.w3.org/2000/svg" width="24" height="24" viewBox="0 0 24 24">
  <path fill="#000000" fill-rule="evenodd" d="M21.9271798,19.3416281 L21.9286265,19.3406636 L21.89511,19.2827932 C21.8787133,19.251929 21.862799,19.2208237 21.8430266,19.1923708 L12.7549672,3.45090664 C12.6076389,3.1834973 12.3267265,3 11.9995177,3 C11.6450617,3 11.3410012,3.21387924 11.2074171,3.51914545 L11.2064525,3.51866319 L2.18904321,19.1378762 L2.19772377,19.1429398 C2.07595486,19.291956 2,19.4797936 2,19.6871624 C2,20.1650752 2.38749035,20.5528067 2.86516204,20.5528067 L2.86516204,20.5528067 L21.1345968,20.5528067 C21.6125096,20.5528067 22,20.1653164 22,19.6874035 C22,19.5641879 21.9734761,19.4477238 21.9271798,19.3416281 L21.9271798,19.3416281 Z M12.0084394,18.9179688 C11.3154417,18.9179688 10.7543403,18.3737461 10.7543403,17.6809896 C10.7543403,16.9879919 11.3152006,16.4271316 12.0084394,16.4271316 C12.6843171,16.4271316 13.2454186,16.9877508 13.2454186,17.6809896 C13.2456597,18.3737461 12.6843171,18.9179688 12.0084394,18.9179688 L12.0084394,18.9179688 Z M13.2454186,7.97878086 L13.2454186,14.8024209 L13.2449363,14.8024209 C13.2449363,14.8036265 13.2454186,14.8048322 13.2454186,14.8062789 C13.2454186,15.0891204 13.0163484,15.3111979 12.7404996,15.3111979 C12.739294,15.3111979 12.7383295,15.3109568 12.7371238,15.3109568 L12.7371238,15.3111979 L11.2679398,15.3111979 C10.9848573,15.3111979 10.7560282,15.0891204 10.7560282,14.8062789 C10.7560282,14.8050733 10.7565104,14.8038677 10.7565104,14.8024209 L10.7560282,14.8024209 L10.7560282,7.99710648 C10.755787,7.99083719 10.7540992,7.98480903 10.7540992,7.97853974 C10.7540992,7.70920139 10.9626736,7.49725116 11.220679,7.47747878 L11.220679,7.47362076 L12.7368827,7.47362076 L12.7368827,7.47386188 C13.0139371,7.47554977 13.2369792,7.69015239 13.2439718,7.9655189 L13.2451775,7.9655189 L13.2451775,7.97829861 L13.2451775,7.97878086 L13.2454186,7.97878086 L13.2454186,7.97878086 Z"/>
</svg>
