<svg xmlns="http://www.w3.org/2000/svg" width="24" height="24" viewBox="0 0 24 24">
  <path fill="#000000" fill-rule="evenodd" d="M8.09033215,2 L18.0065894,2 C19.1075197,2 20,2.89821238 20,3.99079514 L20,20.0092049 C20,21.1086907 19.1054862,22 18.0059397,22 L5.99406028,22 C4.8927712,22 4,21.1030778 4,20.0005708 L4,5.95692073 L8.09033215,2 Z M8.68975763,4 L8.59009418,6.60591111 L6,6.60591111 L6,20 L18,20 L18,4 L8.68975763,4 Z M9,10 L15,10 L15,11 L9,11 L9,10 Z M9,12 L15,12 L15,13 L9,13 L9,12 Z M9,14 L15,14 L15,15 L9,15 L9,14 Z"/>
</svg>
