<svg xmlns="http://www.w3.org/2000/svg" width="24" height="24"><path fill-rule="evenodd" d="M3.923 15.095c.019-.117.102-.213.215-.249.113-.036.236-.006.319.077l1.08 1.08 2.899-2.899c.123-.123.323-.123.446 0l1.998 1.998c.123.123.123.323 0 .446l-2.9 2.899 1.08 1.08c.084.083.114.207.078.319-.036.113-.131.196-.248.215l-5.523.933c-.101.017-.203-.015-.276-.087v-.001c-.072-.072-.105-.174-.088-.274l.919-5.538zm16.154-6.19c-.019.117-.102.213-.215.249-.113.036-.236.006-.32-.077l-1.08-1.08-2.899 2.899c-.123.123-.323.123-.446 0l-1.998-1.998c-.123-.123-.123-.323 0-.446l2.9-2.9-1.08-1.08c-.084-.084-.114-.207-.078-.319.036-.113.132-.196.248-.215l5.523-.933c.101-.017.203.016.276.088v.001c.072.072.105.174.088.274l-.919 5.538z"/></svg>