<svg xmlns="http://www.w3.org/2000/svg" xmlns:xlink="http://www.w3.org/1999/xlink" width="24" height="24" viewBox="0 0 24 24">
  <defs>
    <path id="a" d="M3.92300734,15.0950248 C3.94244742,14.9782043 4.02542776,14.8822639 4.13792821,14.8462638 C4.25042867,14.8104436 4.37372916,14.8401438 4.4572495,14.9233041 L5.53761387,16.0036685 L8.43688559,13.1042167 C8.56036609,12.9809162 8.7598069,12.9809162 8.8831074,13.1042167 L10.8812955,15.1025848 C11.004596,15.2258853 11.004596,15.4253261 10.8812955,15.5486266 L7.98166375,18.4480783 L9.06166812,19.5279027 C9.14536846,19.6112431 9.17542858,19.7347235 9.13924843,19.846684 C9.10360829,19.9591845 9.0080279,20.0427048 8.89156743,20.0621449 L3.3682451,20.9956286 C3.26762469,21.0127287 3.16520428,20.9801486 3.09266399,20.9081483 L3.09230398,20.9076083 C3.02048369,20.835788 2.98754356,20.7337276 3.00428363,20.6332872 L3.92300734,15.0950248 Z M20.0769927,8.90515976 C20.0577326,9.02198023 19.9745722,9.11792062 19.8622518,9.15428077 C19.7497513,9.19010091 19.6264508,9.16022079 19.5427505,9.07688046 L18.4625661,7.99669609 L15.5632944,10.8961478 C15.4399939,11.0194483 15.2403731,11.0194483 15.1170726,10.8961478 L13.1187045,8.89795973 C12.995404,8.77447923 12.995404,8.57503843 13.1187045,8.45155793 L16.0183362,5.5519262 L14.9381519,4.47228184 C14.8546315,4.3887615 14.8245714,4.265461 14.8605716,4.15332055 C14.8965717,4.04082009 14.9921521,3.95747976 15.1084326,3.93785968 L20.6317549,3.0043759 C20.7323753,2.98745584 20.8346157,3.02021597 20.907336,3.09203626 L20.907696,3.09257626 C20.9795163,3.16439655 21.0124564,3.26645696 20.9957164,3.36689737 L20.0769927,8.90515976 Z"/>
  </defs>
  <g fill="none" fill-rule="evenodd">
    <use fill="#000000" xlink:href="#a"/>
  </g>
</svg>
