<svg xmlns="http://www.w3.org/2000/svg" xmlns:xlink="http://www.w3.org/1999/xlink" width="24" height="24" viewBox="0 0 24 24">
  <defs>
    <path id="a" d="M14,14.2222222 L14,20.3343349 C14,20.6104773 13.7761424,20.8343349 13.5,20.8343349 C13.4493523,20.8343349 13.3989985,20.8266396 13.3506626,20.8115124 L10.3506626,19.8726328 C10.1420261,19.807338 10,19.6140705 10,19.3954553 L10,14.2222222 L3.16781808,8.14917163 L3.16781808,8.14917163 C3.0610739,8.05428791 3,7.91828587 3,7.77546697 L3,4.5 L3,4.5 C3,4.22385763 3.22385763,4 3.5,4 L3.5,4 L20.5,4 C20.7761424,4 21,4.22385763 21,4.5 L21,7.77546697 C21,7.91828587 20.9389261,8.05428791 20.8321819,8.14917163 L14,14.2222222 Z"/>
  </defs>
  <g fill="none" fill-rule="evenodd">
    <use fill="#000000" xlink:href="#a"/>
  </g>
</svg>
