<svg xmlns="http://www.w3.org/2000/svg" width="24" height="24" viewBox="0 0 24 24">
  <path fill="#000000" d="M6,14.8084776 L19,14.8084776 L19,6.96169551 L5,6.96169551 L5,14.3180537 L5,15.7893253 L6,14.8084776 Z M7,16.7701731 L3.85011862,19.8597272 L3.85011862,19.8597272 C3.65297776,20.0530923 3.33641006,20.0500315 3.14304489,19.8528907 C3.0513601,19.7594156 3,19.6337059 3,19.502772 L3,15.5489014 L3,7 L3,7 C3,5.8954305 3.8954305,5 5,5 L5,5 L19,5 C20.1045695,5 21,5.8954305 21,7 L21,14.7701731 C21,15.8747426 20.1045695,16.7701731 19,16.7701731 L7,16.7701731 Z M16.3636053,8.96766605 C16.5454255,9.14413683 16.5454255,9.43219603 16.3638415,9.60981721 L12.1715873,13.694644 C12.0856359,13.7786229 11.9715851,13.8255591 11.8495058,13.8276298 L11.8310876,13.8276298 C11.7066471,13.8276298 11.5897626,13.7806936 11.50145,13.694644 L8.63648321,10.9030926 C8.54817054,10.8181934 8.5,10.7031537 8.5,10.5823621 C8.5,10.4606502 8.55029572,10.3435399 8.63813612,10.2597911 L9.55715456,9.36409258 C9.73259924,9.1931437 10.0402768,9.1931437 10.2157215,9.36409258 L11.8362825,10.9431264 L14.7843671,8.06989686 C14.952964,7.9021691 15.2679616,7.89802767 15.4434062,8.06989686 L16.3636053,8.96766605 Z"/>
</svg>
