<svg xmlns="http://www.w3.org/2000/svg" width="24" height="24" viewBox="0 0 24 24">
  <path fill="#000000" fill-rule="evenodd" d="M3,3.5082041 C3,3.22753073 3.2157526,3 3.49538898,3 L5.50461102,3 C5.7782068,3 6,3.22661515 6,3.5082041 L6,21.4917959 C6,21.7724693 5.7842474,22 5.50461102,22 L3.49538898,22 C3.2217932,22 3,21.7733849 3,21.4917959 L3,3.5082041 Z M7,3.50123084 C7,3.22440869 7.22563934,3 7.49374104,3 L19.506259,3 C19.7789446,3 19.9200786,3.20889044 19.8205887,3.46892691 L18.0751126,8.03107309 C17.9760265,8.29005427 17.9756227,8.70889044 18.0751126,8.96892691 L19.8205887,13.5310731 C19.9196748,13.7900543 19.7743607,14 19.506259,14 L7.49374104,14 C7.22105539,14 7,13.7702494 7,13.4987692 L7,3.50123084 Z"/>
</svg>
