<svg xmlns="http://www.w3.org/2000/svg" xmlns:xlink="http://www.w3.org/1999/xlink" width="24" height="24"><defs><path id="a" d="M0 1.995c0-1.102.893-1.995 1.995-1.995h14.01c1.102 0 1.995.893 1.995 1.995v14.01c0 1.102-.893 1.995-1.995 1.995h-14.01c-1.102 0-1.995-.893-1.995-1.995v-14.01zm16 14.005v-14h-14v14h14zm-8.25-12h2.5v2.5h-2.5v-2.5zm-3.75 0h2.5v2.5h-2.5v-2.5zm7.5 0h2.5v2.5h-2.5v-2.5zm-7.5 3.75h2.5v2.5h-2.5v-2.5zm3.75 0h2.5v2.5h-2.5v-2.5zm3.75 0h2.5v2.5h-2.5v-2.5zm-7.5 3.75h2.5v2.5h-2.5v-2.5zm3.75 0h2.5v2.5h-2.5v-2.5zm3.75 0h2.5v2.5h-2.5v-2.5z"/></defs><g transform="translate(3 3)" fill="none"><mask id="b"><use xlink:href="#a"/></mask><use fill="#231F20" xlink:href="#a"/><rect width="64" height="64" transform="translate(-29 -17)" fill="#2F2F2F" mask="url(#b)"/></g></svg>