<svg xmlns="http://www.w3.org/2000/svg" xmlns:xlink="http://www.w3.org/1999/xlink" width="24" height="24" viewBox="0 0 24 24">
  <defs>
    <path id="a" d="M3,4.99508929 C3,3.8932319 3.8926228,3 4.99508929,3 L19.0049107,3 C20.1067681,3 21,3.8926228 21,4.99508929 L21,19.0049107 C21,20.1067681 20.1073772,21 19.0049107,21 L4.99508929,21 C3.8932319,21 3,20.1073772 3,19.0049107 L3,4.99508929 Z M18.9997432,19 L19,19 L19,5 L5,5 L5,19 L18.9997432,19 Z M10.75,7 L13.25,7 L13.25,9.5 L10.75,9.5 L10.75,7 Z M7,7 L9.5,7 L9.5,9.5 L7,9.5 L7,7 Z M14.5,7 L17,7 L17,9.5 L14.5,9.5 L14.5,7 Z M7,10.75 L9.5,10.75 L9.5,13.25 L7,13.25 L7,10.75 Z M10.75,10.75 L13.25,10.75 L13.25,13.25 L10.75,13.25 L10.75,10.75 Z M14.5,10.75 L17,10.75 L17,13.25 L14.5,13.25 L14.5,10.75 Z M7,14.5 L9.5,14.5 L9.5,17 L7,17 L7,14.5 Z M10.75,14.5 L13.25,14.5 L13.25,17 L10.75,17 L10.75,14.5 Z M14.5,14.5 L17,14.5 L17,17 L14.5,17 L14.5,14.5 Z"/>
  </defs>
  <g fill="none" fill-rule="evenodd">
    <use fill="#231F20" xlink:href="#a"/>
  </g>
</svg>
