<svg xmlns="http://www.w3.org/2000/svg" width="24" height="24"><path fill-rule="evenodd" d="M2 9.006c0-1.108.895-2.006 1.994-2.006h12.012c1.101 0 1.994.897 1.994 2.006v9.988c0 1.108-.895 2.006-1.994 2.006h-12.012c-1.101 0-1.994-.897-1.994-2.006v-9.988zm14 9.994h-1.959l-.03-.083.003-.002-4.098-7.416-.002.001c-.09-.194-.278-.328-.499-.328-.226 0-.419.141-.506.343l-2.727 4.935-.668-1.208-.001.001c-.048-.102-.147-.173-.263-.173-.119 0-.221.074-.267.181l-.985 1.782v-8.032h12v10zm-2.5-6c.828 0 1.5-.672 1.5-1.5s-.672-1.5-1.5-1.5-1.5.672-1.5 1.5.672 1.5 1.5 1.5zm-6.5-9h12c1.105 0 2 .895 2 2v11c0 1.105-.895 2-2 2h-.001v-12c0-.552-.448-1-1-1h-12.999c0-1.105.895-2 2-2z"/></svg>