<svg xmlns="http://www.w3.org/2000/svg" width="24" height="24"><path fill-rule="evenodd" d="M3 4.995c0-1.102.893-1.995 1.995-1.995h14.01c1.102 0 1.995.893 1.995 1.995v14.01c0 1.102-.893 1.995-1.995 1.995h-14.01c-1.102 0-1.995-.893-1.995-1.995v-14.01zm16 14.005v-14h-14v14h14zm-8.25-12h2.5v2.5h-2.5v-2.5zm-3.75 0h2.5v2.5h-2.5v-2.5zm7.5 0h2.5v2.5h-2.5v-2.5zm-7.5 3.75h2.5v2.5h-2.5v-2.5zm3.75 0h2.5v2.5h-2.5v-2.5zm3.75 0h2.5v2.5h-2.5v-2.5zm-7.5 3.75h2.5v2.5h-2.5v-2.5zm3.75 0h2.5v2.5h-2.5v-2.5zm3.75 0h2.5v2.5h-2.5v-2.5z"/></svg>