<svg xmlns="http://www.w3.org/2000/svg" xmlns:xlink="http://www.w3.org/1999/xlink" width="24" height="24" viewBox="0 0 24 24">
  <defs>
    <path id="a" d="M2,9.00585866 C2,7.89805351 2.89451376,7 3.99406028,7 L16.0059397,7 C17.1072288,7 18,7.89706013 18,9.00585866 L18,18.9941413 C18,20.1019465 17.1054862,21 16.0059397,21 L3.99406028,21 C2.8927712,21 2,20.1029399 2,18.9941413 L2,9.00585866 Z M16,19 L14.0410041,19 C14.03415,18.9707867 14.02441,18.9427042 14.0110627,18.9166949 L14.0143093,18.9148102 L9.9164888,11.498398 L9.91486547,11.4993403 C9.8246806,11.3057786 9.63637457,11.1713973 9.41632346,11.1713973 C9.1906809,11.1713973 8.99714415,11.3125636 8.91002555,11.5146067 L6.18301518,16.4499604 L5.51528634,15.2416601 L5.51438449,15.2422255 C5.46676687,15.1400731 5.36756351,15.0692073 5.25158575,15.0692073 C5.13272208,15.0692073 5.03081317,15.1436541 4.98481888,15.2497644 L4,17.0321535 L4,9 L16,9 L16,19 Z M13.5,13 C14.3284271,13 15,12.3284271 15,11.5 C15,10.6715729 14.3284271,10 13.5,10 C12.6715729,10 12,10.6715729 12,11.5 C12,12.3284271 12.6715729,13 13.5,13 Z M7,4 L19,4 L19,4 C20.1045695,4 21,4.8954305 21,6 L21,17 C21,18.1045695 20.1045695,19 19,19 L18.9988271,19 L18.9988271,7 L18.9988271,7 C18.9988271,6.44771525 18.5511119,6 17.9988271,6 L5,6 L5,6 C5,4.8954305 5.8954305,4 7,4 L7,4 Z"/>
  </defs>
  <g fill="none" fill-rule="evenodd">
    <use fill="#231F20" xlink:href="#a"/>
  </g>
</svg>
