<svg xmlns="http://www.w3.org/2000/svg" width="24" height="24"><path fill-rule="evenodd" d="M4 8v8.425h1.853v-3.634h3.41v3.634h1.853v-8.425h-1.853v3.233h-3.41v-3.233h-1.853zm10.596 3.811h2.029c.425 0 .743-.094.956-.283.212-.189.319-.496.319-.92 0-.409-.106-.706-.319-.891-.212-.185-.531-.277-.956-.277h-2.029v2.372zm-1.853-3.811h4.543c.378 0 .718.061 1.021.183.303.122.562.289.779.501.216.212.382.458.496.737.114.279.171.58.171.903 0 .496-.104.924-.313 1.286-.208.362-.549.637-1.021.826v.024c.228.063.417.159.566.289.149.13.271.283.366.46.094.177.163.372.206.584.043.212.073.425.088.637l.024.472.041.555c.02.189.051.368.094.537.043.169.108.313.195.431h-1.853c-.102-.267-.165-.586-.189-.956-.024-.37-.059-.724-.106-1.062-.063-.441-.197-.763-.401-.968-.205-.205-.539-.307-1.003-.307h-1.853v3.292h-1.853v-8.425z"/></svg>