<svg xmlns="http://www.w3.org/2000/svg" width="24" height="24" viewBox="0 0 24 24">
  <path fill="#000000" fill-rule="evenodd" d="M4,8 L4,16.4247788 L5.85250737,16.4247788 L5.85250737,12.7905605 L9.26253687,12.7905605 L9.26253687,16.4247788 L11.1150442,16.4247788 L11.1150442,8 L9.26253687,8 L9.26253687,11.2330383 L5.85250737,11.2330383 L5.85250737,8 L4,8 Z M14.5958702,11.8112094 L16.6253687,11.8112094 C17.0501496,11.8112094 17.3687305,11.7168151 17.5811209,11.5280236 C17.7935114,11.3392321 17.899705,11.0324505 17.899705,10.6076696 C17.899705,10.1986214 17.7935114,9.90167251 17.5811209,9.71681416 C17.3687305,9.53195581 17.0501496,9.43952802 16.6253687,9.43952802 L14.5958702,9.43952802 L14.5958702,11.8112094 Z M12.7433628,8 L17.2861357,8 C17.6637187,8 18.0039316,8.06096301 18.3067847,8.18289086 C18.6096377,8.3048187 18.8692221,8.47197534 19.0855457,8.68436578 C19.3018693,8.89675622 19.4670594,9.14257481 19.5811209,9.42182891 C19.6951825,9.70108301 19.7522124,10.001965 19.7522124,10.3244838 C19.7522124,10.8200615 19.6479853,11.2487691 19.439528,11.6106195 C19.2310707,11.9724699 18.8908578,12.2477867 18.4188791,12.4365782 L18.4188791,12.460177 C18.6470021,12.5231075 18.8357908,12.6194684 18.9852507,12.7492625 C19.1347107,12.8790567 19.2566367,13.0324475 19.3510324,13.2094395 C19.4454282,13.3864316 19.5142574,13.5811199 19.5575221,13.7935103 C19.6007868,14.0059008 19.6302851,14.218288 19.6460177,14.4306785 C19.653884,14.5644058 19.6617502,14.7217297 19.6696165,14.9026549 C19.6774828,15.0835801 19.6912487,15.2684356 19.7109145,15.4572271 C19.7305802,15.6460186 19.762045,15.8249746 19.8053097,15.9941003 C19.8485745,16.163226 19.9134706,16.3067841 20,16.4247788 L18.1474926,16.4247788 C18.0452306,16.1573241 17.982301,15.8387432 17.9587021,15.4690265 C17.9351031,15.0993099 17.8997053,14.7453311 17.8525074,14.4070796 C17.7895769,13.9665661 17.6558516,13.6440522 17.4513274,13.439528 C17.2468033,13.2350039 16.91249,13.1327434 16.4483776,13.1327434 L14.5958702,13.1327434 L14.5958702,16.4247788 L12.7433628,16.4247788 L12.7433628,8 Z"/>
</svg>
