<svg xmlns="http://www.w3.org/2000/svg" width="24" height="24"><path fill-rule="evenodd" d="M6.553 12.06c0 .06-.036.112-.088.135l.002.003-3.216 1.856a.147.147 0 0 1-.25-.1H3v-3.787a.148.148 0 0 1 .253-.103l3.229 1.864-.004.006a.146.146 0 0 1 .075.126zM3.5 3h17a.5.5 0 0 1 .5.5v2a.5.5 0 0 1-.5.5h-17a.5.5 0 0 1-.5-.5v-2a.5.5 0 0 1 .5-.5zm6 5h11a.5.5 0 0 1 .5.5v2a.5.5 0 0 1-.5.5h-11a.5.5 0 0 1-.5-.5v-2a.5.5 0 0 1 .5-.5zm0 5h11a.5.5 0 0 1 .5.5v2a.5.5 0 0 1-.5.5h-11a.5.5 0 0 1-.5-.5v-2a.5.5 0 0 1 .5-.5zm-6 5h17a.5.5 0 0 1 .5.5v2a.5.5 0 0 1-.5.5h-17a.5.5 0 0 1-.5-.5v-2a.5.5 0 0 1 .5-.5z"/></svg>