<svg xmlns="http://www.w3.org/2000/svg" width="24" height="24"><path fill="#231F20" fill-rule="evenodd" d="M3 5.994c0-1.101.893-1.994 1.995-1.994h14.01c1.102 0 1.995.895 1.995 1.994v12.012c0 1.101-.893 1.994-1.995 1.994h-14.01c-1.102 0-1.995-.895-1.995-1.994v-12.012zm16 12.006h-2.285l-.035-.1.004-.002-4.781-8.9-.002.001c-.105-.232-.325-.394-.582-.394-.263 0-.489.169-.591.412l-3.182 5.922-.779-1.45-.001.001c-.056-.123-.171-.208-.307-.208-.139 0-.258.089-.311.217l-1.149 2.139v-9.639h14v12zm-3-7c1.105 0 2-.895 2-2s-.895-2-2-2-2 .895-2 2 .895 2 2 2z"/></svg>