<svg xmlns="http://www.w3.org/2000/svg" width="24" height="24" viewBox="0 0 24 24">
  <path fill="#231F20" fill-rule="evenodd" d="M3,5.99406028 C3,4.8927712 3.8926228,4 4.99508929,4 L19.0049107,4 C20.1067681,4 21,4.89451376 21,5.99406028 L21,18.0059397 C21,19.1072288 20.1073772,20 19.0049107,20 L4.99508929,20 C3.8932319,20 3,19.1054862 3,18.0059397 L3,5.99406028 Z M19,18 L16.7145047,18 C16.7065083,17.964944 16.695145,17.9312451 16.6795731,17.9000339 L16.6833609,17.8977722 L11.9025703,8.99807758 L11.9006764,8.99920841 C11.7954607,8.7669343 11.5757703,8.60567681 11.319044,8.60567681 C11.0557944,8.60567681 10.8300015,8.77507633 10.7283631,9.01752799 L7.54685104,14.9399525 L6.76783406,13.4899921 L6.7667819,13.4906706 C6.71122802,13.3680878 6.59549076,13.2830487 6.46018338,13.2830487 C6.32150909,13.2830487 6.20261536,13.3723849 6.14895536,13.4997173 L5,15.6385842 L5,6 L19,6 L19,18 Z M16,11 C17.1045695,11 18,10.1045695 18,9 C18,7.8954305 17.1045695,7 16,7 C14.8954305,7 14,7.8954305 14,9 C14,10.1045695 14.8954305,11 16,11 Z"/>
</svg>
