<svg xmlns="http://www.w3.org/2000/svg" xmlns:xlink="http://www.w3.org/1999/xlink" width="24" height="24" viewBox="0 0 24 24">
  <defs>
    <path id="a" d="M12.4354031,16.3298347 C12.4718869,16.2059572 12.5083708,16.0788294 12.5400959,15.9501087 C12.5448705,15.9291915 13.0968871,13.7682927 13.6869738,11.5124623 C14.7021767,7.63314196 14.9496325,6.85277267 15.0051514,6.73370602 C15.1939157,6.33788985 15.5000628,6.0386142 15.9410416,5.81817999 C16.3217427,5.62831695 16.8071366,5.50281426 17.3845332,5.44488994 C17.5542625,5.42719084 17.7144742,5.33225932 17.831857,5.17779447 C17.9381361,5.0378107 18,4.86081973 18,4.6918738 C18,4.31053871 17.6938529,4 17.3179105,4 L9.58491948,4 C9.20897714,4 8.90283001,4.31053871 8.90283001,4.6918738 L8.90283001,4.71600893 C8.90283001,5.05711881 9.14394071,5.34352238 9.47548377,5.39822868 C9.91486043,5.47063408 10.5176372,5.57039263 10.9903569,5.79726287 C11.2330538,5.91311151 11.4218023,6.05470429 11.5471323,6.21560517 C11.6898952,6.39742317 11.7596904,6.60820333 11.7596904,6.8575997 C11.7596904,7.32421226 11.6248587,7.79243384 11.4947858,8.24456532 C11.4678195,8.33949684 11.4392669,8.43925539 11.4123006,8.53579592 C11.2457439,9.13917424 10.9998744,10.0547003 10.7159349,11.1150371 C10.0608117,13.5559035 9.24549272,16.5921032 9.04085002,17.1697374 C8.90284587,17.5591175 8.39048565,18.4810796 6.62815681,18.6178453 C6.45684132,18.6307174 6.29662961,18.7095588 6.18083302,18.8366866 C6.06345018,18.9654073 6,19.1311352 6,19.3065011 L6,19.3081262 C6,19.6894613 6.30614713,20 6.68208947,20 L14.4166826,20 C14.7926091,20 15.0987721,19.6894613 15.0987721,19.3081262 L15.0987721,19.3032992 C15.0987721,18.9541443 14.8417989,18.6596956 14.5007541,18.6178453 C14.4341314,18.6098003 14.369095,18.6017552 14.2992998,18.5937102 C13.6203828,18.5148848 12.7764954,18.4151102 12.4211744,17.9468886 C12.2562198,17.7296724 12.2038734,17.4432689 12.2577902,17.0748219 C12.2926402,16.8254256 12.3624512,16.5840742 12.4354031,16.3298347"/>
  </defs>
  <g fill="none" fill-rule="evenodd">
    <use fill="#000000" xlink:href="#a"/>
  </g>
</svg>
