<svg xmlns="http://www.w3.org/2000/svg" width="24" height="24" viewBox="0 0 24 24">
  <path fill="#000000" fill-rule="evenodd" d="M12,3 C7.02912,3 3,7.03032 3,12.00048 C3,16.97088 7.02912,21 12,21 C16.97088,21 21,16.97088 21,12.00048 C21,7.03032 16.97088,3 12,3 L12,3 Z M12.91824,17.0064 C12.91824,17.1792 12.77808,17.31936 12.60528,17.31936 L11.39472,17.31936 C11.22192,17.31936 11.08176,17.17944 11.08176,17.0064 L11.08176,11.19408 C11.08176,11.02128 11.22192,10.88112 11.39472,10.88112 L12.60528,10.88112 C12.77808,10.88112 12.91824,11.02104 12.91824,11.19408 L12.91824,17.0064 L12.91824,17.0064 Z M11.99256,9.58392 C11.39976,9.58392 10.90824,9.0924 10.90824,8.48496 C10.90824,7.87776 11.39976,7.40064 11.99256,7.40064 C12.6,7.40064 13.09152,7.87752 13.09152,8.48496 C13.09176,9.0924 12.6,9.58392 11.99256,9.58392 L11.99256,9.58392 Z"/>
</svg>
