<svg xmlns="http://www.w3.org/2000/svg" xmlns:xlink="http://www.w3.org/1999/xlink" width="24" height="24" viewBox="0 0 24 24">
  <defs>
    <path id="a" d="M11,15.7324356 L11,17.5 C11,17.7761424 11.2238576,18 11.5,18 L12.5,18 C12.7761424,18 13,17.7761424 13,17.5 L13,15.7324356 C13.5978014,15.3866262 14,14.7402824 14,14 C14,12.8954305 13.1045695,12 12,12 C10.8954305,12 10,12.8954305 10,14 C10,14.7402824 10.4021986,15.3866262 11,15.7324356 Z M18,9 L19,9 C20.1045695,9 21,9.8954305 21,11 L21,19 C21,20.1045695 20.1045695,21 19,21 L5,21 C3.8954305,21 3,20.1045695 3,19 L3,11 C3,9.8954305 3.8954305,9 5,9 L5,9 L6,9 L6,8 L6,8 C6,4.6862915 8.6862915,2 12,2 C15.3137085,2 18,4.6862915 18,8 L18,9 Z M8,9 L16,9 L16,8 C16,5.790861 14.209139,4 12,4 C9.790861,4 8,5.790861 8,8 L8,8 L8,9 Z"/>
  </defs>
  <g fill="none" fill-rule="evenodd">
    <use fill="#000000" xlink:href="#a"/>
  </g>
</svg>
