<svg xmlns="http://www.w3.org/2000/svg" xmlns:xlink="http://www.w3.org/1999/xlink" width="24" height="24" viewBox="0 0 24 24">
  <defs>
    <path id="a" d="M8,11.5046844 C8,11.2259549 8.22900057,11 8.50034732,11 L19.4996527,11 C19.7759869,11 20,11.214035 20,11.5046844 L20,12.4953156 C20,12.7740451 19.7709994,13 19.4996527,13 L8.50034732,13 C8.22401312,13 8,12.785965 8,12.4953156 L8,11.5046844 Z M8,17.5046844 C8,17.2259549 8.22900057,17 8.50034732,17 L19.4996527,17 C19.7759869,17 20,17.214035 20,17.5046844 L20,18.4953156 C20,18.7740451 19.7709994,19 19.4996527,19 L8.50034732,19 C8.22401312,19 8,18.785965 8,18.4953156 L8,17.5046844 Z M8,5.50468445 C8,5.22595492 8.22900057,5 8.50034732,5 L19.4996527,5 C19.7759869,5 20,5.21403503 20,5.50468445 L20,6.49531555 C20,6.77404508 19.7709994,7 19.4996527,7 L8.50034732,7 C8.22401312,7 8,6.78596497 8,6.49531555 L8,5.50468445 Z M5,7 C4.44771525,7 4,6.55228475 4,6 C4,5.44771525 4.44771525,5 5,5 C5.55228475,5 6,5.44771525 6,6 C6,6.55228475 5.55228475,7 5,7 Z M5,13 C4.44771525,13 4,12.5522847 4,12 C4,11.4477153 4.44771525,11 5,11 C5.55228475,11 6,11.4477153 6,12 C6,12.5522847 5.55228475,13 5,13 Z M5,19 C4.44771525,19 4,18.5522847 4,18 C4,17.4477153 4.44771525,17 5,17 C5.55228475,17 6,17.4477153 6,18 C6,18.5522847 5.55228475,19 5,19 Z"/>
  </defs>
  <g fill="none" fill-rule="evenodd">
    <use fill="#000000" xlink:href="#a"/>
  </g>
</svg>
