<svg xmlns="http://www.w3.org/2000/svg" width="24" height="24"><path fill-rule="evenodd" d="M16.366 6.438l1.732 1c.957.552 1.284 1.775.732 2.732l-5 8.66c-.552.957-1.775 1.284-2.732.732l-1.732-1-1.5 2.598c-.276.478-.888.642-1.366.366-.478-.276-.642-.888-.366-1.366l1.5-2.598-1.732-1c-.957-.552-1.284-1.775-.732-2.732l5-8.66c.552-.957 1.775-1.284 2.732-.732l1.732 1 1.5-2.598c.276-.478.888-.642 1.366-.366.478.276.642.888.366 1.366l-1.5 2.598zm-1 1.732l-.5.866c-.276.478-.888.642-1.366.366-.478-.276-.642-.888-.366-1.366l.5-.866-1.299-.75c-.239-.138-.545-.056-.683.183l-4.5 7.794c-.138.239-.056.545.183.683l1.299.75.5-.866c.276-.478.888-.642 1.366-.366.478.276.642.888.366 1.366l-.5.866 1.299.75c.239.138.545.056.683-.183l4.5-7.794c.138-.239.056-.545-.183-.683l-1.299-.75z"/></svg>