<?xml version="1.0" encoding="UTF-8"?>
<svg width="16px" height="20px" viewBox="0 0 16 20" version="1.1" xmlns="http://www.w3.org/2000/svg" xmlns:xlink="http://www.w3.org/1999/xlink">
    <!-- Generator: Sketch 46.1 (44463) - http://www.bohemiancoding.com/sketch -->
    <title>Mask</title>
    <desc>Created with Sketch.</desc>
    <defs>
        <path d="M11,6 L13,6 C14.1045695,6 15,6.8954305 15,8 L15,18 C15,19.1045695 14.1045695,20 13,20 L11,20 L11,23 C11,23.5522847 10.5522847,24 10,24 C9.44771525,24 9,23.5522847 9,23 L9,20 L7,20 C5.8954305,20 5,19.1045695 5,18 L5,8 C5,6.8954305 5.8954305,6 7,6 L7,6 L9,6 L9,3 L9,3 C9,2.44771525 9.44771525,2 10,2 C10.5522847,2 11,2.44771525 11,3 L11,6 Z M11,8 L11,9 C11,9.55228475 10.5522847,10 10,10 C9.44771525,10 9,9.55228475 9,9 L9,8 L7.5,8 L7.5,8 C7.22385763,8 7,8.22385763 7,8.5 L7,17.5 C7,17.7761424 7.22385763,18 7.5,18 L9,18 L9,17 C9,16.4477153 9.44771525,16 10,16 C10.5522847,16 11,16.4477153 11,17 L11,18 L12.5,18 C12.7761424,18 13,17.7761424 13,17.5 L13,8.5 C13,8.22385763 12.7761424,8 12.5,8 L11,8 Z" id="path-1"></path>
    </defs>
    <g id="Symbols" stroke="none" stroke-width="1" fill="none" fill-rule="evenodd">
        <g id="ico/link" transform="translate(-4.000000, -2.000000)">
            <g id="Colors/DarkGray" transform="translate(2.000000, -1.000000)">
                <mask id="mask-2" fill="white">
                    <use xlink:href="#path-1"></use>
                </mask>
                <use id="Mask" fill="#000000" transform="translate(10.000000, 13.000000) rotate(30.000000) translate(-10.000000, -13.000000) " xlink:href="#path-1"></use>
            </g>
        </g>
    </g>
</svg>