<svg xmlns="http://www.w3.org/2000/svg" xmlns:xlink="http://www.w3.org/1999/xlink" width="24" height="24" viewBox="0 0 24 24">
  <defs>
    <path id="a" d="M16.3660254,6.43782217 L18.0980762,7.43782217 C19.0546615,7.99010692 19.3824118,9.21328773 18.830127,10.169873 L13.830127,18.830127 C13.2778423,19.7867123 12.0546615,20.1144626 11.0980762,19.5621778 L9.3660254,18.5621778 L7.8660254,21.160254 C7.58988303,21.6385467 6.97829262,21.8024218 6.5,21.5262794 C6.02170738,21.2501371 5.85783222,20.6385467 6.1339746,20.160254 L7.6339746,17.5621778 L5.90192379,16.5621778 C4.94533854,16.0098931 4.61758823,14.7867123 5.16987298,13.830127 L10.169873,5.16987298 C10.7221577,4.21328773 11.9453385,3.88553742 12.9019238,4.43782217 L14.6339746,5.43782217 L16.1339746,2.83974596 C16.410117,2.36145334 17.0217074,2.19757818 17.5,2.47372056 C17.9782926,2.74986293 18.1421678,3.36145334 17.8660254,3.83974596 L16.3660254,6.43782217 Z M15.3660254,8.16987298 L14.8660254,9.03589838 C14.589883,9.51419101 13.9782926,9.67806616 13.5,9.40192379 C13.0217074,9.12578141 12.8578322,8.51419101 13.1339746,8.03589838 L13.6339746,7.16987298 L12.3349365,6.41987298 C12.0957902,6.28180179 11.789995,6.36373937 11.6519238,6.60288568 L7.15192379,14.3971143 C7.0138526,14.6362606 7.09579018,14.9420558 7.33493649,15.080127 L8.6339746,15.830127 L9.1339746,14.9641016 C9.41011697,14.485809 10.0217074,14.3219338 10.5,14.5980762 C10.9782926,14.8742186 11.1421678,15.485809 10.8660254,15.9641016 L10.3660254,16.830127 L11.6650635,17.580127 C11.9042098,17.7181982 12.210005,17.6362606 12.3480762,17.3971143 L16.8480762,9.60288568 C16.9861474,9.36373937 16.9042098,9.05794417 16.6650635,8.91987298 L15.3660254,8.16987298 L15.3660254,8.16987298 Z"/>
  </defs>
  <g fill="none" fill-rule="evenodd">
    <use fill="#000000" xlink:href="#a"/>
  </g>
</svg>
