<svg xmlns="http://www.w3.org/2000/svg" width="24" height="24"><path fill-rule="evenodd" d="M8 11.505c0-.279.229-.505.5-.505h10.999c.276 0 .5.214.5.505v.991c0 .279-.229.505-.5.505h-10.999c-.276 0-.5-.214-.5-.505v-.991zm0 6c0-.279.229-.505.5-.505h10.999c.276 0 .5.214.5.505v.991c0 .279-.229.505-.5.505h-10.999c-.276 0-.5-.214-.5-.505v-.991zm0-12c0-.279.229-.505.5-.505h10.999c.276 0 .5.214.5.505v.991c0 .279-.229.505-.5.505h-10.999c-.276 0-.5-.214-.5-.505v-.991zm-3 1.495c-.552 0-1-.448-1-1s.448-1 1-1 1 .448 1 1-.448 1-1 1zm0 6c-.552 0-1-.448-1-1s.448-1 1-1 1 .448 1 1-.448 1-1 1zm0 6c-.552 0-1-.448-1-1s.448-1 1-1 1 .448 1 1-.448 1-1 1z"/></svg>