<svg xmlns="http://www.w3.org/2000/svg" width="24" height="24"><path fill-rule="evenodd" d="M10.654 17.361c.783.194 1.568.21 2.314.078l.724 2.506-.597.191-2.29.782c-.628.215-1.513-.005-1.966-.487l-1.653-1.758c-.226-.241-.535-.549-.849-.85-.315-.302-.635-.597-.886-.814l-1.827-1.578c-.501-.433-.753-1.303-.558-1.934l.707-2.3.172-.598 2.548.631c-.256 1.792.393 3.544 1.642 4.745.68.653 1.535 1.143 2.519 1.387zm8.99-2.235l-.463 2.36c-.127.647-.76 1.299-1.408 1.447l-2.36.542-.608.152-.724-2.507c1.594-.64 2.87-2 3.318-3.783.448-1.784-.036-3.578-1.14-4.887l1.825-1.876.465.417 1.827 1.578c.501.433.752 1.303.558 1.934l-.707 2.3c-.097.316-.211.735-.317 1.156-.106.421-.203.845-.266 1.168zm-9.178-8.437c-1.671.477-3.072 1.722-3.693 3.424l-2.548-.631.131-.609.463-2.36c.127-.648.76-1.299 1.408-1.447l2.359-.542c.324-.074.746-.186 1.167-.305.42-.12.838-.247 1.152-.355l2.29-.782c.628-.215 1.513.004 1.966.487l1.653 1.758.436.447-1.824 1.875c-.597-.464-1.297-.816-2.08-1.01-.984-.244-1.971-.209-2.88.05z"/></svg>