<svg xmlns="http://www.w3.org/2000/svg" xmlns:xlink="http://www.w3.org/1999/xlink" width="24" height="24" viewBox="0 0 24 24">
  <defs>
    <path id="a" d="M9.88035043,11.459972 L7.32253892,12.6207831 C6.61818537,12.9422912 6.16399043,13.6662195 6.16399043,14.4665649 L6.16399043,17.5596353 L3.63121675,17.5596353 C3.28310313,17.5596353 3,17.2396255 3,16.8444831 L3,13.896755 C3,13.6030738 3.15747474,13.3402163 3.3962126,13.2308351 L7.22831763,11.4925081 C6.32080629,10.9586592 5.69925326,9.88603802 5.69925326,8.64666933 C5.69925326,6.87516411 6.96388306,5.4405788 8.5263312,5.4405788 C9.0365318,5.4405788 9.50807751,5.60582796 9.92076236,5.8733946 C9.6556689,6.51319995 9.50434379,7.22086021 9.50434379,7.96833438 C9.50434379,9.08676294 9.84608814,10.1420458 10.4353556,11.005965 C10.2675582,11.1810606 10.0821904,11.3349649 9.88035043,11.459972 Z M20.5157157,13.644172 C20.8087022,13.7822364 21,14.1046007 21,14.4665649 L21,17.5596353 L21,18.1146755 C21,18.6035733 20.650349,19 20.2187759,19 L8.10266484,19 C7.67087218,19 7.32144077,18.6035733 7.32144077,18.1146755 L7.32144077,17.5596353 L7.32144077,14.4665649 C7.32144077,14.1031023 7.51581336,13.7777413 7.81187466,13.6426737 L11.2178974,12.0965666 L12.5543462,11.4899395 C11.9510225,11.1358953 11.4553175,10.584708 11.1208209,9.91664764 C10.8315682,9.34063017 10.6613549,8.67856327 10.6613549,7.96812033 C10.6613549,7.5592785 10.7314169,7.17312632 10.8331056,6.80195787 C11.2736834,5.18350077 12.5883889,4 14.1605008,4 C15.7627019,4 17.0976134,5.22716765 17.5127141,6.89293053 C17.5979306,7.23691421 17.6589877,7.59288487 17.6589877,7.96812033 C17.6589877,8.63660882 17.5059056,9.26185855 17.2491581,9.81433016 C16.9252038,10.5100034 16.4303773,11.0873052 15.8209039,11.4614704 L17.2162136,12.1100519 L20.5157157,13.644172 Z"/>
  </defs>
  <g fill="none" fill-rule="evenodd">
    <use fill="#000000" xlink:href="#a"/>
  </g>
</svg>
