<svg xmlns="http://www.w3.org/2000/svg" xmlns:xlink="http://www.w3.org/1999/xlink" width="24" height="24" viewBox="0 0 24 24">
  <defs>
    <path id="a" d="M9,7 L9,7 L9,7 C10.1045695,7 11,7.8954305 11,9 L11,9 C11,10.1045695 10.1045695,11 9,11 L9,11 C7.8954305,11 7,10.1045695 7,9 L7,9 L7,9 C7,7.8954305 7.8954305,7 9,7 L9,7 Z M15,7 L15,7 C16.1045695,7 17,7.8954305 17,9 L17,9 C17,10.1045695 16.1045695,11 15,11 L15,11 C13.8954305,11 13,10.1045695 13,9 L13,9 L13,9 C13,7.8954305 13.8954305,7 15,7 Z M9,13 L9,13 L9,13 C10.1045695,13 11,13.8954305 11,15 L11,15 C11,16.1045695 10.1045695,17 9,17 L9,17 C7.8954305,17 7,16.1045695 7,15 L7,15 C7,13.8954305 7.8954305,13 9,13 L9,13 Z M15,13 L15,13 C16.1045695,13 17,13.8954305 17,15 L17,15 C17,16.1045695 16.1045695,17 15,17 L15,17 C13.8954305,17 13,16.1045695 13,15 L13,15 C13,13.8954305 13.8954305,13 15,13 Z M9,1 L9,1 L9,1 C10.1045695,1 11,1.8954305 11,3 L11,3 L11,3 C11,4.1045695 10.1045695,5 9,5 L9,5 C7.8954305,5 7,4.1045695 7,3 L7,3 L7,3 C7,1.8954305 7.8954305,1 9,1 L9,1 Z M15,1 L15,1 C16.1045695,1 17,1.8954305 17,3 L17,3 L17,3 C17,4.1045695 16.1045695,5 15,5 L15,5 C13.8954305,5 13,4.1045695 13,3 L13,3 L13,3 C13,1.8954305 13.8954305,1 15,1 Z M9,19 L9,19 L9,19 C10.1045695,19 11,19.8954305 11,21 L11,21 C11,22.1045695 10.1045695,23 9,23 L9,23 C7.8954305,23 7,22.1045695 7,21 L7,21 C7,19.8954305 7.8954305,19 9,19 L9,19 Z M15,19 L15,19 C16.1045695,19 17,19.8954305 17,21 C17,22.1045695 16.1045695,23 15,23 L15,23 C13.8954305,23 13,22.1045695 13,21 L13,21 C13,19.8954305 13.8954305,19 15,19 Z"/>
  </defs>
  <g fill="none" fill-rule="evenodd">
    <use fill="#000000" xlink:href="#a"/>
  </g>
</svg>
