<svg xmlns="http://www.w3.org/2000/svg" width="24" height="24" viewBox="0 0 24 24">
  <path fill="#000000" fill-rule="evenodd" d="M10.6535959,17.3614326 C11.4367862,17.5553126 12.2215222,17.571264 12.967753,17.4393528 L13.6913972,19.9449605 C13.4723621,20.011629 13.2678918,20.0769202 13.0948551,20.1359938 L10.804669,20.9175997 C10.1765357,21.1321327 9.29164995,20.9130779 8.83848111,20.4308669 L7.18594185,18.6732333 C6.95948395,18.4320999 6.65112839,18.1245428 6.33670294,17.8230758 C6.02219304,17.5214694 5.7015288,17.2258135 5.45093217,17.0094314 L3.62405496,15.4312029 C3.12300225,14.9983548 2.87148286,14.1280553 3.06561042,13.4972719 L3.7724707,11.1972544 C3.82595559,11.0237603 3.88462243,10.8186866 3.94417985,10.5991223 L6.49241697,11.2299423 C6.23623905,13.0223612 6.88530868,14.7743153 8.13488038,15.9744927 C8.81451847,16.6273696 9.66993949,17.117927 10.6535959,17.3614326 Z M19.6438781,15.1265182 L19.1807661,17.48652 C19.0536576,18.1340128 18.4202912,18.7852575 17.7732197,18.9338857 L15.4135105,19.4755997 C15.2354569,19.5165849 15.0270979,19.5688125 14.8058925,19.6274696 L14.0817974,17.1203267 C15.6761767,16.4801485 16.9517588,15.1205313 17.3996599,13.3368982 L17.3996879,13.3367865 C17.8475889,11.5531533 17.3641429,9.75832333 16.2593728,8.44972939 L18.0842179,6.57346181 C18.2519077,6.7283905 18.411098,6.8714869 18.5489305,6.99067015 L20.3760046,8.56906602 C20.8770293,9.00202577 21.1284078,9.87193453 20.9344772,10.5028854 L20.2274761,12.802512 C20.130553,13.1180572 20.0161213,13.537109 19.9103517,13.9583051 C19.8045821,14.3795012 19.7074746,14.8028416 19.6438781,15.1265182 Z M10.4662735,6.68941129 C8.79547454,7.16664652 7.39423806,8.41092563 6.77290132,10.1129489 L4.22466421,9.48212893 C4.27592505,9.26039223 4.32114859,9.05175332 4.35598735,8.87352468 L4.81932426,6.51357856 C4.94620786,5.86603014 5.57977121,5.21495282 6.22687068,5.06621294 L8.58635496,4.52444322 C8.91007344,4.45011505 9.33260768,4.33867636 9.75291523,4.21897504 C10.1732228,4.09927373 10.5910226,3.97147749 10.9049346,3.8643507 L13.1952048,3.08240967 C13.8233381,2.8678767 14.7079989,3.08687583 15.1611677,3.56908677 L16.8138478,5.32711112 C16.9385854,5.45989913 17.0882775,5.61274521 17.250235,5.7738476 L15.4265701,7.64874641 C14.8299479,7.18440995 14.1293841,6.83279179 13.3461938,6.63891184 C12.3625374,6.39540621 11.3752056,6.42966867 10.4662735,6.68941129 Z"/>
</svg>
