<svg xmlns="http://www.w3.org/2000/svg" width="24" height="24" viewBox="0 0 24 24">
  <path fill="#000000" fill-rule="evenodd" d="M3,7.00585866 C3,5.89805351 3.8926228,5 4.99508929,5 L19.0049107,5 C20.1067681,5 21,5.89706013 21,7.00585866 L21,16.9941413 C21,18.1019465 20.1073772,19 19.0049107,19 L4.99508929,19 C3.8932319,19 3,18.1029399 3,16.9941413 L3,7.00585866 Z M19,17 L19,7 L5,7 L5,17 L19,17 Z M15,11.9995661 L12.4993738,13.4993491 L10,15 L10,11.9995661 L10,9 L12.4993738,10.5008678 L15,11.9995661 Z"/>
</svg>
