<svg xmlns="http://www.w3.org/2000/svg" xmlns:xlink="http://www.w3.org/1999/xlink" width="24" height="24" viewBox="0 0 24 24">
  <defs>
    <path id="a" d="M6,18.5 L4,18.5 L4,18 L6,18 L6,17 L6.5,17 L6.5,18.25 L6.5,19.5 L6.25,19.5 L4,19.5 L4,19 L6,19 L6,18.5 Z M4,12.25 L4,12 L6,12 L6,11 L6.5,11 L6.5,12.5 L6.25,12.5 L4.5,12.5 L4.5,13 L6.5,13 L6.5,13.5 L4,13.5 L4,13.25 L4,12.25 Z M8,11.5046844 C8,11.2259549 8.22900057,11 8.50034732,11 L19.4996527,11 C19.7759869,11 20,11.214035 20,11.5046844 L20,12.4953156 C20,12.7740451 19.7709994,13 19.4996527,13 L8.50034732,13 C8.22401312,13 8,12.785965 8,12.4953156 L8,11.5046844 Z M8,17.5046844 C8,17.2259549 8.22900057,17 8.50034732,17 L19.4996527,17 C19.7759869,17 20,17.214035 20,17.5046844 L20,18.4953156 C20,18.7740451 19.7709994,19 19.4996527,19 L8.50034732,19 C8.22401312,19 8,18.785965 8,18.4953156 L8,17.5046844 Z M8,5.50468445 C8,5.22595492 8.22900057,5 8.50034732,5 L19.4996527,5 C19.7759869,5 20,5.21403503 20,5.50468445 L20,6.49531555 C20,6.77404508 19.7709994,7 19.4996527,7 L8.50034732,7 C8.22401312,7 8,6.78596497 8,6.49531555 L8,5.50468445 Z M5,4.5 L5.5,4.5 L5.5,7.5 L5,7.5 L5,4.5 Z M4,11 L6,11 L6,11.5 L4,11.5 L4,11 Z M4,17 L6,17 L6,17.5 L4,17.5 L4,17 Z"/>
  </defs>
  <g fill="none" fill-rule="evenodd">
    <use fill="#000000" xlink:href="#a"/>
  </g>
</svg>
