<?xml version="1.0" encoding="UTF-8"?>
<svg width="24px" height="24px" viewBox="0 0 24 24" version="1.1" xmlns="http://www.w3.org/2000/svg" xmlns:xlink="http://www.w3.org/1999/xlink">
    <!-- Generator: Sketch 46.1 (44463) - http://www.bohemiancoding.com/sketch -->
    <title>ico/ol</title>
    <desc>Created with Sketch.</desc>
    <defs>
        <path d="M2,14.5 L0,14.5 L0,14 L2,14 L2,13 L2.5,13 L2.5,14.25 L2.5,15.5 L2.25,15.5 L0,15.5 L0,15 L2,15 L2,14.5 Z M0,8.25 L0,8 L2,8 L2,7 L2.5,7 L2.5,8.5 L2.25,8.5 L0.5,8.5 L0.5,9 L2.5,9 L2.5,9.5 L0,9.5 L0,9.25 L0,8.25 Z M4,7.50468445 C4,7.22595492 4.22900057,7 4.50034732,7 L15.4996527,7 C15.7759869,7 16,7.21403503 16,7.50468445 L16,8.49531555 C16,8.77404508 15.7709994,9 15.4996527,9 L4.50034732,9 C4.22401312,9 4,8.78596497 4,8.49531555 L4,7.50468445 Z M4,13.5046844 C4,13.2259549 4.22900057,13 4.50034732,13 L15.4996527,13 C15.7759869,13 16,13.214035 16,13.5046844 L16,14.4953156 C16,14.7740451 15.7709994,15 15.4996527,15 L4.50034732,15 C4.22401312,15 4,14.785965 4,14.4953156 L4,13.5046844 Z M4,1.50468445 C4,1.22595492 4.22900057,1 4.50034732,1 L15.4996527,1 C15.7759869,1 16,1.21403503 16,1.50468445 L16,2.49531555 C16,2.77404508 15.7709994,3 15.4996527,3 L4.50034732,3 C4.22401312,3 4,2.78596497 4,2.49531555 L4,1.50468445 Z M1,0.5 L1.5,0.5 L1.5,3.5 L1,3.5 L1,0.5 Z M0,7 L2,7 L2,7.5 L0,7.5 L0,7 Z M0,13 L2,13 L2,13.5 L0,13.5 L0,13 Z" id="path-1"></path>
    </defs>
    <g id="Symbols" stroke="none" stroke-width="1" fill="none" fill-rule="evenodd">
        <g id="ico/ol">
            <g id="Colors/DarkGray" transform="translate(4.000000, 4.000000)">
                <mask id="mask-2" fill="white">
                    <use xlink:href="#path-1"></use>
                </mask>
                <use id="Mask" fill="#000000" xlink:href="#path-1"></use>
                <g mask="url(#mask-2)" id="#2F2F2F" fill="#2F2F2F">
                    <g transform="translate(-32.000000, -23.000000)">
                        <rect x="0" y="0" width="64" height="64"></rect>
                    </g>
                </g>
            </g>
        </g>
    </g>
</svg>