<svg xmlns="http://www.w3.org/2000/svg" width="24" height="24"><path fill="#231F20" fill-rule="evenodd" d="M17 16.343l1.646-1.646c.195-.195.512-.195.707 0 .195.195.195.512 0 .707l-1.646 1.646 1.889 1.889c.195.195.195.512 0 .707-.195.195-.512.195-.707 0l-1.889-1.889-1.889 1.889c-.195.195-.512.195-.707 0-.195-.195-.195-.512 0-.707l1.889-1.889-1.646-1.646c-.195-.195-.195-.512 0-.707.195-.195.512-.195.707 0l1.646 1.646zm3.945-3.343h-3.028c.055-.325.083-.659.083-1 0-3.308-2.691-6-6-6s-6 2.692-6 6 2.691 6 6 6c.341 0 .675-.029 1-.083v3.028c-.328.036-.662.055-1 .055-4.971 0-9-4.029-9-9 0-4.97 4.029-9 9-9s9 4.03 9 9c0 .338-.019.671-.055 1zm-4.582-3.955c.182.18.182.474 0 .655l-4.192 4.165c-.086.086-.2.133-.322.136h-.018c-.124 0-.241-.048-.33-.136l-2.865-2.846c-.088-.087-.136-.204-.136-.327 0-.124.05-.243.138-.329l.919-.913c.175-.174.483-.174.659 0l1.621 1.61 2.948-2.929c.169-.171.484-.175.659 0l.92.915z"/></svg>