<svg xmlns="http://www.w3.org/2000/svg" xmlns:xlink="http://www.w3.org/1999/xlink" width="24" height="24" viewBox="0 0 24 24">
  <defs>
    <path id="a" d="M3,11 L3,7 C3,5.8954305 3.8954305,5 5,5 L5,5 L9,5 L9,4 L9,4 C9,2.8954305 9.8954305,2 11,2 C12.1045695,2 13,2.8954305 13,4 L13,5 L17,5 C18.1045695,5 19,5.8954305 19,7 L19,11 L20,11 C21.1045695,11 22,11.8954305 22,13 C22,14.1045695 21.1045695,15 20,15 L19,15 L19,19 C19,20.1045695 18.1045695,21 17,21 L13,21 L13,20 C13,18.8954305 12.1045695,18 11,18 C9.8954305,18 9,18.8954305 9,20 L9,21 L5,21 C3.8954305,21 3,20.1045695 3,19 L3,15 L4,15 C5.1045695,15 6,14.1045695 6,13 C6,11.8954305 5.1045695,11 4,11 L4,11 L3,11 Z"/>
  </defs>
  <g fill="none" fill-rule="evenodd">
    <use fill="#000000" xlink:href="#a"/>
  </g>
</svg>
