<?xml version="1.0" encoding="UTF-8"?>
<svg width="24px" height="24px" viewBox="0 0 24 24" version="1.1" xmlns="http://www.w3.org/2000/svg" xmlns:xlink="http://www.w3.org/1999/xlink">
    <!-- Generator: Sketch 46.1 (44463) - http://www.bohemiancoding.com/sketch -->
    <title>ico/preview</title>
    <desc>Created with Sketch.</desc>
    <defs>
        <path d="M19.664478,6.37154043 C19.8667448,6.50141758 20.0002801,6.72255974 19.9999996,6.97367355 C19.9999996,7.16052383 19.9245353,7.3290131 19.8036241,7.45754016 L19.8033436,7.45781018 C19.7867919,7.47536114 19.7696792,7.49183205 19.7514443,7.50776293 L15.4090217,11.6873228 L15.3916285,11.6705819 C14.0602028,13.1000405 12.1275877,14 9.97587365,14 C8.06682359,14 6.3303034,13.290941 5.03282265,12.1328473 L5.02300387,12.1422978 L0.283061207,7.58039692 C0.111653479,7.44781963 0,7.24692858 0,7.01903605 C0,6.83623599 0.0726589223,6.67125692 0.188800983,6.54380991 L0.185434547,6.54056973 L4.55506919,2.3345484 C5.88677538,0.902119617 7.82135426,0 9.97559311,0 C11.8939009,0 13.6374345,0.716079384 14.936879,1.88389361 L14.9694212,1.85257189 L19.664478,6.37154043 Z M9.99985769,12 C12.7612068,12 15,9.76136396 15,6.99985768 C15,4.23863604 12.7612068,2 9.99985769,2 C7.23850861,2 5,4.23863604 5,6.99985768 C5,9.76136396 7.23850861,12 9.99985769,12 Z M10,10 C8.34314575,10 7,8.65685425 7,7 C7,5.34314575 8.34314575,4 10,4 C11.6568542,4 13,5.34314575 13,7 C13,8.65685425 11.6568542,10 10,10 Z" id="path-1"></path>
    </defs>
    <g id="Symbols" stroke="none" stroke-width="1" fill="none" fill-rule="evenodd">
        <g id="ico/preview">
            <g id="Colors/DarkGray" transform="translate(2.000000, 5.000000)">
                <mask id="mask-2" fill="white">
                    <use xlink:href="#path-1"></use>
                </mask>
                <use id="Mask" fill="#000000" xlink:href="#path-1"></use>
                <g mask="url(#mask-2)" id="#2F2F2F" fill="#2F2F2F">
                    <g transform="translate(-24.000000, -19.000000)">
                        <rect x="0" y="0" width="64" height="64"></rect>
                    </g>
                </g>
            </g>
        </g>
    </g>
</svg>