<svg xmlns="http://www.w3.org/2000/svg" xmlns:xlink="http://www.w3.org/1999/xlink" width="24" height="24" viewBox="0 0 24 24">
  <defs>
    <path id="a" d="M6.53056538,11.3463027 C6.33243728,11.3463027 6.14934225,11.2538878 6.05875839,11.1051472 C5.96856,10.9560693 5.98282214,10.777648 6.09730471,10.6417241 L11.549682,4.18820242 C11.6499024,4.06981703 11.8094842,4 11.9810153,4 L11.9821717,4 C12.1525465,4 12.314441,4.06981703 12.4135051,4.18651602 L17.901345,10.6413868 C18.0165985,10.7773108 18.0324025,10.955732 17.9406622,11.1048099 C17.8500784,11.2522014 17.6681397,11.3463027 17.4700116,11.3463027 L14.9035975,11.3463027 L14.9035975,17.1434768 C14.9035975,17.3913778 14.6669231,17.5907105 14.3732001,17.5907105 L9.62544959,17.5907105 C9.33288301,17.5907105 9.0950522,17.3913778 9.0950522,17.1434768 L9.0950522,11.3463027 L6.53056538,11.3463027 Z M5,19.5046844 C5,19.2259549 5.21990657,19 5.49826741,19 L18.5017326,19 C18.7769181,19 19,19.214035 19,19.5046844 L19,20.4953156 C19,20.7740451 18.7800934,21 18.5017326,21 L5.49826741,21 C5.22308192,21 5,20.785965 5,20.4953156 L5,19.5046844 Z"/>
  </defs>
  <g fill="none" fill-rule="evenodd">
    <use fill="#000000" xlink:href="#a"/>
  </g>
</svg>
