<svg xmlns="http://www.w3.org/2000/svg" xmlns:xlink="http://www.w3.org/1999/xlink" width="24" height="24" viewBox="0 0 24 24">
  <defs>
    <path id="a" d="M21.664478,11.3715404 C21.8667448,11.5014176 22.0002801,11.7225597 21.9999996,11.9736736 C21.9999996,12.1605238 21.9245353,12.3290131 21.8036241,12.4575402 L21.8033436,12.4578102 C21.7867919,12.4753611 21.7696792,12.4918321 21.7514443,12.5077629 L17.4090217,16.6873228 L17.3916285,16.6705819 C16.0602028,18.1000405 14.1275877,19 11.9758737,19 C10.0668236,19 8.3303034,18.290941 7.03282265,17.1328473 L7.02300387,17.1422978 L2.28306121,12.5803969 C2.11165348,12.4478196 2,12.2469286 2,12.019036 C2,11.836236 2.07265892,11.6712569 2.18880098,11.5438099 L2.18543455,11.5405697 L6.55506919,7.3345484 C7.88677538,5.90211962 9.82135426,5 11.9755931,5 C13.8939009,5 15.6374345,5.71607938 16.936879,6.88389361 L16.9694212,6.85257189 L21.664478,11.3715404 Z M11.9998577,17 C14.7612068,17 17,14.761364 17,11.9998577 C17,9.23863604 14.7612068,7 11.9998577,7 C9.23850861,7 7,9.23863604 7,11.9998577 C7,14.761364 9.23850861,17 11.9998577,17 Z M12,15 C10.3431458,15 9,13.6568542 9,12 C9,10.3431458 10.3431458,9 12,9 C13.6568542,9 15,10.3431458 15,12 C15,13.6568542 13.6568542,15 12,15 Z"/>
  </defs>
  <g fill="none" fill-rule="evenodd">
    <use fill="#000000" xlink:href="#a"/>
  </g>
</svg>
