<svg xmlns="http://www.w3.org/2000/svg" width="24" height="24" viewBox="0 0 24 24">
  <path fill="#231F20" fill-rule="evenodd" d="M17.5104076,8.51040764 L9.76776695,16.2530483 C9.57250481,16.4483105 9.25592232,16.4483105 9.06066017,16.2530483 L7.64644661,14.8388348 C7.45118446,14.6435726 7.45118446,14.3269901 7.64644661,14.131728 L15.3890873,6.3890873 L14.6870212,5.68702117 C14.491759,5.49175903 14.491759,5.17517654 14.6870212,4.97991439 C14.7607098,4.90622574 14.8555815,4.85740308 14.9583751,4.84027082 L19.3095243,4.11507929 C19.5819094,4.06968176 19.8395232,4.2536916 19.8849207,4.52607676 C19.8939914,4.58050106 19.8939914,4.63605144 19.8849207,4.69047575 L19.1597292,9.04162493 C19.1143317,9.31401009 18.8567179,9.49801992 18.5843327,9.4526224 C18.4815391,9.43549013 18.3866675,9.38666748 18.3129788,9.31297883 L17.5104076,8.51040764 Z M12.863961,4 L10.863961,6 L6,6 L6,18 L18,18 L18,13.0060967 L20,11.0060967 L20,18.0059397 C20,19.1072288 19.1054862,20 18.0059397,20 L5.99406028,20 C4.8927712,20 4,19.1054862 4,18.0059397 L4,5.99406028 C4,4.8927712 4.89451376,4 5.99406028,4 L12.863961,4 Z"/>
</svg>
