<?xml version="1.0" encoding="UTF-8"?>
<svg width="24px" height="24px" viewBox="0 0 24 24" version="1.1" xmlns="http://www.w3.org/2000/svg" xmlns:xlink="http://www.w3.org/1999/xlink">
    <!-- Generator: Sketch 46.1 (44463) - http://www.bohemiancoding.com/sketch -->
    <title>ico/publish</title>
    <desc>Created with Sketch.</desc>
    <defs>
        <path d="M1.53056538,7.34630265 C1.33243728,7.34630265 1.14934225,7.25388785 1.05875839,7.10514722 C0.968559997,6.95606932 0.982822136,6.77764803 1.09730471,6.64172406 L6.549682,0.188202419 C6.64990244,0.0698170263 6.80948422,-8.8817842e-16 6.98101535,-8.8817842e-16 L6.98217174,-8.8817842e-16 C7.15254648,-8.8817842e-16 7.31444104,0.0698170263 7.41350509,0.186516017 L12.901345,6.64138678 C13.0165985,6.77731075 13.0324025,6.95573204 12.9406622,7.10480994 C12.8500784,7.25220144 12.6681397,7.34630265 12.4700116,7.34630265 L9.90359751,7.34630265 L9.90359751,13.1434768 C9.90359751,13.3913778 9.66692309,13.5907105 9.37320011,13.5907105 L4.62544959,13.5907105 C4.33288301,13.5907105 4.0950522,13.3913778 4.0950522,13.1434768 L4.0950522,7.34630265 L1.53056538,7.34630265 Z M0,15.5046844 C0,15.2259549 0.219906569,15 0.498267412,15 L13.5017326,15 C13.7769181,15 14,15.214035 14,15.5046844 L14,16.4953156 C14,16.7740451 13.7800934,17 13.5017326,17 L0.498267412,17 C0.223081919,17 0,16.785965 0,16.4953156 L0,15.5046844 Z" id="path-1"></path>
    </defs>
    <g id="Symbols" stroke="none" stroke-width="1" fill="none" fill-rule="evenodd">
        <g id="ico/publish">
            <g id="Colors/DarkGray" transform="translate(5.000000, 4.000000)">
                <mask id="mask-2" fill="white">
                    <use xlink:href="#path-1"></use>
                </mask>
                <use id="Mask" fill="#000000" xlink:href="#path-1"></use>
                <g mask="url(#mask-2)" id="#2F2F2F" fill="#2F2F2F">
                    <g transform="translate(-27.000000, -23.000000)">
                        <rect x="0" y="0" width="64" height="64"></rect>
                    </g>
                </g>
            </g>
        </g>
    </g>
</svg>