<svg xmlns="http://www.w3.org/2000/svg" width="24" height="24" viewBox="0 0 24 24">
  <g fill="#000000" fill-rule="evenodd">
    <path d="M14,16 L14,20.5 C14,20.7761424 13.7761424,21 13.5,21 L10.5,21 C10.2238576,21 10,20.7761424 10,20.5 L10,16 L7.44213781,16 C7.27703107,16 7.12445187,15.9245214 7.04896533,15.8030393 C6.9738,15.6812819 6.98568511,15.5355585 7.08108726,15.4245443 L11.624735,10.153712 C11.708252,10.0570222 11.8412368,10 11.9851431,10 C12.1271221,10 12.2620342,10.0570222 12.3445876,10.1523346 L16.9177875,15.4242689 C17.0138321,15.535283 17.0270021,15.6810064 16.9505519,15.8027639 C16.8750653,15.923144 16.7234498,16 16.558343,16 L14,16 Z M5.75,19 L5,19 C3.8954305,19 3,18.1045695 3,17 L3,6 L3,6 C3,4.8954305 3.8954305,4 5,4 L5,4 L19,4 C20.1045695,4 21,4.8954305 21,6 L21,17 C21,18.1045695 20.1045695,19 19,19 L18,19 L18,17 L19,17 L19,8 L5,8 L5,17 L5.75,17 L7.5,17 C7.77614237,17 8,17.2238576 8,17.5 L8,18.5 C8,18.7761424 7.77614237,19 7.5,19 L5.75,19 Z M6,7 C6.55228475,7 7,6.55228475 7,6 C7,5.44771525 6.55228475,5 6,5 C5.44771525,5 5,5.44771525 5,6 C5,6.55228475 5.44771525,7 6,7 Z"/>
    <rect width="3" height="2" x="16" y="17" rx=".5"/>
  </g>
</svg>
