<svg xmlns="http://www.w3.org/2000/svg" width="24" height="24" viewBox="0 0 24 24">
  <path fill="#231F20" fill-rule="evenodd" d="M17,16.3431458 L18.6464466,14.6966991 C18.8417088,14.501437 19.1582912,14.501437 19.3535534,14.6966991 C19.5488155,14.8919613 19.5488155,15.2085438 19.3535534,15.4038059 L17.7071068,17.0502525 L19.5961941,18.9393398 C19.7914562,19.134602 19.7914562,19.4511845 19.5961941,19.6464466 C19.4009319,19.8417088 19.0843494,19.8417088 18.8890873,19.6464466 L17,17.7573593 L15.1109127,19.6464466 C14.9156506,19.8417088 14.5990681,19.8417088 14.4038059,19.6464466 C14.2085438,19.4511845 14.2085438,19.134602 14.4038059,18.9393398 L16.2928932,17.0502525 L14.6464466,15.4038059 C14.4511845,15.2085438 14.4511845,14.8919613 14.6464466,14.6966991 C14.8417088,14.501437 15.1582912,14.501437 15.3535534,14.6966991 L17,16.3431458 Z M20.9451245,13 L17.9167336,13 C17.9714908,12.6748211 18,12.3408429 18,12.0003266 C18,8.69233142 15.3087571,6 12.0001089,6 C8.6912429,6 6,8.69211371 6,12.0003266 C6,15.3087571 8.6912429,18 12.0001089,18 C12.3407024,18 12.6747536,17.9714816 13,17.9167073 L13,20.9450817 C12.6716683,20.9813703 12.3380114,21 12,21 C7.02912,21 3,16.97088 3,12.00048 C3,7.03008 7.02912,3 12,3 C16.97088,3 21,7.03008 21,12.00048 C21,12.3383254 20.981385,12.671822 20.9451245,13 Z M16.3636053,9.04513955 C16.5454255,9.22505613 16.5454255,9.51874004 16.3638415,9.69982949 L12.1715873,13.8644175 C12.0856359,13.9500362 11.9715851,13.9978889 11.8495058,14 L11.8310876,14 C11.7066471,14 11.5897626,13.9521473 11.50145,13.8644175 L8.63648321,11.0183577 C8.54817054,10.9318007 8.5,10.8145148 8.5,10.6913645 C8.5,10.5672761 8.55029572,10.447879 8.63813612,10.3624949 L9.55715456,9.44930679 C9.73259924,9.27501993 10.0402768,9.27501993 10.2157215,9.44930679 L11.8362825,11.0591732 L14.7843671,8.12984033 C14.952964,7.95883747 15.2679616,7.95461518 15.4434062,8.12984033 L16.3636053,9.04513955 Z"/>
</svg>
