<svg xmlns="http://www.w3.org/2000/svg" width="24" height="24"><path fill="#231F20" fill-rule="evenodd" d="M17.51 8.51l-7.743 7.743c-.195.195-.512.195-.707 0l-1.414-1.414c-.195-.195-.195-.512 0-.707l7.743-7.743-.702-.702c-.195-.195-.195-.512 0-.707.074-.074.169-.123.271-.14l4.351-.725c.272-.045.53.139.575.411v.164l-.725 4.351c-.045.272-.303.456-.575.411-.103-.017-.198-.066-.271-.14l-.803-.803zm-4.646-4.51l-2 2h-4.864v12h12v-4.994l2-2v7c0 1.101-.895 1.994-1.994 1.994h-12.012c-1.101 0-1.994-.895-1.994-1.994v-12.012c0-1.101.895-1.994 1.994-1.994h6.87z"/></svg>