<svg xmlns="http://www.w3.org/2000/svg" width="24" height="24"><path fill-rule="evenodd" d="M17.207 11c.068-1.487 1.044-2.733 2.929-2.997.124-.011.232-.079.322-.203.079-.113.102-.232.068-.356l-.458-2.085c-.023-.113-.079-.203-.17-.271-.09-.068-.192-.096-.305-.085-2.204.113-3.854.757-4.95 1.932-1.096 1.175-1.644 2.485-1.644 4.451l.014-.001-.014.118v5.993c0 .271.22.503.491.503h5.018c.263 0 .491-.225.491-.503v-5.993c0-.271-.22-.503-.491-.503h-1.302zm-9 0c.068-1.487 1.044-2.733 2.929-2.997.124-.011.232-.079.322-.203.079-.113.102-.232.068-.356l-.458-2.085c-.023-.113-.079-.203-.17-.271-.09-.068-.192-.096-.305-.085-2.204.113-3.854.757-4.95 1.932-1.096 1.175-1.644 2.485-1.644 4.451l.014-.001-.014.118v5.993c0 .271.22.503.491.503h5.018c.263 0 .491-.225.491-.503v-5.993c0-.271-.22-.503-.491-.503h-1.302z"/></svg>