<svg xmlns="http://www.w3.org/2000/svg" xmlns:xlink="http://www.w3.org/1999/xlink" width="24" height="24" viewBox="0 0 24 24">
  <defs>
    <path id="a" d="M17.2072344,11 C17.2750856,9.51263551 18.2514572,8.26725795 20.1363492,8.0027117 C20.2606561,7.99141106 20.3680121,7.92360727 20.4584172,7.79930032 C20.5375216,7.686294 20.5601229,7.56763736 20.526221,7.44333041 L20.0685454,5.35839148 C20.0459441,5.24538515 19.989441,5.1549801 19.8990359,5.0871763 C19.8086309,5.01937251 19.7069252,4.99112093 19.5939188,5.00242156 C17.3902956,5.11542789 15.7404033,5.75956392 14.644242,6.93482966 C13.5480807,8.11001231 13,9.42005685 13,11.3859558 L13.0140957,11.3850404 C13.0049011,11.4230057 13,11.4626481 13,11.5034227 L13,17.4965773 C13,17.7670975 13.2198305,18 13.4910052,18 L18.5089948,18 C18.7721195,18 19,17.77461 19,17.4965773 L19,11.5034227 C19,11.2329025 18.7801695,11 18.5089948,11 L17.2072344,11 Z M8.20723445,11 C8.27508558,9.51263551 9.25145716,8.26725795 11.1363492,8.0027117 C11.2606561,7.99141106 11.3680121,7.92360727 11.4584172,7.79930032 C11.5375216,7.686294 11.5601229,7.56763736 11.526221,7.44333041 L11.0685454,5.35839148 C11.0459441,5.24538515 10.989441,5.1549801 10.8990359,5.0871763 C10.8086309,5.01937251 10.7069252,4.99112093 10.5939188,5.00242156 C8.39029558,5.11542789 6.74040329,5.75956392 5.64424197,6.93482966 C4.54808066,8.11001231 4,9.42005685 4,11.3859558 L4.01409575,11.3850404 C4.00490112,11.4230057 4,11.4626481 4,11.5034227 L4,17.4965773 C4,17.7670975 4.21983051,18 4.49100518,18 L9.50899482,18 C9.77211952,18 10,17.77461 10,17.4965773 L10,11.5034227 C10,11.2329025 9.78016949,11 9.50899482,11 L8.20723445,11 Z"/>
  </defs>
  <g fill="none" fill-rule="evenodd">
    <use fill="#010002" xlink:href="#a"/>
  </g>
</svg>
