<svg xmlns="http://www.w3.org/2000/svg" width="24" height="24"><path fill-rule="evenodd" d="M5.329 17.231c-.509-.549-.829-1.345-.829-2.231 0-1.657 1.119-3 2.5-3s2.5 1.343 2.5 3c0 .89-.323 1.69-.837 2.24l1.991.648c.206.067.345.259.345.475v2.137c0 .276-.224.5-.5.5h-7c-.276 0-.5-.224-.5-.5v-2.139c0-.216.138-.407.343-.475l1.986-.655zm10 0c-.509-.549-.829-1.345-.829-2.231 0-1.657 1.119-3 2.5-3s2.5 1.343 2.5 3c0 .89-.323 1.69-.837 2.24l1.991.648c.206.067.345.259.345.475v2.137c0 .276-.224.5-.5.5h-7c-.276 0-.5-.224-.5-.5v-2.139c0-.216.138-.407.343-.475l1.986-.655zm-5-9c-.509-.549-.829-1.345-.829-2.231 0-1.657 1.119-3 2.5-3s2.5 1.343 2.5 3c0 .89-.323 1.69-.837 2.24l1.991.648c.206.067.345.259.345.475v2.137c0 .276-.224.5-.5.5h-7c-.276 0-.5-.224-.5-.5v-2.139c0-.216.138-.407.343-.475l1.986-.655z"/></svg>