<svg xmlns="http://www.w3.org/2000/svg" width="24" height="24" viewBox="0 0 24 24">
  <path fill="#000000" fill-rule="evenodd" d="M5.32880072,17.2312265 C4.81997459,16.6820636 4.5,15.8858723 4.5,15 C4.5,13.3431458 5.61928813,12 7,12 C8.38071187,12 9.5,13.3431458 9.5,15 C9.5,15.8904311 9.17672362,16.690256 8.66332871,17.2396852 L10.6547081,17.8876476 C10.8606177,17.9546473 11,18.1465752 11,18.363111 L11,20.5 C11,20.7761424 10.7761424,21 10.5,21 L3.5,21 C3.22385763,21 3,20.7761424 3,20.5 L3,18.3614819 L3,18.3614819 C3,18.1457331 3.13838757,17.9543161 3.34326176,17.8866839 L3.34326176,17.8866839 L5.32880072,17.2312265 Z M15.3288007,17.2312265 C14.8199746,16.6820636 14.5,15.8858723 14.5,15 C14.5,13.3431458 15.6192881,12 17,12 C18.3807119,12 19.5,13.3431458 19.5,15 C19.5,15.8904311 19.1767236,16.690256 18.6633287,17.2396852 L20.6547081,17.8876476 C20.8606177,17.9546473 21,18.1465752 21,18.363111 L21,20.5 C21,20.7761424 20.7761424,21 20.5,21 L13.5,21 C13.2238576,21 13,20.7761424 13,20.5 L13,18.3614819 C13,18.1457331 13.1383876,17.9543161 13.3432618,17.8866839 L15.3288007,17.2312265 Z M10.3288007,8.23122647 C9.81997459,7.68206363 9.5,6.88587226 9.5,6 C9.5,4.34314575 10.6192881,3 12,3 C13.3807119,3 14.5,4.34314575 14.5,6 C14.5,6.89043115 14.1767236,7.690256 13.6633287,8.23968515 L15.6547081,8.88764761 L15.6547081,8.88764761 C15.8606177,8.95464728 16,9.14657518 16,9.36311099 L16,11.5 C16,11.7761424 15.7761424,12 15.5,12 L8.5,12 C8.22385763,12 8,11.7761424 8,11.5 L8,9.36148191 C8,9.14573311 8.13838757,8.9543161 8.34326176,8.88668393 L8.34326176,8.88668393 L10.3288007,8.23122647 Z"/>
</svg>
