<svg xmlns="http://www.w3.org/2000/svg" xmlns:xlink="http://www.w3.org/1999/xlink" width="24" height="24" viewBox="0 0 24 24">
  <defs>
    <path id="a" d="M7.49853115,18 C8.75206792,18.9418714 10.3105844,19.5 12,19.5 C16.14375,19.5 19.5,16.14225 19.5,12 C19.5,11.9095275 19.4983982,11.8194287 19.4952213,11.7297303 C19.7595698,11.2755458 20.1567006,11.0359465 20.6866138,11.0109323 C21.2160767,10.9859394 21.6498619,11.1506767 21.9879695,11.5051442 C21.9959588,11.6690902 22,11.8340732 22,12 C22,17.5228475 17.5228475,22 12,22 C9.51845527,22 7.24802751,21.0961008 5.5,19.5995857 L5.5,21.5 C5.5,21.7761424 5.27614237,22 5,22 C4.72385763,22 4.5,21.7761424 4.5,21.5 L4.5,17.5 C4.5,17.3619288 4.55596441,17.2369288 4.64644661,17.1464466 C4.73692881,17.0559644 4.86192881,17 5,17 L9,17 C9.27614237,17 9.5,17.2238576 9.5,17.5 C9.5,17.7761424 9.27614237,18 9,18 L7.49853115,18 Z M20.8535534,8.85355339 C20.7630712,8.94403559 20.6380712,9 20.5,9 L16.5,9 C16.2238576,9 16,8.77614237 16,8.5 C16,8.22385763 16.2238576,8 16.5,8 L18.3455635,8 C17.0172297,5.89697188 14.6722396,4.5 12,4.5 C7.85625,4.5 4.5,7.858125 4.5,12 C4.5,12.6734836 4.5887229,13.3262288 4.75512806,13.9471757 C4.76793516,14.4346308 4.43536652,14.7717984 3.75742214,14.9586784 C3.05618267,15.1519798 2.58502524,15.035656 2.34394985,14.6097069 C2.11964692,13.7777436 2,12.9028443 2,12 C2,6.4771525 6.4771525,2 12,2 C15.2711979,2 18.1755424,3.5706862 20,5.99902509 L20,4.5 C20,4.22385763 20.2238576,4 20.5,4 C20.7761424,4 21,4.22385763 21,4.5 L21,7.6358734 C21.0041594,7.64443673 21.008307,7.65300556 21.0124427,7.6615812 C21.0083088,7.65470683 21.0041612,7.64784086 21,7.6409833 L21,8.5 C21,8.63807119 20.9440356,8.76307119 20.8535534,8.85355339 Z"/>
  </defs>
  <g fill="none" fill-rule="evenodd">
    <use fill="#000000" xlink:href="#a"/>
  </g>
</svg>
