<?xml version="1.0" encoding="UTF-8"?>
<svg width="24px" height="24px" viewBox="0 0 24 24" version="1.1" xmlns="http://www.w3.org/2000/svg" xmlns:xlink="http://www.w3.org/1999/xlink">
    <!-- Generator: Sketch 46.2 (44496) - http://www.bohemiancoding.com/sketch -->
    <title>ico/reload</title>
    <desc>Created with Sketch.</desc>
    <defs>
        <path d="M5.49853115,16 C6.75206792,16.9418714 8.31058444,17.5 10,17.5 C14.14375,17.5 17.5,14.14225 17.5,10 C17.5,9.90952749 17.4983982,9.81942865 17.4952213,9.72973032 C17.7595698,9.2755458 18.1567006,9.03594646 18.6866138,9.0109323 C19.2160767,8.98593939 19.6498619,9.15067668 19.9879695,9.50514416 C19.9959588,9.6690902 20,9.83407317 20,10 C20,15.5228475 15.5228475,20 10,20 C7.51845527,20 5.24802751,19.0961008 3.5,17.5995857 L3.5,19.5 C3.5,19.7761424 3.27614237,20 3,20 C2.72385763,20 2.5,19.7761424 2.5,19.5 L2.5,15.5 C2.5,15.3619288 2.55596441,15.2369288 2.64644661,15.1464466 C2.73692881,15.0559644 2.86192881,15 3,15 L7,15 C7.27614237,15 7.5,15.2238576 7.5,15.5 C7.5,15.7761424 7.27614237,16 7,16 L5.49853115,16 Z M18.8535534,6.85355339 C18.7630712,6.94403559 18.6380712,7 18.5,7 L14.5,7 C14.2238576,7 14,6.77614237 14,6.5 C14,6.22385763 14.2238576,6 14.5,6 L16.3455635,6 C15.0172297,3.89697188 12.6722396,2.5 10,2.5 C5.85625,2.5 2.5,5.858125 2.5,10 C2.5,10.6734836 2.5887229,11.3262288 2.75512806,11.9471757 C2.76793516,12.4346308 2.43536652,12.7717984 1.75742214,12.9586784 C1.05618267,13.1519798 0.585025236,13.035656 0.343949847,12.6097069 C0.11964692,11.7777436 0,10.9028443 0,10 C0,4.4771525 4.4771525,0 10,0 C13.2711979,0 16.1755424,1.5706862 18,3.99902509 L18,2.5 C18,2.22385763 18.2238576,2 18.5,2 C18.7761424,2 19,2.22385763 19,2.5 L19,5.6358734 C19.0041594,5.64443673 19.008307,5.65300556 19.0124427,5.6615812 C19.0083088,5.65470683 19.0041612,5.64784086 19,5.6409833 L19,6.5 C19,6.63807119 18.9440356,6.76307119 18.8535534,6.85355339 Z" id="path-1"></path>
    </defs>
    <g id="Symbols" stroke="none" stroke-width="1" fill="none" fill-rule="evenodd">
        <g id="ico/reload">
            <g id="Colors/DarkGray" transform="translate(2.000000, 2.000000)">
                <mask id="mask-2" fill="white">
                    <use xlink:href="#path-1"></use>
                </mask>
                <use id="Mask" fill="#000000" xlink:href="#path-1"></use>
                <g mask="url(#mask-2)" id="#2F2F2F" fill="#2F2F2F">
                    <g transform="translate(-2.000000, -2.000000)">
                        <rect x="0" y="0" width="24" height="24"></rect>
                    </g>
                </g>
            </g>
        </g>
    </g>
</svg>