<svg xmlns="http://www.w3.org/2000/svg" width="24" height="24"><path fill-rule="evenodd" d="M7.499 18c1.254.942 2.812 1.5 4.501 1.5 4.144 0 7.5-3.358 7.5-7.5l-.005-.27c.264-.454.661-.694 1.191-.719.529-.025.963.14 1.301.494l.012.495c0 5.523-4.477 10-10 10-2.482 0-4.752-.904-6.5-2.4v1.9c0 .276-.224.5-.5.5s-.5-.224-.5-.5v-4c0-.138.056-.263.146-.354.09-.09.215-.146.354-.146h4c.276 0 .5.224.5.5s-.224.5-.5.5h-1.501zm13.355-9.146c-.09.09-.215.146-.354.146h-4c-.276 0-.5-.224-.5-.5s.224-.5.5-.5h1.846c-1.328-2.103-3.673-3.5-6.346-3.5-4.144 0-7.5 3.358-7.5 7.5 0 .673.089 1.326.255 1.947.013.487-.32.825-.998 1.012-.701.193-1.172.077-1.413-.349-.224-.832-.344-1.707-.344-2.61 0-5.523 4.477-10 10-10 3.271 0 6.176 1.571 8 3.999v-1.499c0-.276.224-.5.5-.5s.5.224.5.5v3.136l.012.026-.012-.021v.859c0 .138-.056.263-.146.354z"/></svg>