<svg xmlns="http://www.w3.org/2000/svg" width="24" height="24" viewBox="0 0 24 24">
  <path fill="#000000" fill-rule="evenodd" d="M21.3126,19.1102 C22.0936,19.8912 22.0936,21.1572 21.3126,21.9382 C20.5316,22.7192 19.2656,22.7192 18.4846,21.9382 L14.0636,17.5172 C12.3066,18.5552 10.2436,18.8462 8.3046,18.4202 L7.7226,19.4662 C7.5236,19.8232 7.0056,19.8052 6.8326,19.4362 L4.9736,15.4732 C4.8286,15.1652 5.0286,14.8042 5.3676,14.7642 L9.7146,14.2552 C10.1196,14.2072 10.4086,14.6382 10.2096,14.9942 L9.8716,15.6042 C11.1926,15.6452 12.5246,15.1702 13.5346,14.1602 C14.8816,12.8132 15.2766,10.8932 14.7646,9.1882 L17.0566,6.8962 C18.3466,9.3372 18.3046,12.2982 16.8916,14.6892 L21.3126,19.1102 Z M15.3399,6.4056 C15.4629,6.7246 15.2369,7.0696 14.8959,7.0846 L10.5239,7.2826 C10.1159,7.3016 9.8599,6.8506 10.0829,6.5096 L10.6209,5.6866 C9.1429,5.4936 7.5999,5.9526 6.4639,7.0896 C4.9209,8.6316 4.6169,10.9236 5.5109,12.7836 L3.2989,14.9966 C1.2709,11.8936 1.6169,7.6936 4.3419,4.9686 C6.5169,2.7936 9.6239,2.1596 12.3699,3.0126 L12.8839,2.2266 C13.1069,1.8846 13.6229,1.9406 13.7689,2.3206 L15.3399,6.4056 Z"/>
</svg>
