<svg xmlns="http://www.w3.org/2000/svg" xmlns:xlink="http://www.w3.org/1999/xlink" width="24" height="24" viewBox="0 0 24 24">
  <defs>
    <path id="a" d="M6.10409027,15 C7.21799183,15.9951076 8.68806264,16.6000004 10.3000002,16.6000004 C13.7807503,16.6000004 16.6000004,13.7794903 16.6000004,10.3000002 C16.6000004,10.2520838 16.5994655,10.2042922 16.5984013,10.156631 C16.7685424,9.80775828 17.0642287,9.62316575 17.4854603,9.60285336 C17.9312737,9.5813556 18.2703906,9.71943672 18.5028111,10.0170967 C18.5050114,10.0954827 18.5061188,10.1741418 18.5061188,10.2530594 C18.5061188,11.811856 18.0738648,13.2692947 17.3228364,14.5129276 L21.3245386,18.5143719 L21.3106116,18.5282989 C21.7377074,18.9370833 22,19.5173765 22,20.1732368 C22.0002579,21.4403394 20.9908055,22.4312223 19.7249925,22.4309644 C19.0784169,22.4307065 18.5001869,22.1720247 18.087534,21.7511186 L18.0774756,21.761177 L13.9488826,17.6323262 C12.8367828,18.1901814 11.5823178,18.5061188 10.2530594,18.5061188 C8.25692355,18.5061188 6.42685721,17.7980003 5,16.6193573 L5,17.5 C5,17.7761424 4.77614237,18 4.5,18 C4.22385763,18 4,17.7761424 4,17.5 L4,14.5 C4,14.3619288 4.05596441,14.2369288 4.14644661,14.1464466 C4.23692881,14.0559644 4.36192881,14 4.5,14 L7.5,14 C7.77614237,14 8,14.2238576 8,14.5 C8,14.7761424 7.77614237,15 7.5,15 L6.10409027,15 Z M15.6677022,7 C14.5588727,5.20007646 12.5699992,4 10.3000002,4 C6.81925009,4 4,6.82082509 4,10.3000002 C4,10.9720851 4.10518424,11.6195839 4.30000286,12.2269196 C4.22842395,12.5307685 3.94486328,12.7524645 3.44932084,12.8920076 C3.05477555,13.0031103 2.71369372,12.9984814 2.42607535,12.8781211 C2.14971539,12.0534929 2,11.1707674 2,10.2530594 C2.00025791,5.69556526 5.693502,2 10.2530594,2 C13.0415357,2 15.5060947,3.38219532 17,5.49843386 L17,4.5 C17,4.22385763 17.2238576,4 17.5,4 C17.7761424,4 18,4.22385763 18,4.5 L18,7.5 C18,7.63807119 17.9440356,7.76307119 17.8535534,7.85355339 C17.7630712,7.94403559 17.6380712,8 17.5,8 L14.5,8 C14.2238576,8 14,7.77614237 14,7.5 C14,7.22385763 14.2238576,7 14.5,7 L15.6677022,7 Z"/>
  </defs>
  <g fill="none" fill-rule="evenodd">
    <use fill="#000000" xlink:href="#a"/>
  </g>
</svg>
