<svg xmlns="http://www.w3.org/2000/svg" width="24" height="24" viewBox="0 0 24 24">
  <g fill="none" fill-rule="evenodd">
    <path fill="#000000" d="M5.99954452,16 C7.10521521,16 8,16.8946829 8,18.0002277 C8,19.1041785 7.10521521,20 5.99954452,20 C4.895468,20 4,19.1041785 4,18.0002277 C4,16.8949106 4.895468,16 5.99954452,16 Z M5.56675525,10 C10.1967028,10 13.9663696,13.7851887 13.9985889,18.450985 L14,18.450985 L14,19.273202 L13.9908281,19.273202 C13.948496,19.6491811 13.6566402,19.9451697 13.284824,19.9902682 L13.284824,20 L11.8365984,20 L11.8365984,19.9983385 C11.4271536,19.9900309 11.0955528,19.6760028 11.0501634,19.2729646 L11.0409915,19.2729646 L11.0409915,18.4507477 L11.0487524,18.4507477 C11.0162978,15.4267743 8.57021237,12.976976 5.56652007,12.976976 C5.55593707,12.976976 5.54535406,12.9755519 5.53477105,12.9753145 L5.53477105,12.9867078 L4.72011477,12.9867078 L4.72011477,12.9774507 C4.34759295,12.9347258 4.0543261,12.6401614 4.00964229,12.2648944 L4,12.2648944 L4,10.8029907 L4.00164625,10.8029907 C4.00987747,10.389746 4.32101785,10.0550676 4.72034994,10.0092571 L4.72034994,10 L5.53500623,10 L5.53500623,10.0016615 C5.54558924,10.0014242 5.55593707,10 5.56675525,10 Z M19.9987925,18.4141146 L19.9987925,18.4146004 L20,18.4146004 L20,19.2561303 L19.9905811,19.2561303 C19.9471094,19.6409408 19.6473962,19.9438818 19.2655698,19.9900396 L19.2655698,20 L17.7781132,20 L17.7781132,19.9982994 C17.3576453,19.9897967 17.017117,19.6683925 16.9705057,19.2558874 L16.9610868,19.2558874 L16.9610868,18.4143575 L16.9695396,18.4143575 C16.9359698,12.1405384 11.8534038,7.04690181 5.60869434,7.04690181 C5.59782642,7.04690181 5.58695849,7.04544419 5.57609057,7.04520126 L5.57609057,7.05686218 L4.73950189,7.05686218 L4.73950189,7.04738768 C4.35695094,7.00365922 4.05578868,6.70241873 4.00990189,6.31809417 L4,6.31809417 L4,4.82185208 L4.00169057,4.82185208 C4.0101434,4.39890072 4.32966038,4.05636112 4.7397434,4.0094745 L4.7397434,4 L5.57633208,4 L5.57633208,4.00170055 C5.5872,4.00145762 5.59782642,4 5.60893585,4 C13.523683,4 19.9652226,10.4606368 19.9987925,18.4141146 Z"/>
  </g>
</svg>
