<svg xmlns="http://www.w3.org/2000/svg" width="24" height="24" viewBox="0 0 24 24">
  <path fill="#000000" fill-rule="evenodd" d="M14.0071394,10.5181086 L10.8206707,7.33163993 C10.6254086,7.13637778 10.3088261,7.13637778 10.113564,7.33163993 L9.05063901,8.39456487 C8.85537687,8.58982701 8.85537687,8.9064095 9.05063901,9.10167165 L11.9209535,11.9719861 L9.05063901,14.8423006 C8.85537687,15.0375627 8.85537687,15.3541452 9.05063901,15.5494073 L10.113564,16.6123323 C10.3088261,16.8075944 10.6254086,16.8075944 10.8206707,16.6123323 L14.0071394,13.4258636 C14.0207213,13.4148659 14.0338611,13.4030511 14.0464932,13.390419 L15.1094181,12.3274941 C15.2075463,12.2293659 15.2563605,12.100598 15.2558609,11.9719861 C15.2563605,11.8433742 15.2075463,11.7146063 15.1094181,11.6164781 L14.0464932,10.5535532 C14.0338611,10.5409211 14.0207213,10.5291063 14.0071394,10.5181086 L14.0071394,10.5181086 Z M12,21 C7.02943725,21 3,16.9705627 3,12 C3,7.02943725 7.02943725,3 12,3 C16.9705627,3 21,7.02943725 21,12 C21,16.9705627 16.9705627,21 12,21 Z"/>
</svg>
