<svg xmlns="http://www.w3.org/2000/svg" width="24" height="24"><path d="M6 16c1.106 0 2 .895 2 2 0 1.104-.895 2-2 2-1.104 0-2-.896-2-2 0-1.105.895-2 2-2zm-.433-6c4.63 0 8.4 3.785 8.432 8.451h.001v.822h-.009c-.042.376-.334.672-.706.717v.01h-1.448v-.002c-.409-.008-.741-.322-.786-.725h-.009v-.822h.008c-.032-3.024-2.479-5.474-5.482-5.474l-.032-.002v.011h-.815v-.009c-.373-.043-.666-.337-.71-.713h-.01v-1.462h.002c.008-.413.319-.748.719-.794v-.009h.815v.002l.032-.002zm14.432 8.414h.001v.842h-.009c-.043.385-.343.688-.725.734v.01h-1.487v-.002c-.42-.009-.761-.33-.808-.742h-.009v-.842h.008c-.034-6.274-5.116-11.367-11.361-11.367l-.033-.002v.012h-.837v-.009c-.383-.044-.684-.345-.73-.729h-.01v-1.496h.002c.008-.423.328-.765.738-.812v-.009h.837v.002l.033-.002c7.915 0 14.356 6.461 14.39 14.414z" fill="none"/></svg>