<svg xmlns="http://www.w3.org/2000/svg" width="24" height="24"><path fill-rule="evenodd" d="M21.52 10.381l-2.537-.25c-.163-.609-.406-1.193-.725-1.743l1.62-1.974c.174-.212.158-.521-.036-.714l-1.541-1.542c-.104-.103-.24-.156-.377-.156-.12 0-.24.04-.338.121l-1.974 1.62c-.551-.319-1.135-.562-1.743-.725l-.25-2.538c-.027-.273-.256-.48-.53-.48h-2.179c-.274 0-.503.208-.53.48l-.25 2.539c-.608.163-1.192.406-1.742.725l-1.975-1.621c-.099-.081-.218-.121-.338-.121-.137 0-.273.052-.377.156l-1.541 1.541c-.194.193-.209.503-.036.714l1.621 1.974c-.319.549-.562 1.133-.725 1.742l-2.539.25c-.273.026-.481.256-.481.53v2.179c0 .274.208.504.481.53l2.539.25c.163.609.406 1.192.725 1.742l-1.62 1.974c-.175.212-.16.521.035.715l1.541 1.541c.104.103.24.156.377.156.12 0 .24-.04.338-.121l1.974-1.62c.551.319 1.133.562 1.743.725l.25 2.538c.027.273.256.48.53.48h2.179c.274 0 .503-.208.53-.48l.25-2.538c.61-.163 1.192-.406 1.743-.726l1.974 1.62c.099.081.218.121.338.121.137 0 .273-.053.377-.156l1.541-1.541c.195-.193.209-.503.035-.715l-1.619-1.973c.319-.55.562-1.134.725-1.742l2.537-.25c.273-.027.481-.256.481-.53v-2.179c0-.274-.208-.503-.48-.53zm-9.519 4.57c-1.63 0-2.951-1.321-2.951-2.951 0-1.63 1.321-2.951 2.951-2.951 1.629 0 2.95 1.321 2.95 2.951 0 1.629-1.321 2.951-2.95 2.951z"/></svg>