<svg xmlns="http://www.w3.org/2000/svg" xmlns:xlink="http://www.w3.org/1999/xlink" width="24" height="24" viewBox="0 0 24 24">
  <defs>
    <path id="a" d="M3,4.99508929 C3,3.8932319 3.8926228,3 4.99508929,3 L19.0049107,3 C20.1067681,3 21,3.8926228 21,4.99508929 L21,19.0049107 C21,20.1067681 20.1073772,21 19.0049107,21 L4.99508929,21 C3.8932319,21 3,20.1073772 3,19.0049107 L3,4.99508929 Z M5,12 L5,16 L19,16 L19,12 L5,12 Z M5,8 L5,10 L12,10 L12,8 L5,8 Z"/>
  </defs>
  <g fill="none" fill-rule="evenodd">
    <use fill="#000000" xlink:href="#a"/>
    <path stroke="#000000" stroke-width="1.5" d="M3.75,4.99508929 L3.75,19.0049107 C3.75,19.6929179 4.30719965,20.25 4.99508929,20.25 L19.0049107,20.25 C19.6929179,20.25 20.25,19.6928004 20.25,19.0049107 L20.25,4.99508929 C20.25,4.30708214 19.6928004,3.75 19.0049107,3.75 L4.99508929,3.75 C4.30708214,3.75 3.75,4.30719965 3.75,4.99508929 Z M4.25,16.75 L4.25,11.25 L19.75,11.25 L19.75,16.75 L4.25,16.75 Z M4.25,7.25 L12.75,7.25 L12.75,10.75 L4.25,10.75 L4.25,7.25 Z"/>
  </g>
</svg>
