<?xml version="1.0" encoding="UTF-8"?>
<svg width="24px" height="24px" viewBox="0 0 24 24" version="1.1" xmlns="http://www.w3.org/2000/svg" xmlns:xlink="http://www.w3.org/1999/xlink">
    <!-- Generator: Sketch 46.1 (44463) - http://www.bohemiancoding.com/sketch -->
    <title>ico/setting</title>
    <desc>Created with Sketch.</desc>
    <defs>
        <path d="M19.5195,8.3805972 L16.9821848,8.13047066 C16.8189729,7.52157426 16.5762538,6.93736952 16.2572376,6.3874862 L17.8772575,4.4138816 C18.0508399,4.20178022 18.0350373,3.89264061 17.8414546,3.69955181 L16.3006949,2.15805131 C16.1969899,2.05459324 16.0611858,2.00175309 15.924147,2.00175309 C15.8043925,2.00175309 15.6846379,2.04175358 15.5861182,2.12298915 L13.6125136,3.74325605 C13.0616426,3.42399285 12.4776848,3.18127381 11.8692822,3.01830883 L11.6196495,0.480499754 C11.5927356,0.207903799 11.363597,0 11.0895195,0 L8.91097411,0 C8.63689666,0 8.40775803,0.207903799 8.3805972,0.480499754 L8.13096449,3.01904958 C7.52256192,3.18201456 6.9386041,3.4247336 6.38921461,3.7439968 L4.41437544,2.12323607 C4.31560879,2.0420005 4.19610114,2.00224692 4.07634658,2.00224692 C3.93930785,2.00224692 3.80350371,2.05459324 3.69979872,2.15854514 L2.15903898,3.69955181 C1.96545634,3.89264061 1.94965368,4.20252097 2.12323607,4.4138816 L3.74449063,6.38822695 C3.42572127,6.93761644 3.18226147,7.52157426 3.01954342,8.13071757 L0.480993587,8.38084412 C0.208150716,8.40677036 0,8.63640282 0,8.91048028 L0,11.0895195 C0,11.363597 0.208150716,11.5932294 0.480746671,11.6194026 L3.0192965,11.8695291 C3.18201456,12.4784255 3.42522743,13.0618895 3.74424372,13.611279 L2.12397682,15.5851305 C1.94915984,15.796985 1.96397484,16.1063715 2.15854514,16.2999541 L3.69930489,17.8412077 C3.80300987,17.9444189 3.93881402,17.9970121 4.07585274,17.9970121 C4.19560731,17.9970121 4.31536187,17.9570116 4.4138816,17.8762699 L6.3874862,16.256003 C6.93835719,16.5752662 7.52083351,16.8179852 8.13071757,16.981444 L8.38035028,19.5195 C8.40726419,19.792096 8.63664974,19.9999998 8.9107272,19.9999998 L11.0892726,19.9999998 C11.36335,19.9999998 11.5927356,19.792096 11.6196495,19.5195 L11.8692822,16.9816909 C12.4789194,16.818726 13.0616426,16.5760069 13.6125136,16.256003 L15.5861182,17.8762699 C15.6848848,17.9570116 15.8043925,17.9970121 15.924147,17.9970121 C16.0611858,17.9970121 16.1969899,17.9444189 16.3006949,17.8412077 L17.8414546,16.2999541 C18.0360249,16.1066184 18.0508399,15.796985 17.876023,15.5851305 L16.2569906,13.6120198 C16.5760069,13.0618895 16.818726,12.4784255 16.9819379,11.8695291 L19.5192531,11.6194026 C19.7918491,11.5924887 19.9999998,11.363597 19.9999998,11.0895195 L19.9999998,8.91048028 C20.0002467,8.63640282 19.792096,8.40751111 19.5195,8.3805972 L19.5195,8.3805972 Z M10.0006172,12.950777 C8.3702267,12.950777 7.04922275,11.6295262 7.04922275,10.0001233 C7.04922275,8.36997978 8.37047362,7.04922275 10.0006172,7.04922275 C11.6297731,7.04922275 12.950777,8.36997978 12.950777,10.0001233 C12.9510239,11.6295262 11.6297731,12.950777 10.0006172,12.950777 L10.0006172,12.950777 Z" id="path-1"></path>
    </defs>
    <g id="Symbols" stroke="none" stroke-width="1" fill="none" fill-rule="evenodd">
        <g id="ico/setting">
            <g id="Colors/DarkGray" transform="translate(2.000000, 2.000000)">
                <mask id="mask-2" fill="white">
                    <use xlink:href="#path-1"></use>
                </mask>
                <use id="Mask" fill="#000000" xlink:href="#path-1"></use>
                <g mask="url(#mask-2)" id="#2F2F2F" fill="#2F2F2F">
                    <g transform="translate(-25.000000, -20.000000)">
                        <rect x="0" y="0" width="64" height="64"></rect>
                    </g>
                </g>
            </g>
        </g>
    </g>
</svg>