<svg xmlns="http://www.w3.org/2000/svg" width="24" height="24" viewBox="0 0 24 24">
  <path fill="#000000" fill-rule="evenodd" d="M14.0644251,16.8928522 C10.996614,18.7047206 6.97901275,18.2927212 4.34314575,15.6568542 C1.21895142,12.5326599 1.21895142,7.46734008 4.34314575,4.34314575 C7.46734008,1.21895142 12.5326599,1.21895142 15.6568542,4.34314575 C18.2927212,6.97901275 18.7047206,10.996614 16.8928522,14.0644251 L21.3137085,18.4852814 C22.0947571,19.26633 22.0947571,20.5326599 21.3137085,21.3137085 C20.5326599,22.0947571 19.26633,22.0947571 18.4852814,21.3137085 L14.0644251,16.8928522 Z M13.5355339,13.5355339 C15.4881554,11.5829124 15.4881554,8.41708755 13.5355339,6.46446609 C11.5829124,4.51184464 8.41708755,4.51184464 6.46446609,6.46446609 C4.51184464,8.41708755 4.51184464,11.5829124 6.46446609,13.5355339 C8.41708755,15.4881554 11.5829124,15.4881554 13.5355339,13.5355339 Z"/>
</svg>
