<svg xmlns="http://www.w3.org/2000/svg" width="24" height="24" viewBox="0 0 24 24">
  <path fill="#000000" fill-rule="evenodd" d="M18.4387542,6.75451962 L15.423303,3.16740399 C15.2479241,2.95877697 14.9469667,2.94300446 14.750741,3.13215651 L5.51676605,12.0330818 L5.53493744,12.0546981 L5.50519151,12.0444186 L4.05873483,16.7596222 L4.05943139,16.7598483 C3.99559227,16.9337579 4.02138382,17.1377682 4.1455927,17.2853235 C4.28262835,17.4483382 4.49570176,17.4919227 4.6760144,17.4137875 L4.67627846,17.4155076 L9.16294543,16.3793354 L9.16070412,16.3680328 L9.1670391,16.3755688 L18.401024,7.47445438 C18.5972497,7.28530233 18.6141331,6.96314665 18.4387542,6.75451962 L18.4387542,6.75451962 Z M5.56209849,15.9092896 L6.42116799,13.1089389 L8.25297788,15.2880204 L5.56209849,15.9092896 Z M4.5,18 L19.5,18 C19.7761424,18 20,18.2238576 20,18.5 L20,19.5 C20,19.7761424 19.7761424,20 19.5,20 L4.5,20 C4.22385763,20 4,19.7761424 4,19.5 L4,18.5 C4,18.2238576 4.22385763,18 4.5,18 L4.5,18 Z"/>
</svg>
