<svg xmlns="http://www.w3.org/2000/svg" xmlns:xlink="http://www.w3.org/1999/xlink" width="24" height="24" viewBox="0 0 24 24">
  <defs>
    <path id="a" d="M12,3 C16.97016,3 21,7.03032 21,12.00048 C21,16.97088 16.97016,21 12,21 C7.0296,21 3,16.97088 3,12.00048 C3,7.03032 7.0296,3 12,3 Z M17.2880153,8.72551177 L15.652621,7.089738 C15.5951356,7.03244228 15.5175397,7 15.4361494,7 C15.3549489,7 15.2771633,7.03244228 15.2196779,7.089738 L9.3100609,12.9993549 L8.15845491,11.8481284 C8.03893073,11.7286042 7.84522567,11.7286042 7.72551177,11.8481284 L6.089738,13.4839022 C6.03225256,13.5411979 6,13.6191732 6,13.7003738 C6,13.7813846 6.03225256,13.8593599 6.089738,13.9168453 L9.08391356,16.910262 C9.14120928,16.9675577 9.21899486,17 9.30038513,17 C9.30398983,17 9.30740481,16.9981028 9.31100951,16.9981028 C9.31404504,16.9981028 9.3172703,16.9998103 9.32049555,16.9998103 C9.39904001,16.9998103 9.47701531,16.9698344 9.53696712,16.9100723 L17.2880153,9.15864463 C17.4075395,9.03874101 17.4075395,8.84503595 17.2880153,8.72551177 Z"/>
  </defs>
  <g fill="none" fill-rule="evenodd">
    <use fill="#231F20" xlink:href="#a"/>
  </g>
</svg>
