<svg xmlns="http://www.w3.org/2000/svg" width="24" height="24" viewBox="0 0 24 24">
  <path fill="#000000" fill-rule="evenodd" d="M18,7 L19,7 C20.1045695,7 21,7.8954305 21,9 L21,19 L21,19 C21,20.1045695 20.1045695,21 19,21 L8,21 L8,21 C6.8954305,21 6,20.1045695 6,19 L6,18 L16,18 C17.1045695,18 18,17.1045695 18,16 L18,16 L18,7 L19,7 L19,17 C19,18.1045695 18.1045695,19 17,19 L6,19 L6,18 L5,18 L5,18 C3.8954305,18 3,17.1045695 3,16 L3,6 L3,6 C3,4.8954305 3.8954305,4 5,4 L5,4 L16,4 C17.1045695,4 18,4.8954305 18,6 L18,7 Z M5,8 L5,16 L16,16 L16,8 L5,8 Z M6,7 C6.55228475,7 7,6.55228475 7,6 C7,5.44771525 6.55228475,5 6,5 C5.44771525,5 5,5.44771525 5,6 C5,6.55228475 5.44771525,7 6,7 Z"/>
</svg>
