<svg xmlns="http://www.w3.org/2000/svg" xmlns:xlink="http://www.w3.org/1999/xlink" width="24" height="24" viewBox="0 0 24 24">
  <defs>
    <path id="a" d="M15.0476623,6.83101738 C12.7477263,5.4757204 9.73043311,5.78428551 7.75735931,7.75735931 C5.78428551,9.73043311 5.4757204,12.7477263 6.83101738,15.0476623 L15.0476623,6.83101738 L15.0476623,6.83101738 Z M17.1691604,8.95215992 L8.95215992,17.1691604 C11.2522179,18.5250587 14.2694732,18.2161161 16.2427946,16.2427946 C18.2161161,14.2694732 18.5250587,11.2522179 17.1691604,8.95215992 L17.1691604,8.95215992 Z M5.63603897,5.63603897 C9.15047281,2.12160513 14.8498666,2.12194454 18.3643004,5.63637838 C21.878904,9.15098193 21.8783949,14.8495272 18.363961,18.363961 C14.8493575,21.8785646 9.15098193,21.878904 5.63637838,18.3643004 C2.12194454,14.8498666 2.12143542,9.15064251 5.63603897,5.63603897 Z"/>
  </defs>
  <g fill="none" fill-rule="evenodd">
    <use fill="#231F20" xlink:href="#a"/>
  </g>
</svg>
