<svg xmlns="http://www.w3.org/2000/svg" width="24" height="24"><path fill-rule="evenodd" d="M20.098 6.318l-.934.934-1.19 1.19c-.63.04-1.274-.178-1.756-.66-.482-.482-.7-1.125-.66-1.756l1.19-1.19.934-.934.966-.966c.063-.063.063-.165 0-.228l-.066-.038c-.669-.298-1.407-.47-2.187-.47-2.985 0-5.404 2.42-5.404 5.405 0 .57.09 1.119.253 1.634l-5.636 5.636c-1.886.03-3.407 1.567-3.407 3.461 0 1.912 1.551 3.463 3.463 3.463 1.894 0 3.43-1.521 3.461-3.407l5.636-5.636c.516.164 1.065.253 1.635.253 2.985 0 5.404-2.42 5.404-5.404 0-.78-.171-1.516-.469-2.186l-.038-.069c-.063-.063-.165-.063-.228.001l-.966.966zm-13.003 12.019c0 .79-.641 1.431-1.431 1.431s-1.431-.641-1.431-1.431c0-.791.641-1.431 1.431-1.431s1.431.641 1.431 1.431z"/></svg>