<svg xmlns="http://www.w3.org/2000/svg" width="24" height="24"><path fill-rule="evenodd" d="M9 4h-4.504c-.27 0-.496.227-.496.506v1.488c0 .275.222.506.496.506h15.007c.27 0 .496-.227.496-.506v-1.488c0-.275-.222-.506-.496-.506h-4.504v-.495c0-.291-.22-.505-.491-.505h-5.018c-.263 0-.491.226-.491.505v.495zm10 3v12.006c0 1.101-.897 1.994-2.006 1.994h-9.988c-1.108 0-2.006-.895-2.006-1.994v-12.006h14zm-10.5 3.753v6.495c0 .409.336.753.75.753.417 0 .75-.337.75-.753v-6.495c0-.409-.336-.753-.75-.753-.417 0-.75.337-.75.753zm3 0v6.495c0 .409.336.753.75.753.417 0 .75-.337.75-.753v-6.495c0-.409-.336-.753-.75-.753-.417 0-.75.337-.75.753zm3 0v6.495c0 .409.336.753.75.753.417 0 .75-.337.75-.753v-6.495c0-.409-.336-.753-.75-.753-.417 0-.75.337-.75.753z"/></svg>