<svg xmlns="http://www.w3.org/2000/svg" width="24" height="24" viewBox="0 0 24 24">
  <path fill="#000000" fill-rule="evenodd" d="M14.5870998,7.09652722 L4.5,7.09652722 L4.5,7.09652722 C4.22385763,7.09652722 4,7.32038484 4,7.59652722 L4,10.5 C4,10.7761424 4.22385763,11 4.5,11 L16.2856748,11 L19.4824459,11 C19.6038825,11 19.7211687,10.9558051 19.812408,10.8756661 C20.0198826,10.6934331 20.040345,10.3775126 19.858112,10.1700379 L19.858112,10.1700379 L15.4627659,5.16587978 C15.3678345,5.05779916 15.2309518,4.99584187 15.0870998,4.99584187 C14.8109575,4.99584187 14.5870998,5.21969949 14.5870998,5.49584187 L14.5870998,5.49584187 L14.5870998,7.09652722 Z M9.41289875,16.9034728 L19.4999986,16.9034728 C19.776141,16.9034728 19.9999986,16.6796152 19.9999986,16.4034728 L19.9999986,13.5 C19.9999986,13.2238576 19.776141,13 19.4999986,13 L19.4999986,13 L7.71432375,13 L4.51755272,13 C4.39611609,13 4.27882987,13.0441949 4.18759062,13.1243339 C3.98011597,13.3065669 3.95965359,13.6224874 4.14188662,13.8299621 L4.14188662,13.8299621 L8.53723265,18.8341202 C8.63216404,18.9422008 8.76904678,19.0041581 8.91289875,19.0041581 C9.18904112,19.0041581 9.41289875,18.7803005 9.41289875,18.5041581 L9.41289875,18.5041581 L9.41289875,16.9034728 Z"/>
</svg>
