<svg xmlns="http://www.w3.org/2000/svg" xmlns:xlink="http://www.w3.org/1999/xlink" width="24" height="24" viewBox="0 0 24 24">
  <defs>
    <path id="a" d="M3,8 L21,8 L21,18.9972399 C21,20.1033337 20.1073772,21 19.0049107,21 L4.99508929,21 C3.8932319,21 3,20.1064574 3,18.9972399 L3,8 Z M11.67,19.08 L11.67,18.24 C10.75,18.18 10.11,17.95 9.65,17.51 C9.25,17.12 9.07,16.7 8.97,15.93 L10.38,15.71 C10.43,16.28 10.51,16.5 10.75,16.74 C10.98,16.99 11.27,17.11 11.67,17.14 L11.67,14.67 C10.74,14.46 10.4,14.34 9.98,14.06 C9.46,13.72 9.15,13.09 9.15,12.4 C9.15,11.63 9.5,11 10.12,10.6 C10.58,10.32 11.01,10.19 11.67,10.15 L11.67,9.63 L12.35,9.63 L12.35,10.16 C13.18,10.23 13.68,10.43 14.14,10.87 C14.52,11.23 14.69,11.56 14.82,12.2 L13.45,12.43 C13.39,12.03 13.3,11.83 13.09,11.62 C12.89,11.41 12.68,11.31 12.35,11.26 L12.35,13.48 C13.37,13.69 13.82,13.86 14.22,14.16 C14.77,14.59 15.01,15.11 15.01,15.86 C15.01,16.72 14.66,17.38 14,17.8 C13.54,18.08 13.08,18.21 12.35,18.25 L12.35,19.08 L11.67,19.08 Z M11.67,13.35 L11.67,11.26 C11.33,11.28 11.12,11.35 10.9,11.52 C10.65,11.71 10.51,11.99 10.51,12.3 C10.51,12.62 10.65,12.89 10.89,13.06 C11.09,13.18 11.28,13.26 11.67,13.35 Z M16.6213203,16.7426407 L17.1213203,17.2426407 L19.2426407,15.1213203 L17.1213203,13 L16.6213203,13.5 L18.2426407,15.1213203 L16.6213203,16.7426407 Z M7.62132034,13.5 L7.12132034,13 L5,15.1213203 L7.12132034,17.2426407 L7.62132034,16.7426407 L6,15.1213203 L7.62132034,13.5 Z M12.35,14.79 C12.92,14.93 13.12,15 13.28,15.13 C13.49,15.31 13.6,15.58 13.6,15.93 C13.6,16.65 13.16,17.08 12.35,17.15 L12.35,14.79 Z M5,3 L19,3 C20.1045695,3 21,3.8954305 21,5 L21,6.5 C21,6.77614237 20.7761424,7 20.5,7 L3.5,7 C3.22385763,7 3,6.77614237 3,6.5 L3,5 L3,5 C3,3.8954305 3.8954305,3 5,3 L5,3 Z"/>
  </defs>
  <g fill="none" fill-rule="evenodd">
    <use fill="#000000" xlink:href="#a"/>
  </g>
</svg>
