<svg xmlns="http://www.w3.org/2000/svg" width="24" height="24" viewBox="0 0 24 24">
  <path fill="#000000" fill-rule="evenodd" d="M12,3 C16.97088,3 21,7.03008 21,12.00048 C21,16.97088 16.97088,21 12,21 C7.02912,21 3,16.97088 3,12.00048 C3,7.03008 7.02912,3 12,3 Z M7.7035533,15.6534323 L8.41066008,16.3605391 L8.41066008,16.3605391 C8.60592222,16.5558013 8.92250471,16.5558013 9.11776686,16.3605391 L12.7432603,12.7350457 L12.7432603,12.7350457 C12.9307967,12.5475093 13.0361535,12.2931554 13.0361535,12.0279389 L13.0361535,5.5 C13.0361535,5.22385763 12.8122959,5 12.5361535,5 L11.5361535,5 C11.2600111,5 11.0361535,5.22385763 11.0361535,5.5 L11.0361535,11.6137253 L7.7035533,14.9463255 L7.7035533,14.9463255 C7.50829115,15.1415877 7.50829115,15.4581702 7.7035533,15.6534323 L7.7035533,15.6534323 Z"/>
</svg>
