<svg xmlns="http://www.w3.org/2000/svg" width="24" height="24"><path fill="#231F20" fill-rule="evenodd" d="M12 6c3.309 0 6 2.692 6 6s-2.691 6-6 6-6-2.691-6-6c0-3.308 2.691-6 6-6zm0-3c4.971 0 9 4.03 9 9s-4.029 9-9 9-9-4.029-9-9c0-4.97 4.029-9 9-9zm4.364 6.045l-.92-.915c-.175-.175-.49-.171-.659 0l-2.948 2.929-1.621-1.61c-.175-.174-.483-.174-.659 0l-.919.913c-.088.085-.138.205-.138.329 0 .123.048.24.136.327l2.865 2.846c.088.088.205.136.33.136h.018c.122-.002.236-.05.322-.136l4.192-4.165c.182-.181.182-.475 0-.655z"/></svg>