<svg xmlns="http://www.w3.org/2000/svg" width="24" height="24" viewBox="0 0 24 24">
  <path fill="#000000" fill-rule="evenodd" d="M20.09775,6.31775 L19.1635,7.252 L17.97375,8.44175 C17.3435,8.482 16.69975,8.2635 16.218,7.78175 C15.73625,7.3 15.518,6.65625 15.558,6.026 L16.74775,4.83625 L17.682,3.902 L18.6485,2.9355 C18.71125,2.87275 18.71125,2.77075 18.6485,2.70775 C18.599,2.6765 18.591,2.67275 18.582,2.67 C17.91275,2.37175 17.17475,2.2005 16.39475,2.2005 C13.41,2.2005 10.99025,4.62025 10.99025,7.605 C10.99025,8.175 11.07975,8.72375 11.24325,9.2395 L5.607,14.876 C3.72075,14.9065 2.20025,16.44275 2.20025,18.3365 C2.20025,20.249 3.751,21.79975 5.6635,21.79975 C7.557,21.79975 9.0935,20.279 9.124,18.39275 L14.7605,12.75625 C15.27625,12.91975 15.82525,13.00925 16.39525,13.00925 C19.38,13.00925 21.79975,10.5895 21.79975,7.60475 C21.79975,6.82525 21.62825,6.08825 21.3305,5.41925 C21.30475,5.36925 21.3005,5.359 21.29225,5.35075 C21.229,5.28825 21.12725,5.28825 21.06425,5.35125 L20.09775,6.31775 Z M7.0945,18.3365 C7.0945,19.12675 6.45375,19.7675 5.6635,19.7675 C4.87325,19.7675 4.2325,19.12675 4.2325,18.3365 C4.2325,17.546 4.87325,16.90525 5.6635,16.90525 C6.45375,16.90525 7.0945,17.546 7.0945,18.3365 L7.0945,18.3365 Z"/>
</svg>
