<svg xmlns="http://www.w3.org/2000/svg" xmlns:xlink="http://www.w3.org/1999/xlink" width="24" height="24" viewBox="0 0 24 24">
  <defs>
    <path id="a" d="M9,4 L4.4963932,4 C4.22618103,4 4,4.22650465 4,4.5059123 L4,5.9940877 C4,6.26928711 4.22224281,6.5 4.4963932,6.5 L19.5036068,6.5 C19.773819,6.5 20,6.27349535 20,5.9940877 L20,4.5059123 C20,4.23071289 19.7777572,4 19.5036068,4 L15,4 L15,3.50468445 C15,3.21403503 14.7801695,3 14.5089948,3 L9.49100518,3 C9.22788048,3 9,3.22595492 9,3.50468445 L9,4 Z M19,7 L19,19.0059397 C19,20.1072288 18.1029399,21 16.9941413,21 L7.00585866,21 C5.89805351,21 5,20.1054862 5,19.0059397 L5,6.99703014 L5,7 L19,7 Z M8.5,10.7526206 L8.5,17.2473794 C8.5,17.65625 8.83578644,18 9.25,18 C9.66710138,18 10,17.6630403 10,17.2473794 L10,10.7526206 C10,10.34375 9.66421356,10 9.25,10 C8.83289862,10 8.5,10.3369597 8.5,10.7526206 Z M11.5,10.7526206 L11.5,17.2473794 C11.5,17.65625 11.8357864,18 12.25,18 C12.6671014,18 13,17.6630403 13,17.2473794 L13,10.7526206 C13,10.34375 12.6642136,10 12.25,10 C11.8328986,10 11.5,10.3369597 11.5,10.7526206 Z M14.5,10.7526206 L14.5,17.2473794 C14.5,17.65625 14.8357864,18 15.25,18 C15.6671014,18 16,17.6630403 16,17.2473794 L16,10.7526206 C16,10.34375 15.6642136,10 15.25,10 C14.8328986,10 14.5,10.3369597 14.5,10.7526206 Z"/>
  </defs>
  <g fill="none" fill-rule="evenodd">
    <use fill="#000000" xlink:href="#a"/>
  </g>
</svg>
