<svg xmlns="http://www.w3.org/2000/svg" width="24" height="24" viewBox="0 0 24 24">
  <path fill="#000000" fill-rule="evenodd" d="M3,18.0068044 L3,15.9009091 C3,15.4184545 3.25591103,14.9864545 3.64518415,14.807 L8.12792471,12.7533636 L9.65708708,12.0529863 C8.65313088,11.1445958 8,9.6676397 8,8 C8,5.23857625 9.790861,3 12,3 C14.209139,3 16,5.23857625 16,8 C16,9.63999858 15.368341,11.0955823 14.3925441,12.0073497 L16.0201322,12.7710909 L20.3620246,14.8083636 C20.7476934,14.9919091 20.9994455,15.4198182 21,15.9006364 L21,18.0068044 L21,18.9951185 C21,20.102384 20.1073772,21 19.0049107,21 L4.99508929,21 C3.8932319,21 3,20.1061002 3,18.9951185 L3,18.0068044 Z"/>
</svg>
