<svg xmlns="http://www.w3.org/2000/svg" width="24" height="24"><path fill-rule="evenodd" d="M3 12.06c0-.055.031-.1.075-.126l-.004-.006L6.3 10.064a.147.147 0 0 1 .253.103v3.786a.147.147 0 0 1-.25.101l-3.216-1.856.001-.003A.147.147 0 0 1 3 12.06zM3.5 3h17a.5.5 0 0 1 .5.5v2a.5.5 0 0 1-.5.5h-17a.5.5 0 0 1-.5-.5v-2a.5.5 0 0 1 .5-.5zm6 5h11a.5.5 0 0 1 .5.5v2a.5.5 0 0 1-.5.5h-11a.5.5 0 0 1-.5-.5v-2a.5.5 0 0 1 .5-.5zm0 5h11a.5.5 0 0 1 .5.5v2a.5.5 0 0 1-.5.5h-11a.5.5 0 0 1-.5-.5v-2a.5.5 0 0 1 .5-.5zm-6 5h17a.5.5 0 0 1 .5.5v2a.5.5 0 0 1-.5.5h-17a.5.5 0 0 1-.5-.5v-2a.5.5 0 0 1 .5-.5z"/></svg>