<svg xmlns="http://www.w3.org/2000/svg" xmlns:xlink="http://www.w3.org/1999/xlink" width="24" height="24" viewBox="0 0 24 24">
  <defs>
    <path id="a" d="M18,19 L18,14.5 C18,14.2238576 18.2238576,14 18.5,14 L19.5,14 C19.7761424,14 20,14.2238576 20,14.5 L20,19 C20,20.1045695 19.1045695,21 18,21 L6,21 C4.8954305,21 4,20.1045695 4,19 L4,14.5 C4,14.2238576 4.22385763,14 4.5,14 L4.5,14 L5.5,14 L5.5,14 C5.77614237,14 6,14.2238576 6,14.5 L6,19 L18,19 Z M9.0950522,11.3463027 L6.53056538,11.3463027 C6.33243728,11.3463027 6.14934225,11.2538878 6.05875839,11.1051472 C5.96856,10.9560693 5.98282214,10.777648 6.09730471,10.6417241 L11.549682,4.18820242 C11.6499024,4.06981703 11.8094842,4 11.9821717,4 C12.1525465,4 12.314441,4.06981703 12.4135051,4.18651602 L17.901345,10.6413868 C18.0165985,10.7773108 18.0324025,10.955732 17.9406622,11.1048099 C17.8500784,11.2522014 17.6681397,11.3463027 17.4700116,11.3463027 L14.9035975,11.3463027 L14.9035975,16.1434768 C14.9035975,16.3913778 14.6669231,16.5907105 14.3732001,16.5907105 L9.62544959,16.5907105 C9.33288301,16.5907105 9.0950522,16.3913778 9.0950522,16.1434768 L9.0950522,11.3463027 Z"/>
  </defs>
  <g fill="none" fill-rule="evenodd">
    <use fill="#000000" xlink:href="#a"/>
  </g>
</svg>
