<svg xmlns="http://www.w3.org/2000/svg" xmlns:xlink="http://www.w3.org/1999/xlink" width="24" height="24" viewBox="0 0 24 24">
  <defs>
    <path id="a" d="M16.4072857,6.28383669 L18.1393365,7.28383669 C19.0959217,7.83612144 19.4236721,9.05930226 18.8713873,10.0158875 L13.8713873,18.6761415 C13.3191026,19.6327268 12.0959217,19.9604771 11.1393365,19.4081923 L9.40728569,18.4081923 L7.90728569,21.0062686 C7.63114331,21.4845612 7.01955291,21.6484363 6.54126028,21.372294 C6.06296766,21.0961516 5.89909251,20.4845612 6.17523488,20.0062686 L7.67523488,17.4081923 L5.94318407,16.4081923 C4.98659883,15.8559076 4.65884852,14.6327268 5.21113327,13.6761415 L10.2111333,5.0158875 C10.763418,4.05930226 11.9865988,3.73155194 12.9431841,4.28383669 L14.6752349,5.28383669 L16.1752349,2.68576048 C16.4513773,2.20746786 17.0629677,2.0435927 17.5412603,2.31973508 C18.0195529,2.59587745 18.1834281,3.20746786 17.9072857,3.68576048 L16.4072857,6.28383669 Z M15.4072857,8.0158875 L14.9072857,8.88191291 C14.6311433,9.36020553 14.0195529,9.52408068 13.5412603,9.24793831 C13.0629677,8.97179593 12.8990925,8.36020553 13.1752349,7.88191291 L13.6752349,7.0158875 L12.3761968,6.2658875 C12.1370505,6.12781631 11.8312553,6.20975389 11.6931841,6.4489002 L7.19318407,14.2431288 C7.05511289,14.4822751 7.13705046,14.7880704 7.37619678,14.9261415 L8.67523488,15.6761415 L9.17523488,14.8101161 C9.45137726,14.3318235 10.0629677,14.1679484 10.5412603,14.4440907 C11.0195529,14.7202331 11.1834281,15.3318235 10.9072857,15.8101161 L10.4072857,16.6761415 L11.7063238,17.4261415 C11.9454701,17.5642127 12.2512653,17.4822751 12.3893365,17.2431288 L16.8893365,9.4489002 C17.0274077,9.20975389 16.9454701,8.90395869 16.7063238,8.7658875 L15.4072857,8.0158875 L15.4072857,8.0158875 Z M8.71113327,7.61396371 L6.75013472,11.0105128 C7.1928701,10.595127 7.62194727,10.5073552 8.03736622,10.7471974 C8.45278518,10.9870397 8.60105828,11.4081448 8.48218553,12.0105128 L10.4431841,8.61396371 C9.9956358,9.18423345 9.52239951,9.32534127 9.02347521,9.03728719 C8.5245509,8.7492331 8.42043692,8.27479195 8.71113327,7.61396371 Z M15.6393365,11.6139637 L13.678338,15.0105128 C14.1210733,14.595127 14.5501505,14.5073552 14.9655695,14.7471974 C15.3809884,14.9870397 15.5292615,15.4081448 15.4103888,16.0105128 L17.3713873,12.6139637 C16.923839,13.1842334 16.4506027,13.3253413 15.9516784,13.0372872 C15.4527541,12.7492331 15.3486401,12.2747919 15.6393365,11.6139637 Z M20.1034381,13.2479383 C20.2415093,13.4870846 20.1595717,13.7928798 19.9204254,13.930951 L19.0544,14.430951 C18.8152537,14.5690222 18.5094585,14.4870846 18.3713873,14.2479383 C18.2333161,14.008792 18.3152537,13.7029968 18.5544,13.5649256 L19.4204254,13.0649256 C19.6595717,12.9268544 19.9653669,13.008792 20.1034381,13.2479383 Z M17.2374127,16.2120399 C17.5135551,16.2120399 17.7374127,16.4358975 17.7374127,16.7120399 L17.7374127,17.7120399 C17.7374127,17.9881823 17.5135551,18.2120399 17.2374127,18.2120399 C16.9612703,18.2120399 16.7374127,17.9881823 16.7374127,17.7120399 L16.7374127,16.7120399 C16.7374127,16.4358975 16.9612703,16.2120399 17.2374127,16.2120399 Z M19.9694635,16.4799891 C19.8313923,16.7191354 19.5255971,16.801073 19.2864508,16.6630018 L18.4204254,16.1630018 C18.1812791,16.0249306 18.0993415,15.7191354 18.2374127,15.4799891 C18.3754839,15.2408428 18.6812791,15.1589052 18.9204254,15.2969764 L19.7864508,15.7969764 C20.0255971,15.9350476 20.1075347,16.2408428 19.9694635,16.4799891 Z M7.3294911,5.87289657 C7.60563348,5.87289657 7.8294911,6.09675419 7.8294911,6.37289657 L7.8294911,7.37289657 C7.8294911,7.64903894 7.60563348,7.87289657 7.3294911,7.87289657 C7.05334873,7.87289657 6.8294911,7.64903894 6.8294911,7.37289657 L6.8294911,6.37289657 C6.8294911,6.09675419 7.05334873,5.87289657 7.3294911,5.87289657 Z M6.19551651,9.83699818 C6.33358769,10.0761445 6.25165012,10.3819397 6.0125038,10.5200109 L5.1464784,11.0200109 C4.90733209,11.1580821 4.60153689,11.0761445 4.4634657,10.8369982 C4.32539451,10.5978519 4.40733209,10.2920567 4.6464784,10.1539855 L5.5125038,9.65398548 C5.75165012,9.51591429 6.05744532,9.59785187 6.19551651,9.83699818 Z M6.3294911,8.60494737 C6.19141992,8.84409369 5.88562471,8.92603126 5.6464784,8.78796008 L4.780453,8.28796008 C4.54130669,8.14988889 4.45936911,7.84409369 4.5974403,7.60494737 C4.73551148,7.36580106 5.04130669,7.28386348 5.280453,7.42193467 L6.1464784,7.92193467 C6.38562471,8.06000586 6.46756229,8.36580106 6.3294911,8.60494737 Z"/>
  </defs>
  <g fill="none" fill-rule="evenodd">
    <use fill="#000000" xlink:href="#a"/>
  </g>
</svg>
