<svg xmlns="http://www.w3.org/2000/svg" xmlns:xlink="http://www.w3.org/1999/xlink" width="24" height="24" viewBox="0 0 24 24">
  <defs>
    <path id="a" d="M6,20 L18,20 L18,21 L6,21 L6,20 Z M18,12.7583562 C18,14.665215 17.4679856,16.0821871 16.4039409,17.0093151 C15.3398962,17.936443 13.8686465,18.4 11.9901478,18.4 C10.0853764,18.4 8.61084266,17.9397306 7.56650246,17.0191781 C6.52216227,16.0986255 6,14.6783658 6,12.7583562 L6,4 L9.09359606,4 L9.09359606,12.7583562 C9.09359606,13.1397279 9.12643645,13.5145187 9.19211823,13.8827397 C9.2578,14.2509607 9.39572966,14.5764369 9.60591133,14.8591781 C9.816093,15.1419192 10.1083725,15.3720539 10.4827586,15.549589 C10.8571447,15.7271242 11.3596028,15.8158904 11.9901478,15.8158904 C13.0936016,15.8158904 13.8554987,15.5693175 14.2758621,15.0761644 C14.6962254,14.5830112 14.9064039,13.8104162 14.9064039,12.7583562 L14.9064039,4 L18,4 L18,12.7583562 Z"/>
  </defs>
  <g fill="none" fill-rule="evenodd">
    <use fill="#000000" xlink:href="#a"/>
  </g>
</svg>
